<svg width="32" height="32" viewBox="0 0 32 32" fill="none" xmlns="http://www.w3.org/2000/svg">
<path d="M18.6667 2.66797H8C7.29276 2.66797 6.61448 2.94892 6.11438 3.44902C5.61429 3.94911 5.33334 4.62739 5.33334 5.33464V26.668C5.33334 27.3752 5.61429 28.0535 6.11438 28.5536C6.61448 29.0537 7.29276 29.3346 8 29.3346H17.3333C16.7867 29.0013 16.2667 28.588 15.8133 28.1346C14.9756 27.364 14.2984 26.4355 13.8206 25.4023C13.3429 24.3692 13.074 23.2518 13.0294 22.1144C12.9848 20.977 13.1653 19.842 13.5607 18.7746C13.9561 17.7072 14.5585 16.7285 15.3333 15.8946C18.2533 12.668 23.1067 12.1746 26.6667 14.668V10.668L18.6667 2.66797ZM17.3333 12.0013V4.66797L24.6667 12.0013H17.3333ZM27.08 25.2013C28.8533 22.388 28 18.668 25.2133 16.908C22.4 15.1346 18.6667 16.0013 16.92 18.7746C15.1333 21.588 16 25.2946 18.7867 27.068C20.7333 28.308 23.2133 28.308 25.1733 27.0946L29.3333 31.188L31.1867 29.3346L27.08 25.2013ZM22 25.3346C21.1159 25.3346 20.2681 24.9834 19.643 24.3583C19.0179 23.7332 18.6667 22.8854 18.6667 22.0013C18.6667 21.1172 19.0179 20.2694 19.643 19.6443C20.2681 19.0192 21.1159 18.668 22 18.668C22.8841 18.668 23.7319 19.0192 24.357 19.6443C24.9821 20.2694 25.3333 21.1172 25.3333 22.0013C25.3333 22.8854 24.9821 23.7332 24.357 24.3583C23.7319 24.9834 22.8841 25.3346 22 25.3346Z" fill="white"/>
</svg>
