<svg width="32" height="32" viewBox="0 0 32 32" fill="none" xmlns="http://www.w3.org/2000/svg">
<path d="M18.6663 2.66797H7.99967C7.29243 2.66797 6.61415 2.94892 6.11406 3.44902C5.61396 3.94911 5.33301 4.62739 5.33301 5.33464V26.668C5.33301 27.3752 5.61396 28.0535 6.11406 28.5536C6.61415 29.0537 7.29243 29.3346 7.99967 29.3346H17.333C16.7863 29.0013 16.2663 28.588 15.813 28.1346C14.9753 27.364 14.2981 26.4355 13.8203 25.4023C13.3425 24.3692 13.0736 23.2518 13.029 22.1144C12.9844 20.977 13.165 19.842 13.5604 18.7746C13.9558 17.7072 14.5582 16.7285 15.333 15.8946C18.253 12.668 23.1063 12.1746 26.6663 14.668V10.668L18.6663 2.66797ZM17.333 12.0013V4.66797L24.6663 12.0013H17.333ZM27.0797 25.2013C28.853 22.388 27.9997 18.668 25.213 16.908C22.3997 15.1346 18.6663 16.0013 16.9197 18.7746C15.133 21.588 15.9997 25.2946 18.7863 27.068C20.733 28.308 23.213 28.308 25.173 27.0946L29.333 31.188L31.1863 29.3346L27.0797 25.2013ZM21.9997 25.3346C21.1156 25.3346 20.2678 24.9834 19.6427 24.3583C19.0175 23.7332 18.6663 22.8854 18.6663 22.0013C18.6663 21.1172 19.0175 20.2694 19.6427 19.6443C20.2678 19.0192 21.1156 18.668 21.9997 18.668C22.8837 18.668 23.7316 19.0192 24.3567 19.6443C24.9818 20.2694 25.333 21.1172 25.333 22.0013C25.333 22.8854 24.9818 23.7332 24.3567 24.3583C23.7316 24.9834 22.8837 25.3346 21.9997 25.3346Z" fill="#1E7E65"/>
</svg>
