<svg width="20" height="20" viewBox="0 0 20 20" fill="none" xmlns="http://www.w3.org/2000/svg">
<path fill-rule="evenodd" clip-rule="evenodd" d="M9.64287 0C8.52669 0 7.45622 0.443402 6.66697 1.23266C5.8777 2.02192 5.4343 3.09239 5.4343 4.20857V9.10143C5.4343 9.65411 5.54316 10.2014 5.75466 10.712C5.96616 11.2226 6.27616 11.6865 6.66697 12.0773C7.05777 12.4681 7.52172 12.7781 8.03232 12.9896C8.54293 13.2011 9.0902 13.31 9.64287 13.31C10.1956 13.31 10.7428 13.2011 11.2534 12.9896C11.764 12.7781 12.228 12.4681 12.6188 12.0773C13.0096 11.6865 13.3196 11.2226 13.5311 10.712C13.7426 10.2014 13.8514 9.65411 13.8514 9.10143V4.20857C13.8514 3.09239 13.408 2.02192 12.6188 1.23266C11.8295 0.443402 10.7591 0 9.64287 0ZM8.57145 17.1543V18.8857C8.57145 19.1699 8.68433 19.4424 8.88526 19.6433C9.08619 19.8443 9.35871 19.9571 9.64287 19.9571C9.92703 19.9571 10.1996 19.8443 10.4005 19.6433C10.6014 19.4424 10.7143 19.1699 10.7143 18.8857V17.1529C12.6394 17.0611 14.4553 16.2317 15.7852 14.8369C17.1152 13.442 17.8571 11.5887 17.8572 9.66143C17.8572 9.37727 17.7443 9.10475 17.5433 8.90381C17.3424 8.70288 17.0699 8.59 16.7857 8.59C16.5016 8.59 16.229 8.70288 16.0281 8.90381C15.8272 9.10475 15.7143 9.37727 15.7143 9.66143C15.7143 11.0822 15.1499 12.4448 14.1452 13.4495C13.1406 14.4542 11.778 15.0186 10.3572 15.0186H8.92859C7.50779 15.0186 6.14518 14.4542 5.14052 13.4495C4.13586 12.4448 3.57145 11.0822 3.57145 9.66143C3.57145 9.52073 3.54373 9.3814 3.48989 9.25141C3.43604 9.12142 3.35712 9.00331 3.25763 8.90381C3.15814 8.80432 3.04003 8.7254 2.91004 8.67156C2.78004 8.61771 2.64072 8.59 2.50002 8.59C2.35932 8.59 2.21999 8.61771 2.09 8.67156C1.96001 8.7254 1.84189 8.80432 1.7424 8.90381C1.64291 9.00331 1.56399 9.12142 1.51015 9.25141C1.4563 9.3814 1.42859 9.52073 1.42859 9.66143C1.42824 11.589 2.17002 13.4426 3.50002 14.8378C4.83001 16.233 6.6461 17.0625 8.57145 17.1543Z" fill="white"/>
</svg>
