<svg width="172" height="171" viewBox="0 0 172 171" fill="none" xmlns="http://www.w3.org/2000/svg">
<path d="M171.5 0H0.5V171H171.5V0Z" fill="#FDB714"/>
<path d="M23.4117 19.6056H14.5336V14.8633H29.4775V19.0542L22.5845 47.6185H16.436L23.4117 19.6056Z" fill="white"/>
<path d="M45.2498 14.8301H47.6761L50.1576 27.2925H48.0621L47.5658 24.5353H45.3877L44.8914 27.2925H42.7408L45.2498 14.8301ZM47.3177 22.9637L46.463 17.7527L45.6358 22.9637H47.3177Z" fill="white"/>
<path d="M51.0931 14.8301H56.2215V16.2914H53.4643V19.9309H55.8079V21.5024H53.4643V27.3201H51.2034L51.0931 14.8301Z" fill="white"/>
<path d="M57.1621 14.8301H62.2905V16.2914H59.5333V19.9309H61.8769V21.5024H59.5333V27.3201H57.2724L57.1621 14.8301Z" fill="white"/>
<path d="M63.8335 26.4438C63.221 25.5459 62.9295 24.4676 63.0064 23.3834V18.7237C62.9289 17.6567 63.221 16.5955 63.8335 15.7184C64.1859 15.3507 64.6172 15.0679 65.0948 14.8912C65.5724 14.7145 66.0839 14.6485 66.5907 14.6982C67.0978 14.6443 67.6105 14.7083 68.0888 14.8853C68.5671 15.0623 68.998 15.3474 69.3479 15.7184C69.9702 16.5919 70.2721 17.6535 70.2026 18.7237V23.3834C70.2673 24.4617 69.9661 25.5303 69.3479 26.4162C69.0033 26.7957 68.574 27.0884 68.0948 27.2705C67.6157 27.4526 67.1003 27.5189 66.5907 27.464C66.0839 27.5137 65.5724 27.4478 65.0948 27.271C64.6172 27.0943 64.1859 26.8115 63.8335 26.4438ZM67.6109 25.3134C67.8204 24.8854 67.9153 24.4104 67.8866 23.9348V18.1999C67.9136 17.7272 67.8286 17.2549 67.6384 16.8213C67.5215 16.6567 67.3627 16.5265 67.1785 16.444C66.9942 16.3616 66.7913 16.33 66.5907 16.3526C66.394 16.3291 66.1946 16.3605 66.0146 16.4432C65.8346 16.5259 65.6809 16.6568 65.5705 16.8213C65.3833 17.2557 65.2984 17.7274 65.3224 18.1999V23.9348C65.2954 24.4075 65.3804 24.8798 65.5705 25.3134C65.675 25.4853 65.8267 25.6235 66.0076 25.7116C66.1886 25.7996 66.391 25.8336 66.5907 25.8097C66.7908 25.8372 66.9945 25.8047 67.1761 25.7164C67.3577 25.628 67.509 25.4878 67.6109 25.3134Z" fill="white"/>
<path d="M71.578 14.8328H74.5833C75.6211 14.7582 76.6553 15.0192 77.5335 15.5772C77.8808 15.9016 78.1486 16.3017 78.3159 16.7464C78.4833 17.1912 78.5458 17.6685 78.4985 18.1414C78.5294 18.8038 78.4067 19.4643 78.1401 20.0714C77.8968 20.5744 77.4737 20.9679 76.9545 21.1743L78.6915 27.2952H76.4031L74.9142 21.5879H73.8389V27.3228H71.578V14.8328ZM74.5558 20.1817C74.8035 20.2064 75.0537 20.18 75.2908 20.1041C75.5279 20.0282 75.747 19.9045 75.9343 19.7406C76.2453 19.32 76.3924 18.8004 76.3479 18.2793C76.3992 17.7742 76.2724 17.267 75.9895 16.8455C75.8233 16.6741 75.6202 16.5428 75.3957 16.4616C75.1711 16.3804 74.931 16.3513 74.6936 16.3768H73.8389V20.1817H74.5558Z" fill="white"/>
<path d="M79.8496 14.8363H82.7998C83.611 14.7978 84.4207 14.939 85.171 15.2498C85.7145 15.4997 86.1465 15.9416 86.3841 16.4906C86.6566 17.2023 86.7787 17.9627 86.7425 18.7239V23.2456C86.7741 24.0336 86.6523 24.8201 86.3841 25.5617C86.1579 26.1314 85.7245 26.5943 85.171 26.8575C84.4556 27.1894 83.6699 27.3409 82.8825 27.2987H79.8496V14.8363ZM82.8274 25.7271C83.2153 25.7594 83.6031 25.6624 83.9302 25.4514C84.1559 25.2752 84.3042 25.0181 84.3438 24.7345C84.3811 24.2665 84.3811 23.7963 84.3438 23.3284V18.5585C84.38 18.1365 84.38 17.7121 84.3438 17.2901C84.3132 17.158 84.2557 17.0336 84.1751 16.9245C84.0945 16.8154 83.9924 16.7241 83.8751 16.656C83.5396 16.499 83.1689 16.4324 82.7998 16.463H82.1105V25.7271H82.8274Z" fill="white"/>
<path d="M89.8325 14.8301H92.2588L94.7679 27.2925H92.6448L92.1761 24.5353H89.998L89.4741 27.2925H87.3511L89.8325 14.8301ZM91.928 22.9637L91.0733 17.7527L90.2185 22.9637H91.928Z" fill="white"/>
<path d="M95.7034 14.8307H98.7914C99.7639 14.7644 100.732 15.016 101.549 15.5476C101.888 15.8409 102.151 16.2128 102.315 16.6308C102.478 17.0488 102.537 17.5004 102.486 17.9464C102.486 19.518 101.879 20.4003 100.694 20.7035C102.128 20.9793 102.844 21.9994 102.844 23.7916C102.889 24.2868 102.834 24.7859 102.682 25.2594C102.531 25.733 102.286 26.1714 101.962 26.5487C101.617 26.8714 101.208 27.1188 100.762 27.2754C100.316 27.432 99.8419 27.4944 99.3704 27.4586H95.7034V14.8307ZM98.7363 19.9315C98.9802 19.965 99.2285 19.9427 99.4625 19.8663C99.6965 19.7899 99.9101 19.6613 100.087 19.4904C100.366 19.067 100.492 18.5614 100.446 18.0566C100.478 17.8189 100.452 17.5769 100.37 17.3512C100.289 17.1256 100.154 16.923 99.977 16.7608C99.5056 16.5023 98.9689 16.3873 98.433 16.4299H97.9643V19.9315H98.7363ZM98.7363 25.694C98.9863 25.7203 99.239 25.692 99.477 25.6111C99.7151 25.5301 99.9327 25.3985 100.115 25.2253C100.398 24.7518 100.532 24.2044 100.501 23.6537C100.549 23.0804 100.404 22.5075 100.087 22.027C99.9028 21.8379 99.6781 21.6926 99.43 21.602C99.1818 21.5113 98.9165 21.4775 98.6535 21.5031H97.854V25.694H98.7363Z" fill="white"/>
<path d="M103.975 14.8301H106.236V25.8588H109.269V27.3201H103.975V14.8301Z" fill="white"/>
<path d="M110.178 14.8301H115.39V16.4292H112.412V20.0136H114.728V21.6127H112.412V25.7485H115.39V27.3201H110.178V14.8301Z" fill="white"/>
<path d="M121.703 14.8301H124.13L126.722 27.3201H124.516L123.964 24.5629H121.786L121.262 27.3201H119.139L121.703 14.8301ZM123.799 22.9637L122.944 17.7527L122.089 22.9637H123.799Z" fill="white"/>
<path d="M127.578 14.8301H129.15L132.183 21.9436V14.8301H134.085V27.3201H132.569L129.481 19.8481V27.3201H127.551L127.578 14.8301Z" fill="white"/>
<path d="M135.655 14.8363H138.606C139.417 14.7978 140.226 14.939 140.977 15.2498C141.514 15.5079 141.944 15.9472 142.19 16.4906C142.462 17.2023 142.584 17.9627 142.548 18.7239V23.2456C142.58 24.0336 142.458 24.8201 142.19 25.5617C141.964 26.1314 141.53 26.5943 140.977 26.8575C140.261 27.1894 139.476 27.3409 138.688 27.2987H135.655V14.8363ZM138.633 25.7271C139.013 25.7641 139.393 25.6665 139.708 25.4514C139.828 25.3689 139.928 25.2626 140.004 25.1392C140.08 25.0158 140.13 24.878 140.15 24.7345C140.187 24.2665 140.187 23.7963 140.15 23.3284V18.5585C140.202 18.1373 140.202 17.7113 140.15 17.2901C140.124 17.1598 140.071 17.0361 139.995 16.927C139.919 16.8179 139.822 16.7256 139.708 16.656C139.372 16.5025 139.002 16.4361 138.633 16.463H137.944V25.7271H138.633Z" fill="white"/>
<path d="M44.0088 46.7629C43.4294 45.841 43.1501 44.7621 43.2092 43.6748V39.2358C43.1386 38.1388 43.4186 37.0477 44.0088 36.1202C44.7395 35.4673 45.6783 35.095 46.6579 35.0697C47.6376 35.0445 48.5943 35.3679 49.3577 35.9823C49.9442 36.7757 50.219 37.7569 50.1297 38.7395V39.7873H47.9515V38.712C47.9707 38.363 47.9707 38.0132 47.9515 37.6642C47.9091 37.4318 47.7931 37.2192 47.6207 37.0576C47.3971 36.873 47.1099 36.7839 46.8211 36.8095C46.5246 36.7905 46.231 36.8785 45.9939 37.0576C45.8053 37.2442 45.6799 37.4853 45.6355 37.7469C45.6004 38.1137 45.6004 38.483 45.6355 38.8498V44.3641C45.5953 44.8849 45.6903 45.4073 45.9112 45.8806C46.0213 46.0386 46.1709 46.165 46.3451 46.2472C46.5192 46.3295 46.7118 46.3646 46.9038 46.3493C47.192 46.3692 47.4771 46.2807 47.7034 46.1012C47.8803 45.9239 47.9879 45.6892 48.0067 45.4395C48.0417 45.0819 48.0417 44.7217 48.0067 44.3641V43.2337H50.1848V44.2539C50.2371 45.2288 49.9763 46.1949 49.4404 47.011C49.099 47.3919 48.6683 47.6819 48.1871 47.8552C47.7058 48.0284 47.1891 48.0795 46.6832 48.0036C46.1712 48.022 45.6621 47.9192 45.1974 47.7036C44.7327 47.488 44.3254 47.1657 44.0088 46.7629Z" fill="white"/>
<path d="M51.3677 35.207H53.6286V46.0979H56.6615V47.6695H51.3677V35.207Z" fill="white"/>
<path d="M57.5444 35.207H62.7831V36.8062H59.8053V40.3905H62.1489V41.9621H59.8053V46.0979H62.8106V47.6695H57.5444V35.207Z" fill="white"/>
<path d="M65.7053 35.207H68.1316L70.613 47.6695H68.5176L68.0213 44.9123H65.8431L65.3468 47.6695H63.3065L65.7053 35.207ZM67.7731 43.3407L66.9184 38.1021L66.0637 43.3407H67.7731Z" fill="white"/>
<path d="M71.578 35.207H73.1772L76.2101 42.3205V35.207H78.0849V47.6695H76.5409L73.508 40.2251V47.6695H71.578V35.207Z" fill="white"/>
<path d="M83.0752 35.207H88.2863V36.8062H85.3637V40.3905H87.7073V41.9621H85.3637V46.0979H88.369V47.6695H83.0752V35.207Z" fill="white"/>
<path d="M89.3341 35.207H90.8781L93.911 42.3205V35.207H95.7859V47.6695H94.2694L91.2365 40.2251V47.6695H89.2789L89.3341 35.207Z" fill="white"/>
<path d="M97.4158 35.207H102.654V36.8062H99.7042V40.3905H101.91V41.9621H99.7042V46.0979H102.682V47.6695H97.4158V35.207Z" fill="white"/>
<path d="M103.7 35.2097H106.706C107.743 35.1352 108.778 35.3962 109.656 35.9542C110.003 36.2785 110.271 36.6786 110.438 37.1234C110.606 37.5681 110.668 38.0455 110.621 38.5183C110.649 39.1805 110.526 39.8404 110.262 40.4484C110.146 40.6974 109.981 40.9208 109.778 41.1054C109.574 41.29 109.336 41.4322 109.077 41.5237L110.814 47.6722H108.553L107.036 41.9648H105.961V47.6722H103.7V35.2097ZM106.706 40.5311C106.949 40.5606 107.197 40.5364 107.43 40.4602C107.663 40.384 107.877 40.2576 108.057 40.09C108.372 39.6717 108.52 39.1503 108.47 38.6287C108.517 38.1239 108.39 37.6183 108.112 37.1949C107.943 37.0284 107.739 36.9022 107.514 36.8258C107.29 36.7494 107.051 36.7248 106.816 36.7538H105.961V40.5311H106.706Z" fill="white"/>
<path d="M112.609 46.6194C112.038 45.6645 111.769 44.5592 111.837 43.4486V39.2577C111.766 38.1258 112.045 36.9993 112.637 36.0318C112.977 35.6456 113.405 35.3464 113.885 35.1593C114.365 34.9723 114.882 34.9027 115.394 34.9565C115.892 34.8906 116.399 34.9382 116.877 35.0958C117.354 35.2533 117.79 35.5168 118.151 35.8664C118.745 36.6571 119.03 37.6377 118.951 38.6236V39.2853H116.773V38.5684C116.807 38.2108 116.807 37.8507 116.773 37.4931C116.756 37.3733 116.716 37.2579 116.655 37.1537C116.593 37.0496 116.511 36.9587 116.414 36.8865C116.18 36.7255 115.898 36.6478 115.615 36.666C115.461 36.6511 115.306 36.6679 115.159 36.7153C115.012 36.7627 114.876 36.8398 114.76 36.9417C114.576 37.1426 114.452 37.3908 114.401 37.6585C114.368 38.0254 114.368 38.3946 114.401 38.7614V44C114.382 44.5375 114.476 45.0729 114.677 45.5716C114.787 45.7531 114.947 45.8991 115.138 45.992C115.328 46.0849 115.542 46.1208 115.752 46.0955C115.966 46.1147 116.18 46.0731 116.37 45.9755C116.56 45.8779 116.719 45.7283 116.828 45.5441C117.056 45.0236 117.16 44.4572 117.131 43.8897V42.7042H115.78V41.2704H119.171V47.6119H117.71L117.545 46.3988C117.387 46.8213 117.099 47.1827 116.722 47.4306C116.346 47.6785 115.9 47.7999 115.449 47.7774C114.915 47.8697 114.365 47.81 113.863 47.6053C113.361 47.4006 112.927 47.059 112.609 46.6194Z" fill="white"/>
<path d="M121.983 42.8995L119.446 35.207H121.569L123.113 40.1424L124.575 35.207H126.725L124.216 42.8995V47.6695H122.066L121.983 42.8995Z" fill="white"/>
<path d="M86.0832 83.2969C81.1044 83.2969 76.2375 84.7732 72.0978 87.5393C67.9581 90.3053 64.7316 94.2368 62.8264 98.8366C60.9211 103.436 60.4226 108.498 61.3939 113.381C62.3652 118.264 64.7627 122.749 68.2832 126.27C71.8037 129.79 76.2891 132.188 81.1722 133.159C86.0553 134.13 91.1167 133.632 95.7165 131.727C100.316 129.821 104.248 126.595 107.014 122.455C109.78 118.316 111.256 113.449 111.256 108.47C111.256 101.794 108.604 95.3907 103.883 90.6699C99.1623 85.949 92.7595 83.2969 86.0832 83.2969ZM84.2083 93.2503C84.2428 92.7747 84.4547 92.3294 84.8019 92.0026C85.1491 91.6758 85.6064 91.4913 86.0832 91.4857C86.5581 91.4975 87.0119 91.6841 87.3579 92.0096C87.7038 92.3352 87.9175 92.777 87.9581 93.2503V101.77C87.9175 102.243 87.7038 102.685 87.3579 103.011C87.0119 103.336 86.5581 103.523 86.0832 103.535C85.6083 103.523 85.1544 103.336 84.8085 103.011C84.4626 102.685 84.2489 102.243 84.2083 101.77V93.2503ZM86.0832 121.373C82.944 121.382 79.9061 120.263 77.5228 118.22C75.1394 116.177 73.5692 113.346 73.0982 110.242C72.6271 107.139 73.2865 103.969 74.9563 101.311C76.6261 98.6524 79.1951 96.6824 82.1956 95.7593V100.639C80.4676 101.511 79.084 102.94 78.2683 104.695C77.4527 106.45 77.2527 108.429 77.7006 110.311C78.1485 112.194 79.2182 113.871 80.7368 115.07C82.2553 116.27 84.1341 116.923 86.0694 116.923C88.0047 116.923 89.8834 116.27 91.402 115.07C92.9206 113.871 93.9903 112.194 94.4382 110.311C94.8861 108.429 94.6861 106.45 93.8704 104.695C93.0548 102.94 91.6712 101.511 89.9432 100.639V95.7593C92.9413 96.6817 95.5088 98.6495 97.1787 101.305C98.8486 103.96 99.5099 107.127 99.0425 110.228C98.5751 113.33 97.0099 116.161 94.6316 118.207C92.2533 120.252 89.22 121.376 86.0832 121.373Z" fill="white"/>
<path d="M57.161 108.251C57.1558 107.728 56.9548 107.225 56.5976 106.843C56.2404 106.46 55.7529 106.225 55.231 106.184H44.2023C43.6827 106.231 43.1987 106.468 42.8427 106.849C42.4868 107.231 42.2837 107.73 42.2723 108.251C42.2775 108.775 42.4785 109.277 42.8357 109.66C43.1929 110.043 43.6804 110.278 44.2023 110.319H55.231C55.7552 110.284 56.2464 110.051 56.6049 109.667C56.9633 109.283 57.1622 108.777 57.161 108.251Z" fill="white"/>
<path d="M129.896 108.251C129.884 107.73 129.681 107.231 129.325 106.849C128.969 106.468 128.485 106.231 127.965 106.184H116.937C116.388 106.184 115.862 106.401 115.475 106.789C115.087 107.177 114.869 107.703 114.869 108.251C114.869 108.8 115.087 109.326 115.475 109.714C115.862 110.101 116.388 110.319 116.937 110.319H127.965C128.487 110.278 128.975 110.043 129.332 109.66C129.689 109.277 129.89 108.775 129.896 108.251Z" fill="white"/>
<path d="M86.0801 152.059C86.6036 152.053 87.1061 151.852 87.4888 151.495C87.8715 151.138 88.1067 150.651 88.148 150.129V139.1C88.1007 138.58 87.8637 138.096 87.4823 137.74C87.1009 137.384 86.6017 137.181 86.0801 137.17C85.5566 137.175 85.0541 137.376 84.6714 137.733C84.2887 138.091 84.0535 138.578 84.0122 139.1V150.129C84.0472 150.653 84.2805 151.144 84.6645 151.503C85.0486 151.861 85.5547 152.06 86.0801 152.059Z" fill="white"/>
<path d="M124.105 130.003C124.367 129.545 124.444 129.005 124.321 128.493C124.198 127.98 123.885 127.534 123.444 127.245L113.876 121.731C113.405 121.507 112.866 121.47 112.368 121.627C111.871 121.783 111.451 122.123 111.192 122.576C110.934 123.03 110.857 123.564 110.976 124.072C111.096 124.58 111.403 125.024 111.836 125.315L121.403 130.83C121.886 131.061 122.438 131.101 122.95 130.943C123.461 130.785 123.893 130.439 124.161 129.975" fill="white"/>
<path d="M64.3291 146.264C64.7833 146.528 65.321 146.61 65.8332 146.492C66.3453 146.374 66.7933 146.066 67.0863 145.629L72.6007 136.062C72.8749 135.587 72.9491 135.022 72.8069 134.492C72.6647 133.962 72.3178 133.51 71.8424 133.236C71.3671 132.962 70.8024 132.887 70.2724 133.03C69.7424 133.172 69.2906 133.519 69.0163 133.994L63.502 143.562C63.2639 144.043 63.2198 144.598 63.3789 145.111C63.5379 145.624 63.888 146.056 64.3567 146.319" fill="white"/>
<path d="M107.922 146.245C108.386 145.978 108.73 145.544 108.884 145.031C109.037 144.519 108.989 143.966 108.749 143.488L103.234 133.921C102.933 133.495 102.488 133.193 101.98 133.071C101.473 132.949 100.939 133.016 100.477 133.259C100.023 133.535 99.6888 133.971 99.5408 134.482C99.3928 134.992 99.4416 135.54 99.6777 136.016L105.192 145.556C105.489 145.987 105.935 146.293 106.444 146.415C106.953 146.537 107.489 146.467 107.949 146.218" fill="white"/>
<path d="M48.0893 130.107C48.3608 130.566 48.7971 130.905 49.3095 131.053C49.8218 131.202 50.3715 131.149 50.8465 130.907L60.4139 125.392C60.8892 125.118 61.2361 124.666 61.3783 124.136C61.5205 123.606 61.4463 123.042 61.1721 122.566C60.8979 122.091 60.4461 121.744 59.9161 121.602C59.3861 121.46 58.8213 121.534 58.346 121.808L48.8062 127.322C48.3849 127.627 48.0866 128.073 47.9652 128.579C47.8439 129.084 47.9074 129.617 48.1444 130.08" fill="white"/>
<path d="M86.0801 79.3469C86.6017 79.3355 87.1009 79.1325 87.4823 78.7765C87.8637 78.4205 88.1007 77.9365 88.148 77.4169V66.3882C88.148 65.8398 87.9301 65.3138 87.5423 64.926C87.1545 64.5382 86.6285 64.3203 86.0801 64.3203C85.5317 64.3203 85.0057 64.5382 84.6179 64.926C84.2301 65.3138 84.0122 65.8398 84.0122 66.3882V77.4169C84.0535 77.9388 84.2887 78.4263 84.6714 78.7834C85.0541 79.1406 85.5566 79.3417 86.0801 79.3469Z" fill="white"/>
<path d="M60.9919 93.8795C61.2471 93.4206 61.3208 92.8826 61.1982 92.372C61.0757 91.8614 60.7659 91.4154 60.3302 91.1223L50.7628 85.608C50.2914 85.3842 49.7527 85.3469 49.255 85.5037C48.7572 85.6604 48.3371 85.9996 48.0789 86.4531C47.8208 86.9066 47.7436 87.441 47.863 87.949C47.9823 88.4571 48.2894 88.9012 48.7225 89.1923L58.2899 94.7067C58.7726 94.938 59.3248 94.9785 59.8361 94.82C60.3473 94.6615 60.7799 94.3157 61.0471 93.8519" fill="white"/>
<path d="M100.449 83.16C100.902 83.4312 101.442 83.5166 101.956 83.3984C102.47 83.2802 102.918 82.9675 103.207 82.5259L108.721 72.9585C108.857 72.7231 108.945 72.4633 108.98 72.1939C109.016 71.9245 108.998 71.6508 108.927 71.3884C108.857 71.1259 108.735 70.88 108.57 70.6644C108.404 70.4489 108.198 70.2681 107.963 70.1323C107.727 69.9965 107.468 69.9085 107.198 69.8731C106.929 69.8377 106.655 69.8557 106.393 69.9261C106.13 69.9965 105.884 70.118 105.669 70.2834C105.453 70.4489 105.272 70.6552 105.137 70.8906L99.6222 80.458C99.3909 80.9407 99.3504 81.4929 99.5089 82.0042C99.6674 82.5154 100.013 82.948 100.477 83.2152" fill="white"/>
<path d="M71.5786 83.1859C72.0425 82.9189 72.3867 82.4846 72.5405 81.9719C72.6943 81.4592 72.6461 80.907 72.4058 80.4287L66.8914 70.8889C66.6003 70.4558 66.1562 70.1488 65.6481 70.0294C65.1401 69.9101 64.6057 69.9872 64.1522 70.2454C63.6987 70.5035 63.3595 70.9236 63.2028 71.4214C63.046 71.9192 63.0833 72.4578 63.3071 72.9292L68.8214 82.4691C69.1187 82.9001 69.5665 83.2043 70.0768 83.3217C70.5871 83.439 71.1229 83.3611 71.5786 83.1032" fill="white"/>
<path d="M111.144 93.858C111.415 94.317 111.85 94.657 112.361 94.8102C112.872 94.9635 113.421 94.9188 113.901 94.6851L123.441 89.1708C123.874 88.8797 124.181 88.4356 124.3 87.9275C124.42 87.4195 124.342 86.8852 124.084 86.4316C123.826 85.9781 123.406 85.6389 122.908 85.4822C122.41 85.3255 121.872 85.3627 121.4 85.5865L111.833 91.1008C111.402 91.3981 111.098 91.8459 110.98 92.3562C110.863 92.8665 110.941 93.4023 111.199 93.858" fill="white"/>
</svg>
