<svg width="172" height="171" viewBox="0 0 172 171" fill="none" xmlns="http://www.w3.org/2000/svg">
<path d="M0.738428 0.000147592L0.5 170.762L171.262 171L171.5 0.238576L0.738428 0.000147592Z" fill="#48773C"/>
<path d="M15.6354 21.2748C14.7999 21.6581 13.9452 21.9981 13.0748 22.2936C11.9459 22.679 11.2301 22.9268 10.9272 23.0645V18.4114C12.0759 17.9627 13.1895 17.4289 14.2587 16.8144C15.2782 16.3078 16.2082 15.6382 17.0121 14.832H21.8855V47.459H15.6354V21.2748Z" fill="white"/>
<path d="M27.1446 45.4599C25.6694 43.3237 24.9521 40.755 25.1071 38.1636V37.0347H31.3021V38.1085C31.2428 39.3404 31.4494 40.5705 31.9079 41.7154C32.1098 42.0763 32.4129 42.3702 32.7798 42.561C33.1468 42.7518 33.5615 42.8311 33.9729 42.7892C34.3773 42.8387 34.787 42.7589 35.1432 42.561C35.4994 42.3631 35.7837 42.0574 35.9553 41.6879C36.3495 40.5283 36.5177 39.3039 36.4509 38.081C36.5413 36.7416 36.2753 35.4021 35.6799 34.1988C35.3772 33.7564 34.9635 33.4014 34.4802 33.1694C33.9969 32.9374 33.4611 32.8367 32.9266 32.8772H31.7977V28.3342H32.8165C33.3534 28.3901 33.896 28.3168 34.3989 28.1204C34.9018 27.9241 35.3505 27.6103 35.7075 27.2054C36.326 26.0691 36.6032 24.7784 36.5059 23.4883C36.5726 22.4283 36.3738 21.3685 35.9277 20.4046C35.7158 20.0563 35.409 19.7755 35.0433 19.5951C34.6776 19.4147 34.2681 19.3421 33.8627 19.3859C33.4666 19.3442 33.0673 19.4282 32.7215 19.6258C32.3756 19.8234 32.1006 20.1248 31.9354 20.4872C31.5176 21.5082 31.3205 22.606 31.3572 23.7086V25.1404H25.1071V23.3782C25.0306 22.1824 25.1906 20.9833 25.578 19.8494C25.9654 18.7155 26.5726 17.6691 27.3649 16.7702C28.2234 15.9628 29.2375 15.3389 30.3453 14.9365C31.453 14.5341 32.6311 14.3618 33.8077 14.4299C36.196 14.2884 38.5429 15.1004 40.3331 16.6876C41.1322 17.5608 41.7465 18.5865 42.1393 19.7032C42.532 20.8198 42.6949 22.0043 42.6183 23.1855C42.6799 24.8356 42.2692 26.469 41.4344 27.8937C41.1281 28.4745 40.7064 28.9866 40.195 29.3985C39.6837 29.8104 39.0935 30.1135 38.4608 30.2891C41.2141 31.3078 42.6183 33.8684 42.6183 37.9984C42.774 40.6238 42.0364 43.2245 40.5258 45.3773C39.716 46.3279 38.6924 47.0731 37.539 47.5517C36.3856 48.0303 35.1352 48.2287 33.8903 48.1307C32.6368 48.2282 31.3775 48.0384 30.2085 47.5756C29.0395 47.1128 27.9916 46.3891 27.1446 45.4599Z" fill="white"/>
<path d="M59.0008 27.4525C58.248 27.5053 57.4974 27.3225 56.8532 26.9294C56.3256 26.5757 55.9365 26.0504 55.7519 25.4426C55.5412 24.7466 55.439 24.0222 55.449 23.295V18.8621C55.4395 18.1079 55.5416 17.3563 55.7519 16.6319C55.9476 16.0444 56.3356 15.54 56.8532 15.2002C57.5027 14.8199 58.2493 14.638 59.0008 14.6771C59.6974 14.6508 60.3891 14.8024 61.0108 15.1176C61.492 15.4102 61.8605 15.8563 62.057 16.3841C62.2644 16.9958 62.3668 17.6381 62.3599 18.2839V19.3302H60.1848V18.2013C60.2009 17.8803 60.2009 17.5587 60.1848 17.2376C60.1576 16.9824 60.0517 16.7418 59.8819 16.5493C59.6346 16.38 59.3419 16.2895 59.0421 16.2895C58.7424 16.2895 58.4497 16.38 58.2024 16.5493C58.0118 16.7419 57.8948 16.9952 57.872 17.2652C57.8413 17.6041 57.8413 17.945 57.872 18.2839V23.7906C57.8225 24.156 57.8225 24.5265 57.872 24.8919C57.8892 25.0221 57.9322 25.1476 57.9984 25.261C58.0646 25.3745 58.1526 25.4736 58.2574 25.5527C58.4788 25.718 58.7531 25.7964 59.0284 25.773C59.3256 25.803 59.6227 25.7139 59.8544 25.5252C60.0108 25.3168 60.1061 25.0689 60.1297 24.8093C60.1604 24.4704 60.1604 24.1295 60.1297 23.7906V22.6893H62.3048V23.708C62.3117 24.3718 62.2094 25.0323 62.002 25.6629C61.8289 26.217 61.4689 26.6939 60.9832 27.012C60.3794 27.3486 59.6904 27.5017 59.0008 27.4525Z" fill="white"/>
<path d="M63.4879 27.2831V14.8105H65.7732V25.8239H68.7743V27.3933L63.4879 27.2831Z" fill="white"/>
<path d="M69.5484 27.2831V14.8105H71.8062V27.2831H69.5484Z" fill="white"/>
<path d="M73.1837 27.2831L73.404 14.8105H75.7443L77.534 23.456L79.3787 14.8105H81.6364L81.8842 27.2831H80.1772L80.012 18.6377L78.2223 27.2831H76.8732L75.056 18.5826L74.8908 27.2831H73.1837Z" fill="white"/>
<path d="M82.6268 27.2831L85.1323 14.8105H87.5552L90.0608 27.2831H87.9407L87.4451 24.5298H85.27L84.7744 27.2831H82.6268ZM85.3801 22.9604H87.0596L86.2336 17.7291L85.3801 22.9604Z" fill="white"/>
<path d="M91.5732 27.2831V16.4901H89.5908V14.8105H95.8133V16.4901H93.7758V27.2831H91.5732Z" fill="white"/>
<path d="M96.4203 27.2831V14.8105H101.652V16.435H98.6781V20.0143H101.018V21.5837H98.6781V25.7137H101.679V27.2831H96.4203Z" fill="white"/>
<path d="M55.0074 47.6542L57.4854 35.1816H59.9359L62.4139 47.6542H60.3213L59.8257 44.9009H57.6506L57.155 47.6542H55.0074ZM57.7607 43.3315H59.4678L58.6143 38.1002L57.7607 43.3315Z" fill="white"/>
<path d="M66.4381 47.8254C65.681 47.8838 64.926 47.6902 64.2905 47.2747C63.7679 46.928 63.3793 46.4131 63.1891 45.8155C62.9784 45.1194 62.8763 44.3951 62.8863 43.6679V39.235C62.8768 38.4807 62.9788 37.7292 63.1891 37.0048C63.3848 36.4173 63.7728 35.9129 64.2905 35.5731C64.9347 35.18 65.6852 34.9971 66.4381 35.0499C67.1357 35.0105 67.8308 35.1629 68.448 35.4905C68.9292 35.7831 69.2978 36.2293 69.4943 36.757C69.7027 37.3589 69.8052 37.9924 69.7971 38.6293V39.6756H67.622V38.6018C67.622 38.2714 67.622 37.941 67.622 37.6656C67.5948 37.4104 67.489 37.1698 67.3191 36.9773C67.2065 36.879 67.0755 36.804 66.9337 36.7568C66.7919 36.7095 66.6422 36.6909 66.4931 36.7019C66.1846 36.6866 65.881 36.7845 65.6396 36.9773C65.4545 37.1736 65.3384 37.4249 65.3092 37.6932C65.2786 38.0412 65.2786 38.3913 65.3092 38.7394V44.2461C65.2602 44.6208 65.2602 45.0002 65.3092 45.3749C65.3265 45.5051 65.3694 45.6306 65.4356 45.744C65.5018 45.8575 65.5898 45.9566 65.6947 46.0357C65.9218 46.1889 66.1918 46.2661 66.4656 46.256C66.615 46.2721 66.7661 46.2558 66.9086 46.2083C67.0511 46.1608 67.1818 46.0832 67.2916 45.9807C67.4536 45.7754 67.5496 45.5258 67.5669 45.2648C67.5976 44.9351 67.5976 44.6033 67.5669 44.2736V42.9795H69.7421V43.9983C69.7465 44.6619 69.6442 45.322 69.4392 45.9532C69.2647 46.4993 68.9042 46.967 68.4205 47.2747C67.8291 47.6514 67.1389 47.8431 66.4381 47.8254Z" fill="white"/>
<path d="M72.2998 47.6542V36.8612H70.3174V35.1816H76.54V36.8612H74.5851V47.6542H72.2998Z" fill="white"/>
<path d="M77.147 47.6542V35.1816H79.3772V47.6542H77.147Z" fill="white"/>
<path d="M84.2229 47.8207C83.4925 47.8573 82.7668 47.6854 82.1304 47.3251C81.6073 46.9969 81.2097 46.5023 81.0015 45.9209C80.7681 45.2105 80.6564 44.4658 80.6711 43.7182V39.0651C80.6535 38.3263 80.7653 37.5901 81.0015 36.8899C81.215 36.3187 81.612 35.8345 82.1304 35.5133C82.7745 35.1757 83.4964 35.0143 84.2229 35.0452C84.9673 35.0123 85.7074 35.1736 86.3705 35.5133C86.881 35.8434 87.2757 36.3247 87.4994 36.8899C87.7356 37.5901 87.8474 38.3263 87.8298 39.0651V43.7457C87.8453 44.4754 87.7335 45.2021 87.4994 45.8933C87.2966 46.4849 86.8985 46.9899 86.3705 47.3251C85.7153 47.6885 84.9711 47.8603 84.2229 47.8207ZM84.2229 46.1411C84.528 46.1643 84.8312 46.0763 85.0764 45.8933C85.2585 45.7133 85.3831 45.4834 85.4344 45.2326C85.464 44.912 85.464 44.5894 85.4344 44.2689V38.5419C85.4653 38.2307 85.4653 37.9171 85.4344 37.6058C85.3831 37.355 85.2585 37.125 85.0764 36.945C84.8312 36.762 84.528 36.674 84.2229 36.6972C83.9345 36.6717 83.6477 36.7607 83.4244 36.945C83.2336 37.1225 83.0995 37.3524 83.039 37.6058C83.0081 37.9171 83.0081 38.2307 83.039 38.5419V44.2689C83.0093 44.5894 83.0093 44.912 83.039 45.2326C83.0793 45.4873 83.2056 45.7204 83.3969 45.8933C83.6337 46.0722 83.9268 46.1601 84.2229 46.1411Z" fill="white"/>
<path d="M89.0423 47.6542V35.1816H90.6392L93.6679 42.2852V35.1816H95.5401V47.6542H94.0258L90.9971 40.2202V47.6818L89.0423 47.6542Z" fill="white"/>
<path d="M150.303 107.215C143.003 97.3743 133.504 89.377 122.564 83.8615C111.623 78.3461 99.5449 75.4653 87.2928 75.4493C75.0408 75.4332 62.9547 78.2824 51.9999 83.7691C41.0451 89.2559 31.525 97.2282 24.2 107.049L23.7044 107.738L24.2 108.454C31.4936 118.301 40.9898 126.305 51.9295 131.826C62.8692 137.347 74.9489 140.233 87.2029 140.251C99.4569 140.27 111.545 137.422 122.502 131.934C133.458 126.446 142.979 118.471 150.303 108.646C150.446 108.589 150.568 108.49 150.655 108.363C150.741 108.235 150.787 108.085 150.787 107.931C150.787 107.776 150.741 107.626 150.655 107.498C150.568 107.371 150.446 107.272 150.303 107.215ZM66.0506 91.4381C66.4086 90.9425 67.5374 89.5107 67.6751 89.318C68.026 88.9881 68.4876 88.8014 68.9692 88.7949C69.3546 88.7949 69.9053 88.9325 69.9604 89.2354C69.9961 89.8262 69.8725 90.4158 69.6024 90.9425C68.8648 91.6751 67.8866 92.1153 66.8491 92.1814C66.2434 92.1814 65.9956 91.6308 66.1057 91.4381M64.7566 94.1914V94.0262C65.3496 93.5483 66.0875 93.2862 66.8491 93.2828C67.5099 93.1451 68.391 93.503 68.4736 93.9436C68.5562 94.3841 66.8216 95.1551 66.4912 95.4579C65.5826 96.3115 64.1508 98.0185 63.3248 98.2113C63.1037 98.2987 62.8576 98.2987 62.6365 98.2113C63.1805 96.8432 63.8438 95.5257 64.6189 94.274M78.7986 123.514C78.5707 124.769 78.0096 125.938 77.1741 126.901C76.1898 127.801 74.9006 128.293 73.5672 128.278C72.3558 128.278 72.1906 124.974 72.1906 123.322C72.1906 122.743 71.3921 124.451 70.9791 121.009C70.7038 118.806 69.272 121.229 69.1894 119.742C69.1068 118.256 68.3634 118.586 67.6476 117.65C66.9317 116.714 65.968 117.65 64.8942 118.2C63.8204 118.751 64.2885 118.916 62.8017 118.448C61.4392 115.176 60.7374 111.667 60.7367 108.123C60.7367 107.215 60.7367 106.334 60.8744 105.37C60.9163 105.279 60.972 105.196 61.0396 105.122C62.4438 103.443 62.4162 103.057 62.4162 103.057L63.9581 102.534C65.4377 102.773 66.8934 103.141 68.3084 103.635C69.8502 104.214 72.2456 105.508 73.815 104.929C74.8338 104.516 75.6047 103.966 75.5221 103.112C75.4395 102.259 74.586 101.791 73.5672 102.506C73.1818 102.782 72.3833 100.91 71.7776 100.992C71.1718 101.075 72.5485 103.195 71.9978 103.277C71.4472 103.36 70.4009 101.102 70.2357 100.717C70.0705 100.331 69.217 99.4503 68.4736 100.139C66.9317 101.625 64.3711 101.515 63.8755 101.901C62.3061 103.057 61.9206 101.515 61.9482 100.579C61.9997 100.364 62.064 100.153 62.1409 99.9459C62.5687 99.6568 63.0602 99.4757 63.5733 99.4182C64.0864 99.3606 64.6058 99.4283 65.087 99.6155C65.7753 100.084 66.2709 99.6154 66.5462 99.23C66.8216 98.8445 66.7114 98.5141 66.5462 98.1562C66.381 97.7982 66.8766 97.4954 67.2346 97.4128C67.9316 97.066 68.6033 96.6704 69.2445 96.2289C70.561 95.8092 71.9754 95.8092 73.2919 96.2289C73.7374 96.4858 74.2604 96.5743 74.7657 96.4783C75.2709 96.3823 75.725 96.1082 76.0452 95.7057C76.5786 95.054 77.2331 94.5118 77.9726 94.1088C78.358 93.9161 77.0089 92.6771 75.9076 94.1088C74.8062 95.5406 74.2556 95.5681 73.76 95.5681C73.2644 95.5681 70.1806 94.8247 69.7952 93.8335C69.4097 92.8423 70.7588 92.1539 71.8877 91.6033C73.5334 91.2206 75.2108 90.9901 76.8988 90.9149C78.4957 90.557 80.5607 89.7585 81.607 90.4469C82.6532 91.1352 77.2842 92.3742 79.0188 93.2002C79.6521 93.5581 82.488 91.5757 83.4517 91.0801C85.737 89.8962 81.249 89.5107 81.8272 87.1153C82.4054 84.7199 76.3206 85.4633 73.2644 85.6836C77.4635 82.9882 82.3442 81.546 87.3339 81.5261C93.2895 81.5346 99.0691 83.5458 103.743 87.2363C108.418 90.9268 111.715 96.0821 113.105 101.873C113.152 102.285 113.152 102.701 113.105 103.112C112.984 103.414 112.78 103.675 112.517 103.867C112.254 104.058 111.943 104.172 111.618 104.195C111.294 104.218 110.97 104.149 110.682 103.997C110.395 103.844 110.157 103.614 109.994 103.332C109.719 102.947 108.59 101.873 108.617 103.718C108.645 105.563 110.407 105.728 108.617 106.829C107.796 107.408 106.855 107.794 105.864 107.958C105.389 108.328 105.016 108.813 104.78 109.367C104.544 109.921 104.453 110.526 104.515 111.124C104.707 112.143 107.103 114.896 105.313 114.786C103.654 113.976 102.238 112.741 101.211 111.207C100.66 109.748 100.054 108.288 99.6413 107.187C99.5873 106.919 99.464 106.669 99.2836 106.463C99.1033 106.257 98.8723 106.102 98.6134 106.013C98.3546 105.924 98.0769 105.904 97.8081 105.956C97.5392 106.007 97.2884 106.128 97.0807 106.306C96.1446 106.939 97.356 107.573 96.6677 109.059C95.9794 110.546 95.5113 111.648 94.5201 110.519C91.932 107.545 88.1599 109.004 87.5817 105.7C87.2513 103.911 85.7094 104.076 84.4429 102.947C83.1764 101.818 82.433 101.405 82.2127 102.121C81.9924 102.837 86.2601 106.141 86.563 106.994C87.0035 108.288 85.2689 109.417 84.0299 109.748C82.7909 110.078 82.2127 109.032 80.9737 107.738C79.7347 106.444 79.2116 105.535 79.129 106.554C79.1711 107.424 79.4113 108.273 79.8312 109.037C80.251 109.8 80.8396 110.458 81.5519 110.959C82.6257 111.62 83.8096 111.95 83.4792 113.052C83.1488 114.153 83.4792 113.52 82.2678 114.704C81.7544 115.052 81.3535 115.542 81.1139 116.114C80.8743 116.686 80.8065 117.315 80.9186 117.925C80.9186 119.605 80.5607 119.687 80.3129 121.064C80.0651 122.441 79.4318 121.257 78.9087 123.267M107.378 112.721C108.259 112.721 109.608 113.905 109.085 114.373C108.685 114.578 108.235 114.666 107.787 114.627C107.339 114.588 106.911 114.424 106.552 114.153C105.891 113.63 106.965 112.776 107.378 112.721ZM106.249 111.923C105.974 111.923 105.726 111.537 105.506 110.877C105.441 110.761 105.418 110.626 105.441 110.495C105.464 110.364 105.531 110.245 105.631 110.158C105.731 110.071 105.858 110.021 105.991 110.016C106.123 110.012 106.254 110.053 106.359 110.133C106.91 110.409 107.626 111.207 107.626 111.648C107.626 112.088 106.552 112.033 106.249 111.923ZM94.5476 111.923C94.1432 112.117 93.6931 112.197 93.2464 112.154C92.7997 112.11 92.3736 111.944 92.0146 111.675C91.3538 111.152 92.4551 110.298 92.8406 110.271C93.7216 110.271 95.0708 111.427 94.5476 111.923ZM83.6995 117.319C83.314 117.925 82.3228 122.386 81.662 121.862C81.0012 121.339 81.9374 116.686 82.1301 116.356C83.1764 114.456 85.4341 114.539 83.6995 117.347M87.2788 134.638C84.7534 134.634 82.2412 134.273 79.8173 133.564C79.6317 133.412 79.4996 133.204 79.4402 132.971C79.3808 132.738 79.3971 132.493 79.4869 132.27C79.9883 131.322 80.7366 130.527 81.6527 129.97C82.5687 129.413 83.6184 129.113 84.6907 129.104C88.9859 128.691 94.6302 131.857 95.5388 131.389C96.4474 130.921 98.2922 128.636 101.046 128.636C101.897 128.575 102.746 128.787 103.468 129.241C98.8551 132.786 93.2068 134.72 87.389 134.748M106.084 127.066C105.799 126.983 105.522 126.872 105.258 126.736C103.799 126.02 103.992 127.176 103.276 126.929C102.56 126.681 104.074 125.001 101.927 126.405C99.779 127.81 100.385 126.185 99.4486 123.817C99.151 122.703 99.2656 121.518 99.7714 120.481C100.277 119.444 101.14 118.625 102.202 118.173C103.769 117.615 105.381 117.191 107.02 116.906C110.214 116.108 110.875 114.153 111.453 115.365L111.784 115.998C112.03 116.534 112.161 117.115 112.169 117.705C110.826 121.221 108.752 124.411 106.084 127.066ZM113.38 113.685C112.665 113.492 109.691 109.362 112.031 106.664C112.444 106.223 111.26 104.902 111.591 104.874C112.137 104.841 112.676 105.016 113.1 105.363C113.524 105.71 113.801 106.204 113.876 106.747C113.876 107.242 113.876 107.765 113.876 108.261C113.881 110.111 113.697 111.956 113.325 113.768" fill="white"/>
</svg>
