<svg width="172" height="171" viewBox="0 0 172 171" fill="none" xmlns="http://www.w3.org/2000/svg">
<path d="M171.5 0H0.5V171H171.5V0Z" fill="#F99D25"/>
<path d="M15.4069 21.3041C15.1038 21.4695 14.2495 21.8002 12.8164 22.3238C11.3834 22.8474 10.9976 22.9576 10.6945 23.0679V18.4656C11.8295 17.9928 12.9339 17.4497 14.0014 16.8396C15.0264 16.3401 15.9584 15.6691 16.7573 14.8555H21.6352V47.4846H15.4069V21.3041Z" fill="white"/>
<path d="M29.1862 21.3041C28.883 21.4695 28.0287 21.8002 26.5957 22.3238C25.1626 22.8474 24.7768 22.9576 24.4737 23.0679V18.4656C25.6155 17.9881 26.7289 17.4452 27.8082 16.8396C28.8238 16.3245 29.7535 15.6552 30.5641 14.8555H35.4144V47.4846H29.1862V21.3041Z" fill="white"/>
<path d="M49.7756 27.3637C49.1135 27.3913 48.4564 27.2389 47.874 26.9228C47.3734 26.6297 46.9779 26.186 46.7441 25.6551C46.477 24.9888 46.3369 24.2784 46.3308 23.5606L48.2599 23.1748C48.2755 23.6124 48.3401 24.0469 48.4528 24.4701C48.5253 24.7875 48.677 25.0814 48.8937 25.3244C49.0014 25.4219 49.1277 25.4967 49.2651 25.544C49.4025 25.5914 49.548 25.6104 49.6929 25.6C49.8391 25.6159 49.987 25.5939 50.1222 25.5359C50.2574 25.478 50.3753 25.3862 50.4645 25.2693C50.6354 25.0282 50.7226 24.7378 50.7126 24.4425C50.7269 23.9633 50.5921 23.4914 50.3268 23.0921C50.036 22.716 49.7133 22.3656 49.3622 22.0449L47.7914 20.667C47.3669 20.3054 47.0039 19.8772 46.7166 19.3993C46.4474 18.861 46.3149 18.2647 46.3308 17.6631C46.309 17.2478 46.3737 16.8326 46.5208 16.4436C46.6678 16.0546 46.894 15.7004 47.1851 15.4034C47.84 14.837 48.691 14.55 49.5552 14.6041C50.0537 14.5888 50.5502 14.6732 51.0157 14.8522C51.3788 15.0286 51.6987 15.2826 51.9527 15.5962C52.1784 15.9334 52.346 16.3061 52.4488 16.6986C52.5645 17.1127 52.6383 17.5374 52.6692 17.9663L50.7401 18.3245C50.7132 17.9732 50.6672 17.6236 50.6023 17.2773C50.5514 17.0018 50.4278 16.7449 50.2441 16.5333C50.1426 16.4448 50.0246 16.3774 49.8969 16.3348C49.7692 16.2922 49.6342 16.2754 49.5 16.2852C49.3545 16.2765 49.2091 16.3019 49.0751 16.3593C48.9411 16.4167 48.8224 16.5046 48.7284 16.6159C48.5372 16.8478 48.439 17.1424 48.4528 17.4426C48.4344 17.8118 48.5307 18.1776 48.7284 18.4899C48.936 18.7993 49.1865 19.0776 49.4724 19.3166L51.0157 20.6946C51.5414 21.1191 51.989 21.632 52.3385 22.2103C52.717 22.8421 52.9082 23.5684 52.8897 24.3047C52.8965 24.8614 52.7639 25.4109 52.5038 25.9031C52.2303 26.3465 51.8517 26.7157 51.4015 26.9779C50.8994 27.238 50.341 27.3705 49.7756 27.3637Z" fill="white"/>
<path d="M57.0242 27.3698C56.2663 27.4117 55.5119 27.2398 54.847 26.8738C54.3446 26.5176 53.9759 26.0034 53.7998 25.4131C53.5893 24.6881 53.4872 23.9359 53.4967 23.1809V14.748H55.7289V23.429C55.6995 23.7958 55.6995 24.1644 55.7289 24.5313C55.7431 24.8415 55.8706 25.1356 56.0872 25.3581C56.1964 25.4727 56.3297 25.5618 56.4773 25.619C56.625 25.6762 56.7835 25.7 56.9415 25.6887C57.0998 25.7041 57.2595 25.6822 57.4078 25.6247C57.5562 25.5673 57.6891 25.476 57.7958 25.3581C58.001 25.1282 58.1267 24.8382 58.1541 24.5313C58.1835 24.1644 58.1835 23.7958 58.1541 23.429V14.748H60.3587V23.1809C60.3682 23.9359 60.2661 24.6881 60.0556 25.4131C59.892 26.0094 59.5206 26.5275 59.0084 26.8738C58.4031 27.2134 57.718 27.3846 57.0242 27.3698Z" fill="white"/>
<path d="M64.8201 27.3648C64.1668 27.3929 63.5184 27.2404 62.9462 26.9238C62.4352 26.6353 62.0297 26.1912 61.7887 25.6562C61.5216 24.9899 61.3814 24.2795 61.3753 23.5617L63.332 23.1759C63.3393 23.6124 63.3947 24.0468 63.4974 24.4711C63.5814 24.7842 63.7317 25.0756 63.9382 25.3254C64.1589 25.5172 64.4454 25.616 64.7375 25.601C64.8874 25.6142 65.0384 25.591 65.1775 25.5334C65.3166 25.4758 65.4398 25.3856 65.5367 25.2703C65.6866 25.021 65.763 24.7344 65.7571 24.4436C65.768 23.9686 65.6438 23.5003 65.3989 23.0932C65.1061 22.7101 64.7735 22.3591 64.4068 22.046L62.8359 20.6681C62.4123 20.3131 62.0573 19.8834 61.7887 19.4004C61.497 18.8695 61.3542 18.2696 61.3753 17.6642C61.3519 17.2463 61.4185 16.8283 61.5706 16.4384C61.7228 16.0486 61.9569 15.6959 62.2572 15.4044C62.5749 15.1222 62.9457 14.9061 63.3479 14.7689C63.7501 14.6317 64.1757 14.576 64.5997 14.6052C65.0982 14.5899 65.5948 14.6742 66.0603 14.8533C66.4269 15.0239 66.748 15.2788 66.9973 15.5973C67.2208 15.9394 67.397 16.3102 67.5209 16.6997C67.6275 17.1147 67.6922 17.5394 67.7138 17.9673L65.7847 18.3256C65.817 17.9773 65.817 17.6267 65.7847 17.2784C65.7459 16.999 65.6206 16.7388 65.4264 16.5343C65.3249 16.4459 65.2069 16.3785 65.0792 16.3359C64.9514 16.2933 64.8166 16.2764 64.6824 16.2863C64.5371 16.2797 64.3923 16.306 64.2587 16.3633C64.125 16.4205 64.0061 16.5073 63.9107 16.617C63.73 16.8545 63.6331 17.1452 63.6351 17.4437C63.6309 17.8112 63.7262 18.1731 63.9107 18.4909C64.1184 18.8003 64.3689 19.0787 64.6548 19.3177L66.2256 20.6956C66.7353 21.1287 67.1726 21.6404 67.5209 22.2114C67.9114 22.838 68.1034 23.568 68.072 24.3058C68.0788 24.8624 67.9462 25.4119 67.6862 25.9042C67.4127 26.3476 67.0341 26.7167 66.5839 26.9789C66.0422 27.266 65.4322 27.3994 64.8201 27.3648Z" fill="white"/>
<path d="M69.8947 27.3666V16.5637H67.9105V14.9102H74.1388V16.5637H72.1821V27.3666H69.8947Z" fill="white"/>
<path d="M73.6967 27.3666L76.2045 14.9102H78.6296L81.1099 27.3666H79.0154L78.5194 24.6107H76.3422L75.8462 27.3666H73.6967ZM76.5903 23.0399H78.2714L77.4171 17.8038L76.5903 23.0399Z" fill="white"/>
<path d="M81.7435 27.3666V14.9102H83.9758V27.3666H81.7435Z" fill="white"/>
<path d="M85.269 27.3698V14.9134H86.8674L89.8162 21.8581V14.748H91.6901V27.3698H90.1744L87.1154 19.929V27.3698H85.269Z" fill="white"/>
<path d="M92.4062 27.3666L94.8865 14.9102H97.3116L99.8195 27.3666H97.6974L97.229 24.6107H95.0518L94.5282 27.3666H92.4062ZM95.1621 23.0399H96.8707L96.0164 17.8038L95.1621 23.0399Z" fill="white"/>
<path d="M100.372 27.3674V14.9109H103.431C103.935 14.8526 104.443 14.8526 104.947 14.9109C105.364 15.0056 105.758 15.1837 106.105 15.4346C106.421 15.6965 106.676 16.0261 106.849 16.3991C107.029 16.9026 107.113 17.4354 107.097 17.9699C107.111 18.4097 107.045 18.8485 106.904 19.2652C106.774 19.6023 106.555 19.8977 106.27 20.1195C105.976 20.3323 105.636 20.4738 105.278 20.5329C105.716 20.5799 106.132 20.7497 106.478 21.0227C106.824 21.2957 107.087 21.6609 107.234 22.0761C107.4 22.5635 107.475 23.0774 107.455 23.5919C107.475 24.1244 107.4 24.6562 107.234 25.1627C107.114 25.5869 106.893 25.976 106.591 26.2973C106.289 26.6186 105.914 26.8627 105.498 27.0091C104.998 27.1596 104.478 27.2339 103.955 27.2296L100.372 27.3674ZM102.66 19.9817H103.431C103.791 20.0028 104.15 19.9366 104.479 19.7888C104.598 19.7267 104.704 19.6409 104.789 19.5367C104.874 19.4325 104.937 19.3119 104.975 19.1825C105.097 18.8474 105.153 18.4917 105.14 18.1353C105.164 17.7779 105.078 17.4218 104.892 17.1156C104.822 16.9913 104.728 16.883 104.614 16.7975C104.5 16.7121 104.369 16.6515 104.231 16.6196C103.862 16.5228 103.482 16.4764 103.101 16.4818H102.66V19.9817ZM102.66 25.769H103.597C103.853 25.8021 104.114 25.7744 104.358 25.6883C104.603 25.6021 104.823 25.4599 105.002 25.2729C105.27 24.8047 105.395 24.268 105.36 23.7296C105.373 23.31 105.317 22.8911 105.195 22.4895C105.079 22.2047 104.877 21.9636 104.616 21.8005C104.279 21.6184 103.897 21.5327 103.514 21.5525H102.742L102.66 25.769Z" fill="white"/>
<path d="M108.306 27.3666V14.9102H110.594V25.7957H113.597V27.3666H108.306Z" fill="white"/>
<path d="M114.098 27.3666V14.9102H119.334V16.3432H116.385V19.9258H118.7V21.4966H116.385V25.6304H119.361V27.3666H114.098Z" fill="white"/>
<path d="M126.525 27.363C125.772 27.4088 125.023 27.2263 124.375 26.8394C123.857 26.4808 123.478 25.9556 123.3 25.3513C123.066 24.6594 122.954 23.932 122.97 23.2017V18.7648C122.955 18.0075 123.067 17.2531 123.3 16.5326C123.474 15.9412 123.856 15.4324 124.375 15.0996C125.031 14.7358 125.776 14.5639 126.525 14.6035C127.22 14.5662 127.912 14.7086 128.536 15.0169C129.026 15.3009 129.397 15.7506 129.584 16.2845C129.804 16.8934 129.907 17.5387 129.887 18.1861V19.2333H127.71V18.1585C127.726 17.8372 127.726 17.5153 127.71 17.194C127.69 16.9364 127.583 16.6933 127.407 16.505C127.294 16.4073 127.162 16.3346 127.02 16.2919C126.877 16.2491 126.727 16.2372 126.58 16.257C126.426 16.2421 126.271 16.2589 126.124 16.3063C125.977 16.3537 125.841 16.4307 125.725 16.5326C125.546 16.7332 125.431 16.9827 125.395 17.2491C125.364 17.5883 125.364 17.9296 125.395 18.2688V23.7804C125.345 24.1462 125.345 24.517 125.395 24.8828C125.442 25.1415 125.579 25.3753 125.78 25.5442C126.003 25.7073 126.277 25.7855 126.552 25.7646C126.702 25.7808 126.853 25.7645 126.996 25.717C127.138 25.6694 127.269 25.5917 127.379 25.4891C127.545 25.2936 127.65 25.0543 127.682 24.8001C127.682 24.497 127.682 24.1663 127.682 23.7804V22.6505H129.859V23.6702C129.874 24.3331 129.781 24.994 129.584 25.6268C129.399 26.1835 129.03 26.6602 128.536 26.9772C127.914 27.2888 127.218 27.4223 126.525 27.363Z" fill="white"/>
<path d="M130.907 27.3666V14.9102H133.167V27.3666H130.907Z" fill="white"/>
<path d="M135.701 27.3666V16.5637H133.717V14.9102H139.918V16.5637H137.961V27.3666H135.701Z" fill="white"/>
<path d="M140.499 27.3666V14.9102H142.759V27.3666H140.499Z" fill="white"/>
<path d="M144.051 27.3666V14.9102H149.26V16.3432H146.311V19.9258H148.654V21.4966H146.311V25.6304H149.315V27.3666H144.051Z" fill="white"/>
<path d="M153.202 27.3637C152.54 27.3913 151.883 27.2389 151.301 26.9228C150.8 26.6297 150.405 26.186 150.171 25.6551C149.907 24.9868 149.758 24.2786 149.73 23.5606L151.687 23.1748C151.702 23.6124 151.767 24.0469 151.88 24.4701C151.952 24.7875 152.104 25.0814 152.32 25.3244C152.428 25.4219 152.555 25.4967 152.692 25.544C152.829 25.5914 152.975 25.6104 153.12 25.6C153.266 25.6159 153.414 25.5939 153.549 25.5359C153.684 25.478 153.802 25.3862 153.891 25.2693C154.062 25.0282 154.149 24.7378 154.139 24.4425C154.154 23.9633 154.019 23.4914 153.754 23.0921C153.463 22.716 153.14 22.3656 152.789 22.0449L151.218 20.667C150.794 20.3054 150.431 19.8772 150.143 19.3993C149.874 18.861 149.742 18.2647 149.758 17.6631C149.731 17.2473 149.793 16.8305 149.94 16.4408C150.087 16.051 150.317 15.6973 150.612 15.4034C151.267 14.837 152.118 14.55 152.982 14.6041C153.48 14.5888 153.977 14.6732 154.443 14.8522C154.806 15.0286 155.125 15.2826 155.38 15.5962C155.605 15.9334 155.773 16.3061 155.876 16.6986C155.991 17.1127 156.065 17.5374 156.096 17.9663L154.167 18.3245C154.14 17.9732 154.094 17.6236 154.029 17.2773C153.978 17.0018 153.855 16.7449 153.671 16.5333C153.569 16.4448 153.451 16.3774 153.324 16.3348C153.196 16.2922 153.061 16.2754 152.927 16.2852C152.781 16.2765 152.636 16.3019 152.502 16.3593C152.368 16.4167 152.249 16.5046 152.155 16.6159C151.964 16.8478 151.866 17.1424 151.88 17.4426C151.861 17.8118 151.957 18.1776 152.155 18.4899C152.363 18.7993 152.613 19.0776 152.899 19.3166L154.443 20.6946C154.968 21.1191 155.416 21.632 155.765 22.2103C156.144 22.8421 156.335 23.5684 156.316 24.3047C156.323 24.8614 156.191 25.4109 155.931 25.9031C155.657 26.3465 155.279 26.7157 154.828 26.9779C154.326 27.238 153.768 27.3705 153.202 27.3637Z" fill="white"/>
<path d="M45.9983 47.679L48.4785 35.2227H50.9313L53.4115 47.679H51.2344L50.7658 44.9232H48.5888L48.0652 47.679H45.9983ZM48.7541 43.3524H50.4627L49.6084 38.1163L48.7541 43.3524Z" fill="white"/>
<path d="M53.9913 47.679V35.2227H55.5897L58.6211 42.3327V35.2227H60.4951V47.679H58.9794L55.9205 40.2383V47.679H53.9913Z" fill="white"/>
<path d="M61.7367 47.6751V35.2187H64.6579C65.4776 35.1816 66.2955 35.3226 67.0554 35.6321C67.6006 35.8928 68.0318 36.3436 68.268 36.8998C68.519 37.5976 68.6404 38.3354 68.6263 39.0769V43.6516C68.6398 44.411 68.5185 45.1668 68.268 45.8838C68.0279 46.4579 67.6005 46.9339 67.0554 47.2342C66.3405 47.5658 65.5552 47.7172 64.7681 47.6751H61.7367ZM63.9965 46.0767H64.6855C65.0826 46.1174 65.4816 46.0201 65.8154 45.8011C66.0529 45.5994 66.2014 45.3123 66.2287 45.0019C66.2607 44.5707 66.2607 44.1378 66.2287 43.7067V38.9391C66.2803 38.5365 66.2803 38.129 66.2287 37.7265C66.2102 37.5863 66.1611 37.452 66.0849 37.333C66.0087 37.2139 65.9073 37.113 65.7878 37.0375C65.4468 36.8663 65.066 36.7901 64.6855 36.817H64.0241L63.9965 46.0767Z" fill="white"/>
<path d="M76.0352 47.8376C75.2823 47.8833 74.5332 47.7009 73.8857 47.314C73.3796 46.9436 73.0034 46.4227 72.8109 45.8258C72.5999 45.1291 72.4977 44.4041 72.5078 43.6763V39.2394C72.4983 38.4844 72.6004 37.7322 72.8109 37.0071C72.9995 36.4231 73.3778 35.9187 73.8857 35.5741C74.5414 35.2103 75.2864 35.0384 76.0352 35.078C76.739 35.0409 77.4407 35.1831 78.0745 35.4914C78.5445 35.7976 78.9098 36.2398 79.1218 36.7591C79.3293 37.3713 79.4318 38.0142 79.4249 38.6606V39.7078H77.2202V38.6331C77.2501 38.3122 77.2501 37.9894 77.2202 37.6685C77.2155 37.413 77.1175 37.1679 76.9446 36.9796C76.7127 36.7908 76.4154 36.7015 76.1179 36.7315C75.9641 36.715 75.8086 36.731 75.6614 36.7785C75.5142 36.8259 75.3787 36.9038 75.2636 37.0071C75.0646 37.1971 74.9379 37.4504 74.9053 37.7236C74.8756 38.0629 74.8756 38.4041 74.9053 38.7433V44.255C74.8726 44.6217 74.8726 44.9906 74.9053 45.3573C74.9624 45.619 75.1085 45.8527 75.3187 46.0187C75.5402 46.1842 75.8148 46.2626 76.0903 46.2392C76.2357 46.257 76.3833 46.2414 76.5218 46.1936C76.6602 46.1459 76.786 46.0672 76.8895 45.9636C77.0702 45.7669 77.1774 45.5138 77.1927 45.2471C77.2235 44.9171 77.2235 44.585 77.1927 44.255V43.1251H79.3974V44.1447C79.4042 44.8092 79.3018 45.4702 79.0942 46.1014C78.921 46.6561 78.5606 47.1334 78.0745 47.4518C77.441 47.759 76.7372 47.8921 76.0352 47.8376Z" fill="white"/>
<path d="M83.8359 47.8396C83.1049 47.8763 82.3785 47.7043 81.7416 47.3436C81.218 47.015 80.82 46.5201 80.6117 45.9381C80.3774 45.2367 80.2656 44.5003 80.281 43.761V39.076C80.2654 38.3457 80.3773 37.6183 80.6117 36.9265C80.8113 36.3468 81.2122 35.8579 81.7416 35.5486C82.3813 35.1975 83.1075 35.035 83.8359 35.0801C84.5821 35.0335 85.3264 35.1957 85.9855 35.5486C86.494 35.8746 86.8814 36.3588 87.0879 36.9265C87.345 37.6131 87.4667 38.3431 87.4462 39.076V43.8988C87.4641 44.6405 87.3426 45.379 87.0879 46.0759C86.8867 46.6537 86.4988 47.1483 85.9855 47.4814C85.316 47.7976 84.5718 47.9216 83.8359 47.8396ZM83.8359 46.1586C84.1413 46.1818 84.4449 46.0937 84.6903 45.9105C84.8725 45.7303 84.9972 45.5002 85.0485 45.2491C85.077 44.9375 85.077 44.6238 85.0485 44.3121V38.5524C85.0782 38.2408 85.0782 37.9271 85.0485 37.6154C85.0043 37.3697 84.8781 37.1462 84.6903 36.9816C84.4449 36.7985 84.1413 36.7103 83.8359 36.7336C83.5473 36.708 83.2603 36.7971 83.0368 36.9816C82.8311 37.135 82.6927 37.3622 82.6509 37.6154C82.6212 37.9271 82.6212 38.2408 82.6509 38.5524V44.3121C82.6225 44.6238 82.6225 44.9375 82.6509 45.2491C82.6913 45.5041 82.8178 45.7374 83.0092 45.9105C83.2462 46.0895 83.5395 46.1776 83.8359 46.1586Z" fill="white"/>
<path d="M88.4663 47.679L88.6867 35.2227H91.0292L92.7929 43.8484L94.6394 35.2227H96.9267L97.1472 47.679H95.4661L95.2732 39.0257L93.5095 47.679H92.1315L90.3403 38.9706L90.1749 47.679H88.4663Z" fill="white"/>
<path d="M98.3324 47.679L98.5529 35.2227H100.84L102.604 43.8484L104.45 35.2227H106.71L106.958 47.679H105.25L105.084 39.0257L103.293 47.679H101.943L100.124 38.9706L99.9583 47.679H98.3324Z" fill="white"/>
<path d="M111.668 47.8444C110.919 47.8902 110.172 47.7179 109.519 47.3483C109.006 46.9967 108.627 46.4819 108.444 45.8878C108.244 45.1611 108.151 44.4091 108.168 43.6555V35.2227H110.373V43.9035C110.344 44.2704 110.344 44.639 110.373 45.0059C110.4 45.3128 110.526 45.6027 110.731 45.8326C110.841 45.9473 110.974 46.0364 111.121 46.0935C111.269 46.1507 111.428 46.1746 111.586 46.1634C111.748 46.1749 111.91 46.1513 112.063 46.0943C112.215 46.0372 112.353 45.9479 112.467 45.8326C112.653 45.5932 112.767 45.3069 112.798 45.0059C112.828 44.639 112.828 44.2704 112.798 43.9035V35.2227H115.003V43.6555C115.021 44.4091 114.928 45.1611 114.727 45.8878C114.544 46.4819 114.165 46.9967 113.652 47.3483C113.047 47.6879 112.362 47.8592 111.668 47.8444Z" fill="white"/>
<path d="M116.326 47.679V35.2227H117.925L120.956 42.3327V35.2227H122.885V47.679H121.369L118.338 40.2383V47.679H116.326Z" fill="white"/>
<path d="M124.152 47.679V35.2227H126.384V47.679H124.152Z" fill="white"/>
<path d="M128.951 47.679V36.8761H126.967V35.2227H133.168V36.8761H131.156V47.679H128.951Z" fill="white"/>
<path d="M133.744 47.679V35.2227H135.976V47.679H133.744Z" fill="white"/>
<path d="M137.275 47.679V35.2227H142.511V36.821H139.562V40.4036H141.877V41.9745H139.562V46.1082H142.538V47.679H137.275Z" fill="white"/>
<path d="M146.366 47.8396C145.713 47.8636 145.066 47.7113 144.492 47.3987C143.991 47.1056 143.596 46.662 143.362 46.131C143.085 45.4666 142.936 44.7562 142.921 44.0366L144.878 43.6508C144.893 44.0884 144.958 44.5229 145.071 44.946C145.143 45.2635 145.295 45.5573 145.512 45.8003C145.619 45.8979 145.746 45.9726 145.883 46.02C146.02 46.0674 146.166 46.0864 146.311 46.0759C146.457 46.0919 146.605 46.0698 146.74 46.0119C146.875 45.954 146.993 45.8621 147.082 45.7452C147.245 45.5017 147.323 45.2109 147.303 44.9185C147.327 44.442 147.202 43.9699 146.945 43.5681C146.652 43.185 146.319 42.834 145.952 42.5209L144.382 41.143C143.966 40.7805 143.612 40.3523 143.334 39.8753C143.065 39.337 142.933 38.7407 142.949 38.1391C142.91 37.7223 142.967 37.3021 143.115 36.9106C143.263 36.519 143.498 36.1663 143.803 35.8793C144.126 35.5962 144.501 35.3799 144.908 35.2427C145.315 35.1056 145.745 35.0503 146.173 35.0801C146.671 35.0648 147.168 35.1491 147.634 35.3281C147.993 35.4988 148.305 35.7542 148.543 36.0722C148.788 36.4019 148.966 36.7764 149.067 37.1745C149.185 37.5881 149.258 38.0131 149.287 38.4422L147.358 38.8005C147.331 38.4492 147.285 38.0996 147.22 37.7533C147.158 37.4817 147.035 37.2275 146.862 37.0092C146.76 36.9208 146.642 36.8533 146.515 36.8108C146.387 36.7682 146.252 36.7514 146.118 36.7612C145.972 36.7525 145.827 36.7779 145.693 36.8353C145.559 36.8927 145.44 36.9805 145.346 37.0919C145.155 37.3238 145.057 37.6184 145.071 37.9186C145.058 38.2836 145.144 38.6453 145.319 38.9659C145.545 39.2688 145.804 39.546 146.09 39.7926L147.634 41.1705C148.159 41.5951 148.607 42.108 148.956 42.6862C149.335 43.318 149.526 44.0444 149.508 44.7807C149.517 45.3289 149.384 45.8701 149.122 46.3515C148.857 46.8088 148.477 47.1888 148.019 47.4538C147.508 47.7162 146.94 47.8487 146.366 47.8396Z" fill="white"/>
<path d="M29.6568 130.375H55.5066C55.5898 130.375 55.6723 130.359 55.7492 130.327C55.8261 130.295 55.896 130.249 55.9548 130.19C56.0137 130.131 56.0603 130.061 56.0922 129.984C56.124 129.907 56.1404 129.825 56.1404 129.742C56.1432 129.665 56.1298 129.589 56.1013 129.517C56.0729 129.446 56.0299 129.382 55.9751 129.328L42.9675 112.793C42.9069 112.731 42.834 112.681 42.7534 112.648C42.6728 112.615 42.5862 112.598 42.499 112.6C42.3547 112.56 42.2024 112.56 42.0581 112.6V112.738L29.519 129.273L29.1883 129.328C29.1602 129.446 29.1602 129.569 29.1883 129.687C29.17 129.839 29.2073 129.992 29.2934 130.119C29.3796 130.245 29.5087 130.337 29.6568 130.375Z" fill="white"/>
<path d="M55.4254 132.723H29.5481C29.38 132.723 29.2188 132.789 29.0999 132.908C28.9811 133.027 28.9142 133.188 28.9142 133.357V153.64C28.9142 153.808 28.9811 153.969 29.0999 154.088C29.2188 154.207 29.38 154.273 29.5481 154.273H37.8156V141.514C37.8156 141.346 37.8824 141.184 38.0013 141.066C38.1201 140.947 38.2813 140.88 38.4494 140.88H46.1934C46.3615 140.88 46.5227 140.947 46.6416 141.066C46.7605 141.184 46.8272 141.346 46.8272 141.514V154.273H55.3703C55.5385 154.273 55.6997 154.207 55.8185 154.088C55.9374 153.969 56.0042 153.808 56.0042 153.64V133.357C56.0048 133.198 55.9457 133.044 55.8385 132.927C55.7313 132.809 55.5838 132.736 55.4254 132.723Z" fill="white"/>
<path d="M144.935 127.426H119.306C119.145 127.426 118.991 127.49 118.877 127.604C118.764 127.718 118.7 127.872 118.7 128.033V153.91C118.7 154.071 118.764 154.225 118.877 154.339C118.991 154.452 119.145 154.516 119.306 154.516H144.935C145.017 154.52 145.099 154.507 145.176 154.478C145.253 154.45 145.323 154.405 145.382 154.349C145.441 154.292 145.488 154.224 145.521 154.149C145.553 154.073 145.569 153.992 145.569 153.91V128.033C145.569 127.951 145.553 127.87 145.521 127.794C145.488 127.719 145.441 127.651 145.382 127.594C145.323 127.537 145.253 127.493 145.176 127.464C145.099 127.436 145.017 127.423 144.935 127.426ZM130.908 144.32C130.908 144.481 130.844 144.635 130.731 144.748C130.617 144.862 130.463 144.926 130.302 144.926H122.613C122.531 144.93 122.449 144.917 122.373 144.888C122.296 144.859 122.226 144.815 122.166 144.758C122.107 144.702 122.06 144.634 122.028 144.558C121.996 144.483 121.979 144.402 121.979 144.32V139.662C121.979 139.58 121.996 139.499 122.028 139.424C122.06 139.348 122.107 139.28 122.166 139.224C122.226 139.167 122.296 139.123 122.373 139.094C122.449 139.065 122.531 139.052 122.613 139.056H130.274C130.354 139.056 130.433 139.072 130.506 139.102C130.58 139.133 130.647 139.177 130.703 139.234C130.759 139.29 130.804 139.357 130.834 139.43C130.865 139.504 130.881 139.583 130.881 139.662L130.908 144.32ZM130.908 135.722C130.908 135.882 130.844 136.037 130.731 136.15C130.617 136.264 130.463 136.328 130.302 136.328H122.613C122.531 136.331 122.449 136.319 122.373 136.29C122.296 136.261 122.226 136.217 122.166 136.16C122.107 136.104 122.06 136.035 122.028 135.96C121.996 135.885 121.979 135.804 121.979 135.722V131.064C121.979 130.982 121.996 130.901 122.028 130.826C122.06 130.75 122.107 130.682 122.166 130.625C122.226 130.569 122.296 130.525 122.373 130.496C122.449 130.467 122.531 130.454 122.613 130.458H130.274C130.354 130.458 130.433 130.474 130.506 130.504C130.58 130.534 130.647 130.579 130.703 130.635C130.759 130.692 130.804 130.759 130.834 130.832C130.865 130.906 130.881 130.985 130.881 131.064L130.908 135.722ZM142.621 144.32C142.621 144.402 142.604 144.483 142.572 144.558C142.54 144.634 142.493 144.702 142.433 144.758C142.374 144.815 142.304 144.859 142.227 144.888C142.15 144.917 142.069 144.93 141.987 144.926H134.353C134.271 144.93 134.189 144.917 134.112 144.888C134.036 144.859 133.966 144.815 133.906 144.758C133.847 144.702 133.8 144.634 133.768 144.558C133.736 144.483 133.719 144.402 133.719 144.32V139.662C133.719 139.58 133.736 139.499 133.768 139.424C133.8 139.348 133.847 139.28 133.906 139.224C133.966 139.167 134.036 139.123 134.112 139.094C134.189 139.065 134.271 139.052 134.353 139.056H141.987C142.069 139.052 142.15 139.065 142.227 139.094C142.304 139.123 142.374 139.167 142.433 139.224C142.493 139.28 142.54 139.348 142.572 139.424C142.604 139.499 142.621 139.58 142.621 139.662V144.32ZM142.621 135.722C142.621 135.804 142.604 135.885 142.572 135.96C142.54 136.035 142.493 136.104 142.433 136.16C142.374 136.217 142.304 136.261 142.227 136.29C142.15 136.319 142.069 136.331 141.987 136.328H134.353C134.271 136.331 134.189 136.319 134.112 136.29C134.036 136.261 133.966 136.217 133.906 136.16C133.847 136.104 133.8 136.035 133.768 135.96C133.736 135.885 133.719 135.804 133.719 135.722V131.064C133.719 130.982 133.736 130.901 133.768 130.826C133.8 130.75 133.847 130.682 133.906 130.625C133.966 130.569 134.036 130.525 134.112 130.496C134.189 130.467 134.271 130.454 134.353 130.458H141.987C142.069 130.454 142.15 130.467 142.227 130.496C142.304 130.525 142.374 130.569 142.433 130.625C142.493 130.682 142.54 130.75 142.572 130.826C142.604 130.901 142.621 130.982 142.621 131.064V135.722Z" fill="white"/>
<path d="M85.355 67.3574H60.2768C60.1087 67.3574 59.9475 67.4242 59.8286 67.5431C59.7098 67.6619 59.6429 67.8232 59.6429 67.9913V153.698C59.6429 153.78 59.6595 153.861 59.6916 153.937C59.7238 154.012 59.7709 154.08 59.8302 154.137C59.8894 154.193 59.9596 154.237 60.0364 154.266C60.1131 154.295 60.1949 154.308 60.2768 154.304H85.355C85.5158 154.304 85.67 154.24 85.7837 154.127C85.8974 154.013 85.9613 153.859 85.9613 153.698V67.9913C85.965 67.9094 85.9521 67.8276 85.9233 67.7508C85.8945 67.674 85.8504 67.6039 85.7938 67.5446C85.7371 67.4854 85.6689 67.4383 85.5935 67.4061C85.5181 67.3739 85.437 67.3573 85.355 67.3574ZM70.4183 144.521C70.4183 144.609 70.3835 144.693 70.3215 144.755C70.2595 144.817 70.1753 144.852 70.0876 144.852H64.3555C64.2678 144.852 64.1836 144.817 64.1216 144.755C64.0596 144.693 64.0248 144.609 64.0248 144.521V138.1C64.0246 138.058 64.0333 138.016 64.0502 137.977C64.0671 137.938 64.0919 137.904 64.123 137.875C64.1542 137.847 64.1909 137.825 64.2309 137.811C64.271 137.798 64.3134 137.793 64.3555 137.797H70.0876C70.1297 137.793 70.1721 137.798 70.2121 137.811C70.2521 137.825 70.2888 137.847 70.32 137.875C70.3511 137.904 70.376 137.938 70.3929 137.977C70.4098 138.016 70.4185 138.058 70.4183 138.1V144.521ZM70.4183 129.805C70.4183 129.893 70.3835 129.977 70.3215 130.039C70.2595 130.101 70.1753 130.136 70.0876 130.136H64.3555C64.2678 130.136 64.1836 130.101 64.1216 130.039C64.0596 129.977 64.0248 129.893 64.0248 129.805V123.411C64.0248 123.324 64.0596 123.239 64.1216 123.177C64.1836 123.115 64.2678 123.081 64.3555 123.081H70.0876C70.1753 123.081 70.2595 123.115 70.3215 123.177C70.3835 123.239 70.4183 123.324 70.4183 123.411V129.805ZM70.4183 115.116C70.4183 115.204 70.3835 115.288 70.3215 115.35C70.2595 115.412 70.1753 115.447 70.0876 115.447H64.3555C64.2678 115.447 64.1836 115.412 64.1216 115.35C64.0596 115.288 64.0248 115.204 64.0248 115.116V108.723C64.0248 108.635 64.0596 108.551 64.1216 108.489C64.1836 108.427 64.2678 108.392 64.3555 108.392H70.0876C70.1753 108.392 70.2595 108.427 70.3215 108.489C70.3835 108.551 70.4183 108.635 70.4183 108.723V115.116ZM70.4183 100.428C70.4183 100.515 70.3835 100.599 70.3215 100.661C70.2595 100.723 70.1753 100.758 70.0876 100.758H64.3555C64.2678 100.758 64.1836 100.723 64.1216 100.661C64.0596 100.599 64.0248 100.515 64.0248 100.428V94.0615C64.0248 93.9738 64.0596 93.8897 64.1216 93.8277C64.1836 93.7657 64.2678 93.7309 64.3555 93.7309H70.0876C70.1753 93.7309 70.2595 93.7657 70.3215 93.8277C70.3835 93.8897 70.4183 93.9738 70.4183 94.0615V100.428ZM70.4183 85.7389C70.4183 85.8266 70.3835 85.9107 70.3215 85.9727C70.2595 86.0347 70.1753 86.0696 70.0876 86.0696H64.3555C64.2678 86.0696 64.1836 86.0347 64.1216 85.9727C64.0596 85.9107 64.0248 85.8266 64.0248 85.7389V79.3178C64.0248 79.2301 64.0596 79.146 64.1216 79.084C64.1836 79.0219 64.2678 78.9871 64.3555 78.9871H70.0876C70.1753 78.9871 70.2595 79.0219 70.3215 79.084C70.3835 79.146 70.4183 79.2301 70.4183 79.3178V85.7389ZM81.6897 144.521C81.6897 144.609 81.6549 144.693 81.5929 144.755C81.5309 144.817 81.4467 144.852 81.359 144.852H75.6269C75.5392 144.852 75.455 144.817 75.393 144.755C75.331 144.693 75.2962 144.609 75.2962 144.521V138.1C75.296 138.058 75.3047 138.016 75.3216 137.977C75.3385 137.938 75.3633 137.904 75.3944 137.875C75.4256 137.847 75.4624 137.825 75.5024 137.811C75.5424 137.798 75.5848 137.793 75.6269 137.797H81.359C81.4011 137.793 81.4434 137.798 81.4835 137.811C81.5235 137.825 81.5603 137.847 81.5915 137.875C81.6226 137.904 81.6474 137.938 81.6643 137.977C81.6812 138.016 81.6899 138.058 81.6897 138.1V144.521ZM81.6897 129.805C81.6897 129.893 81.6549 129.977 81.5929 130.039C81.5309 130.101 81.4467 130.136 81.359 130.136H75.6269C75.5392 130.136 75.455 130.101 75.393 130.039C75.331 129.977 75.2962 129.893 75.2962 129.805V123.411C75.2962 123.324 75.331 123.239 75.393 123.177C75.455 123.115 75.5392 123.081 75.6269 123.081H81.359C81.4467 123.081 81.5309 123.115 81.5929 123.177C81.6549 123.239 81.6897 123.324 81.6897 123.411V129.805ZM81.6897 115.116C81.6897 115.16 81.6812 115.203 81.6645 115.243C81.6479 115.283 81.6236 115.319 81.5929 115.35C81.5622 115.381 81.5257 115.405 81.4856 115.422C81.4454 115.438 81.4024 115.447 81.359 115.447H75.6269C75.5835 115.447 75.5404 115.438 75.5003 115.422C75.4602 115.405 75.4237 115.381 75.393 115.35C75.3623 115.319 75.338 115.283 75.3213 115.243C75.3047 115.203 75.2962 115.16 75.2962 115.116V108.723C75.2962 108.635 75.331 108.551 75.393 108.489C75.455 108.427 75.5392 108.392 75.6269 108.392H81.359C81.4467 108.392 81.5309 108.427 81.5929 108.489C81.6549 108.551 81.6897 108.635 81.6897 108.723V115.116ZM81.6897 100.428C81.6897 100.515 81.6549 100.599 81.5929 100.661C81.5309 100.723 81.4467 100.758 81.359 100.758H75.6269C75.5392 100.758 75.455 100.723 75.393 100.661C75.331 100.599 75.2962 100.515 75.2962 100.428V94.0615C75.2962 93.9738 75.331 93.8897 75.393 93.8277C75.455 93.7657 75.5392 93.7309 75.6269 93.7309H81.359C81.4467 93.7309 81.5309 93.7657 81.5929 93.8277C81.6549 93.8897 81.6897 93.9738 81.6897 94.0615V100.428ZM81.6897 85.7389C81.6897 85.8266 81.6549 85.9107 81.5929 85.9727C81.5309 86.0347 81.4467 86.0696 81.359 86.0696H75.6269C75.5392 86.0696 75.455 86.0347 75.393 85.9727C75.331 85.9107 75.2962 85.8266 75.2962 85.7389V79.3178C75.2962 79.2301 75.331 79.146 75.393 79.084C75.455 79.0219 75.5392 78.9871 75.6269 78.9871H81.359C81.4467 78.9871 81.5309 79.0219 81.5929 79.084C81.6549 79.146 81.6897 79.2301 81.6897 79.3178V85.7389Z" fill="white"/>
<path d="M144.991 119.158H119.223C118.934 119.158 118.7 119.393 118.7 119.682V124.835C118.7 125.124 118.934 125.359 119.223 125.359H144.991C145.28 125.359 145.514 125.124 145.514 124.835V119.682C145.514 119.393 145.28 119.158 144.991 119.158Z" fill="white"/>
<path d="M115.639 83.5557C115.599 83.417 115.516 83.2945 115.402 83.2055C115.289 83.1165 115.15 83.0655 115.005 83.0597C114.889 83.0218 114.764 83.0218 114.647 83.0597L114.454 83.3077L89.817 114.752C89.7486 114.815 89.6937 114.892 89.6558 114.977C89.618 115.063 89.5978 115.155 89.5966 115.248V153.664C89.5966 153.832 89.6633 153.994 89.7822 154.113C89.901 154.231 90.0622 154.298 90.2303 154.298H115.281C115.363 154.298 115.444 154.282 115.52 154.25C115.595 154.217 115.663 154.17 115.72 154.111C115.776 154.052 115.821 153.982 115.849 153.905C115.878 153.828 115.891 153.746 115.887 153.664V83.6659C115.813 83.6124 115.729 83.5749 115.639 83.5557ZM105.25 100.532L105.443 100.311C107.124 98.1341 109.962 94.6342 111.34 92.9531L111.533 92.7327C111.599 92.6486 111.682 92.5803 111.777 92.5326C111.873 92.4849 111.978 92.4591 112.084 92.4571C112.246 92.4651 112.402 92.526 112.526 92.6305C112.65 92.735 112.737 92.8774 112.773 93.0358V100.945C112.773 101.13 112.702 101.309 112.573 101.442C112.445 101.576 112.269 101.654 112.084 101.662H105.801C105.616 101.654 105.44 101.576 105.312 101.442C105.183 101.309 105.112 101.13 105.112 100.945C105.112 100.796 105.16 100.651 105.25 100.532ZM101.364 144.322C101.364 144.404 101.348 144.485 101.315 144.561C101.283 144.636 101.236 144.704 101.177 144.761C101.118 144.817 101.047 144.862 100.971 144.89C100.894 144.919 100.812 144.932 100.73 144.928H93.2618C93.101 144.928 92.9467 144.864 92.833 144.751C92.7193 144.637 92.6555 144.483 92.6555 144.322V139.637C92.6555 139.476 92.7193 139.322 92.833 139.208C92.9467 139.095 93.101 139.031 93.2618 139.031H100.84C100.922 139.027 101.004 139.04 101.081 139.069C101.158 139.098 101.228 139.142 101.287 139.198C101.346 139.255 101.393 139.323 101.426 139.399C101.458 139.474 101.474 139.555 101.474 139.637L101.364 144.322ZM101.364 135.669C101.364 135.751 101.348 135.832 101.315 135.907C101.283 135.983 101.236 136.051 101.177 136.107C101.118 136.164 101.047 136.208 100.971 136.237C100.894 136.266 100.812 136.279 100.73 136.275H93.2618C93.101 136.275 92.9467 136.211 92.833 136.097C92.7193 135.984 92.6555 135.829 92.6555 135.669V130.984C92.6555 130.823 92.7193 130.669 92.833 130.555C92.9467 130.441 93.101 130.377 93.2618 130.377H100.84C100.922 130.374 101.004 130.387 101.081 130.415C101.158 130.444 101.228 130.488 101.287 130.545C101.346 130.602 101.393 130.67 101.426 130.745C101.458 130.821 101.474 130.902 101.474 130.984L101.364 135.669ZM101.364 127.015C101.364 127.183 101.297 127.345 101.178 127.464C101.059 127.582 100.898 127.649 100.73 127.649H93.2618C93.1798 127.649 93.0986 127.633 93.0232 127.601C92.9478 127.568 92.8797 127.521 92.823 127.462C92.7664 127.403 92.7223 127.333 92.6935 127.256C92.6647 127.179 92.6518 127.097 92.6555 127.015V122.358C92.6518 122.276 92.6647 122.194 92.6935 122.117C92.7223 122.041 92.7664 121.971 92.823 121.911C92.8797 121.852 92.9478 121.805 93.0232 121.773C93.0986 121.741 93.1798 121.724 93.2618 121.724H100.84C101.008 121.724 101.17 121.791 101.289 121.91C101.407 122.029 101.474 122.19 101.474 122.358L101.364 127.015ZM101.364 108.083V118.307C101.364 118.468 101.3 118.622 101.186 118.736C101.073 118.849 100.918 118.913 100.758 118.913H93.2894C93.2011 118.93 93.1102 118.926 93.0234 118.903C92.9366 118.88 92.8559 118.838 92.7874 118.78C92.7188 118.722 92.664 118.649 92.6269 118.568C92.5898 118.486 92.5713 118.397 92.5728 118.307V117.012C92.5572 116.939 92.5572 116.864 92.5728 116.791C93.5374 115.441 97.8365 110.122 99.6554 107.917L99.8483 107.697C99.9308 107.595 100.041 107.518 100.165 107.477C100.29 107.435 100.424 107.43 100.551 107.461C100.679 107.493 100.794 107.561 100.885 107.656C100.975 107.752 101.036 107.871 101.061 108L101.364 108.083ZM112.773 144.322C112.773 144.483 112.709 144.637 112.596 144.751C112.482 144.864 112.328 144.928 112.167 144.928H104.699C104.619 144.928 104.54 144.913 104.466 144.882C104.393 144.852 104.326 144.807 104.27 144.751C104.214 144.694 104.169 144.628 104.138 144.554C104.108 144.48 104.092 144.402 104.092 144.322V139.637C104.092 139.557 104.108 139.479 104.138 139.405C104.169 139.332 104.214 139.265 104.27 139.208C104.326 139.152 104.393 139.107 104.466 139.077C104.54 139.046 104.619 139.031 104.699 139.031H112.167C112.328 139.031 112.482 139.095 112.596 139.208C112.709 139.322 112.773 139.476 112.773 139.637V144.322ZM112.773 135.669C112.773 135.829 112.709 135.984 112.596 136.097C112.482 136.211 112.328 136.275 112.167 136.275H104.699C104.619 136.275 104.54 136.259 104.466 136.229C104.393 136.198 104.326 136.154 104.27 136.097C104.214 136.041 104.169 135.974 104.138 135.901C104.108 135.827 104.092 135.748 104.092 135.669V130.984C104.092 130.904 104.108 130.825 104.138 130.752C104.169 130.678 104.214 130.611 104.27 130.555C104.326 130.499 104.393 130.454 104.466 130.424C104.54 130.393 104.619 130.377 104.699 130.377H112.167C112.328 130.377 112.482 130.441 112.596 130.555C112.709 130.669 112.773 130.823 112.773 130.984V135.669ZM112.773 127.015C112.777 127.097 112.764 127.179 112.735 127.256C112.706 127.333 112.662 127.403 112.606 127.462C112.549 127.521 112.481 127.568 112.405 127.601C112.33 127.633 112.249 127.649 112.167 127.649H104.699C104.617 127.649 104.535 127.633 104.46 127.601C104.385 127.568 104.316 127.521 104.26 127.462C104.203 127.403 104.159 127.333 104.13 127.256C104.101 127.179 104.089 127.097 104.092 127.015V122.358C104.089 122.276 104.101 122.194 104.13 122.117C104.159 122.041 104.203 121.971 104.26 121.911C104.316 121.852 104.385 121.805 104.46 121.773C104.535 121.741 104.617 121.724 104.699 121.724H112.167C112.249 121.724 112.33 121.741 112.405 121.773C112.481 121.805 112.549 121.852 112.606 121.911C112.662 121.971 112.706 122.041 112.735 122.117C112.764 122.194 112.777 122.276 112.773 122.358V127.015ZM112.773 118.39C112.773 118.55 112.709 118.705 112.596 118.818C112.482 118.932 112.328 118.996 112.167 118.996H104.699C104.619 118.996 104.54 118.98 104.466 118.95C104.393 118.919 104.326 118.875 104.27 118.818C104.214 118.762 104.169 118.695 104.138 118.622C104.108 118.548 104.092 118.469 104.092 118.39V113.705C104.092 113.625 104.108 113.546 104.138 113.473C104.169 113.399 104.214 113.332 104.27 113.276C104.326 113.22 104.393 113.175 104.466 113.144C104.54 113.114 104.619 113.098 104.699 113.098H112.167C112.328 113.098 112.482 113.162 112.596 113.276C112.709 113.39 112.773 113.544 112.773 113.705V118.39ZM112.773 109.736C112.773 109.897 112.709 110.051 112.596 110.165C112.482 110.279 112.328 110.342 112.167 110.342H104.699C104.619 110.342 104.54 110.327 104.466 110.296C104.393 110.266 104.326 110.221 104.27 110.165C104.214 110.109 104.169 110.042 104.138 109.968C104.108 109.895 104.092 109.816 104.092 109.736V105.051C104.092 104.972 104.108 104.893 104.138 104.819C104.169 104.746 104.214 104.679 104.27 104.623C104.326 104.566 104.393 104.522 104.466 104.491C104.54 104.461 104.619 104.445 104.699 104.445H112.167C112.328 104.445 112.482 104.509 112.596 104.623C112.709 104.736 112.773 104.89 112.773 105.051V109.736Z" fill="white"/>
</svg>
