<svg width="172" height="171" viewBox="0 0 172 171" fill="none" xmlns="http://www.w3.org/2000/svg">
<path d="M171.5 0H0.5V171H171.5V0Z" fill="#8F1838"/>
<path d="M13.8826 41.5772C13.8452 39.9407 14.1738 38.3166 14.8444 36.8234C15.4139 35.5621 16.3785 34.5204 17.5923 33.8557C16.5769 33.0868 15.7578 32.0887 15.2016 30.9429C14.5408 29.5544 14.2205 28.0284 14.2673 26.4913C14.1276 24.2068 14.887 21.9583 16.3832 20.2262C17.1996 19.4581 18.1641 18.8645 19.2177 18.4818C20.2713 18.0991 21.3919 17.9353 22.5109 18.0004C23.621 17.9175 24.736 18.0705 25.7827 18.4494C26.8294 18.8283 27.784 19.4245 28.5837 20.1987C30.0655 21.8956 30.8249 24.1047 30.6996 26.354C30.7521 27.9328 30.4419 29.5027 29.7928 30.9429C29.2708 32.1022 28.4564 33.1059 27.4296 33.8557C28.6649 34.5315 29.6338 35.607 30.1775 36.9058C30.8459 38.4674 31.1738 40.1536 31.1393 41.852C31.3034 44.3877 30.5635 46.8996 29.0509 48.9414C28.2016 49.8326 27.1634 50.5223 26.0127 50.9597C24.862 51.3972 23.6279 51.5714 22.401 51.4695C16.7221 51.4695 13.8826 48.172 13.8826 41.5772ZM24.8741 45.4242C25.2667 44.2657 25.4527 43.0473 25.4237 41.8245C25.4672 40.5288 25.2811 39.2357 24.8741 38.0049C24.7333 37.5636 24.448 37.1826 24.0641 36.9234C23.6802 36.6641 23.2202 36.5417 22.7583 36.576C22.2972 36.5466 21.8394 36.6709 21.4565 36.9295C21.0737 37.188 20.7874 37.5663 20.6424 38.0049C20.2382 39.2364 20.0522 40.529 20.0928 41.8245C20.0638 43.0473 20.2498 44.2657 20.6424 45.4242C20.8123 45.8463 21.1045 46.208 21.4816 46.4627C21.8586 46.7174 22.3032 46.8535 22.7583 46.8535C23.2133 46.8535 23.6579 46.7174 24.035 46.4627C24.412 46.208 24.7043 45.8463 24.8741 45.4242ZM25.0665 26.4913C25.1044 25.5417 24.9062 24.5976 24.4894 23.7435C24.3314 23.4217 24.0842 23.1522 23.7773 22.967C23.4703 22.7819 23.1166 22.689 22.7583 22.6993C22.3966 22.6904 22.0397 22.7836 21.7287 22.9683C21.4176 23.153 21.1649 23.4216 20.9996 23.7435C20.5631 24.5914 20.3548 25.5384 20.3951 26.4913C20.3951 29.8437 21.1645 31.5199 22.7583 31.5199C24.352 31.5199 24.9291 29.8437 24.9291 26.4913H25.0665Z" fill="white"/>
<path d="M43.6126 18.3616H46.5528C47.3613 18.3233 48.1682 18.4641 48.916 18.7738C49.1908 18.8946 49.439 19.0684 49.6465 19.2853C49.854 19.5022 50.0166 19.7579 50.125 20.0378C50.4023 20.7366 50.5332 21.4848 50.5097 22.2361V26.7976C50.5338 27.5758 50.403 28.351 50.125 29.0783C49.9008 29.6535 49.4695 30.1239 48.916 30.3973C48.2031 30.728 47.42 30.879 46.6352 30.8369H43.6126V18.3616ZM46.5803 29.3531C46.9629 29.3789 47.3448 29.293 47.6794 29.1058C47.904 28.9181 48.0508 28.6537 48.0916 28.3639C48.1329 27.8976 48.1329 27.4287 48.0916 26.9624V22.0438C48.1316 21.6234 48.1316 21.2001 48.0916 20.7797C48.0643 20.6468 48.0084 20.5214 47.9277 20.4122C47.8471 20.3031 47.7436 20.2128 47.6245 20.1477C47.2931 19.9805 46.9232 19.9046 46.5528 19.9279H45.7834V29.1882L46.5803 29.3531Z" fill="white"/>
<path d="M51.7757 18.3555H56.9967V19.9767H54.0289V23.5489H56.3921V25.1427H54.0289V29.2645H57.0516V30.8308H51.7757V18.3555Z" fill="white"/>
<path d="M58.562 29.9295C57.9846 29.0107 57.7062 27.9355 57.7651 26.8519V22.4004C57.6948 21.3071 57.9738 20.2196 58.562 19.2953C59.2895 18.6321 60.2315 18.2531 61.2156 18.2279C62.1997 18.2027 63.1599 18.5328 63.9204 19.1579C64.5049 19.9486 64.7787 20.9265 64.6898 21.9058V22.95H62.4915V21.8783C62.5246 21.531 62.5246 21.1814 62.4915 20.8341C62.4665 20.5949 62.3597 20.3717 62.1892 20.2021C61.9557 20.0416 61.6751 19.9642 61.3923 19.9823C61.0956 19.9524 60.7992 20.0413 60.5679 20.2296C60.3713 20.4129 60.2369 20.6531 60.1832 20.9165C60.1483 21.2821 60.1483 21.6502 60.1832 22.0157V27.5114C60.1544 28.0387 60.2484 28.5655 60.458 29.0502C60.5701 29.212 60.7237 29.3407 60.9025 29.4229C61.0813 29.505 61.279 29.5377 61.4747 29.5174C61.613 29.5294 61.7522 29.5136 61.8844 29.4712C62.0165 29.4287 62.1388 29.3604 62.2441 29.2701C62.4172 29.0879 62.532 28.8583 62.5739 28.6106C62.6059 28.2541 62.6059 27.8954 62.5739 27.5389V26.4123H64.7722V27.4015C64.8224 28.373 64.5626 29.3352 64.0303 30.1494C63.6856 30.5232 63.2558 30.8083 62.7775 30.9805C62.2991 31.1527 61.7862 31.2069 61.2824 31.1386C60.7653 31.169 60.2486 31.0751 59.7753 30.8647C59.302 30.6544 58.8859 30.3337 58.562 29.9295Z" fill="white"/>
<path d="M65.8693 18.3555H71.1177V19.9767H68.1225V23.5489H70.5132V25.1427H68.15V29.2645H71.1727V30.8308H65.8968L65.8693 18.3555Z" fill="white"/>
<path d="M72.052 18.3555H73.6457L76.6684 25.4724V18.3555H78.5644V30.8308H77.0531L74.003 23.3841V30.8308H72.052V18.3555Z" fill="white"/>
<path d="M81.2616 20.0317H79.2007V18.3555H85.5758V20.0317H83.5423V30.8308H81.2616V20.0317Z" fill="white"/>
<path d="M89.0652 18.3555H90.9612L92.0054 26.4342L93.2969 18.3829H94.8357L96.1547 26.4342L97.1714 18.3555H99.0674L97.3088 30.8308H95.4677L94.0938 22.5872L92.7198 30.8308H90.8238L89.0652 18.3555Z" fill="white"/>
<path d="M100.742 29.9512C100.135 29.0648 99.8448 28 99.9173 26.9285V22.2297C99.8571 21.1851 100.147 20.1504 100.742 19.2894C101.099 18.9309 101.529 18.6543 102.004 18.4787C102.478 18.3032 102.985 18.2329 103.49 18.2727C103.994 18.2251 104.504 18.2918 104.979 18.4678C105.455 18.6438 105.885 18.9246 106.237 19.2894C106.866 20.1559 107.168 21.2169 107.089 22.2846V26.9835C107.154 28.0582 106.854 29.1232 106.237 30.0061C105.476 30.6709 104.5 31.0373 103.49 31.0373C102.479 31.0373 101.503 30.6709 100.742 30.0061V29.9512ZM104.534 28.852C104.731 28.4119 104.825 27.9326 104.808 27.4506V21.7076C104.843 21.242 104.748 20.7759 104.534 20.3611C104.369 20.0313 104.039 19.8939 103.517 19.8939C102.995 19.8939 102.665 20.0313 102.5 20.3611C102.289 20.7769 102.194 21.2422 102.225 21.7076V27.533C102.192 28.0162 102.287 28.4997 102.5 28.9344C102.608 29.1007 102.761 29.233 102.941 29.3157C103.121 29.3984 103.321 29.4282 103.517 29.4016C103.703 29.3965 103.884 29.3431 104.043 29.2468C104.202 29.1504 104.333 29.0144 104.424 28.852H104.534Z" fill="white"/>
<path d="M108.273 18.3574H111.269C112.303 18.2791 113.335 18.5395 114.209 19.0993C114.564 19.4228 114.838 19.8249 115.01 20.2734C115.182 20.7219 115.246 21.2044 115.198 21.6823C115.212 22.3412 115.09 22.9959 114.841 23.6058C114.725 23.854 114.561 24.0766 114.358 24.2606C114.155 24.4446 113.918 24.5863 113.659 24.6775L115.39 30.8327H113.11L111.626 25.1171H110.527V30.8327H108.273V18.3574ZM111.269 23.8531C111.517 23.874 111.768 23.8434 112.004 23.763C112.241 23.6826 112.458 23.5542 112.643 23.386C112.96 22.9704 113.107 22.4498 113.055 21.9296C113.087 21.4278 112.962 20.9283 112.697 20.5007C112.524 20.3342 112.316 20.2084 112.088 20.1323C111.859 20.0563 111.617 20.0319 111.379 20.061H110.527V23.8531H111.269Z" fill="white"/>
<path d="M116.517 18.3555H118.77V23.8512L121.243 18.3555H123.414L121.024 23.8512L123.771 30.7758H121.518L119.43 25.1152L118.88 26.0495V30.7758H116.627L116.517 18.3555Z" fill="white"/>
<path d="M129.51 18.3555H131.928L134.429 30.8308H132.313L131.818 28.0829H129.647L129.153 30.8308H127.009L129.51 18.3555ZM131.571 26.5991L130.719 21.3506L129.895 26.5991H131.571Z" fill="white"/>
<path d="M135.285 18.3555H136.851L139.902 25.4724V18.3555H141.77V30.8308H140.259L137.209 23.3841V30.8308H135.285V18.3555Z" fill="white"/>
<path d="M143.25 18.3616H146.19C146.998 18.3233 147.805 18.4641 148.553 18.7738C149.11 19.0239 149.552 19.4755 149.79 20.0378C150.058 20.7385 150.179 21.4867 150.147 22.2361V26.7976C150.178 27.5739 150.057 28.3488 149.79 29.0783C149.559 29.6493 149.129 30.1177 148.581 30.3973C147.867 30.7248 147.084 30.8756 146.3 30.8369H143.25V18.3616ZM146.217 29.3531C146.601 29.3876 146.985 29.3011 147.317 29.1058C147.549 28.921 147.706 28.6568 147.756 28.3639C147.794 27.8975 147.794 27.4288 147.756 26.9624V22.0438C147.81 21.6241 147.81 21.1993 147.756 20.7797C147.734 20.6486 147.683 20.524 147.607 20.4148C147.531 20.3055 147.432 20.2144 147.317 20.1477C146.974 19.9842 146.596 19.9086 146.217 19.9279H145.558V29.1882L146.217 29.3531Z" fill="white"/>
<path d="M43.6126 38.7168H48.8335V40.338H45.7834V44.0202H48.1191V45.6139H45.7834V49.5159H48.7786V51.0822H43.6126V38.7168Z" fill="white"/>
<path d="M50.4848 50.291C49.9074 49.3722 49.629 48.297 49.6879 47.2134V42.7619C49.6175 41.6685 49.8966 40.5811 50.4848 39.6568C50.824 39.2719 51.2505 38.9737 51.7286 38.7873C52.2066 38.6008 52.7223 38.5315 53.2326 38.5851C53.7317 38.5188 54.2393 38.5686 54.7159 38.7307C55.1925 38.8927 55.6253 39.1627 55.9805 39.5194C56.5651 40.3101 56.8389 41.288 56.7499 42.2673V43.3115H54.5516V42.2398C54.5848 41.8925 54.5848 41.5429 54.5516 41.1956C54.5267 40.9564 54.4199 40.7332 54.2494 40.5636C54.0159 40.4031 53.7352 40.3257 53.4525 40.3438C53.1691 40.3123 52.8846 40.3921 52.6591 40.5665C52.4335 40.7408 52.2844 40.9959 52.2434 41.278C52.2084 41.6436 52.2084 42.0116 52.2434 42.3772V47.8729C52.2145 48.4002 52.3086 48.927 52.5182 49.4117C52.6303 49.5735 52.7838 49.7022 52.9627 49.7843C53.1415 49.8665 53.3391 49.8992 53.5349 49.8789C53.7317 49.8117 53.9039 49.6873 54.0295 49.5216C54.2025 49.3395 54.3174 49.1099 54.3593 48.8621C54.3913 48.5056 54.3913 48.147 54.3593 47.7905V46.6639H56.5576V47.6531C56.6116 48.6289 56.3411 49.5951 55.7882 50.401C55.4479 50.7805 55.0187 51.0696 54.5391 51.2423C54.0594 51.415 53.5444 51.4658 53.0403 51.3902C52.5595 51.4081 52.0807 51.3187 51.6387 51.1286C51.1967 50.9385 50.8025 50.6524 50.4848 50.291Z" fill="white"/>
<path d="M58.5093 50.3147C57.9028 49.4283 57.6124 48.3636 57.6849 47.2921V42.5932C57.6122 41.5302 57.9029 40.4741 58.5093 39.598C58.8662 39.2395 59.2969 38.9629 59.7713 38.7873C60.2458 38.6117 60.7528 38.5415 61.2571 38.5813C61.7621 38.5337 62.2713 38.6004 62.747 38.7764C63.2227 38.9524 63.6526 39.2332 64.005 39.598C64.6337 40.4645 64.9354 41.5255 64.8569 42.5932V47.2921C64.9349 48.3682 64.6335 49.4376 64.005 50.3147C63.244 50.9795 62.2677 51.3459 61.2571 51.3459C60.2466 51.3459 59.2703 50.9795 58.5093 50.3147ZM62.3013 49.2156C62.5149 48.7808 62.6096 48.2973 62.5761 47.8142V42.0711C62.6106 41.6055 62.5155 41.1395 62.3013 40.7246C62.1365 40.3949 61.8067 40.2575 61.2846 40.2575C61.0886 40.2342 60.8899 40.2654 60.7105 40.3478C60.5311 40.4303 60.3779 40.5607 60.2679 40.7246C60.0564 41.1404 59.9615 41.6057 59.9931 42.0711V47.8142C59.9596 48.2973 60.0544 48.7808 60.2679 49.2156C60.3779 49.3795 60.5311 49.5099 60.7105 49.5923C60.8899 49.6748 61.0886 49.706 61.2846 49.6827C61.4766 49.7039 61.6707 49.6715 61.8453 49.5891C62.02 49.5066 62.1683 49.3773 62.2739 49.2156H62.3013Z" fill="white"/>
<path d="M66.257 38.7168H67.7683L70.8184 45.8338V38.7168H72.687V51.1921H71.1757L68.1255 43.7454V51.1921H66.202L66.257 38.7168Z" fill="white"/>
<path d="M74.9662 50.3147C74.3378 49.4376 74.0364 48.3682 74.1144 47.2921V42.5932C74.0358 41.5255 74.3376 40.4645 74.9662 39.598C75.3186 39.2332 75.7486 38.9524 76.2242 38.7764C76.6999 38.6004 77.2091 38.5337 77.7141 38.5813C78.2184 38.5415 78.7254 38.6117 79.1999 38.7873C79.6744 38.9629 80.105 39.2395 80.462 39.598C81.0684 40.4741 81.3591 41.5302 81.2863 42.5932V47.2921C81.3643 48.3682 81.0629 49.4376 80.4345 50.3147C80.0871 50.6877 79.6587 50.9759 79.1822 51.157C78.7057 51.338 78.194 51.4071 77.6866 51.3589C77.1831 51.4092 76.6749 51.3409 76.2025 51.1596C75.7301 50.9783 75.3068 50.6889 74.9662 50.3147ZM78.7308 49.2156C78.9443 48.7808 79.0391 48.2973 79.0056 47.8142V42.0711C79.0381 41.6086 78.953 41.1454 78.7583 40.7246C78.6293 40.5784 78.4708 40.4614 78.2931 40.3812C78.1155 40.301 77.9228 40.2595 77.7278 40.2595C77.5329 40.2595 77.3402 40.301 77.1625 40.3812C76.9849 40.4614 76.8263 40.5784 76.6974 40.7246C76.4997 41.1451 76.4055 41.6068 76.4226 42.0711V47.8142C76.4061 48.2961 76.5 48.7755 76.6974 49.2156C76.8074 49.3795 76.9605 49.5099 77.1399 49.5923C77.3193 49.6748 77.518 49.706 77.7141 49.6827C77.9147 49.7149 78.1204 49.6878 78.3058 49.6048C78.4913 49.5218 78.6486 49.3866 78.7583 49.2156H78.7308Z" fill="white"/>
<path d="M82.8522 38.7168H85.2153L87.0015 47.3726L88.8151 38.7168H91.1233L91.3431 51.1921H89.7493L89.5845 42.5363L87.7984 51.1921H86.4244L84.6383 42.5088L84.4734 51.1921H82.7697L82.8522 38.7168Z" fill="white"/>
<path d="M92.9401 38.7168H95.2483V51.1921H92.995L92.9401 38.7168Z" fill="white"/>
<path d="M97.4173 50.2899C96.8277 49.3764 96.5482 48.2972 96.6204 47.2123V42.7607C96.5361 41.6661 96.8162 40.5744 97.4173 39.6557C97.7566 39.2707 98.183 38.9726 98.6611 38.7861C99.1391 38.5997 99.6549 38.5304 100.165 38.584C100.642 38.5409 101.123 38.6021 101.573 38.7634C102.024 38.9248 102.434 39.1824 102.776 39.5183C103.349 40.3145 103.622 41.288 103.545 42.2661V43.3103H101.347V42.2387C101.366 41.8909 101.366 41.5423 101.347 41.1945C101.31 40.953 101.194 40.7307 101.017 40.5625C100.794 40.4019 100.522 40.3242 100.248 40.3426C100.106 40.3194 99.9615 40.3255 99.8225 40.3606C99.6835 40.3957 99.5533 40.4591 99.4398 40.5468C99.3264 40.6344 99.2322 40.7444 99.1632 40.8701C99.0942 40.9957 99.0517 41.1342 99.0385 41.2769C99.0036 41.6425 99.0036 42.0105 99.0385 42.376V47.8718C98.9962 48.3998 99.0908 48.9299 99.3133 49.4106C99.4255 49.5724 99.5789 49.701 99.7578 49.7832C99.9366 49.8654 100.134 49.8981 100.33 49.8778C100.609 49.8989 100.885 49.8101 101.099 49.6304C101.272 49.4482 101.387 49.2187 101.429 48.971C101.447 48.614 101.447 48.2563 101.429 47.8993V46.7726H103.627V47.7619C103.67 48.7363 103.4 49.6988 102.858 50.5098C102.532 50.8687 102.125 51.1455 101.671 51.3174C101.218 51.4893 100.73 51.5515 100.248 51.499C99.7126 51.5477 99.1739 51.4627 98.6798 51.2516C98.1858 51.0406 97.752 50.7101 97.4173 50.2899Z" fill="white"/>
<path d="M108.823 50.2534C108.248 49.294 107.979 48.1819 108.053 47.0659V42.8891C107.965 41.7595 108.244 40.6317 108.85 39.6741C109.182 39.2786 109.607 38.9713 110.086 38.7796C110.565 38.5878 111.085 38.5175 111.598 38.575C112.097 38.5065 112.605 38.5553 113.082 38.7175C113.559 38.8797 113.992 39.1508 114.346 39.5093C114.96 40.2873 115.254 41.2697 115.17 42.2571V42.9166H112.999V42.2022C113.033 41.8457 113.033 41.4869 112.999 41.1305C112.944 40.8974 112.82 40.6866 112.642 40.526C112.402 40.3572 112.11 40.2793 111.818 40.3061C111.665 40.2913 111.51 40.308 111.363 40.3553C111.217 40.4026 111.082 40.4794 110.966 40.5809C110.783 40.7811 110.659 41.0286 110.609 41.2954C110.574 41.6701 110.574 42.0473 110.609 42.422V47.6155C110.58 48.1633 110.683 48.7101 110.911 49.2092C111.01 49.393 111.164 49.5417 111.351 49.6351C111.538 49.7285 111.749 49.7621 111.955 49.7313C112.168 49.7505 112.381 49.709 112.571 49.6118C112.76 49.5145 112.919 49.3654 113.027 49.1818C113.269 48.658 113.373 48.0809 113.329 47.5056V46.3515H111.735V44.9226H115.115V51.2427H113.631L113.467 50.0336C113.313 50.4572 113.027 50.8199 112.651 51.0675C112.274 51.3152 111.828 51.4344 111.378 51.4075C110.889 51.4483 110.398 51.3637 109.951 51.1618C109.504 50.9598 109.115 50.6472 108.823 50.2534Z" fill="white"/>
<path d="M116.544 38.7223H119.539C120.578 38.6374 121.615 38.9087 122.479 39.4917C122.831 39.811 123.101 40.2091 123.268 40.6535C123.436 41.0978 123.495 41.5755 123.441 42.0472C123.465 42.7043 123.353 43.3592 123.111 43.9707C122.858 44.4738 122.427 44.8654 121.902 45.0699L123.661 51.1976H121.38L119.869 45.482H118.797V51.1976H116.544V38.7223ZM119.539 44.218C119.788 44.239 120.038 44.2082 120.275 44.1278C120.511 44.0475 120.728 43.9191 120.913 43.7509C121.23 43.3353 121.377 42.8147 121.325 42.2945C121.364 41.7883 121.228 41.2841 120.94 40.8656C120.775 40.6962 120.571 40.5681 120.347 40.4918C120.123 40.4154 119.884 40.3929 119.649 40.426H118.797V44.0257L119.539 44.218Z" fill="white"/>
<path d="M125.473 50.3095C124.866 49.4232 124.576 48.3584 124.648 47.2869V42.588C124.575 41.525 124.866 40.4689 125.473 39.5928C126.241 38.9439 127.215 38.5879 128.22 38.5879C129.226 38.5879 130.2 38.9439 130.968 39.5928C131.575 40.4689 131.865 41.525 131.793 42.588V47.2869C131.865 48.3584 131.575 49.4232 130.968 50.3095C130.618 50.6793 130.19 50.9652 129.714 51.146C129.238 51.3268 128.728 51.3978 128.22 51.3537C127.713 51.4041 127.2 51.336 126.724 51.1548C126.247 50.9736 125.819 50.6842 125.473 50.3095ZM129.265 49.2104C129.452 48.7679 129.536 48.2888 129.512 47.809V42.0659C129.544 41.6034 129.459 41.1403 129.265 40.7195C129.159 40.5507 129.007 40.4165 128.826 40.3335C128.646 40.2505 128.444 40.2222 128.248 40.2524C128.048 40.2299 127.846 40.2614 127.662 40.3435C127.478 40.4257 127.32 40.5555 127.204 40.7195C127.016 41.1426 126.932 41.6039 126.956 42.0659V47.809C126.932 48.2888 127.017 48.7679 127.204 49.2104C127.32 49.3744 127.478 49.5042 127.662 49.5863C127.846 49.6685 128.048 49.7 128.248 49.6775C128.448 49.703 128.651 49.6729 128.836 49.5905C129.02 49.5081 129.178 49.3766 129.292 49.2104H129.265Z" fill="white"/>
<path d="M132.784 38.7168H134.68L135.697 46.7955L136.988 38.7443H138.527L139.874 46.7955L140.89 38.7168H142.759L141.028 51.1921H139.214L137.813 42.9485L136.466 51.1921H134.57L132.784 38.7168Z" fill="white"/>
<path d="M145.091 40.393H143.03V38.7168H149.405V40.393H147.454V51.1921H145.173L145.091 40.393Z" fill="white"/>
<path d="M150.205 38.7168H152.459V44.0202H154.987V38.7992H157.267V51.2745H154.987V45.6414H152.459V51.2745H150.205V38.7168Z" fill="white"/>
<path d="M119.231 88.5572L101.754 105.044C101.393 105.339 101.113 105.721 100.94 106.153C100.767 106.586 100.707 107.055 100.765 107.518V154.067C100.765 154.331 100.868 154.586 101.053 154.776C101.238 154.966 101.49 155.076 101.754 155.083H119.808C120.073 155.076 120.324 154.966 120.509 154.776C120.694 154.586 120.797 154.331 120.797 154.067V88.9145C120.797 88.3649 120.358 87.3757 119.231 88.5023" fill="white"/>
<path d="M68.2917 109.284L50.8427 125.771C50.4822 126.074 50.2011 126.459 50.0239 126.895C49.8467 127.331 49.7787 127.804 49.826 128.272V153.168C49.8329 153.435 49.9423 153.69 50.1315 153.879C50.3206 154.068 50.5752 154.177 50.8427 154.184H68.8687C69.1336 154.177 69.3852 154.067 69.57 153.877C69.7547 153.687 69.8581 153.433 69.858 153.168V109.696C69.858 109.147 69.4183 108.13 68.2917 109.284Z" fill="white"/>
<path d="M126.518 67.4908C126.547 67.4309 126.562 67.3651 126.562 67.2985C126.562 67.2318 126.547 67.166 126.518 67.1061C126.422 67.0331 126.308 66.9859 126.188 66.9688H125.969L112.586 69.9914H112.339H112.092C111.999 70.0927 111.948 70.2251 111.948 70.3624C111.948 70.4997 111.999 70.632 112.092 70.7333V70.8707L115.142 73.9209L84.9154 104.147L70.9287 90.1333C70.8464 90.0687 70.7448 90.0335 70.6402 90.0335C70.5355 90.0335 70.434 90.0687 70.3517 90.1333L66.5596 93.9528L44.1095 116.375C44.0449 116.458 44.0097 116.559 44.0097 116.664C44.0097 116.769 44.0449 116.87 44.1095 116.952L47.8741 120.964C47.9076 121.005 47.9496 121.037 47.9971 121.06C48.0446 121.082 48.0964 121.093 48.1489 121.093C48.2013 121.093 48.2531 121.082 48.3006 121.06C48.3481 121.037 48.3901 121.005 48.4236 120.964L70.5165 98.9814L80.6836 109.149L84.4757 112.941C84.5118 112.982 84.5562 113.014 84.606 113.037C84.6557 113.059 84.7097 113.071 84.7642 113.071C84.8188 113.071 84.8728 113.059 84.9225 113.037C84.9723 113.014 85.0167 112.982 85.0528 112.941L119.429 78.5648L122.726 81.6698C122.823 81.7606 122.951 81.8112 123.083 81.8112C123.216 81.8112 123.344 81.7606 123.441 81.6698C123.473 81.5623 123.473 81.4477 123.441 81.3401L126.381 67.6007L126.518 67.4908Z" fill="white"/>
<path d="M93.542 112.194L85.0786 120.713C85.0075 120.778 84.9143 120.815 84.8176 120.815C84.7208 120.815 84.6276 120.778 84.5565 120.713L76.89 112.909C75.4885 111.507 75.1863 112.634 75.1863 113.184V153.302C75.1862 153.567 75.2895 153.822 75.4743 154.012C75.659 154.202 75.9106 154.312 76.1755 154.319H94.229C94.4939 154.312 94.7455 154.202 94.9302 154.012C95.115 153.822 95.2183 153.567 95.2182 153.302V112.497C95.2182 111.947 94.7786 110.958 93.542 112.194Z" fill="white"/>
</svg>
