<svg width="172" height="171" viewBox="0 0 172 171" fill="none" xmlns="http://www.w3.org/2000/svg">
<path d="M171.5 0H0.5V171H171.5V0Z" fill="#EF412A"/>
<path d="M17.6439 46.8143C16.4235 46.0262 15.522 44.8309 15.0999 43.4407C14.6066 41.6402 14.383 39.7765 14.4363 37.9103H20.4644C20.3865 39.2952 20.5646 40.6826 20.9898 42.0028C21.1411 42.4121 21.4243 42.7593 21.7949 42.9897C22.1654 43.22 22.6021 43.3203 23.036 43.2748C23.3744 43.2983 23.7133 43.2373 24.0222 43.0973C24.3311 42.9574 24.6004 42.7428 24.8058 42.4729C25.2258 41.817 25.4731 41.0656 25.5247 40.2884C25.5247 39.3482 25.663 38.021 25.663 36.2789C25.7258 34.7745 25.5389 33.2702 25.1099 31.8269C24.9606 31.3633 24.6567 30.9649 24.2491 30.6982C23.8415 30.4315 23.3548 30.3126 22.8701 30.3614C21.4322 30.3614 20.4921 31.3292 20.1049 33.2925H14.7404L15.1829 14.7656H30.1979V20.2131H20.2985L19.939 27.4302C20.4645 26.8716 21.1345 26.4696 21.8747 26.2689C22.8198 25.9542 23.8097 25.7954 24.8058 25.7988C25.8174 25.7548 26.8217 25.9894 27.7091 26.477C28.5966 26.9646 29.3331 27.6865 29.8384 28.564C31.0941 30.8836 31.6783 33.5074 31.5252 36.1406C31.576 38.3001 31.3436 40.4568 30.8339 42.5559C30.4593 44.1467 29.5519 45.5615 28.2623 46.5654C26.6346 47.6587 24.6874 48.1748 22.7319 48.031C20.9565 48.0987 19.1966 47.6779 17.6439 46.8143Z" fill="white"/>
<path d="M46.1 26.2977C45.527 25.3401 45.2571 24.2316 45.3257 23.1177V18.9976C45.2389 17.8698 45.5203 16.7442 46.1277 15.7899C46.4633 15.3939 46.8908 15.086 47.3728 14.8932C47.8548 14.7004 48.3767 14.6285 48.8929 14.6839C49.3949 14.6213 49.9045 14.6735 50.3835 14.8363C50.8624 14.9991 51.2982 15.2685 51.6581 15.624C52.2585 16.4147 52.5443 17.4 52.46 18.3892V19.0252H50.2755V18.2786C50.3121 17.9201 50.3121 17.5587 50.2755 17.2002C50.2356 16.952 50.108 16.7264 49.916 16.5642C49.6776 16.4124 49.3954 16.3443 49.1141 16.3706C48.9641 16.3562 48.8129 16.3734 48.67 16.421C48.5271 16.4687 48.3958 16.5457 48.2845 16.6471C48.0905 16.8307 47.9638 17.0742 47.925 17.3384C47.8894 17.7155 47.8894 18.0951 47.925 18.4722V23.6984C47.8981 24.2406 48.0025 24.7813 48.2293 25.2746C48.3349 25.4544 48.4903 25.5997 48.6768 25.6929C48.8633 25.7862 49.0728 25.8233 49.28 25.8C49.4936 25.8193 49.7084 25.7775 49.8993 25.6796C50.0902 25.5817 50.2494 25.4317 50.3584 25.2469C50.5832 24.7238 50.6871 24.1567 50.6626 23.5878V22.3988H49.3353V20.9885H52.5153V27.2932H51.0497L50.8838 26.0765C50.7334 26.5054 50.4463 26.873 50.0666 27.1228C49.6869 27.3726 49.2356 27.4907 48.7822 27.4591C48.2713 27.5354 47.7492 27.467 47.2752 27.2618C46.8011 27.0565 46.394 26.7225 46.1 26.2977Z" fill="white"/>
<path d="M54.0325 14.8516H59.2588V16.4277H56.3V20.0225H58.6505V21.5986H56.3V25.7464H59.2865V27.295H54.0325V14.8516Z" fill="white"/>
<path d="M60.5621 14.8516H62.1383L65.1799 21.9581V14.8516H67.0326V27.295H65.5394L62.4977 19.8566V27.295H60.5621V14.8516Z" fill="white"/>
<path d="M68.8577 14.8512H71.8717C72.6832 14.8039 73.4951 14.936 74.2498 15.2383C74.8013 15.4797 75.2375 15.9259 75.4665 16.4826C75.7492 17.1944 75.8811 17.9571 75.8536 18.7224V23.2574C75.8778 24.0405 75.7462 24.8206 75.4665 25.5525C75.2511 26.1219 74.8255 26.5871 74.2774 26.8521C73.559 27.1818 72.7718 27.3335 71.9824 27.2946H68.9406L68.8577 14.8512ZM71.8717 25.7184C72.2483 25.7491 72.6251 25.6621 72.9502 25.4695C73.1697 25.271 73.3238 25.0108 73.3926 24.7229C73.4301 24.2628 73.4301 23.8004 73.3926 23.3403V18.5565C73.447 18.1435 73.447 17.7252 73.3926 17.3122C73.3702 17.1765 73.3192 17.0471 73.2429 16.9327C73.1666 16.8182 73.0669 16.7214 72.9502 16.6485C72.6029 16.4945 72.223 16.4281 71.844 16.455H71.1804V25.7184H71.8717Z" fill="white"/>
<path d="M77.4017 14.8516H82.6556V16.4277H79.6139V20.0225H81.9643V21.5986H79.6139V25.7464H82.628V27.295H77.4017V14.8516Z" fill="white"/>
<path d="M83.8719 14.8543H86.8584C87.8991 14.7795 88.9363 15.0413 89.8171 15.6009C90.1666 15.9193 90.4363 16.3155 90.6045 16.7574C90.7726 17.1994 90.8344 17.6747 90.7849 18.1449C90.8159 18.8092 90.6928 19.4717 90.4254 20.0805C90.3088 20.3303 90.1437 20.5543 89.9395 20.7395C89.7353 20.9246 89.4963 21.0672 89.2364 21.159L90.9785 27.2977H88.711L87.2178 21.6014H86.1394V27.2977H83.8719V14.8543ZM86.8584 20.1911C87.3592 20.2286 87.8549 20.07 88.241 19.7487C88.5303 19.3172 88.6665 18.8012 88.628 18.2831C88.6749 17.7769 88.5481 17.2699 88.2685 16.8453C88.1018 16.6748 87.8973 16.5459 87.6715 16.469C87.4457 16.3922 87.205 16.3695 86.9689 16.4028H86.1394V20.1911H86.8584Z" fill="white"/>
<path d="M45.5155 35.2031H50.7417V36.8069H47.783V40.4017H50.1057V41.9779H47.783V46.1257H50.7694V47.6742H45.5155V35.2031Z" fill="white"/>
<path d="M56.8525 49.2171C56.404 48.8012 56.0133 48.3269 55.6911 47.8069H55.4145C54.9039 47.8554 54.389 47.7859 53.9096 47.6037C53.4301 47.4215 52.9989 47.1315 52.6493 46.7561C52.035 45.866 51.7425 44.7931 51.8198 43.7144V39.0689C51.7417 38.0073 52.0349 36.9516 52.6493 36.0824C53.4203 35.4242 54.4008 35.0625 55.4145 35.0625C56.4283 35.0625 57.4088 35.4242 58.1797 36.0824C58.7942 36.9516 59.0875 38.0073 59.0094 39.0689V43.742C59.0094 45.6777 58.4287 46.8944 57.2949 47.4474C57.6344 47.9157 58.056 48.3186 58.5392 48.6365L58.0968 50.1573C57.6373 49.9079 57.2179 49.591 56.8525 49.2171ZM56.4653 45.65C56.6503 45.2135 56.7353 44.7411 56.7142 44.2674V38.5435C56.739 38.0785 56.6537 37.6143 56.4653 37.1885C56.3481 37.0235 56.1888 36.8929 56.0041 36.8102C55.8193 36.7275 55.6157 36.6958 55.4145 36.7184C55.2172 36.6949 55.0174 36.7264 54.8368 36.8094C54.6563 36.8923 54.5021 37.0235 54.3914 37.1885C54.186 37.6095 54.0908 38.0757 54.1149 38.5435V44.2951C54.0975 44.7713 54.1922 45.2448 54.3914 45.6777C54.5021 45.8427 54.6563 45.9739 54.8368 46.0568C55.0174 46.1398 55.2172 46.1713 55.4145 46.1478C55.6183 46.1674 55.8236 46.1315 56.0086 46.0439C56.1936 45.9562 56.3514 45.8201 56.4653 45.65Z" fill="white"/>
<path d="M61.9145 47.3424C61.4098 47.0036 61.0308 46.5079 60.8361 45.9321C60.6156 45.1876 60.5129 44.4132 60.5319 43.637V35.3414H62.7441V44.0241C62.7216 44.597 62.806 45.1689 62.993 45.7109C63.1053 45.8879 63.2604 46.0337 63.4441 46.1347C63.6278 46.2357 63.8341 46.2887 64.0438 46.2887C64.2534 46.2887 64.4596 46.2357 64.6433 46.1347C64.827 46.0337 64.9822 45.8879 65.0945 45.7109C65.2814 45.1689 65.3659 44.597 65.3434 44.0241V35.2031H67.5555V43.4987C67.5706 44.2747 67.468 45.0486 67.2513 45.7938C67.0566 46.3697 66.6776 46.8653 66.1729 47.2041C65.5107 47.5309 64.7822 47.7009 64.0438 47.7009C63.3053 47.7009 62.5767 47.5309 61.9145 47.2041V47.3424Z" fill="white"/>
<path d="M71.125 35.2031H73.5583L76.0471 47.6742H73.9455L73.4478 44.909H71.2909L70.7655 47.6742H68.6363L71.125 35.2031ZM73.1989 43.3328L72.3693 38.1066L71.5121 43.3328H73.1989Z" fill="white"/>
<path d="M77.2073 35.2031H79.4748V46.2639H82.5165V47.8124H77.2073V35.2031Z" fill="white"/>
<path d="M83.6774 35.2031H85.9172V47.6742H83.6774V35.2031Z" fill="white"/>
<path d="M88.9864 36.8899H86.9125V35.2031H93.3001V36.8899H91.2262V47.6742H88.9588L88.9864 36.8899Z" fill="white"/>
<path d="M95.953 42.8848L93.4366 35.1699H95.5659L97.1144 40.1196L98.5523 35.1699H100.626L98.1375 42.8848V47.641H95.953V42.8848Z" fill="white"/>
<path d="M125.24 64.5938H103.893C103.819 64.5938 103.749 64.6229 103.697 64.6747C103.645 64.7266 103.616 64.7969 103.616 64.8703V71.9492C103.616 72.0225 103.645 72.0929 103.697 72.1447C103.749 72.1966 103.819 72.2257 103.893 72.2257H112.409L102.952 81.5997C99.5631 78.9614 95.6115 77.1395 91.4042 76.2755C87.1969 75.4114 82.847 75.5284 78.6922 76.6173C74.5374 77.7063 70.6894 79.738 67.4468 82.5546C64.2042 85.3713 61.6542 88.8973 59.9948 92.8589C58.3353 96.8205 57.611 101.111 57.878 105.398C58.145 109.685 59.3962 113.853 61.5344 117.578C63.6727 121.303 66.6405 124.485 70.2076 126.877C73.7746 129.27 77.8451 130.808 82.1029 131.373V139.669H73.8073C73.7339 139.669 73.6636 139.698 73.6117 139.75C73.5599 139.802 73.5307 139.872 73.5307 139.945V147.55C73.5307 147.623 73.5599 147.693 73.6117 147.745C73.6636 147.797 73.7339 147.826 73.8073 147.826H82.1029V155.873C82.1097 155.941 82.1419 156.005 82.193 156.051C82.2441 156.097 82.3105 156.122 82.3793 156.122H89.9836C90.0524 156.122 90.1189 156.097 90.17 156.051C90.2212 156.005 90.2533 155.941 90.2602 155.873V147.826H98.5558C98.6291 147.826 98.6994 147.797 98.7513 147.745C98.8031 147.693 98.8323 147.623 98.8323 147.55V139.945C98.8323 139.872 98.8031 139.802 98.7513 139.75C98.6994 139.698 98.6291 139.669 98.5558 139.669H90.2602V131.373C94.9318 130.604 99.3313 128.66 103.046 125.725C106.761 122.79 109.67 118.959 111.5 114.592C113.329 110.226 114.02 105.466 113.507 100.759C112.994 96.0523 111.293 91.5531 108.566 87.6832L117.885 78.3921V86.3282C117.885 86.4016 117.914 86.4719 117.965 86.5238C118.017 86.5756 118.088 86.6047 118.161 86.6047H125.24C125.313 86.6047 125.384 86.5756 125.435 86.5238C125.487 86.4719 125.516 86.4016 125.516 86.3282V65.0085C125.521 64.9712 125.517 64.9332 125.504 64.8977C125.492 64.8621 125.472 64.8298 125.445 64.8032C125.419 64.7765 125.386 64.7563 125.351 64.744C125.315 64.7317 125.277 64.7276 125.24 64.732M85.6976 124.239C81.6274 124.234 77.6504 123.021 74.2696 120.755C70.8888 118.488 68.2563 115.27 66.7051 111.507C65.1538 107.744 64.7535 103.606 65.555 99.6151C66.3564 95.6247 68.3235 91.9616 71.2073 89.0894C74.0911 86.2171 77.7621 84.2649 81.7558 83.4795C85.7494 82.6942 89.8863 83.1112 93.643 84.6776C97.3996 86.244 100.607 88.8895 102.86 92.2794C105.113 95.6693 106.309 99.6512 106.298 103.721C106.276 109.171 104.096 114.389 100.235 118.235C96.3742 122.08 91.1469 124.239 85.6976 124.239Z" fill="white"/>
<path d="M98.2762 95.2011H73.3894C73.3234 95.2011 73.2601 95.2273 73.2134 95.2739C73.1667 95.3206 73.1405 95.3839 73.1405 95.4499V101.506C73.1405 101.572 73.1667 101.635 73.2134 101.682C73.2601 101.728 73.3234 101.755 73.3894 101.755H98.2762C98.3111 101.758 98.3465 101.755 98.38 101.744C98.4134 101.733 98.4442 101.716 98.4703 101.692C98.4965 101.669 98.5173 101.64 98.5315 101.608C98.5457 101.576 98.5529 101.541 98.5527 101.506V95.4223C98.5529 95.3871 98.5457 95.3523 98.5315 95.3202C98.5173 95.288 98.4965 95.2593 98.4703 95.2358C98.4442 95.2122 98.4134 95.1945 98.38 95.1838C98.3465 95.173 98.3111 95.1695 98.2762 95.1734" fill="white"/>
<path d="M98.2762 106.019H73.3894C73.3234 106.019 73.2601 106.045 73.2134 106.092C73.1667 106.139 73.1405 106.202 73.1405 106.268V112.296C73.1405 112.362 73.1667 112.425 73.2134 112.472C73.2601 112.519 73.3234 112.545 73.3894 112.545H98.2762C98.3111 112.549 98.3465 112.545 98.38 112.535C98.4134 112.524 98.4442 112.506 98.4703 112.483C98.4965 112.459 98.5173 112.43 98.5315 112.398C98.5457 112.366 98.5529 112.331 98.5527 112.296V106.268C98.5529 106.233 98.5457 106.198 98.5315 106.166C98.5173 106.134 98.4965 106.105 98.4703 106.081C98.4442 106.058 98.4134 106.04 98.38 106.029C98.3465 106.019 98.3111 106.015 98.2762 106.019Z" fill="white"/>
</svg>
