<svg width="172" height="171" viewBox="0 0 172 171" fill="none" xmlns="http://www.w3.org/2000/svg">
<path d="M171.5 0H0.5V171H171.5V0Z" fill="#2D9A47"/>
<path d="M16.1052 45.482C14.5998 43.3608 13.8686 40.787 14.034 38.1912V37.059H20.2476V38.136C20.1814 39.363 20.389 40.5893 20.8552 41.7262C21.0493 42.091 21.3467 42.3905 21.7102 42.587C22.0738 42.7835 22.4872 42.8683 22.8988 42.8308C23.307 42.874 23.7185 42.7879 24.0753 42.5848C24.432 42.3816 24.716 42.0717 24.8872 41.6985C25.2851 40.5456 25.454 39.3261 25.3843 38.1084C25.4684 36.7683 25.2119 35.4287 24.6386 34.2145C24.3261 33.7818 23.9087 33.4356 23.4256 33.2086C22.9425 32.9815 22.4096 32.881 21.877 32.9166H20.7447V28.3323H21.7389C22.2557 28.3727 22.7748 28.2913 23.2544 28.0946C23.7341 27.898 24.1608 27.5916 24.5005 27.2C25.1362 26.1241 25.4434 24.8858 25.3843 23.6375C25.4547 22.5741 25.2552 21.5101 24.8043 20.5445C24.5917 20.1951 24.284 19.9135 23.9172 19.7325C23.5505 19.5516 23.1397 19.4788 22.7331 19.5227C22.3363 19.485 21.9376 19.571 21.5915 19.7687C21.2455 19.9665 20.969 20.2664 20.8 20.6273C20.3949 21.6451 20.2068 22.7362 20.2476 23.8308V25.2945H14.034V23.3613C13.9616 22.1643 14.1268 20.9648 14.5202 19.832C14.9136 18.6992 15.5274 17.6555 16.3261 16.761C17.1765 15.9536 18.1846 15.3307 19.2872 14.9315C20.3897 14.5323 21.5629 14.3654 22.7331 14.4413C23.9135 14.3633 25.0976 14.521 26.2165 14.905C27.3354 15.289 28.3668 15.8918 29.2505 16.6782C30.0553 17.5462 30.6739 18.5698 31.0681 19.6859C31.4623 20.8021 31.6238 21.9871 31.5427 23.168C31.6009 24.8192 31.1993 26.4541 30.3828 27.8904C30.0756 28.473 29.6526 28.9866 29.1397 29.3997C28.6268 29.8129 28.0349 30.1169 27.4002 30.293C30.1066 31.3793 31.4598 33.9475 31.4598 37.9979C31.6162 40.6226 30.8762 43.2226 29.361 45.3715C28.5574 46.328 27.5362 47.078 26.383 47.5585C25.2298 48.039 23.9782 48.2361 22.7331 48.1331C21.499 48.2296 20.2592 48.0406 19.1098 47.5809C17.9604 47.1211 16.9324 46.403 16.1052 45.482Z" fill="white"/>
<path d="M46.0689 26.4039C45.4966 25.4475 45.2271 24.3404 45.2956 23.228V19.0303C45.2239 17.8966 45.5036 16.7683 46.0965 15.7992C46.436 15.4105 46.8644 15.1096 47.3453 14.9221C47.8261 14.7345 48.3451 14.666 48.8582 14.7222C49.3353 14.6752 49.817 14.7324 50.27 14.8897C50.7229 15.0471 51.1364 15.3009 51.4817 15.6335C52.0862 16.4207 52.3721 17.4067 52.2825 18.3951V19.0303H50.1285V18.3123C50.1625 17.9541 50.1625 17.5935 50.1285 17.2353C50.0766 16.9997 49.9508 16.7868 49.7695 16.6277C49.5331 16.4701 49.2523 16.3927 48.9686 16.4068C48.8234 16.3915 48.6766 16.4052 48.5368 16.447C48.3969 16.4888 48.2667 16.558 48.1537 16.6504C48.0407 16.7429 47.9472 16.8568 47.8785 16.9856C47.8098 17.1145 47.7673 17.2556 47.7535 17.401C47.7185 17.7776 47.7185 18.1566 47.7535 18.5332V23.6422C47.7178 24.1905 47.8124 24.7394 48.0297 25.244C48.1397 25.4258 48.2998 25.572 48.4909 25.665C48.6819 25.7581 48.8957 25.7941 49.1067 25.7687C49.3197 25.7847 49.5329 25.7416 49.723 25.6442C49.913 25.5467 50.0724 25.3987 50.1837 25.2164C50.4082 24.6939 50.5121 24.1275 50.4875 23.5594V22.3719H49.1343V20.8806H52.5311V27.2047H50.7913L50.6532 25.9896C50.4949 26.4202 50.2033 26.7891 49.8208 27.0424C49.4383 27.2957 48.985 27.4203 48.5267 27.3981C48.0679 27.4352 47.6068 27.3647 47.18 27.1921C46.7533 27.0195 46.3728 26.7496 46.0689 26.4039Z" fill="white"/>
<path d="M54.658 26.4017C54.0485 25.5109 53.7567 24.4408 53.8296 23.3639V18.6691C53.7562 17.6094 54.0486 16.5566 54.658 15.6866C55.428 15.0292 56.4072 14.668 57.4197 14.668C58.4321 14.668 59.4114 15.0292 60.1813 15.6866C60.7908 16.5566 61.0832 17.6094 61.0098 18.6691V23.3639C61.0784 24.4404 60.7869 25.5091 60.1813 26.4017C59.8297 26.7733 59.3988 27.0607 58.9206 27.2424C58.4424 27.4241 57.9293 27.4954 57.4197 27.4511C56.9097 27.4996 56.3955 27.4301 55.9166 27.2482C55.4378 27.0662 55.0071 26.7766 54.658 26.4017ZM58.4415 25.297C58.6294 24.8523 58.7144 24.3708 58.69 23.8886V18.1168C58.7171 17.6434 58.632 17.1703 58.4415 16.736C58.3145 16.5897 58.1575 16.4724 57.9812 16.392C57.8049 16.3116 57.6134 16.27 57.4197 16.27C57.2259 16.27 57.0345 16.3116 56.8582 16.392C56.6819 16.4724 56.5249 16.5897 56.3979 16.736C56.1881 17.1647 56.0929 17.6404 56.1217 18.1168V23.8334C56.088 24.319 56.1833 24.8049 56.3979 25.2418C56.5061 25.409 56.6597 25.5418 56.8406 25.625C57.0215 25.7081 57.2224 25.738 57.4197 25.7113C57.6065 25.747 57.7995 25.7326 57.979 25.6696C58.1585 25.6065 58.3181 25.497 58.4415 25.3523V25.297Z" fill="white"/>
<path d="M63.2438 26.4017C62.6342 25.5109 62.3424 24.4408 62.4153 23.3639V18.6691C62.3419 17.6094 62.6343 16.5566 63.2438 15.6866C64.0137 15.0292 64.9929 14.668 66.0054 14.668C67.0178 14.668 67.9971 15.0292 68.767 15.6866C69.3765 16.5566 69.6689 17.6094 69.5955 18.6691V23.3639C69.6641 24.4404 69.3726 25.5091 68.767 26.4017C68.4154 26.7733 67.9845 27.0607 67.5063 27.2424C67.0281 27.4241 66.515 27.4954 66.0054 27.4511C65.4954 27.4996 64.9812 27.4301 64.5023 27.2482C64.0235 27.0662 63.5928 26.7766 63.2438 26.4017ZM67.0272 25.297C67.2151 24.8523 67.3001 24.3708 67.2757 23.8886V18.1168C67.3028 17.6434 67.2177 17.1703 67.0272 16.736C66.9002 16.5897 66.7432 16.4724 66.5669 16.392C66.3906 16.3116 66.1991 16.27 66.0054 16.27C65.8116 16.27 65.6202 16.3116 65.4439 16.392C65.2676 16.4724 65.1106 16.5897 64.9836 16.736C64.7738 17.1647 64.6786 17.6404 64.7074 18.1168V23.8334C64.6737 24.319 64.769 24.8049 64.9836 25.2418C65.0918 25.409 65.2454 25.5418 65.4263 25.625C65.6072 25.7081 65.8081 25.738 66.0054 25.7113C66.1922 25.747 66.3852 25.7326 66.5647 25.6696C66.7442 25.6065 66.9038 25.497 67.0272 25.3523V25.297Z" fill="white"/>
<path d="M71.1953 14.8636H74.1226C74.9351 14.8251 75.7461 14.9666 76.4976 15.2779C77.0494 15.5269 77.4913 15.9688 77.7403 16.5206C77.9964 17.2283 78.1182 17.9775 78.0994 18.7299V23.2866C78.1171 24.0659 77.9955 24.8422 77.7403 25.5787C77.4945 26.1438 77.0668 26.6104 76.5252 26.9043C75.8013 27.2106 75.0184 27.3521 74.2331 27.3186H71.1953V14.8636ZM74.1502 25.7444C74.5354 25.779 74.9217 25.6921 75.2549 25.4959C75.4741 25.2976 75.6281 25.0377 75.6967 24.7502C75.7343 24.2907 75.7343 23.8289 75.6967 23.3694V18.5918C75.7493 18.17 75.7493 17.7433 75.6967 17.3215C75.6332 17.0623 75.4758 16.836 75.2549 16.6863C74.908 16.5325 74.5287 16.4661 74.1502 16.493H73.4874V25.7444H74.1502Z" fill="white"/>
<path d="M83.3761 14.8574H85.6406V20.0493H88.1813V14.8574H90.4735V27.3124H88.1813V21.7891H85.6406V27.3124H83.3761V14.8574Z" fill="white"/>
<path d="M92.2171 14.8574H97.4642V16.4592H94.4817V20.0493H96.829V21.6234H94.4817V25.7659H97.4918V27.3124H92.2171V14.8574Z" fill="white"/>
<path d="M100.661 14.8574H103.091L105.604 27.3124H103.477L102.98 24.5507H100.826L100.301 27.3124H98.1751L100.661 14.8574ZM102.732 23.1423L101.903 17.8952L101.047 23.1423H102.732Z" fill="white"/>
<path d="M106.768 14.8574H109.033V25.9039H112.071V27.4504H106.768V14.8574Z" fill="white"/>
<path d="M114.084 16.542H111.986V14.8574H118.392V16.542H116.349V27.3124H114.084V16.542Z" fill="white"/>
<path d="M119.331 14.8574H121.596V20.0493H124.136V14.8574H126.429V27.3124H124.136V21.7891H121.596V27.3124H119.331V14.8574Z" fill="white"/>
<path d="M47.3658 35.2109H49.796L52.2815 47.6935H50.1827L49.6856 44.9319H47.5039L47.0068 47.6935H44.8527L47.3658 35.2109ZM49.437 43.4958L48.5809 38.2763L47.7248 43.4958H49.437Z" fill="white"/>
<path d="M53.5536 35.2109H55.1554L58.1655 42.3359V35.2109H60.0435V47.6935H58.5522L55.3763 40.2095V47.6659H53.5536V35.2109Z" fill="white"/>
<path d="M61.838 35.2054H64.5996C65.4121 35.1669 66.2231 35.3084 66.9746 35.6196C67.5131 35.8781 67.9434 36.3182 68.1897 36.8624C68.4627 37.5752 68.5849 38.3369 68.5487 39.0993V43.6284C68.5831 44.4087 68.4611 45.1881 68.1897 45.9205C67.9643 46.4985 67.5309 46.9714 66.9746 47.2461C66.2581 47.5785 65.4711 47.7302 64.6824 47.688H61.838V35.2054ZM64.8205 46.2519C65.1997 46.2762 65.5768 46.1795 65.8976 45.9757C66.0168 45.8931 66.1177 45.7867 66.1938 45.6631C66.2698 45.5395 66.3194 45.4015 66.3394 45.2577C66.3758 44.789 66.3758 44.3181 66.3394 43.8493V38.9336C66.3938 38.5211 66.3938 38.1033 66.3394 37.6909C66.3139 37.5564 66.2616 37.4285 66.1857 37.3146C66.1098 37.2008 66.0118 37.1033 65.8976 37.0281C65.5616 36.8708 65.1903 36.8041 64.8205 36.8348H64.1301V46.1138L64.8205 46.2519Z" fill="white"/>
<path d="M73.4622 35.2109H75.3676L76.3895 43.3025L77.6874 35.2662H79.2339L80.5595 43.3025L81.5813 35.2109H83.4592L81.7194 47.6935H79.8691L78.4883 39.4086L77.1075 47.6935H75.2296L73.4622 35.2109Z" fill="white"/>
<path d="M84.8119 35.2109H90.0589V36.8127H87.0764V40.4028H89.4514V42.0045H87.104V46.147H90.1142V47.6935H84.8395L84.8119 35.2109Z" fill="white"/>
<path d="M91.3303 35.2109H93.5949V46.2574H96.6327V47.804H91.3303V35.2109Z" fill="white"/>
<path d="M97.7394 35.2109H100.004V46.2574H103.042V47.804H97.7394V35.2109Z" fill="white"/>
<path d="M104.06 41.9199H107.788V43.356H104.06V41.9199Z" fill="white"/>
<path d="M109.527 35.2108H112.592C113.567 35.1403 114.537 35.3926 115.354 35.9288C115.698 36.2254 115.964 36.6024 116.128 37.0263C116.292 37.4502 116.349 37.908 116.293 38.3591C116.293 39.9056 115.713 40.7893 114.498 41.1207C115.934 41.3969 116.652 42.4187 116.652 44.1861C116.744 45.1837 116.436 46.1769 115.796 46.9478C115.434 47.2995 114.999 47.5663 114.521 47.7287C114.043 47.8912 113.535 47.9451 113.034 47.8867H109.444L109.527 35.2108ZM112.565 40.3198C112.809 40.3514 113.057 40.3281 113.291 40.2516C113.525 40.1752 113.739 40.0475 113.918 39.878C114.197 39.4539 114.324 38.9475 114.277 38.4419C114.303 38.2041 114.273 37.9637 114.192 37.7388C114.111 37.5139 113.979 37.3104 113.808 37.144C113.327 36.8797 112.779 36.7644 112.233 36.8126H111.792V40.2094L112.565 40.3198ZM112.565 46.0916C112.819 46.1184 113.077 46.0903 113.32 46.0093C113.563 45.9284 113.786 45.7963 113.973 45.6222C114.257 45.1479 114.391 44.5996 114.36 44.048C114.392 43.4628 114.237 42.8825 113.918 42.3911C113.735 42.2088 113.513 42.0697 113.27 41.9837C113.026 41.8977 112.767 41.8671 112.51 41.894H111.709V46.0916H112.565Z" fill="white"/>
<path d="M118.006 35.2109H123.253V36.8127H120.27V40.4028H122.59V42.0045H120.243V46.147H123.253V47.6935H117.978L118.006 35.2109Z" fill="white"/>
<path d="M124.579 35.2109H126.844V47.6935H124.579V35.2109Z" fill="white"/>
<path d="M128.695 35.2109H130.269L133.307 42.3359V35.2109H135.185V47.6935H133.638L130.601 40.2371V47.6935H128.667L128.695 35.2109Z" fill="white"/>
<path d="M137.586 46.7561C137.004 45.8028 136.724 44.6955 136.785 43.5802V39.3825C136.719 38.258 136.998 37.1402 137.586 36.179C138.321 35.4709 139.294 35.0618 140.315 35.0311C141.336 35.0005 142.332 35.3506 143.109 36.0133C143.708 36.803 143.994 37.787 143.91 38.775V39.4101H141.728V38.7197C141.765 38.3617 141.765 38.0008 141.728 37.6427C141.688 37.3948 141.561 37.1695 141.369 37.0075C141.131 36.8559 140.849 36.7879 140.568 36.8142C140.418 36.798 140.267 36.8144 140.124 36.862C139.981 36.9097 139.85 36.9876 139.74 37.0904C139.547 37.2788 139.413 37.5184 139.353 37.7808C139.319 38.1575 139.319 38.5364 139.353 38.913V44.0773C139.32 44.6192 139.425 45.1606 139.657 45.6514C139.762 45.831 139.918 45.9761 140.104 46.0692C140.29 46.1623 140.499 46.1995 140.706 46.1761C140.92 46.2026 141.138 46.1641 141.33 46.0656C141.522 45.9671 141.68 45.8132 141.783 45.6238C142.013 45.1031 142.118 44.5354 142.087 43.9668V42.807H140.761V41.3709H144.131V47.695H142.667L142.501 46.4799C142.347 46.9057 142.06 47.2702 141.681 47.519C141.303 47.7679 140.854 47.8877 140.402 47.8607C139.876 47.9707 139.33 47.9247 138.829 47.7285C138.329 47.5323 137.897 47.1943 137.586 46.7561Z" fill="white"/>
<path d="M143.689 106.981C143.787 105.886 143.661 104.783 143.317 103.739C142.973 102.695 142.42 101.732 141.69 100.909C140.961 100.087 140.071 99.422 139.076 98.956C138.08 98.49 137 98.2325 135.901 98.1992C133.257 98.7919 130.885 100.25 129.163 102.342C127.644 100.768 124.993 98.1992 122.645 98.1992C121.54 98.2343 120.453 98.4902 119.448 98.9519C118.443 99.4137 117.541 100.072 116.795 100.888C116.049 101.704 115.473 102.661 115.102 103.702C114.732 104.744 114.573 105.85 114.636 106.954C114.633 109.265 115.535 111.486 117.149 113.14L129.19 125.208L141.203 113.14C142.803 111.49 143.695 109.28 143.689 106.981Z" fill="white"/>
<path d="M92.4343 144.932H92.2134C91.7715 144.902 91.3522 144.726 91.022 144.431C90.6918 144.136 90.4697 143.739 90.3907 143.303L84.2599 107.678L75.0084 124.855C74.8067 125.216 74.4972 125.506 74.1232 125.683C73.7492 125.86 73.3292 125.916 72.9219 125.843C72.5146 125.77 72.1401 125.572 71.8508 125.276C71.5615 124.98 71.3717 124.601 71.3078 124.192L67.3863 96.5761L60.1785 112.759C60.0207 113.103 59.768 113.395 59.4501 113.601C59.1321 113.806 58.762 113.917 58.3834 113.919H30.491C30.2121 113.952 29.9293 113.926 29.6614 113.842C29.3934 113.757 29.1463 113.617 28.9364 113.431C28.7264 113.244 28.5584 113.015 28.4433 112.759C28.3282 112.503 28.2687 112.225 28.2687 111.945C28.2687 111.664 28.3282 111.386 28.4433 111.13C28.5584 110.874 28.7264 110.645 28.9364 110.458C29.1463 110.272 29.3934 110.132 29.6614 110.047C29.9293 109.963 30.2121 109.937 30.491 109.97H57.1683L66.6407 88.7054C66.8188 88.3178 67.1153 87.9967 67.4875 87.7883C67.8597 87.5799 68.2884 87.4949 68.7119 87.5456C69.1405 87.5979 69.5392 87.7922 69.8446 88.0975C70.1499 88.4028 70.3442 88.8016 70.3965 89.2301L74.4561 117.564L83.5971 100.636C83.7898 100.268 84.0941 99.9711 84.4663 99.7875C84.8385 99.6038 85.2594 99.5431 85.6683 99.6139C86.0739 99.6864 86.4474 99.8815 86.7387 100.173C87.0301 100.464 87.2251 100.838 87.2977 101.243L92.959 134.383L113.588 65.7839C113.708 65.4068 113.938 65.0739 114.247 64.8279C114.557 64.582 114.934 64.434 115.328 64.4031C115.726 64.357 116.128 64.4393 116.476 64.638C116.824 64.8368 117.099 65.1415 117.261 65.5078L128.115 87.9874C128.245 88.2283 128.324 88.4935 128.347 88.7664C128.37 89.0393 128.336 89.314 128.248 89.5732C128.16 89.8325 128.019 90.0708 127.835 90.2731C127.65 90.4754 127.426 90.6375 127.176 90.7491C126.942 90.861 126.688 90.9254 126.43 90.9388C126.171 90.9521 125.912 90.914 125.668 90.8267C125.424 90.7394 125.2 90.6046 125.008 90.4301C124.817 90.2556 124.662 90.0449 124.552 89.8101L115.881 71.8871L94.2846 143.689C94.1356 144.058 93.8797 144.373 93.5499 144.594C93.2202 144.816 92.8316 144.934 92.4343 144.932Z" fill="white"/>
</svg>
