<svg width="172" height="171" viewBox="0 0 172 171" fill="none" xmlns="http://www.w3.org/2000/svg">
<path d="M171.5 0H0.5V171H171.5V0Z" fill="#E01A83"/>
<path d="M15.4153 21.3231C15.1126 21.3231 14.2597 21.8183 12.8289 22.3136C11.3982 22.8089 10.9855 22.9464 10.7103 23.084V18.4616C11.8487 18.0009 12.9521 17.4584 14.0121 16.8383C15.0209 16.327 15.9481 15.6686 16.7635 14.8848H21.6334V47.489H15.3878L15.4153 21.3231Z" fill="white"/>
<path d="M27.1071 45.4849C25.5448 43.5541 24.7511 41.1142 24.8785 38.6338V24.0239C24.7264 21.4903 25.4987 18.9876 27.0521 16.9803C28.8312 15.3366 31.1645 14.4238 33.5866 14.4238C36.0088 14.4238 38.3421 15.3366 40.1212 16.9803C41.6746 18.9876 42.4469 21.4903 42.2949 24.0239V38.6338C42.4236 41.1106 41.6185 43.5455 40.0387 45.4573C39.227 46.3421 38.2273 47.0337 37.1132 47.4813C35.999 47.9289 34.7986 48.1211 33.6004 48.0436C32.3969 48.1173 31.1918 47.9264 30.07 47.4843C28.9482 47.0422 27.9368 46.3598 27.1071 45.4849ZM35.9666 38.4963V24.1339C35.9976 23.1071 35.8486 22.0828 35.5264 21.1074C35.3478 20.7414 35.07 20.4329 34.7246 20.2171C34.3792 20.0013 33.9801 19.8869 33.5729 19.8869C33.1656 19.8869 32.7666 20.0013 32.4212 20.2171C32.0758 20.4329 31.798 20.7414 31.6194 21.1074C31.3036 22.0843 31.1548 23.1075 31.1792 24.1339V38.4688C31.1792 41.2202 32.0046 42.5408 33.6004 42.5408C35.1962 42.5408 35.9666 41.2202 35.9666 38.4688V38.4963Z" fill="white"/>
<path d="M55.0875 27.4599V14.996H58.059C58.7866 14.9705 59.513 15.0729 60.2051 15.2987C60.7555 15.4642 61.2256 15.8266 61.5258 16.3167C61.8541 16.9132 62.0068 17.5905 61.966 18.2702C61.9667 18.7322 61.9206 19.1931 61.8285 19.6459C61.7524 20.0165 61.5924 20.3648 61.3607 20.6639C61.1177 20.9561 60.8056 21.1831 60.4528 21.3243L62.1862 27.4599H59.9025L58.3892 21.737H57.3437V27.4599H55.0875ZM57.3437 20.3062H58.059C58.418 20.3273 58.7767 20.2612 59.1046 20.1136C59.2374 20.058 59.3572 19.9755 59.4567 19.8713C59.5561 19.7671 59.6329 19.6436 59.6824 19.5083C59.8037 19.1545 59.8597 18.7816 59.8474 18.4078C59.8816 17.9138 59.7563 17.4219 59.4898 17.0045C59.3252 16.8317 59.1227 16.6996 58.8983 16.6184C58.6739 16.5372 58.4337 16.5093 58.1966 16.5368H57.3437V20.3062Z" fill="white"/>
<path d="M63.3417 27.4561V14.9922H68.5694V16.4504H65.5979V20.0273H67.9366V21.6231H65.5979V25.7502H68.5969V27.4561H63.3417Z" fill="white"/>
<path d="M69.5593 27.4619V14.998H72.4758C73.2942 14.961 74.1108 15.1017 74.8695 15.4107C75.4201 15.6622 75.8533 16.1151 76.0801 16.6763C76.3439 17.3791 76.4655 18.1273 76.4378 18.8775V23.4173C76.4649 24.1853 76.3435 24.9514 76.0801 25.6735C75.8568 26.2568 75.4256 26.737 74.8695 27.0216C74.1516 27.3398 73.3706 27.4904 72.5858 27.4619H69.5593ZM71.8154 25.866H72.5308C72.9186 25.9072 73.3085 25.8098 73.6314 25.5909C73.7551 25.497 73.8564 25.3765 73.9278 25.2385C73.9992 25.1005 74.0389 24.9483 74.0441 24.793C74.0768 24.3534 74.0768 23.9119 74.0441 23.4723V18.7124C74.0941 18.3104 74.0941 17.9038 74.0441 17.5018C74.0222 17.3629 73.9717 17.2301 73.896 17.1118C73.8202 16.9934 73.7207 16.892 73.6038 16.8139C73.2634 16.6429 72.8833 16.5669 72.5033 16.5938H71.8429L71.8154 25.866Z" fill="white"/>
<path d="M81.1426 27.461C80.382 27.5088 79.6246 27.3266 78.969 26.9382C78.4612 26.601 78.0904 26.0937 77.9235 25.5075C77.7118 24.7745 77.6098 24.0142 77.6208 23.2513V14.832H79.8494V23.5265C79.8212 23.8928 79.8212 24.2607 79.8494 24.627C79.8768 24.9335 80.0023 25.2229 80.2071 25.4525C80.3175 25.5636 80.4515 25.6485 80.5991 25.7008C80.7468 25.7532 80.9043 25.7718 81.0601 25.7551C81.2159 25.7739 81.374 25.7563 81.522 25.7038C81.67 25.6513 81.8038 25.5653 81.913 25.4525C82.1076 25.2165 82.2316 24.9304 82.2707 24.627C82.2989 24.2607 82.2989 23.8928 82.2707 23.5265V14.832H84.4718V23.2513C84.4909 24.0128 84.3982 24.7729 84.1967 25.5075C84.0297 26.1014 83.647 26.6116 83.1236 26.9382C82.5271 27.299 81.8394 27.4805 81.1426 27.461Z" fill="white"/>
<path d="M89.3977 27.4554C88.6424 27.5 87.8922 27.3076 87.2516 26.9051C86.738 26.5495 86.3522 26.0383 86.151 25.4469C85.9445 24.7504 85.8425 24.0272 85.8483 23.3008V18.8435C85.8366 18.0986 85.9387 17.3564 86.151 16.6424C86.341 16.0451 86.7293 15.5306 87.2516 15.1841C87.9041 14.8151 88.6495 14.6431 89.3977 14.6889C90.0948 14.6495 90.7894 14.8018 91.4062 15.1291C91.8911 15.404 92.2619 15.8431 92.4517 16.3672C92.6589 16.9785 92.7613 17.6203 92.7544 18.2657V19.3112H90.5807V18.2382C90.5807 17.8805 90.5807 17.5778 90.5807 17.2752C90.5486 17.0214 90.4435 16.7825 90.2781 16.5873C90.0309 16.4182 89.7384 16.3276 89.4389 16.3276C89.1394 16.3276 88.8469 16.4182 88.5997 16.5873C88.4093 16.7798 88.2924 17.0329 88.2696 17.3027C88.24 17.6414 88.24 17.982 88.2696 18.3207V23.8235C88.2206 24.1979 88.2206 24.5772 88.2696 24.9516C88.3193 25.209 88.4552 25.4419 88.6548 25.612C88.8818 25.765 89.1515 25.8421 89.4252 25.8321C89.5744 25.8482 89.7254 25.8319 89.8679 25.7844C90.0103 25.7369 90.1408 25.6594 90.2506 25.5569C90.4125 25.3517 90.5084 25.1023 90.5257 24.8416C90.5555 24.5121 90.5555 24.1806 90.5257 23.8511V22.723H92.6993V23.7135C92.7206 24.3868 92.618 25.0582 92.3967 25.6945C92.2223 26.2403 91.8621 26.7076 91.3787 27.0152C90.7758 27.3531 90.0869 27.5062 89.3977 27.4554Z" fill="white"/>
<path d="M93.9404 27.4561V14.9922H99.113V16.4504H96.3616V20.0273H98.6728V21.6231H96.3616V25.7502H99.113V27.4561H93.9404Z" fill="white"/>
<path d="M100.131 27.4622V14.9984H103.075C103.885 14.96 104.693 15.1009 105.441 15.411C105.999 15.6615 106.441 16.1136 106.679 16.6767C106.93 17.383 107.051 18.1286 107.037 18.8778V23.4177C107.05 24.1848 106.929 24.9484 106.679 25.6738C106.44 26.247 106.013 26.7222 105.469 27.022C104.742 27.3424 103.951 27.493 103.158 27.4622H100.131ZM102.415 25.8664H103.103C103.499 25.9071 103.897 25.81 104.231 25.5913C104.35 25.4776 104.446 25.3411 104.512 25.1899C104.578 25.0387 104.614 24.8758 104.616 24.7108C104.649 24.2712 104.649 23.8298 104.616 23.3902V18.6302C104.652 18.2275 104.652 17.8223 104.616 17.4196C104.56 17.1434 104.403 16.898 104.176 16.7318C103.833 16.568 103.455 16.4923 103.075 16.5116H102.415V25.8664Z" fill="white"/>
<path d="M55.2272 47.6846V35.2207H57.4559V47.6846H55.2272Z" fill="white"/>
<path d="M58.9943 47.6846V35.2207H60.5901L63.6441 42.3193V35.2207H65.5151V47.6846H64.0018L60.9478 40.2282V47.6846H58.9943Z" fill="white"/>
<path d="M66.9744 47.6846V35.2207H72.2021V36.8165H69.2581V40.3933H71.5968V41.9891H69.2856V46.1163H72.2571V47.6846H66.9744Z" fill="white"/>
<path d="M79.2476 50.1545C78.9559 49.9971 78.6796 49.8129 78.4221 49.6042C78.111 49.3481 77.8253 49.0625 77.5692 48.7513C77.2902 48.4657 77.0413 48.1522 76.8263 47.8158H76.5512C75.8126 47.8516 75.0787 47.6801 74.4326 47.3205C73.9201 46.988 73.5329 46.4943 73.3321 45.9173C73.0756 45.2126 72.9543 44.4659 72.9744 43.7162V39.0663C72.9517 38.3255 73.0732 37.5872 73.3321 36.8927C73.5382 36.3259 73.9249 35.8425 74.4326 35.517C75.1012 35.2085 75.8286 35.0488 76.5649 35.0488C77.3012 35.0488 78.0287 35.2085 78.6973 35.517C79.2153 35.838 79.6121 36.3218 79.8254 36.8927C80.0614 37.5924 80.1731 38.3281 80.1555 39.0663V43.7437C80.161 44.2802 80.1056 44.8155 79.9905 45.3395C79.8916 45.7934 79.7047 46.2234 79.4402 46.6052C79.1723 46.9583 78.823 47.2415 78.4221 47.4306L78.8349 47.8708L79.2751 48.3111C79.3987 48.4375 79.5373 48.5484 79.6878 48.6412L79.2476 50.1545ZM76.4962 46.165C76.801 46.1882 77.104 46.1002 77.3491 45.9173C77.5478 45.739 77.6749 45.4946 77.7068 45.2295C77.7519 44.9193 77.7519 44.6042 77.7068 44.294V38.461C77.7519 38.1508 77.7519 37.8357 77.7068 37.5255C77.6665 37.271 77.5402 37.038 77.3491 36.8652C77.104 36.6823 76.801 36.5944 76.4962 36.6176C76.2002 36.5986 75.9073 36.6865 75.6707 36.8652C75.4796 37.038 75.3534 37.271 75.3131 37.5255C75.2822 37.8366 75.2822 38.1499 75.3131 38.461V44.1839C75.2822 44.495 75.2822 44.8083 75.3131 45.1194C75.3449 45.3845 75.472 45.629 75.6707 45.8073C75.7867 45.9219 75.9242 46.0126 76.0753 46.0739C76.2264 46.1353 76.3881 46.1663 76.5512 46.165H76.4962Z" fill="white"/>
<path d="M84.857 47.8497C84.1091 47.8922 83.3645 47.7204 82.7108 47.3544C82.1989 47.0033 81.8207 46.4894 81.6378 45.8961C81.4362 45.1616 81.3436 44.4015 81.3627 43.64V35.2207H83.5638V43.9702C83.5356 44.3365 83.5356 44.7044 83.5638 45.0707C83.6029 45.374 83.7269 45.6602 83.9215 45.8961C84.0319 46.0073 84.1659 46.0922 84.3135 46.1446C84.4611 46.1969 84.6186 46.2155 84.7744 46.1988C84.9345 46.2177 85.0968 46.2003 85.2492 46.148C85.4016 46.0956 85.5403 46.0095 85.6549 45.8961C85.8385 45.6536 85.9612 45.3705 86.0126 45.0707C86.0408 44.7044 86.0408 44.3365 86.0126 43.9702V35.2757H88.2137V43.695C88.2247 44.4579 88.1227 45.2182 87.911 45.9512C87.7352 46.5404 87.3672 47.0538 86.8655 47.4094C86.2451 47.7267 85.5532 47.8784 84.857 47.8497Z" fill="white"/>
<path d="M89.0663 47.6846L91.5425 35.2207H93.9913L96.4675 47.6846H94.3765L93.8812 44.9332H91.7076L91.2124 47.6846H89.0663ZM91.8177 43.3648H93.6061L92.7532 38.1096L91.8177 43.3648Z" fill="white"/>
<path d="M97.2668 47.6846V35.2207H99.5505V46.2263H102.549V47.7946L97.2668 47.6846Z" fill="white"/>
<path d="M103.35 47.6846V35.2207H105.606V47.6846H103.35Z" fill="white"/>
<path d="M108.356 47.6846V36.899H106.375V35.2207H112.594V36.899H110.64V47.6846H108.356Z" fill="white"/>
<path d="M113.388 47.6846V35.2207H115.617V47.6846H113.388Z" fill="white"/>
<path d="M117.161 47.6846V35.2207H122.388V36.8165H119.444V40.3933H121.783V41.9891H119.444V46.1163H122.444V47.6846H117.161Z" fill="white"/>
<path d="M126.624 47.8437C125.972 47.8718 125.324 47.7195 124.753 47.4034C124.249 47.1037 123.854 46.6506 123.625 46.1103C123.333 45.4618 123.183 44.7581 123.185 44.0467L125.138 43.6615C125.159 44.0872 125.214 44.5105 125.303 44.9272C125.372 45.2514 125.534 45.5482 125.771 45.7801C125.87 45.8831 125.99 45.9635 126.123 46.0158C126.256 46.068 126.399 46.0909 126.542 46.0828C126.692 46.0983 126.843 46.0763 126.982 46.0186C127.122 45.961 127.244 45.8695 127.339 45.7526C127.502 45.5094 127.58 45.2191 127.56 44.9272C127.584 44.4515 127.459 43.9801 127.202 43.579C126.917 43.1905 126.584 42.8393 126.211 42.5334L124.643 41.1577C124.226 40.7973 123.873 40.3695 123.598 39.8921C123.316 39.3594 123.183 38.7606 123.212 38.1587C123.181 37.7391 123.242 37.3177 123.389 36.9235C123.536 36.5293 123.767 36.1716 124.065 35.875C124.383 35.5945 124.754 35.3797 125.155 35.2428C125.556 35.1058 125.981 35.0495 126.404 35.0771C126.914 35.0566 127.421 35.1506 127.89 35.3523C128.26 35.504 128.576 35.7627 128.798 36.0951C129.048 36.4103 129.227 36.7766 129.321 37.1682C129.438 37.5905 129.512 38.0239 129.541 38.4614L127.587 38.7915C127.619 38.4437 127.619 38.0938 127.587 37.746C127.531 37.4811 127.407 37.2348 127.229 37.0306C127.134 36.9316 127.018 36.8554 126.89 36.8078C126.761 36.7601 126.623 36.7422 126.487 36.7555C126.337 36.7467 126.188 36.7719 126.05 36.8291C125.911 36.8862 125.788 36.974 125.689 37.0857C125.518 37.3263 125.431 37.6163 125.441 37.9111C125.428 38.2755 125.514 38.6365 125.689 38.9566C125.907 39.2649 126.167 39.5425 126.459 39.782L128 41.1577C128.518 41.5883 128.964 42.0992 129.321 42.671C129.698 43.3121 129.888 44.0459 129.871 44.7896C129.878 45.3366 129.745 45.8763 129.486 46.3579C129.221 46.8144 128.842 47.1938 128.385 47.4585C127.842 47.7387 127.235 47.8715 126.624 47.8437Z" fill="white"/>
<path d="M101.862 112.205H70.3855C70.3362 112.205 70.2873 112.215 70.242 112.235C70.1967 112.254 70.156 112.283 70.1224 112.319C70.0888 112.356 70.0631 112.398 70.0468 112.445C70.0305 112.492 70.0241 112.541 70.0279 112.59V122.055C70.0241 122.104 70.0305 122.154 70.0468 122.2C70.0631 122.247 70.0888 122.29 70.1224 122.326C70.156 122.362 70.1967 122.391 70.242 122.411C70.2873 122.43 70.3362 122.44 70.3855 122.44H101.862C101.911 122.44 101.96 122.43 102.005 122.411C102.051 122.391 102.091 122.362 102.125 122.326C102.158 122.29 102.184 122.247 102.2 122.2C102.217 122.154 102.223 122.104 102.219 122.055V112.59C102.223 112.541 102.217 112.492 102.2 112.445C102.184 112.398 102.158 112.356 102.125 112.319C102.091 112.283 102.051 112.254 102.005 112.235C101.96 112.215 101.911 112.205 101.862 112.205Z" fill="white"/>
<path d="M101.862 92.0645H70.3855C70.3362 92.0643 70.2873 92.0744 70.242 92.0941C70.1967 92.1137 70.156 92.1426 70.1224 92.1788C70.0888 92.215 70.0631 92.2577 70.0468 92.3043C70.0305 92.3509 70.0241 92.4004 70.0279 92.4497V101.914C70.0241 101.964 70.0305 102.013 70.0468 102.06C70.0631 102.106 70.0888 102.149 70.1224 102.185C70.156 102.222 70.1967 102.25 70.242 102.27C70.2873 102.29 70.3362 102.3 70.3855 102.3H101.862C101.911 102.3 101.96 102.29 102.005 102.27C102.051 102.25 102.091 102.222 102.125 102.185C102.158 102.149 102.184 102.106 102.2 102.06C102.217 102.013 102.223 101.964 102.219 101.914V92.4497C102.223 92.4004 102.217 92.3509 102.2 92.3043C102.184 92.2577 102.158 92.215 102.125 92.1788C102.091 92.1426 102.051 92.1137 102.005 92.0941C101.96 92.0744 101.911 92.0643 101.862 92.0645Z" fill="white"/>
<path d="M101.423 77.7561L86.3176 62.6509C86.2662 62.6005 86.197 62.5723 86.125 62.5723C86.053 62.5723 85.9838 62.6005 85.9324 62.6509L70.8272 77.7561C70.7834 77.7899 70.7522 77.8373 70.7385 77.8908C70.7248 77.9443 70.7294 78.0009 70.7516 78.0515C70.7737 78.1021 70.8121 78.1438 70.8607 78.1701C70.9093 78.1964 70.9653 78.2056 71.0197 78.1964H101.285C101.335 78.1929 101.382 78.1745 101.421 78.1436C101.461 78.1127 101.489 78.0707 101.504 78.0232C101.519 77.9757 101.519 77.9247 101.505 77.8771C101.49 77.8295 101.462 77.7873 101.423 77.7561Z" fill="white"/>
<path d="M115.622 122.553L130.727 107.448C130.777 107.397 130.805 107.328 130.805 107.256C130.805 107.184 130.777 107.114 130.727 107.063L115.622 91.9577C115.588 91.914 115.54 91.8828 115.487 91.8691C115.433 91.8554 115.377 91.8599 115.326 91.8821C115.276 91.9042 115.234 91.9427 115.208 91.9913C115.181 92.0399 115.172 92.0959 115.181 92.1503V122.416C115.185 122.465 115.203 122.513 115.234 122.552C115.265 122.591 115.307 122.62 115.354 122.635C115.402 122.65 115.453 122.65 115.501 122.635C115.548 122.621 115.59 122.592 115.622 122.553Z" fill="white"/>
<path d="M70.8235 136.746L85.9288 151.852C85.9802 151.902 86.0493 151.93 86.1213 151.93C86.1934 151.93 86.2625 151.902 86.314 151.852L101.419 136.746C101.463 136.713 101.494 136.665 101.508 136.612C101.522 136.558 101.517 136.502 101.495 136.451C101.473 136.4 101.434 136.359 101.386 136.332C101.337 136.306 101.281 136.297 101.227 136.306H70.9611C70.9114 136.31 70.8639 136.328 70.8248 136.359C70.7857 136.39 70.7569 136.432 70.742 136.479C70.7272 136.527 70.727 136.578 70.7416 136.625C70.7561 136.673 70.7847 136.715 70.8235 136.746Z" fill="white"/>
<path d="M56.6272 91.9541L41.522 107.059C41.4716 107.111 41.4433 107.18 41.4433 107.252C41.4433 107.324 41.4716 107.393 41.522 107.445L56.6272 122.55C56.6609 122.593 56.7083 122.625 56.7618 122.638C56.8153 122.652 56.8719 122.648 56.9225 122.625C56.9731 122.603 57.0149 122.565 57.0411 122.516C57.0674 122.468 57.0766 122.412 57.0674 122.357V92.0916C57.0639 92.042 57.0455 91.9944 57.0146 91.9554C56.9837 91.9163 56.9418 91.8874 56.8942 91.8726C56.8467 91.8577 56.7958 91.8576 56.7481 91.8721C56.7005 91.8867 56.6583 91.9152 56.6272 91.9541Z" fill="white"/>
</svg>
