<svg width="172" height="171" viewBox="0 0 172 171" fill="none" xmlns="http://www.w3.org/2000/svg">
<path d="M171.5 0H0.5V171H171.5V0Z" fill="#F36E24"/>
<path d="M16.3672 45.8415C14.9597 44.0747 14.26 41.8474 14.4042 39.5932V39.0955H20.2931C20.2231 40.1653 20.3737 41.2381 20.7355 42.2473C20.9353 42.5703 21.2244 42.8284 21.5679 42.9903C21.9114 43.1523 22.2945 43.2111 22.6708 43.1597C22.9498 43.1816 23.2301 43.138 23.4893 43.0324C23.7485 42.9268 23.9795 42.7621 24.1638 42.5514C24.5774 41.9643 24.8257 41.2768 24.8826 40.5608C25.0242 39.2386 25.0888 37.9093 25.0761 36.5796V33.2619C24.6766 33.8806 24.098 34.3628 23.4173 34.6442C22.5971 34.9984 21.7119 35.1774 20.8184 35.1695C19.7692 35.2383 18.7213 35.0167 17.7897 34.5289C16.8582 34.0412 16.079 33.3063 15.5377 32.4048C14.3399 30.2648 13.7653 27.8321 13.8789 25.3823C13.8789 18.0097 16.8095 14.3233 22.6708 14.3233C23.9168 14.2249 25.1684 14.4242 26.3222 14.9049C27.4759 15.3857 28.4987 16.134 29.3062 17.0881C30.8358 19.3282 31.5841 22.0103 31.4351 24.7188V36.6072C31.6104 39.5048 30.9276 42.3898 29.4721 44.9015C28.6791 45.9658 27.6212 46.804 26.4038 47.3327C25.1863 47.8614 23.8517 48.0622 22.5326 47.9151C21.4175 48.0126 20.2943 47.8787 19.2334 47.5219C18.1725 47.1651 17.1967 46.593 16.3672 45.8415ZM25.0761 28.9212V23.7235C25.1253 22.5755 24.9467 21.4291 24.5508 20.3505C24.4103 19.9702 24.1523 19.6447 23.8142 19.421C23.4762 19.1973 23.0757 19.0871 22.6708 19.1063C22.2455 19.0753 21.8223 19.1897 21.4707 19.4308C21.119 19.672 20.8598 20.0255 20.7355 20.4334C20.3418 21.8261 20.1737 23.2729 20.2378 24.7188C20.2268 25.7895 20.273 26.8601 20.3761 27.9259C20.3998 28.5804 20.6323 29.2101 21.0396 29.723C21.2439 29.9585 21.5 30.1435 21.7878 30.2634C22.0757 30.3833 22.3873 30.4349 22.6984 30.4142C23.192 30.4003 23.6728 30.2545 24.0909 29.992C24.509 29.7294 24.8492 29.3597 25.0761 28.9212Z" fill="white"/>
<path d="M38.6827 27.178V14.709H40.9222V27.178H38.6827Z" fill="white"/>
<path d="M42.0523 27.178V14.709H43.6282L46.6694 21.8144V14.709H48.5495V27.178H47.0565L43.9876 19.7132V27.178H42.0523Z" fill="white"/>
<path d="M49.6554 27.1744V14.7054H52.586C53.3994 14.6669 54.2113 14.8085 54.9637 15.1201C55.5169 15.3728 55.9523 15.828 56.1802 16.3919C56.446 17.0883 56.5682 17.8312 56.5396 18.5761V23.1379C56.5668 23.9006 56.4447 24.6614 56.1802 25.3774C55.9582 25.9563 55.5366 26.4368 54.9914 26.7321C54.26 27.0513 53.4664 27.2025 52.6689 27.1744H49.6554ZM51.9225 25.5709H52.6137C53.0121 25.6118 53.4124 25.5142 53.7472 25.2944C53.9855 25.0921 54.1345 24.804 54.1619 24.4926C54.1949 24.0601 54.1949 23.6257 54.1619 23.1932V18.3272C54.197 17.9225 54.197 17.5155 54.1619 17.1107C54.1347 16.9733 54.0788 16.8431 53.9978 16.7288C53.9168 16.6144 53.8126 16.5185 53.6919 16.4472C53.3585 16.279 52.9864 16.2026 52.6137 16.226H51.9501L51.9225 25.5709Z" fill="white"/>
<path d="M60.8243 27.1744C60.069 27.2203 59.3174 27.0372 58.6678 26.6491C58.1575 26.3103 57.785 25.8005 57.6172 25.2114C57.406 24.484 57.3035 23.7294 57.313 22.972V14.6777H59.5525V23.3591C59.5525 23.7461 59.5525 24.1332 59.5525 24.465C59.5985 24.7679 59.7223 25.0537 59.9119 25.2944C60.0226 25.4079 60.1565 25.4963 60.3043 25.5535C60.4522 25.6108 60.6107 25.6356 60.769 25.6262C60.932 25.6417 61.0963 25.6198 61.2496 25.5623C61.4029 25.5049 61.5411 25.4133 61.6537 25.2944C61.8433 25.0537 61.9671 24.7679 62.0131 24.465C62.0427 24.0969 62.0427 23.7271 62.0131 23.3591V14.6777H64.1973V22.972C64.215 23.728 64.1218 24.4825 63.9208 25.2114C63.753 25.8005 63.3804 26.3103 62.8702 26.6491C62.2512 27.0133 61.5421 27.1954 60.8243 27.1744Z" fill="white"/>
<path d="M68.4561 27.1772C67.8108 27.1924 67.1725 27.04 66.6037 26.7348C66.0867 26.4382 65.6794 25.9824 65.4425 25.4354C65.1722 24.7773 65.0313 24.0733 65.0278 23.3618L66.9631 22.9748C66.9787 23.4138 67.0436 23.8497 67.1566 24.2742C67.2239 24.5865 67.3771 24.8738 67.599 25.1036C67.7015 25.2109 67.8267 25.2938 67.9654 25.3465C68.1042 25.3991 68.2529 25.42 68.4008 25.4078C68.5474 25.4238 68.6958 25.4016 68.8314 25.3435C68.967 25.2854 69.0853 25.1933 69.1749 25.076C69.3385 24.8317 69.4163 24.5399 69.3961 24.2466C69.4243 23.7768 69.2981 23.3108 69.0367 22.9195C68.7573 22.5232 68.422 22.1693 68.0414 21.8689L66.4931 20.4865C66.0681 20.1304 65.712 19.6993 65.4425 19.2147C65.1499 18.6821 65.0066 18.0803 65.0278 17.4729C64.9925 17.0526 65.0539 16.6297 65.2073 16.2368C65.3606 15.8438 65.6019 15.4912 65.9125 15.2058C66.2313 14.9227 66.6033 14.706 67.0068 14.5683C67.4103 14.4306 67.8372 14.3748 68.2625 14.4041C68.7625 14.3916 69.2601 14.476 69.7279 14.6529C70.088 14.8241 70.4011 15.0803 70.6402 15.3994C70.8859 15.7301 71.0644 16.1058 71.1655 16.5052C71.2839 16.9202 71.3581 17.3465 71.3867 17.7771L69.4514 18.1088C69.4245 17.7655 69.3783 17.424 69.3131 17.0859C69.2562 16.8114 69.1328 16.5551 68.9537 16.3394C68.8519 16.2507 68.7335 16.183 68.6054 16.1403C68.4773 16.0976 68.3419 16.0807 68.2073 16.0906C68.0613 16.0818 67.9153 16.1073 67.781 16.1649C67.6466 16.2225 67.5275 16.3106 67.4331 16.4223C67.2414 16.655 67.1428 16.9506 67.1566 17.2517C67.1384 17.6134 67.2352 17.9715 67.4331 18.2747C67.64 18.5944 67.8913 18.883 68.1796 19.1318L69.7279 20.4865C70.2487 20.9191 70.6967 21.4326 71.055 22.0071C71.4347 22.641 71.6264 23.3697 71.6079 24.1083C71.623 24.6624 71.4791 25.2093 71.1932 25.6842C70.9461 26.1478 70.5721 26.5314 70.1149 26.7901C69.6021 27.0534 69.0324 27.1863 68.4561 27.1772Z" fill="white"/>
<path d="M73.3806 27.178V16.3678H71.39V14.709H77.6107V16.3678H75.6478V27.178H73.3806Z" fill="white"/>
<path d="M77.8321 27.1825V14.7135H80.818C81.5492 14.6855 82.2796 14.7885 82.9745 15.0176C83.5198 15.1852 83.983 15.5499 84.274 16.0405C84.6135 16.6371 84.7765 17.3179 84.744 18.0035C84.7891 18.4539 84.7891 18.9078 84.744 19.3582C84.6556 19.7266 84.4959 20.0741 84.274 20.3812C84.0298 20.6748 83.7162 20.9029 83.3616 21.0447L85.1034 27.1825H82.8087L81.3157 21.4594H80.2651V27.1825H77.8321ZM80.1268 20.0218H80.818C81.1875 20.0401 81.5563 19.9739 81.8963 19.8282C82.1519 19.7041 82.3499 19.4863 82.4492 19.22C82.5709 18.874 82.6271 18.5083 82.6151 18.1417C82.6578 17.6446 82.5311 17.1478 82.2557 16.7317C82.0903 16.5581 81.8868 16.4253 81.6613 16.3437C81.4358 16.2621 81.1945 16.2341 80.9563 16.2617H80.1268V20.0218Z" fill="white"/>
<path d="M87.3679 27.178V22.4226L84.852 14.709H86.9809L88.5015 19.6302L89.9668 14.709H92.0404L89.5521 22.4226V27.178H87.3679Z" fill="white"/>
<path d="M92.1489 29.165L91.9554 28.4185C92.2192 28.3313 92.4569 28.1791 92.6466 27.9761C92.852 27.7279 92.9601 27.4135 92.9507 27.0914H91.8448V24.9902H93.8907V26.8979C93.9129 27.448 93.7578 27.9908 93.4484 28.4462C93.1188 28.838 92.656 29.094 92.1489 29.165Z" fill="white"/>
<path d="M97.5958 27.178V14.709H99.9458V27.178H97.5958Z" fill="white"/>
<path d="M100.971 27.1818V14.7128H102.713L105.477 21.6523V14.5469H107.357V27.1818H105.864L102.795 19.717V27.1818H100.971Z" fill="white"/>
<path d="M108.574 27.178V14.709H110.15L113.191 21.8144V14.709H115.071V27.178H113.55L110.509 19.7132V27.178H108.574Z" fill="white"/>
<path d="M119.551 27.1791C118.809 27.2151 118.071 27.0427 117.422 26.6814C116.907 26.3472 116.518 25.8511 116.316 25.2714C116.084 24.5671 115.972 23.8287 115.984 23.0872V18.4148C115.966 17.682 116.079 16.9518 116.316 16.2583C116.523 15.6887 116.912 15.203 117.422 14.8759C118.089 14.5665 118.815 14.4062 119.551 14.4062C120.286 14.4062 121.013 14.5665 121.68 14.8759C122.204 15.1875 122.597 15.6787 122.786 16.2583C123.048 16.946 123.17 17.6792 123.145 18.4148V23.0872C123.166 23.8225 123.044 24.5549 122.786 25.2437C122.589 25.8337 122.2 26.3402 121.68 26.6814C121.03 27.0427 120.293 27.2151 119.551 27.1791ZM119.551 25.4926C119.849 25.5168 120.145 25.428 120.38 25.2437C120.572 25.0701 120.699 24.8359 120.74 24.5802C120.768 24.2675 120.768 23.9529 120.74 23.6402V17.8895C120.771 17.5769 120.771 17.262 120.74 16.9495C120.699 16.6937 120.572 16.4596 120.38 16.2859C120.135 16.1242 119.844 16.0466 119.551 16.0647C119.258 16.0505 118.968 16.1278 118.721 16.2859C118.539 16.4667 118.414 16.6976 118.362 16.9495C118.331 17.262 118.331 17.5769 118.362 17.8895V23.6402C118.333 23.9529 118.333 24.2675 118.362 24.5802C118.402 24.8359 118.529 25.0701 118.721 25.2437C118.83 25.3523 118.959 25.4377 119.102 25.4948C119.245 25.5518 119.397 25.5793 119.551 25.5755V25.4926Z" fill="white"/>
<path d="M125.88 27.178L123.364 14.709H125.382L127.014 23.5285L128.562 14.709H130.635L128.12 27.178H125.88Z" fill="white"/>
<path d="M130.001 27.178L132.489 14.709H134.922L137.438 27.178H135.309L134.839 24.4133H132.655L132.157 27.178H130.001ZM132.765 22.8373H134.48L133.622 17.6119L132.765 22.8373Z" fill="white"/>
<path d="M138.655 27.178V16.3678H136.664V14.709H142.885V16.3678H140.922V27.178H138.655Z" fill="white"/>
<path d="M143.16 27.178V14.709H145.427V27.178H143.16Z" fill="white"/>
<path d="M149.936 27.1791C149.194 27.2151 148.457 27.0427 147.807 26.6814C147.292 26.3472 146.903 25.8511 146.701 25.2714C146.469 24.5671 146.357 23.8287 146.37 23.0872V18.4148C146.352 17.682 146.464 16.9518 146.701 16.2583C146.909 15.6887 147.297 15.203 147.807 14.8759C148.474 14.5665 149.201 14.4062 149.936 14.4062C150.671 14.4062 151.398 14.5665 152.065 14.8759C152.589 15.1875 152.982 15.6787 153.171 16.2583C153.433 16.946 153.555 17.6792 153.53 18.4148V23.0872C153.551 23.8225 153.429 24.5549 153.171 25.2437C152.974 25.8337 152.585 26.3402 152.065 26.6814C151.416 27.0427 150.678 27.2151 149.936 27.1791ZM149.936 25.4926C150.234 25.5168 150.53 25.428 150.766 25.2437C150.958 25.0701 151.084 24.8359 151.125 24.5802C151.154 24.2675 151.154 23.9529 151.125 23.6402V17.8895C151.156 17.5769 151.156 17.262 151.125 16.9495C151.084 16.6937 150.958 16.4596 150.766 16.2859C150.52 16.1242 150.229 16.0466 149.936 16.0647C149.643 16.0505 149.353 16.1278 149.107 16.2859C148.924 16.4667 148.799 16.6976 148.747 16.9495C148.715 17.262 148.715 17.577 148.747 17.8895V23.6402C148.719 23.9529 148.719 24.2675 148.747 24.5802C148.788 24.8359 148.915 25.0701 149.107 25.2437C149.215 25.3523 149.345 25.4377 149.487 25.4948C149.63 25.5518 149.783 25.5793 149.936 25.5755V25.4926Z" fill="white"/>
<path d="M154.414 27.178V14.709H155.99L159.031 21.8144V14.709H160.911V27.178H159.39L156.349 19.7132V27.178H154.414Z" fill="white"/>
<path d="M37.9916 47.4397L40.4799 34.9707H42.9128L45.4288 47.4397H43.2999L42.8023 44.675H40.6458L40.1481 47.4397H37.9916ZM40.7563 43.1267H42.4705L41.6134 37.9013L40.7563 43.1267Z" fill="white"/>
<path d="M46.0104 47.4397V34.9707H47.5863L50.6276 42.0761V34.9707H52.5076V47.4397H50.987L47.9458 40.0025V47.4397H46.0104Z" fill="white"/>
<path d="M53.7755 47.4459V34.9769H56.7338C57.5472 34.9384 58.3591 35.08 59.1115 35.3916C59.6602 35.6641 60.0922 36.1255 60.328 36.691C60.5822 37.3905 60.7041 38.1311 60.6874 38.8752V43.4094C60.7008 44.1802 60.5791 44.9475 60.328 45.6765C60.1095 46.2596 59.6735 46.7353 59.1115 47.0035C58.3942 47.3363 57.6063 47.4882 56.8167 47.4459H53.7755ZM56.0703 45.87H56.7615C57.1512 45.9114 57.5429 45.8134 57.8673 45.5935C57.989 45.4966 58.0888 45.3751 58.1602 45.2369C58.2317 45.0987 58.2732 44.947 58.282 44.7917C58.3141 44.3592 58.3141 43.9249 58.282 43.4923V38.7093C58.3323 38.3054 58.3323 37.8967 58.282 37.4928C58.2597 37.3571 58.2087 37.2278 58.1324 37.1134C58.0561 36.9989 57.9564 36.9021 57.8397 36.8293C57.511 36.648 57.135 36.5709 56.7615 36.6081H56.0979L56.0703 45.87Z" fill="white"/>
<path d="M64.9749 47.4397V34.9707H67.2144V47.4397H64.9749Z" fill="white"/>
<path d="M68.5388 47.4397V34.9707H70.1148L73.156 42.0761V34.9707H75.0637V47.4397H73.543L70.5018 40.0025V47.4397H68.5388Z" fill="white"/>
<path d="M76.3093 47.4397V34.9707H81.4518V36.5466H78.687V40.1684H81.0094V41.772H78.687V47.4397H76.3093Z" fill="white"/>
<path d="M82.0332 47.4407V34.9717H85.0191C85.7404 34.9595 86.459 35.0621 87.148 35.2758C87.6953 35.4531 88.1643 35.8146 88.4751 36.2987C88.8022 36.8992 88.9553 37.579 88.9174 38.2617C88.9792 38.7112 88.9792 39.167 88.9174 39.6164C88.847 39.9908 88.6856 40.3421 88.4474 40.6394C88.2184 40.9487 87.8999 41.1804 87.535 41.3029L89.2768 47.4407H87.0098L85.4891 41.7453H84.4385V47.4407H82.0332ZM84.3003 40.3076H85.0191C85.3798 40.3288 85.7403 40.2624 86.0697 40.1141C86.3271 39.9923 86.5259 39.7737 86.6227 39.5059C86.7621 39.1543 86.828 38.7779 86.8162 38.3999C86.8379 37.9048 86.7129 37.4143 86.4568 36.9899C86.2858 36.8172 86.0766 36.6872 85.846 36.6103C85.6155 36.5335 85.3701 36.512 85.1297 36.5476H84.3003V40.3076Z" fill="white"/>
<path d="M89.4419 47.4397L91.9302 34.9707H94.4185L96.9067 47.4397H94.8055L94.3079 44.675H92.1513L91.6261 47.4397H89.4419ZM92.2066 43.1267H93.8931L93.0361 37.9013L92.2066 43.1267Z" fill="white"/>
<path d="M100.584 47.6078C99.9326 47.6301 99.286 47.4874 98.7042 47.1931C98.1975 46.8918 97.8003 46.4365 97.5707 45.8936C97.2879 45.2207 97.1558 44.4941 97.1836 43.7648L99.1466 43.3777C99.1673 43.8054 99.2228 44.2308 99.3125 44.6495C99.3841 44.9684 99.5364 45.2635 99.7548 45.5066C99.9735 45.7065 100.26 45.8153 100.557 45.8107C100.703 45.8267 100.852 45.8046 100.987 45.7464C101.123 45.6883 101.241 45.5961 101.331 45.4789C101.502 45.2371 101.59 44.9457 101.58 44.6495C101.594 44.1687 101.459 43.6953 101.192 43.2947C100.917 42.9042 100.591 42.551 100.225 42.2441L98.6489 40.8618C98.2239 40.5056 97.8678 40.0746 97.5983 39.59C97.3188 39.0633 97.1852 38.4715 97.2112 37.8758C97.1837 37.4545 97.2459 37.0321 97.3936 36.6365C97.5414 36.241 97.7713 35.8812 98.0683 35.5811C98.7212 35.0247 99.5615 34.738 100.418 34.7793C100.92 34.772 101.419 34.866 101.884 35.0558C102.248 35.2328 102.569 35.4876 102.824 35.8022C103.045 36.1335 103.213 36.4973 103.321 36.8805C103.44 37.3049 103.514 37.7403 103.543 38.1799L101.607 38.5117C101.594 38.158 101.548 37.8063 101.469 37.4611C101.425 37.1907 101.299 36.94 101.11 36.7423C101.008 36.6536 100.889 36.5859 100.761 36.5432C100.633 36.5005 100.498 36.4836 100.363 36.4934C100.22 36.4888 100.078 36.5134 99.9446 36.5657C99.8115 36.618 99.6904 36.6968 99.5889 36.7976C99.4175 37.0394 99.3301 37.3307 99.3401 37.627C99.3275 37.9932 99.4134 38.356 99.5889 38.6776C99.79 38.9936 100.042 39.2739 100.335 39.507L101.884 40.8894C102.411 41.3153 102.86 41.8299 103.211 42.41C103.59 43.0439 103.782 43.7726 103.764 44.5112C103.767 45.0605 103.634 45.602 103.377 46.0871C103.118 46.5443 102.734 46.9183 102.271 47.1654C101.761 47.4671 101.177 47.6203 100.584 47.6078Z" fill="white"/>
<path d="M105.699 47.4397V36.6572H103.708V34.9707H109.929V36.6572H107.966V47.4397H105.699Z" fill="white"/>
<path d="M110.453 47.4411V34.9721H113.439C114.16 34.9575 114.879 35.0602 115.568 35.2761C116.115 35.4535 116.584 35.815 116.895 36.2991C117.232 36.8968 117.394 37.5767 117.365 38.2621C117.367 38.7173 117.321 39.1715 117.227 39.6168C117.142 39.9864 116.982 40.3346 116.757 40.6398C116.528 40.9491 116.209 41.1808 115.844 41.3033L117.558 47.4411H115.291L113.771 41.7457H112.748V47.4411H110.453ZM112.748 40.308H113.439C113.8 40.3292 114.16 40.2628 114.489 40.1145C114.754 39.9936 114.962 39.7759 115.07 39.5063C115.19 39.1502 115.246 38.7758 115.236 38.4003C115.27 37.904 115.144 37.4097 114.877 36.9903C114.71 36.8199 114.505 36.691 114.28 36.6142C114.054 36.5373 113.813 36.5146 113.577 36.5479H112.748V40.308Z" fill="white"/>
<path d="M121.872 47.6056C121.12 47.6515 120.371 47.4787 119.716 47.108C119.195 46.774 118.812 46.2636 118.637 45.6703C118.435 44.9322 118.342 44.1683 118.361 43.4032V34.9707H120.573V43.7626C120.544 44.1307 120.544 44.5004 120.573 44.8685C120.612 45.1733 120.737 45.4608 120.932 45.6979C121.047 45.8037 121.182 45.8851 121.33 45.9374C121.477 45.9896 121.633 46.0116 121.789 46.002C121.945 46.015 122.103 45.9946 122.25 45.9422C122.398 45.8897 122.533 45.8065 122.646 45.6979C122.842 45.4608 122.966 45.1733 123.006 44.8685C123.034 44.5004 123.034 44.1307 123.006 43.7626V35.0536H125.217V43.4861C125.228 44.2527 125.126 45.0167 124.913 45.7532C124.731 46.3352 124.362 46.8407 123.863 47.1909C123.248 47.5028 122.561 47.6459 121.872 47.6056Z" fill="white"/>
<path d="M129.917 47.6101C129.161 47.656 128.41 47.4729 127.76 47.0848C127.246 46.732 126.866 46.2156 126.682 45.6195C126.475 44.9197 126.372 44.1929 126.378 43.463V39.0118C126.368 38.2634 126.471 37.5179 126.682 36.8C126.859 36.2078 127.241 35.6981 127.76 35.3623C128.41 34.9742 129.161 34.7911 129.917 34.837C130.617 34.8069 131.312 34.9593 131.935 35.2793C132.418 35.5731 132.788 36.0212 132.986 36.5511C133.195 37.1555 133.298 37.7916 133.29 38.4312V39.4818H131.106V38.4035C131.106 38.0441 131.106 37.74 131.106 37.4359C131.087 37.1855 130.979 36.95 130.802 36.7723C130.699 36.6666 130.573 36.5865 130.434 36.5385C130.294 36.4905 130.146 36.4759 130 36.4958C129.846 36.4825 129.69 36.5001 129.543 36.5476C129.396 36.5951 129.26 36.6715 129.143 36.7723C128.948 36.9668 128.822 37.219 128.783 37.4911C128.754 37.8315 128.754 38.1738 128.783 38.5141V44.0436C128.748 44.4206 128.748 44.8001 128.783 45.1771C128.856 45.4269 128.989 45.6548 129.17 45.8407C129.409 45.995 129.688 46.0722 129.972 46.0619C130.117 46.0708 130.263 46.051 130.401 46.0035C130.538 45.9561 130.665 45.882 130.774 45.7854C130.929 45.5724 131.033 45.3264 131.078 45.0666C131.078 44.7625 131.078 44.4307 131.078 44.0713V42.9377H133.262V43.7671C133.271 44.4339 133.168 45.0974 132.958 45.7301C132.784 46.2866 132.423 46.7654 131.935 47.0848C131.33 47.4571 130.627 47.64 129.917 47.6101Z" fill="white"/>
<path d="M135.528 47.4397V36.6572H133.538V34.9707H139.758V36.6572H137.795V47.4397H135.528Z" fill="white"/>
<path d="M143.715 47.6056C142.963 47.6515 142.214 47.4787 141.558 47.108C141.038 46.774 140.655 46.2636 140.48 45.6703C140.277 44.9322 140.184 44.1683 140.204 43.4032V34.9707H142.415V43.7626C142.387 44.1307 142.387 44.5004 142.415 44.8685C142.455 45.1733 142.579 45.4608 142.775 45.6979C142.89 45.8037 143.025 45.8851 143.172 45.9374C143.32 45.9896 143.476 46.0116 143.632 46.002C143.788 46.015 143.945 45.9946 144.093 45.9422C144.241 45.8897 144.376 45.8065 144.489 45.6979C144.684 45.4608 144.809 45.1733 144.848 44.8685C144.877 44.5004 144.877 44.1307 144.848 43.7626V35.0536H147.06V43.4861C147.071 44.2527 146.969 45.0167 146.756 45.7532C146.574 46.3352 146.205 46.8407 145.705 47.1909C145.09 47.5028 144.403 47.6459 143.715 47.6056Z" fill="white"/>
<path d="M148.414 47.4407V34.9717H151.4C152.122 34.9595 152.84 35.0621 153.529 35.2758C154.076 35.4531 154.545 35.8146 154.856 36.2987C155.183 36.8992 155.336 37.579 155.299 38.2617C155.301 38.7169 155.255 39.1711 155.16 39.6164C155.09 39.9908 154.929 40.3421 154.69 40.6394C154.461 40.9487 154.143 41.1804 153.778 41.3029L155.52 47.4407H153.225L151.732 41.7453H150.681V47.4407H148.414ZM150.681 40.3076H151.4C151.761 40.3267 152.121 40.2603 152.451 40.1141C152.702 39.9835 152.898 39.7679 153.004 39.5059C153.123 39.1498 153.18 38.7754 153.17 38.3999C153.198 37.9077 153.083 37.4178 152.838 36.9899C152.663 36.8224 152.454 36.6958 152.224 36.6193C151.995 36.5428 151.751 36.5183 151.511 36.5476H150.681V40.3076Z" fill="white"/>
<path d="M156.406 47.4397V34.9707H161.632V36.5742H158.673V40.1684H161.023V41.7443H158.673V45.8638H161.659V47.4397H156.406Z" fill="white"/>
<path d="M129.891 112.524L109.46 100.718V77.1626C109.463 76.9167 109.401 76.6743 109.279 76.4605C109.158 76.2466 108.981 76.0691 108.768 75.9461L87.6456 63.7536C87.4355 63.6322 87.1971 63.5684 86.9545 63.5684C86.7118 63.5684 86.4734 63.6322 86.2633 63.7536L65.1406 75.9461C64.9313 76.0733 64.7579 76.2517 64.637 76.4646C64.516 76.6775 64.4515 76.9178 64.4494 77.1626V100.718L44.0178 112.524C43.8089 112.644 43.6352 112.818 43.5139 113.026C43.3927 113.235 43.3281 113.471 43.3267 113.713V138.098C43.3287 138.343 43.3933 138.583 43.5143 138.796C43.6352 139.009 43.8086 139.187 44.0178 139.314L65.1406 151.507C65.354 151.633 65.5975 151.7 65.8455 151.7C66.0936 151.7 66.3372 151.633 66.5506 151.507L86.9545 139.729L107.386 151.507C107.596 151.629 107.834 151.695 108.077 151.7C108.319 151.688 108.555 151.622 108.768 151.507L129.891 139.314C130.1 139.187 130.274 139.009 130.395 138.796C130.516 138.583 130.58 138.343 130.582 138.098V113.713C130.581 113.471 130.516 113.235 130.395 113.026C130.274 112.818 130.1 112.644 129.891 112.524ZM85.655 135.692L68.7071 125.905L85.655 116.146V135.692ZM105.368 101.52L88.4198 111.307V91.7605L105.368 101.52ZM85.655 111.307L68.7071 101.52L85.655 91.7605V111.307ZM89.8298 113.713L108.16 103.151L126.49 113.713L108.16 124.302L89.8298 113.713ZM106.75 99.1148L89.8298 89.3275L106.75 79.568V99.1148ZM84.245 89.3275L67.2418 99.0595V79.7062L84.245 89.3275ZM64.5323 147.885L46.202 137.296V116.146L64.5323 126.707V147.885ZM67.2971 147.885V128.338L84.2173 138.098L67.2971 147.885ZM127.845 137.296L109.515 147.885V126.707L127.845 116.146V137.296Z" fill="white"/>
</svg>
