<svg width="172" height="171" viewBox="0 0 172 171" fill="none" xmlns="http://www.w3.org/2000/svg">
<path d="M171.5 0H0.5V171H171.5V0Z" fill="#40AE49"/>
<path d="M15.074 21.3196C14.7985 21.4574 13.9169 21.8155 12.5118 22.3114C11.1068 22.8073 10.666 22.945 10.363 23.0828V18.4545C11.512 17.9941 12.6261 17.4508 13.6965 16.829C14.7043 16.3133 15.6323 15.6545 16.4514 14.873H21.3277V47.4642H15.074V21.3196Z" fill="white"/>
<path d="M28.1342 46.8094C26.8991 46.0451 25.995 44.846 25.5997 43.4484C25.0837 41.659 24.8513 39.7998 24.9109 37.9385H30.9443C30.8667 39.3182 31.0441 40.7004 31.4677 42.0158C31.6434 42.3523 31.8983 42.6411 32.2104 42.8572C32.5225 43.0734 32.8825 43.2104 33.2593 43.2565C33.6362 43.3026 34.0186 43.2564 34.3736 43.1218C34.7286 42.9873 35.0455 42.7684 35.2971 42.4842C35.7092 41.8195 35.9462 41.0612 35.9859 40.2802C36.1027 38.952 36.1487 37.6186 36.1236 36.2855C36.1916 34.7884 36.0148 33.2902 35.6002 31.85C35.452 31.3858 35.1505 30.9857 34.745 30.7153C34.3395 30.445 33.8542 30.3205 33.3687 30.3623C31.9085 30.3623 30.9719 31.3541 30.6137 33.3102H25.2416L25.7099 14.7969H40.7244V20.1415H30.8065L30.4484 27.3595C30.9719 26.8029 31.6395 26.4024 32.3769 26.2024C33.3279 25.8888 34.3233 25.7306 35.3247 25.734C36.3325 25.6902 37.3331 25.924 38.2173 26.4098C39.1014 26.8956 39.8352 27.6148 40.3387 28.489C41.6002 30.8069 42.1916 33.4302 42.0468 36.0651C42.0979 38.2257 41.8664 40.3836 41.358 42.4842C40.9651 44.0752 40.054 45.4902 38.7684 46.5064C37.145 47.5917 35.2063 48.1055 33.2585 47.9665C31.4751 48.0759 29.6975 47.6746 28.1342 46.8094Z" fill="white"/>
<path d="M55.0771 27.304V14.8516H57.3637V25.8714H60.3667V27.4417L55.0771 27.304Z" fill="white"/>
<path d="M61.0821 27.304V14.8516H63.3412V27.304H61.0821Z" fill="white"/>
<path d="M64.8271 27.304V14.8516H69.9513V16.4219H67.1963V20.0584H69.5105V21.6288H67.1963V27.304H64.8271Z" fill="white"/>
<path d="M70.6437 27.304V14.8516H75.8505V16.4494H72.9027V20.0309H75.2169V21.6288H72.9027V25.7337H75.8505V27.304H70.6437Z" fill="white"/>
<path d="M58.4667 47.8478C57.7271 47.8837 56.9923 47.7119 56.3453 47.3519C55.8171 47.0165 55.4187 46.5113 55.2158 45.9193C54.9795 45.2187 54.8676 44.4821 54.8852 43.7429V39.087C54.8676 38.3478 54.9795 37.6112 55.2158 36.9106C55.4397 36.345 55.8346 35.8635 56.3453 35.5331C56.9998 35.1956 57.7309 35.0342 58.4667 35.0648C59.2027 35.0316 59.9344 35.1931 60.588 35.5331C61.1067 35.8545 61.5039 36.339 61.7175 36.9106C61.9638 37.6094 62.085 38.3461 62.0757 39.087V43.7704C62.0829 44.5022 61.9617 45.2295 61.7175 45.9193C61.5146 46.5113 61.1163 47.0165 60.588 47.3519C59.9421 47.7147 59.2065 47.8867 58.4667 47.8478ZM58.4667 46.1673C58.7641 46.1972 59.0613 46.1081 59.2932 45.9193C59.4921 45.7408 59.6194 45.496 59.6513 45.2306C59.6965 44.92 59.6965 44.6045 59.6513 44.2939V38.5636C59.6965 38.253 59.6965 37.9375 59.6513 37.6269C59.6109 37.3721 59.4846 37.1388 59.2932 36.9657C59.0613 36.777 58.7641 36.6878 58.4667 36.7178C58.1704 36.6988 57.8771 36.7868 57.6402 36.9657C57.4488 37.1388 57.3224 37.3721 57.282 37.6269C57.2502 37.9383 57.2502 38.2522 57.282 38.5636V44.2939C57.2368 44.6045 57.2368 44.92 57.282 45.2306C57.3139 45.496 57.4412 45.7408 57.6402 45.9193C57.872 46.1081 58.1692 46.1972 58.4667 46.1673Z" fill="white"/>
<path d="M63.2828 47.6909V35.2109H64.8256L67.8561 42.3187V35.2109H69.7294V47.6909H68.2418L65.2113 40.225V47.6909H63.2828Z" fill="white"/>
<path d="M74.4694 47.6909V35.2109H76.756V46.2308H79.7865V47.8011L74.4694 47.6909Z" fill="white"/>
<path d="M79.8717 47.6909L82.3511 35.2109H84.8031L87.2825 47.6909H85.1887L84.6929 44.7982H82.5164L82.0206 47.6909H79.8717ZM82.6267 43.3656H84.3347L83.4807 38.1312L82.6267 43.3656Z" fill="white"/>
<path d="M88.0236 47.6909V35.2109H89.6214L92.6519 42.3187V35.2109H94.5253V47.6909H93.0376L89.952 40.225V47.6909H88.0236Z" fill="white"/>
<path d="M95.9333 47.6873V35.2073H98.8812C99.6917 35.1689 100.501 35.3101 101.25 35.6206C101.528 35.7461 101.777 35.9251 101.985 36.1473C102.193 36.3695 102.356 36.6305 102.463 36.9154C102.737 37.6074 102.868 38.3478 102.848 39.0918V43.6375C102.867 44.4084 102.736 45.1757 102.463 45.8966C102.25 46.4788 101.828 46.9604 101.278 47.2465C100.55 47.5674 99.7587 47.7181 98.9638 47.6873H95.9333ZM98.22 46.0894H98.9087C99.3057 46.1302 99.7046 46.0329 100.038 45.8139C100.271 45.6087 100.419 45.3237 100.451 45.015C100.484 44.5748 100.484 44.1328 100.451 43.6926V38.9265C100.488 38.5233 100.488 38.1176 100.451 37.7144C100.397 37.4446 100.239 37.2071 100.011 37.0532C99.6718 36.8765 99.2895 36.8001 98.9087 36.8328H98.2475L98.22 46.0894Z" fill="white"/>
<path d="M71.2175 115.762H66.176C65.963 115.762 65.7903 115.934 65.7903 116.147V128.655C65.7903 128.868 65.963 129.041 66.176 129.041H71.2175C71.4306 129.041 71.6032 128.868 71.6032 128.655V116.147C71.6032 115.934 71.4306 115.762 71.2175 115.762Z" fill="white"/>
<path d="M126.841 134.391H43.4207C43.3159 134.398 43.2178 134.444 43.1461 134.521C43.0745 134.598 43.0347 134.699 43.035 134.804V139.901C43.0348 139.95 43.0449 139.999 43.0646 140.044C43.0843 140.09 43.1132 140.13 43.1494 140.164C43.1857 140.198 43.2285 140.223 43.2751 140.24C43.3218 140.256 43.3714 140.262 43.4207 140.259H126.841C126.938 140.259 127.033 140.222 127.104 140.156C127.176 140.089 127.219 139.998 127.226 139.901V134.804C127.227 134.699 127.187 134.598 127.115 134.521C127.044 134.444 126.945 134.398 126.841 134.391Z" fill="white"/>
<path d="M126.841 144.527H43.4207C43.3184 144.527 43.2203 144.568 43.148 144.64C43.0756 144.713 43.035 144.811 43.035 144.913V150.037C43.0348 150.087 43.0449 150.136 43.0646 150.181C43.0843 150.226 43.1132 150.267 43.1494 150.301C43.1857 150.334 43.2285 150.36 43.2751 150.376C43.3218 150.393 43.3714 150.399 43.4207 150.395H126.841C126.938 150.396 127.033 150.359 127.104 150.292C127.176 150.226 127.219 150.135 127.226 150.037V144.913C127.226 144.811 127.186 144.713 127.113 144.64C127.041 144.568 126.943 144.527 126.841 144.527Z" fill="white"/>
<path d="M110.971 101.901C108.917 100.243 106.39 99.2782 103.753 99.1465C101.247 99.1546 98.8444 100.144 97.0587 101.901C96.9818 101.965 96.9199 102.045 96.877 102.136C96.8342 102.226 96.8116 102.325 96.8107 102.425V102.866C96.8073 102.974 96.8277 103.083 96.8705 103.182C96.9134 103.282 96.9776 103.372 97.0587 103.444C97.1377 103.511 97.2311 103.558 97.3316 103.582C97.4321 103.606 97.5367 103.606 97.6372 103.582H97.8852C98.0421 103.523 98.1834 103.429 98.2984 103.306C99.3395 102.788 100.498 102.55 101.659 102.618C104.875 102.677 107.948 103.958 110.255 106.199C110.454 106.393 110.721 106.501 110.999 106.502C111.232 106.532 111.468 106.473 111.66 106.337C113.958 104.078 117.034 102.787 120.255 102.728C121.417 102.66 122.575 102.898 123.616 103.417C123.747 103.546 123.908 103.641 124.085 103.692C124.237 103.739 124.4 103.739 124.553 103.692C124.704 103.65 124.836 103.56 124.931 103.436C125.025 103.311 125.076 103.16 125.077 103.003V102.59C125.075 102.393 124.996 102.205 124.856 102.067C123.07 100.238 120.635 99.1887 118.079 99.1465C115.447 99.2629 112.924 100.23 110.889 101.901" fill="white"/>
<path d="M105.792 68.657C105.703 68.6975 105.623 68.7585 105.561 68.835C105.499 68.9115 105.456 69.0015 105.434 69.0978V69.3733C105.393 69.4737 105.371 69.5814 105.371 69.6901C105.371 69.7988 105.393 69.9065 105.434 70.0069C105.497 70.0874 105.576 70.1537 105.666 70.2012C105.757 70.2487 105.856 70.2764 105.958 70.2824C106.094 70.3085 106.235 70.3085 106.371 70.2824C106.535 70.2541 106.703 70.2541 106.867 70.2824C108.11 70.3589 109.313 70.7572 110.356 71.4381C111.399 72.1191 112.247 73.0594 112.818 74.1669C112.94 74.3716 113.138 74.52 113.369 74.5801H113.617C113.762 74.6114 113.912 74.6114 114.057 74.5801C115.209 73.9902 116.483 73.6787 117.777 73.671C119.148 73.6065 120.497 74.0367 121.578 74.8832C121.647 75.0028 121.741 75.1061 121.854 75.1862L122.129 75.324H122.322C122.431 75.3488 122.544 75.3488 122.653 75.324C122.739 75.2788 122.816 75.2164 122.877 75.1406C122.939 75.0648 122.984 74.9772 123.011 74.8832V74.6352C123.026 74.5719 123.026 74.5058 123.011 74.4424C123.039 74.3246 123.039 74.2019 123.011 74.0842C122.478 73.0499 121.667 72.1849 120.669 71.5862C119.672 70.9876 118.527 70.6792 117.363 70.6956C116.337 70.698 115.32 70.8847 114.36 71.2466C113.777 70.2894 112.982 69.4787 112.037 68.8769C111.091 68.2751 110.02 67.8983 108.906 67.7754C107.822 67.785 106.755 68.0492 105.792 68.5468" fill="white"/>
<path d="M88.1647 81.5509V81.9366C88.1737 82.0393 88.2048 82.1388 88.2558 82.2283C88.3068 82.3179 88.3765 82.3954 88.4602 82.4556C88.5439 82.5157 88.6395 82.5571 88.7407 82.5769C88.8418 82.5967 88.9461 82.5944 89.0462 82.5702C89.183 82.5034 89.3048 82.4098 89.4044 82.2947C90.3776 81.7773 91.4715 81.53 92.5726 81.5784C95.0029 81.6103 97.344 82.498 99.1845 84.0854C99.3633 84.2346 99.5856 84.3216 99.8181 84.3334C100.072 84.3098 100.308 84.1918 100.479 84.0028C101.399 82.961 102.526 82.1217 103.787 81.5384C105.049 80.9551 106.418 80.6404 107.808 80.6142C108.556 80.5759 109.302 80.7176 109.984 81.0274C110.109 81.1227 110.248 81.1971 110.397 81.2478H110.893C111.04 81.1988 111.167 81.1013 111.252 80.9713C111.337 80.8412 111.376 80.6863 111.361 80.5316V80.2009C111.36 80.1049 111.338 80.0104 111.295 79.9245C111.252 79.8386 111.19 79.7635 111.113 79.7051C109.647 78.3781 107.746 77.6334 105.769 77.6113C103.454 77.7185 101.251 78.635 99.5427 80.2009C97.9177 79.0767 96.007 78.4366 94.0327 78.3551C92.9065 78.3676 91.7958 78.6197 90.7745 79.0947C89.7532 79.5698 88.8448 80.2568 88.1096 81.1101C88.0441 81.18 87.9932 81.2624 87.9601 81.3523C87.927 81.4422 87.9122 81.5378 87.9167 81.6335" fill="white"/>
<path d="M45.93 88.1873C45.9373 85.7882 46.8955 83.4898 48.5945 81.796C50.2935 80.1022 52.5947 79.151 54.9938 79.151H55.5724C55.7048 77.354 56.2327 75.6085 57.1181 74.0392C58.0036 72.47 59.2249 71.1157 60.6945 70.0732C62.1642 69.0308 63.8461 68.3259 65.6199 68.009C67.3937 67.6921 69.2155 67.771 70.9553 68.24C72.695 68.7091 74.3096 69.5566 75.6837 70.7222C77.0578 71.8878 78.1575 73.3425 78.904 74.9824C79.6505 76.6224 80.0255 78.407 80.0022 80.2087C79.9789 82.0104 79.5578 83.7847 78.7691 85.4047C81.9178 86.2813 84.6522 88.249 86.4837 90.9561C88.3152 93.6632 89.1244 96.9334 88.7667 100.182C88.4091 103.431 86.9078 106.447 84.5313 108.691C82.1547 110.935 79.0577 112.26 75.7937 112.431H57.5284C55.6398 112.43 53.7929 111.876 52.2156 110.837C50.6383 109.799 49.3996 108.321 48.6525 106.586C47.9054 104.852 47.6825 102.937 48.0114 101.077C48.3403 99.2172 49.2065 97.4945 50.5032 96.1215C49.1052 95.3241 47.9446 94.1689 47.1409 92.7744C46.3371 91.38 45.9192 89.7967 45.93 88.1873Z" fill="white"/>
</svg>
