<svg width="172" height="171" viewBox="0 0 172 171" fill="none" xmlns="http://www.w3.org/2000/svg">
<path d="M171.5 0H0.5V171H171.5V0Z" fill="#1A3668"/>
<path d="M15.3878 21.2978C15.0851 21.4629 14.2318 21.7932 12.8007 22.3161L10.6813 23.0868V18.4629C11.8149 17.9907 12.918 17.4484 13.9841 16.8391C15.0013 16.3294 15.9304 15.6604 16.7364 14.8574H21.5529V47.4721H15.3053L15.3878 21.2978Z" fill="white"/>
<path d="M34.1868 19.6189H25.3244V14.8574H40.2693V18.9308L33.3886 47.4721H27.3336L34.1868 19.6189Z" fill="white"/>
<path d="M55.1333 14.8359H58.7939C60.9406 14.8359 61.9865 16.0194 61.9865 18.3864C62.0545 18.8418 62.0157 19.3068 61.8732 19.7447C61.7308 20.1825 61.4885 20.5813 61.1656 20.9095C60.8427 21.2378 60.4479 21.4865 60.0124 21.6362C59.577 21.7858 59.1127 21.8322 58.6563 21.7717H57.3351V27.2763H55.0782L55.1333 14.8359ZM58.2709 20.1754C58.4971 20.2019 58.7263 20.1814 58.9442 20.1151C59.1621 20.0488 59.3639 19.9381 59.5369 19.7901C59.7712 19.3612 59.8764 18.8737 59.8397 18.3864C59.8919 18.0029 59.8919 17.614 59.8397 17.2305C59.8148 17.1107 59.7653 16.9975 59.6942 16.898C59.6231 16.7985 59.5321 16.7149 59.4269 16.6525C59.1011 16.498 58.7405 16.4316 58.381 16.4598H57.3351V20.1754H58.2709Z" fill="white"/>
<path d="M64.1624 14.8359H66.5844L69.089 27.3038H66.9697L66.4744 24.5515H64.3276L63.8046 27.3038H61.6578L64.1624 14.8359ZM66.2541 23.0928L65.4009 17.8635L64.5477 23.0928H66.2541Z" fill="white"/>
<path d="M69.9954 14.8365H72.9954C74.0345 14.7683 75.0678 15.0387 75.9403 15.6072C76.287 15.9309 76.5543 16.3304 76.7214 16.7743C76.8885 17.2183 76.9508 17.6948 76.9036 18.1668C76.9315 18.8278 76.8092 19.4865 76.5458 20.0934C76.4325 20.3438 76.2689 20.5682 76.0653 20.7528C75.8617 20.9374 75.6225 21.0783 75.3623 21.1668L77.0962 27.3044H74.8393L73.3256 21.6072H72.2523V27.3044H69.9954V14.8365ZM72.9678 20.3411C73.2174 20.3674 73.4697 20.3391 73.7073 20.2583C73.9449 20.1776 74.1621 20.0462 74.3439 19.8732C74.6616 19.457 74.8092 18.9355 74.7568 18.4145C74.8034 17.9107 74.6773 17.4059 74.399 16.9833C74.2306 16.8171 74.0267 16.6912 73.8027 16.6149C73.5787 16.5387 73.3403 16.5141 73.1055 16.543H72.2523V20.3411H72.9678Z" fill="white"/>
<path d="M79.5162 16.5148H77.4244V14.8359H83.8098V16.5148H81.7731V27.3038H79.5162V16.5148Z" fill="white"/>
<path d="M84.4718 14.8359H86.0682L89.0957 21.9644V14.8359H90.9673V27.3038H89.4535L86.426 19.8726V27.3038H84.4718V14.8359Z" fill="white"/>
<path d="M92.5352 14.8359H97.7645V16.4598H94.792V20.0378H97.1314V21.6341H94.792V25.7625H97.792V27.3038H92.5352V14.8359Z" fill="white"/>
<path d="M98.787 14.8355H101.787C102.826 14.7712 103.858 15.0413 104.732 15.6061C105.079 15.9299 105.346 16.3293 105.513 16.7733C105.68 17.2172 105.742 17.6938 105.695 18.1658C105.723 18.8268 105.601 19.4855 105.337 20.0924C105.221 20.341 105.057 20.5639 104.854 20.7482C104.651 20.9325 104.413 21.0745 104.154 21.1658L105.888 27.3034H103.604L102.117 21.6061H101.044V27.3034H98.787V14.8355ZM101.76 20.3401C102.009 20.3645 102.261 20.3354 102.498 20.2547C102.735 20.174 102.953 20.0436 103.136 19.8722C103.453 19.4559 103.601 18.9345 103.548 18.4135C103.595 17.9096 103.469 17.4049 103.191 16.9823C103.021 16.8177 102.817 16.6928 102.593 16.6167C102.37 16.5405 102.132 16.515 101.897 16.5419H101.044V20.3401H101.76Z" fill="white"/>
<path d="M107.672 26.5063C107.08 25.7109 106.762 24.7454 106.764 23.754L108.718 23.3687C108.711 23.9952 108.843 24.6154 109.103 25.1852C109.19 25.3801 109.334 25.5444 109.516 25.6572C109.697 25.77 109.908 25.826 110.121 25.8183C110.271 25.827 110.42 25.8019 110.558 25.7447C110.697 25.6875 110.82 25.5997 110.919 25.488C111.098 25.2407 111.186 24.9393 111.167 24.6348C111.184 24.1981 111.069 23.7665 110.837 23.3962C110.536 22.9782 110.185 22.5992 109.791 22.2678L108.222 20.8917C107.792 20.5154 107.429 20.0686 107.149 19.5705C106.88 19.0428 106.748 18.4562 106.764 17.8641C106.74 17.4468 106.807 17.0293 106.959 16.6399C107.11 16.2505 107.344 15.8984 107.644 15.6072C108.294 15.0316 109.144 14.735 110.011 14.7816C110.443 14.7445 110.878 14.8099 111.279 14.9725C111.681 15.1351 112.039 15.3903 112.323 15.7173C112.82 16.4397 113.097 17.2904 113.121 18.1669L111.167 18.5247C111.157 17.9997 111.064 17.4795 110.892 16.9834C110.818 16.8153 110.693 16.6745 110.535 16.5807C110.378 16.4869 110.194 16.4449 110.011 16.4605C109.862 16.4537 109.713 16.4797 109.575 16.5368C109.437 16.5939 109.314 16.6805 109.213 16.7907C109.106 16.9043 109.024 17.0388 108.972 17.1856C108.92 17.3325 108.899 17.4885 108.91 17.6439C108.896 17.9911 108.982 18.335 109.158 18.6348C109.365 18.9686 109.625 19.2662 109.929 19.5155L111.47 20.8917C112.005 21.363 112.469 21.9101 112.846 22.5155C113.183 23.1209 113.354 23.8045 113.342 24.4972C113.353 25.0571 113.21 25.6093 112.929 26.0935C112.686 26.5602 112.3 26.9365 111.828 27.1669C111.334 27.4505 110.773 27.5932 110.204 27.5797C109.729 27.5969 109.256 27.5098 108.819 27.3243C108.381 27.1388 107.99 26.8596 107.672 26.5063Z" fill="white"/>
<path d="M114.36 14.8359H116.617V20.0378H119.176V14.8359H121.433V27.3038H119.176V21.7992H116.617V27.3038H114.36V14.8359Z" fill="white"/>
<path d="M123.085 14.8359H125.314V27.3038H123.085V14.8359Z" fill="white"/>
<path d="M126.912 14.8359H130.573C132.692 14.8359 133.765 16.0194 133.765 18.3864C133.834 18.8444 133.795 19.3122 133.651 19.7525C133.507 20.1927 133.262 20.5933 132.936 20.9221C132.61 21.251 132.212 21.499 131.773 21.6465C131.333 21.794 130.866 21.8369 130.407 21.7717H129.169V27.2763H126.912V14.8359ZM130.05 20.1754C130.271 20.1997 130.496 20.1781 130.709 20.1118C130.922 20.0455 131.119 19.936 131.288 19.7901C131.547 19.3701 131.663 18.8777 131.618 18.3864C131.67 18.0029 131.67 17.614 131.618 17.2305C131.587 17.1096 131.532 16.9962 131.457 16.897C131.381 16.7977 131.286 16.7146 131.178 16.6525C130.862 16.4978 130.51 16.4312 130.16 16.4598H129.279V20.1754H130.05Z" fill="white"/>
<path d="M135.282 26.5042C134.69 25.7088 134.371 24.7433 134.373 23.7519L136.327 23.3666C136.321 23.9931 136.453 24.6133 136.713 25.1832C136.805 25.3802 136.954 25.5455 137.14 25.6582C137.326 25.7708 137.541 25.8258 137.759 25.8162C137.904 25.8248 138.049 25.7995 138.183 25.7422C138.317 25.6848 138.435 25.5971 138.529 25.4859C138.708 25.2386 138.795 24.9372 138.777 24.6327C138.794 24.196 138.679 23.7644 138.447 23.3941C138.146 22.9762 137.795 22.5971 137.401 22.2657L135.832 20.8896C135.41 20.5057 135.048 20.0603 134.759 19.5684C134.499 19.0382 134.376 18.4517 134.401 17.862C134.374 17.4468 134.436 17.0305 134.583 16.6413C134.73 16.252 134.959 15.8987 135.254 15.6051C135.912 15.0253 136.773 14.7286 137.649 14.7795C138.076 14.7468 138.505 14.8144 138.902 14.9769C139.298 15.1393 139.651 15.3922 139.933 15.7153C140.442 16.4316 140.72 17.2861 140.731 18.1648L138.777 18.5226C138.78 17.9963 138.687 17.4738 138.502 16.9813C138.433 16.8154 138.313 16.6755 138.16 16.5816C138.007 16.4877 137.828 16.4446 137.649 16.4584C137.495 16.4494 137.342 16.4743 137.199 16.5314C137.056 16.5885 136.928 16.6763 136.823 16.7886C136.618 17.0247 136.51 17.3294 136.52 17.6419C136.506 17.989 136.592 18.3329 136.768 18.6327C136.975 18.9666 137.235 19.2641 137.539 19.5134L139.08 20.8896C139.623 21.3536 140.087 21.9019 140.456 22.5134C140.793 23.1189 140.963 23.8024 140.951 24.4951C140.958 25.051 140.826 25.5998 140.566 26.0914C140.308 26.5465 139.927 26.9189 139.465 27.1648C138.962 27.4493 138.391 27.592 137.814 27.5776C137.339 27.5949 136.866 27.5077 136.428 27.3222C135.991 27.1367 135.599 26.8575 135.282 26.5042Z" fill="white"/>
<path d="M55.1333 35.1992H60.2801V36.768H57.3351V40.4011H59.6746V41.9974H57.3351V47.6671H55.0782L55.1333 35.1992Z" fill="white"/>
<path d="M61.6571 46.8161C61.0457 45.9198 60.7547 44.8433 60.8314 43.761V39.0821C60.7585 38.0174 61.0497 36.9595 61.6571 36.0821C62.0147 35.723 62.446 35.4459 62.9212 35.2701C63.3965 35.0942 63.9043 35.0238 64.4094 35.0637C64.9152 35.0161 65.4252 35.0829 65.9017 35.2592C66.3781 35.4355 66.8088 35.7167 67.1617 36.0821C67.7691 36.9595 68.0602 38.0174 67.9874 39.0821V43.761C68.06 44.8343 67.7692 45.9007 67.1617 46.7885C66.8191 47.1705 66.3915 47.4667 65.9134 47.6531C65.4353 47.8396 64.9202 47.9111 64.4094 47.8619C63.9017 47.9041 63.3909 47.832 62.9147 47.651C62.4384 47.4701 62.0087 47.1848 61.6571 46.8161ZM65.5929 45.7702C65.7827 45.3374 65.8676 44.8658 65.8406 44.394V38.6417C65.8731 38.1785 65.7879 37.7145 65.5929 37.2931C65.4278 36.9628 65.0975 36.8252 64.5746 36.8252C64.0516 36.8252 63.7214 36.9628 63.5562 37.2931C63.3444 37.7095 63.2493 38.1756 63.281 38.6417V44.394C63.2523 44.8688 63.3471 45.3429 63.5562 45.7702C63.6579 45.9443 63.8088 46.0843 63.9901 46.1725C64.1714 46.2607 64.3748 46.2931 64.5746 46.2656C64.7739 46.2895 64.976 46.2555 65.1565 46.1676C65.3371 46.0798 65.4886 45.9418 65.5929 45.7702Z" fill="white"/>
<path d="M69.2535 35.2035H72.2536C73.2853 35.1225 74.3139 35.3942 75.171 35.9741C75.5279 36.2911 75.804 36.6888 75.9763 37.134C76.1486 37.5791 76.2122 38.059 76.1618 38.5337C76.1758 39.1936 76.054 39.8494 75.804 40.4603C75.688 40.7089 75.5236 40.9319 75.3204 41.1162C75.1172 41.3005 74.8792 41.4424 74.6205 41.5337L76.3545 47.6713H74.0701L72.5839 41.9741H71.5104V47.6713H69.2535V35.2035ZM72.2261 40.5429C72.4735 40.571 72.7241 40.5462 72.9613 40.4703C73.1986 40.3944 73.417 40.2691 73.6022 40.1025C73.9174 39.685 74.0647 39.1646 74.015 38.6438C74.0616 38.14 73.9355 37.6353 73.6572 37.2126C73.4876 37.048 73.2837 36.9232 73.0599 36.847C72.8362 36.7709 72.5984 36.7453 72.3636 36.7722H71.5104V40.5429H72.2261Z" fill="white"/>
<path d="M81.9136 36.8781H79.8219V35.1992H86.2072V36.8781H84.1705V47.6671H81.9136V36.8781Z" fill="white"/>
<path d="M86.7833 35.1992H89.0401V40.4011H91.5998V35.1992H93.8567V47.6671H91.5998V42.1625H89.0401V47.6671H86.7833V35.1992Z" fill="white"/>
<path d="M95.3143 35.1992H100.544V36.8231H97.5712V40.4011H99.9107V41.9698H97.5712V46.1258H100.571V47.6671H95.3143V35.1992Z" fill="white"/>
<path d="M105.305 46.7585C104.72 45.8006 104.441 44.6865 104.507 43.5658V39.3823C104.435 38.2524 104.714 37.1279 105.305 36.1621C105.64 35.7698 106.066 35.4646 106.546 35.2729C107.025 35.0812 107.544 35.0085 108.057 35.0612C108.557 35.001 109.063 35.0539 109.54 35.2158C110.016 35.3778 110.45 35.6448 110.81 35.997C111.402 36.7863 111.686 37.7652 111.608 38.7493V39.4099H109.433V38.6942C109.467 38.3372 109.467 37.9778 109.433 37.6208C109.39 37.3829 109.263 37.1683 109.076 37.0154C108.846 36.846 108.562 36.7675 108.277 36.7952C108.124 36.7803 107.969 36.7971 107.822 36.8444C107.676 36.8918 107.54 36.9687 107.424 37.0704C107.231 37.264 107.105 37.5151 107.066 37.786C107.033 38.1522 107.033 38.5207 107.066 38.8869V44.1163C107.031 44.6626 107.125 45.2097 107.342 45.7126C107.464 45.8831 107.625 46.022 107.812 46.1178C107.998 46.2136 108.205 46.2636 108.415 46.2636C108.625 46.2636 108.832 46.2136 109.018 46.1178C109.205 46.022 109.366 45.8831 109.488 45.7126C109.718 45.1936 109.822 44.6279 109.791 44.0612V42.9053H108.443V41.4741H111.828V47.7768H110.342L110.204 46.5658C110.05 46.9975 109.76 47.3676 109.378 47.6207C108.996 47.8737 108.542 47.9961 108.085 47.9695C107.554 48.062 107.007 47.9966 106.513 47.7813C106.019 47.566 105.599 47.2104 105.305 46.7585Z" fill="white"/>
<path d="M113.483 46.8161C112.872 45.9198 112.581 44.8433 112.657 43.761V39.0821C112.584 38.0174 112.876 36.9595 113.483 36.0821C113.839 35.7215 114.271 35.4434 114.746 35.2674C115.222 35.0915 115.73 35.022 116.235 35.0637C116.741 35.0161 117.251 35.0829 117.728 35.2592C118.204 35.4355 118.635 35.7167 118.988 36.0821C119.595 36.9595 119.886 38.0174 119.813 39.0821V43.761C119.886 44.8343 119.595 45.9007 118.988 46.7885C118.642 47.1671 118.214 47.4609 117.737 47.6471C117.26 47.8333 116.746 47.9068 116.235 47.8619C115.727 47.9061 115.216 47.8349 114.74 47.6538C114.263 47.4727 113.833 47.1864 113.483 46.8161ZM117.281 45.6876C117.471 45.2548 117.556 44.7833 117.529 44.3115V38.5592C117.561 38.0959 117.476 37.632 117.281 37.2105C117.116 36.8803 116.786 36.7426 116.263 36.7426C116.062 36.7139 115.857 36.7426 115.672 36.8254C115.487 36.9082 115.329 37.0417 115.217 37.2105C115.029 37.6343 114.945 38.0964 114.969 38.5592V44.3115C114.942 44.7833 115.027 45.2548 115.217 45.6876C115.328 45.8591 115.485 45.9963 115.669 46.0838C115.854 46.1713 116.06 46.2056 116.263 46.183C116.454 46.2154 116.651 46.194 116.831 46.1211C117.01 46.0482 117.166 45.9267 117.281 45.7702V45.6876Z" fill="white"/>
<path d="M122.922 35.1992H125.344L127.849 47.6671H125.73L125.262 44.9148H123.087L122.565 47.6671H120.445L122.922 35.1992ZM125.014 43.4561L124.161 38.2267L123.308 43.4561H125.014Z" fill="white"/>
<path d="M128.648 35.1992H130.905V46.2084H133.933V47.7497H128.648V35.1992Z" fill="white"/>
<path d="M135.255 46.9008C134.663 46.1053 134.344 45.1398 134.346 44.1485L136.301 43.7632C136.294 44.3896 136.426 45.0098 136.686 45.5796C136.778 45.7767 136.927 45.942 137.113 46.0547C137.299 46.1674 137.514 46.2223 137.732 46.2127C137.877 46.2214 138.022 46.196 138.156 46.1387C138.29 46.0814 138.408 45.9936 138.502 45.8824C138.681 45.6351 138.768 45.3337 138.75 45.0292C138.767 44.5925 138.652 44.1609 138.42 43.7907C138.119 43.3727 137.768 42.9936 137.374 42.6622L135.805 41.2861C135.367 40.9064 135.003 40.4493 134.732 39.9375C134.473 39.4171 134.349 38.8394 134.374 38.2586C134.347 37.8391 134.408 37.4186 134.556 37.0248C134.703 36.6311 134.931 36.273 135.227 35.9742C135.895 35.4143 136.751 35.1291 137.622 35.176C138.049 35.1433 138.478 35.2109 138.875 35.3734C139.271 35.5359 139.624 35.7887 139.906 36.1118C140.403 36.8341 140.68 37.6849 140.704 38.5613L138.75 38.9191C138.756 38.3926 138.663 37.8697 138.475 37.3778C138.406 37.2119 138.286 37.072 138.133 36.9781C137.98 36.8842 137.801 36.8411 137.622 36.8549C137.468 36.8459 137.315 36.8708 137.172 36.9279C137.029 36.985 136.901 37.0728 136.796 37.1852C136.689 37.2988 136.607 37.4332 136.555 37.5801C136.503 37.7269 136.482 37.883 136.493 38.0384C136.484 38.3851 136.569 38.7277 136.741 39.0292C136.955 39.3574 137.215 39.6539 137.512 39.9099L139.053 41.2861C139.588 41.7574 140.052 42.3045 140.429 42.9099C140.766 43.5154 140.937 44.1989 140.924 44.8916C140.931 45.4475 140.799 45.9963 140.539 46.4879C140.282 46.943 139.9 47.3153 139.438 47.5613C138.768 47.9085 138.008 48.0419 137.26 47.9435C136.512 47.845 135.812 47.5195 135.255 47.0108V46.9008Z" fill="white"/>
<path d="M129.637 103.793C129.634 98.0037 127.387 92.4408 123.368 88.2733C119.349 84.1058 113.872 81.6581 108.086 81.4445C106.544 77.082 103.687 73.3049 99.9088 70.6334C96.1306 67.9619 91.6172 66.5273 86.99 66.5273C82.3628 66.5273 77.8493 67.9619 74.0712 70.6334C70.2931 73.3049 67.4361 77.082 65.8936 81.4445C61.305 81.6074 56.8779 83.1796 53.2143 85.9475C49.5508 88.7154 46.8287 92.5445 45.4182 96.9141C44.0078 101.284 43.9775 105.982 45.3315 110.369C46.6854 114.757 49.3579 118.62 52.9855 121.435C52.3961 123.456 52.0995 125.551 52.1047 127.656C52.1099 131.726 53.2252 135.718 55.3306 139.201C57.4359 142.685 60.4515 145.528 64.0528 147.425C67.654 149.322 71.7045 150.2 75.7681 149.966C79.8316 149.732 83.7543 148.394 87.1139 146.096C90.7789 148.571 95.1043 149.885 99.5267 149.867C102.985 149.871 106.398 149.072 109.495 147.533C112.593 145.994 115.291 143.757 117.377 140.999C119.464 138.24 120.881 135.035 121.519 131.635C122.156 128.236 121.995 124.735 121.05 121.408C123.727 119.318 125.892 116.646 127.38 113.593C128.868 110.541 129.64 107.189 129.637 103.793ZM104.866 88.9032C104.855 93.1771 103.314 97.3058 100.522 100.542C97.7302 103.778 93.872 105.908 89.6459 106.545C89.494 105.636 89.4112 104.715 89.3982 103.793C89.4049 99.5136 90.9478 95.3786 93.7462 92.1408C96.5446 88.9029 100.413 86.7773 104.646 86.1509C104.791 87.0612 104.865 87.9814 104.866 88.9032ZM87.0863 140.289C85.3837 138.639 84.0269 136.667 83.0953 134.487C82.1637 132.308 81.676 129.964 81.6606 127.594C81.6452 125.223 82.1025 122.874 83.0058 120.682C83.909 118.491 85.2401 116.501 86.9212 114.83C88.6238 116.479 89.9806 118.451 90.9122 120.631C91.8438 122.811 92.3316 125.154 92.347 127.525C92.3624 129.895 91.905 132.245 91.0018 134.436C90.0985 136.628 88.7674 138.617 87.0863 140.289ZM69.3616 86.1509C73.595 86.7773 77.4629 88.9029 80.2613 92.1408C83.0597 95.3786 84.6026 99.5136 84.6093 103.793C84.5963 104.715 84.5135 105.636 84.3616 106.545C82.0306 106.207 79.7902 105.408 77.7705 104.196C75.7509 102.984 73.9922 101.383 72.5966 99.485C71.2011 97.5875 70.1964 95.4316 69.641 93.1426C69.0856 90.8536 68.9907 88.477 69.3616 86.1509ZM82.6826 111.802C81.1972 114.763 78.9176 117.253 76.0986 118.993C73.2795 120.733 70.0322 121.655 66.7194 121.656C63.8441 121.672 61.0088 120.982 58.4625 119.646C59.9466 116.682 62.2251 114.188 65.0439 112.444C67.8626 110.699 71.1107 109.772 74.4258 109.766C77.3038 109.754 80.14 110.454 82.6826 111.802ZM91.2423 111.665C93.3535 110.557 95.6652 109.885 98.0409 109.686C100.417 109.488 102.808 109.767 105.074 110.509C107.339 111.251 109.433 112.439 111.232 114.003C113.03 115.568 114.497 117.478 115.545 119.619C113.434 120.726 111.122 121.399 108.746 121.597C106.371 121.796 103.979 121.516 101.714 120.774C99.4481 120.033 97.354 118.845 95.5555 117.28C93.7569 115.715 92.2903 113.806 91.2423 111.665ZM87.0038 71.0133C90.5085 70.9891 93.943 71.9965 96.8794 73.9101C99.8157 75.8236 102.124 78.5587 103.518 81.7748C99.9572 82.3808 96.5962 83.8385 93.7208 86.0238C90.8454 88.2091 88.5409 91.0571 87.0038 94.3252C85.4759 91.0767 83.1915 88.2419 80.3422 86.0582C77.4928 83.8745 74.1616 82.4057 70.6276 81.7748C72.0116 78.5803 74.2989 75.8599 77.2083 73.948C80.1177 72.0361 83.5224 71.0161 87.0038 71.0133ZM48.857 103.793C48.8653 99.3878 50.4986 95.1404 53.4442 91.8647C56.3898 88.589 60.4406 86.5153 64.8203 86.0408C64.6911 86.9526 64.6267 87.8723 64.6276 88.7931C64.6247 91.9047 65.2748 94.9823 66.5359 97.8268C67.797 100.671 69.641 103.22 71.9487 105.307C68.3648 105.725 64.9339 106.998 61.945 109.02C58.9562 111.041 56.4969 113.751 54.7744 116.922C52.9146 115.253 51.4266 113.213 50.4071 110.932C49.3876 108.651 48.8595 106.181 48.857 103.683M56.6184 127.545C56.6182 126.297 56.7474 125.052 57.0038 123.83C60.0313 125.3 63.3537 126.063 66.7194 126.059C70.4993 126.069 74.2203 125.122 77.5359 123.307C76.8725 126.823 77.0665 130.448 78.1014 133.873C79.1363 137.299 80.9815 140.425 83.4808 142.986C80.7692 144.577 77.6851 145.424 74.541 145.439C71.3969 145.455 68.3045 144.639 65.5774 143.074C62.8503 141.509 60.5853 139.251 59.012 136.529C57.4387 133.807 56.6129 130.717 56.6184 127.573M117.389 127.408C117.382 132.143 115.498 136.682 112.149 140.03C108.801 143.379 104.262 145.263 99.5267 145.27C96.4365 145.276 93.3991 144.47 90.7194 142.931C94.6587 138.788 96.8559 133.29 96.8569 127.573C96.8612 126.132 96.723 124.693 96.4441 123.279C99.7566 125.103 103.48 126.05 107.261 126.032C110.648 126.041 113.991 125.269 117.031 123.775C117.276 124.952 117.396 126.151 117.389 127.353M102.196 105.142C104.478 103.041 106.295 100.487 107.532 97.6435C108.769 94.7998 109.399 91.7291 109.38 88.628C109.368 87.7077 109.304 86.7887 109.187 85.8757C112.611 86.2402 115.855 87.5877 118.53 89.7555C121.204 91.9234 123.194 94.8189 124.259 98.0927C125.324 101.366 125.419 104.878 124.532 108.205C123.645 111.531 121.814 114.53 119.261 116.839C117.566 113.659 115.13 110.934 112.16 108.893C109.19 106.852 105.773 105.556 102.196 105.114" fill="white"/>
</svg>
