<svg width="172" height="171" viewBox="0 0 172 171" fill="none" xmlns="http://www.w3.org/2000/svg">
<path d="M171.5 0H0.500023V171H171.5V0Z" fill="#CD8B2A"/>
<path d="M15.1792 21.2871C14.8762 21.4524 14.0223 21.783 12.5899 22.3063C11.1576 22.8297 10.7444 22.9398 10.469 23.0776V18.45C11.6034 17.9774 12.7073 17.4346 13.7743 16.8248C14.7865 16.3165 15.7153 15.6571 16.5289 14.8691H21.4044V47.455H15.1792V21.2871Z" fill="white"/>
<path d="M24.8764 43.0784L32.7543 30.876L33.2501 30.1598C34.09 28.9273 34.8447 27.6389 35.5088 26.3035C35.9916 25.2398 36.236 24.0835 36.225 22.9154C36.2854 22.0723 36.0729 21.2321 35.619 20.519C35.42 20.2491 35.1575 20.0326 34.8548 19.8884C34.5521 19.7443 34.2186 19.6771 33.8837 19.6926C33.4089 19.6512 32.9325 19.7522 32.5155 19.9828C32.0984 20.2134 31.7596 20.5631 31.5423 20.9872C31.0973 22.1446 30.9184 23.3873 31.0189 24.6232V26.1106H24.9866V24.513C24.8455 21.9142 25.6043 19.3461 27.1351 17.2411C27.9745 16.2966 29.0193 15.5571 30.1893 15.0796C31.3592 14.602 32.6231 14.3992 33.8837 14.4866C35.0438 14.3449 36.2211 14.4686 37.3264 14.8486C38.4317 15.2286 39.4362 15.8548 40.264 16.6799C41.0918 17.505 41.7211 18.5075 42.1047 19.6116C42.4882 20.7157 42.6158 21.8925 42.4777 23.0531C42.4941 24.242 42.3078 25.425 41.9268 26.5514C41.5794 27.5731 41.1368 28.5599 40.6047 29.4987C40.0813 30.3526 39.2825 31.5921 38.2358 33.1622L31.9555 42.5826H41.6513V47.4856H24.9866L24.8764 43.0784Z" fill="white"/>
<path d="M54.9285 27.3788V14.9284H57.9034C58.6229 14.9002 59.3415 15.0029 60.0244 15.2314C60.5791 15.3898 61.0522 15.7545 61.3466 16.2506C61.6848 16.8449 61.8472 17.5232 61.8148 18.2063C61.8157 18.6597 61.7695 19.1121 61.6771 19.556C61.6012 19.9355 61.4411 20.2931 61.2088 20.6027C60.9711 20.8948 60.6562 21.1144 60.2998 21.2362L62.0352 27.3788H59.7489L58.2339 21.6769H57.1872V27.3788H54.9285ZM57.1872 20.2446H57.9034C58.2628 20.2657 58.6219 20.1995 58.9501 20.0518C59.2135 19.9314 59.4206 19.7145 59.5286 19.4458C59.6478 19.091 59.7037 18.7181 59.6938 18.344C59.7321 17.8491 59.6062 17.3554 59.3357 16.9392C59.1709 16.7662 58.9682 16.6339 58.7435 16.5526C58.5189 16.4714 58.2784 16.4434 58.0411 16.4709H57.1872V20.2446Z" fill="white"/>
<path d="M63.0575 27.3859V14.9355H68.2911V16.3679H65.3437V19.9488H67.6575V21.5188H65.3437V25.6506H68.3187V27.3859H63.0575Z" fill="white"/>
<path d="M72.3385 27.3829C71.6768 27.4105 71.02 27.2582 70.4379 26.9422C69.9375 26.6492 69.5423 26.2058 69.3086 25.6751C69.0446 25.0072 68.8955 24.2994 68.8678 23.5817L70.8236 23.196C70.8391 23.6335 70.9038 24.0677 71.0163 24.4907C71.0827 24.8101 71.2351 25.1054 71.4571 25.3446C71.5633 25.4457 71.6888 25.5246 71.8259 25.5767C71.9631 25.6287 72.1093 25.6528 72.2559 25.6476C72.402 25.6635 72.5498 25.6415 72.685 25.5836C72.8201 25.5257 72.9379 25.4339 73.0272 25.317C73.2019 25.0676 73.2891 24.7674 73.2751 24.4631C73.2951 23.992 73.1596 23.5275 72.8895 23.141C72.6111 22.7461 72.2771 22.3936 71.8978 22.0943L70.3277 20.6895C69.9056 20.3334 69.5511 19.9042 69.2811 19.4224C69.012 18.8844 68.8795 18.2884 68.8954 17.687C68.8684 17.2714 68.9306 16.8549 69.0779 16.4653C69.2252 16.0757 69.4541 15.7222 69.7493 15.4284C70.4039 14.8622 71.2545 14.5754 72.1182 14.6295C72.6165 14.6142 73.1128 14.6985 73.5781 14.8775C73.9475 15.0558 74.2687 15.3203 74.5146 15.6487C74.7448 15.9731 74.9129 16.3374 75.0104 16.723C75.1283 17.1458 75.2021 17.5796 75.2307 18.0176L73.3026 18.3481C73.2757 17.997 73.2297 17.6476 73.1649 17.3014C73.1207 17.0319 72.9959 16.7822 72.8068 16.5852C72.6022 16.3915 72.3311 16.2835 72.0493 16.2835C71.7675 16.2835 71.4964 16.3915 71.2918 16.5852C71.1008 16.817 71.0026 17.1115 71.0163 17.4116C70.998 17.7806 71.0942 18.1462 71.2918 18.4583C71.4921 18.7731 71.7435 19.0524 72.0356 19.2846L73.5781 20.6619C74.097 21.093 74.5433 21.6045 74.9002 22.1769C75.2785 22.8084 75.4696 23.5344 75.4511 24.2703C75.458 24.8267 75.3254 25.3759 75.0655 25.8679C74.7998 26.3173 74.4196 26.688 73.9637 26.9422C73.4717 27.233 72.9101 27.3853 72.3385 27.3829Z" fill="white"/>
<path d="M76.1953 27.3782V14.9278H79.8588C80.4999 14.8976 81.1372 15.0404 81.7043 15.341C82.1674 15.6227 82.5253 16.0484 82.7234 16.553C82.9584 17.1584 83.0708 17.8044 83.054 18.4536C83.0855 19.13 82.9432 19.8033 82.6408 20.4093C82.3873 20.8941 81.9806 21.2815 81.4839 21.5111C80.9254 21.7417 80.3252 21.8542 79.721 21.8416H78.4815V27.3506L76.1953 27.3782ZM78.4815 20.244H79.3354C79.665 20.26 79.9941 20.2036 80.2995 20.0787C80.5268 19.9492 80.702 19.7447 80.7953 19.5003C80.845 19.1531 80.845 18.8007 80.7953 18.4536C80.8304 18.0871 80.8304 17.7182 80.7953 17.3518C80.7679 17.2221 80.7148 17.0992 80.6391 16.9903C80.5634 16.8815 80.4667 16.789 80.3546 16.7182C80.0285 16.5637 79.6676 16.4972 79.3079 16.5254H78.454L78.4815 20.244Z" fill="white"/>
<path d="M87.2403 27.3854C86.5009 27.4213 85.7663 27.2496 85.1194 26.8896C84.5972 26.5668 84.2066 26.0689 84.0175 25.4848C83.7604 24.7889 83.6388 24.0503 83.6594 23.3087V18.6261C83.6389 17.8935 83.7605 17.1639 84.0175 16.4775C84.2058 15.9001 84.5974 15.4107 85.1194 15.1003C85.769 14.7499 86.5035 14.5877 87.2403 14.632C87.9776 14.5817 88.7138 14.7442 89.3613 15.1003C89.8903 15.4095 90.291 15.8981 90.4906 16.4775C90.7476 17.1639 90.8692 17.8935 90.8487 18.6261V23.3087C90.8693 24.0503 90.7478 24.7889 90.4906 25.4848C90.2824 26.0665 89.8846 26.5613 89.3613 26.8896C88.7172 27.2567 87.9804 27.429 87.2403 27.3854ZM87.2403 25.7052C87.5328 25.7274 87.8241 25.6497 88.0667 25.4848C88.2584 25.2968 88.3922 25.0578 88.4523 24.7962C88.482 24.4847 88.482 24.1711 88.4523 23.8596V18.1027C88.482 17.7913 88.482 17.4776 88.4523 17.1662C88.393 16.8965 88.2369 16.6579 88.0136 16.4955C87.7903 16.3331 87.5152 16.2581 87.2403 16.2847C86.9441 16.2658 86.6508 16.3537 86.4139 16.5326C86.2263 16.6972 86.1001 16.9205 86.0559 17.1662C86.0262 17.4776 86.0262 17.7913 86.0559 18.1027V23.8596C86.0262 24.1711 86.0262 24.4847 86.0559 24.7962C86.0945 25.0594 86.2206 25.302 86.4139 25.4848C86.6498 25.6717 86.9395 25.7779 87.2403 25.7878V25.7052Z" fill="white"/>
<path d="M92.0606 27.3859V14.9355H93.6307L96.6606 22.0422V14.9355H98.5612V27.3859H97.1289L94.0714 19.9488V27.3859H92.0606Z" fill="white"/>
<path d="M103.133 27.3829C102.471 27.4105 101.814 27.2582 101.232 26.9422C100.732 26.6492 100.337 26.2058 100.103 25.6751C99.839 25.0072 99.6901 24.2994 99.6624 23.5817L101.618 23.196C101.634 23.6335 101.698 24.0677 101.811 24.4907C101.877 24.8101 102.03 25.1054 102.252 25.3446C102.358 25.4457 102.483 25.5246 102.62 25.5767C102.758 25.6287 102.904 25.6528 103.05 25.6476C103.197 25.6635 103.344 25.6415 103.479 25.5836C103.615 25.5257 103.732 25.4339 103.822 25.317C103.996 25.0676 104.084 24.7674 104.07 24.4631C104.09 23.992 103.954 23.5275 103.684 23.141C103.406 22.7461 103.072 22.3936 102.692 22.0943L101.122 20.6895C100.7 20.3334 100.346 19.9042 100.076 19.4224C99.8065 18.8844 99.674 18.2884 99.6899 17.687C99.6629 17.2714 99.7251 16.8549 99.8724 16.4653C100.02 16.0757 100.249 15.7222 100.544 15.4284C101.198 14.8622 102.049 14.5754 102.913 14.6295C103.411 14.6142 103.907 14.6985 104.373 14.8775C104.742 15.0558 105.063 15.3203 105.309 15.6487C105.539 15.9731 105.707 16.3374 105.805 16.723C105.923 17.1458 105.997 17.5796 106.025 18.0176L104.097 18.3481C104.116 17.9995 104.116 17.65 104.097 17.3014C104.053 17.0319 103.928 16.7822 103.739 16.5852C103.534 16.3915 103.263 16.2835 102.982 16.2835C102.7 16.2835 102.429 16.3915 102.224 16.5852C102.033 16.817 101.935 17.1115 101.949 17.4116C101.93 17.7806 102.026 18.1462 102.224 18.4583C102.424 18.7731 102.676 19.0524 102.968 19.2846L104.51 20.6619C105.029 21.093 105.476 21.6045 105.832 22.1769C106.211 22.8084 106.402 23.5344 106.383 24.2703C106.39 24.8267 106.258 25.3759 105.998 25.8679C105.732 26.3173 105.352 26.688 104.896 26.9422C104.364 27.2581 103.751 27.4113 103.133 27.3829Z" fill="white"/>
<path d="M107.071 27.3859V14.9355H109.302V27.3859H107.071Z" fill="white"/>
<path d="M110.901 27.386V14.9356H113.958C114.467 14.9348 114.974 14.9809 115.474 15.0733C115.891 15.1679 116.284 15.3459 116.63 15.5967C116.959 15.8468 117.216 16.1794 117.374 16.5607C117.554 17.064 117.638 17.5965 117.622 18.1308C117.636 18.5704 117.571 19.009 117.429 19.4254C117.3 19.7551 117.092 20.0482 116.823 20.2793C116.522 20.4979 116.172 20.6398 115.804 20.6925C116.257 20.7521 116.685 20.9329 117.044 21.2158C117.372 21.4827 117.62 21.8356 117.76 22.235C117.936 22.7203 118.02 23.234 118.008 23.75C118.013 24.2904 117.939 24.8288 117.787 25.3476C117.64 25.7623 117.416 26.1454 117.126 26.477C116.814 26.7842 116.437 27.0192 116.024 27.1656C115.525 27.3181 115.004 27.3925 114.482 27.386H110.901ZM113.187 20.0314H113.958C114.32 20.045 114.68 19.9694 115.005 19.8111C115.248 19.6798 115.434 19.4642 115.529 19.2051C115.624 18.8645 115.67 18.512 115.666 18.1583C115.681 17.8054 115.605 17.4545 115.446 17.1392C115.287 16.8926 115.041 16.7155 114.757 16.6434C114.383 16.5906 114.003 16.5906 113.628 16.6434H113.187V20.0314ZM113.187 25.7883H114.041C114.298 25.8214 114.559 25.7938 114.803 25.7077C115.047 25.6216 115.267 25.4794 115.446 25.2925C115.714 24.8245 115.838 24.2881 115.804 23.75C115.815 23.3307 115.759 22.9123 115.639 22.5105C115.534 22.2192 115.329 21.9749 115.06 21.8218C114.72 21.6507 114.339 21.5745 113.958 21.6015H113.187V25.7883Z" fill="white"/>
<path d="M118.89 27.3859V14.9355H121.149V25.9536H124.179V27.3859H118.89Z" fill="white"/>
<path d="M124.84 27.3859V14.9355H130.184V16.3679H127.237V19.9488H129.551V21.5188H127.237V25.6506H130.184V27.3859H124.84Z" fill="white"/>
<path d="M58.2613 47.8417C57.5143 47.8824 56.7731 47.6899 56.1403 47.2908C55.6261 46.9347 55.2399 46.423 55.0385 45.8309C54.8318 45.1337 54.7297 44.4096 54.7354 43.6824V39.2201C54.7258 38.4746 54.828 37.7318 55.0385 37.0165C55.2288 36.4186 55.6174 35.9035 56.1403 35.5566C56.7901 35.248 57.5005 35.0879 58.2199 35.0879C58.9393 35.0879 59.6498 35.248 60.2996 35.5566C60.7791 35.839 61.1482 36.2761 61.3463 36.7961C61.5538 37.4081 61.6562 38.0507 61.6493 38.6968V39.7435H59.4457V38.6692C59.4457 38.3111 59.4457 38.0081 59.4457 37.7051C59.4079 37.4527 59.3032 37.2149 59.1427 37.0165C58.8952 36.8471 58.6024 36.7565 58.3026 36.7565C58.0027 36.7565 57.7099 36.8471 57.4625 37.0165C57.2688 37.2102 57.1432 37.4615 57.1044 37.7327C57.1044 38.0357 57.1044 38.3938 57.1044 38.7519V44.2609C57.0565 44.6358 57.0565 45.0153 57.1044 45.3902C57.1542 45.6479 57.2901 45.8811 57.49 46.0513C57.7172 46.2045 57.9874 46.2817 58.2613 46.2717C58.4064 46.2855 58.5527 46.2682 58.6905 46.2206C58.8283 46.1731 58.9543 46.0966 59.06 45.9962C59.237 45.7972 59.3435 45.5456 59.3631 45.28C59.392 44.9501 59.392 44.6183 59.3631 44.2884V43.159H61.5667V44.1507C61.5755 44.8149 61.4732 45.476 61.2637 46.1064C61.0906 46.6608 60.7303 47.1378 60.2445 47.4561C59.6321 47.7666 58.9454 47.9001 58.2613 47.8417Z" fill="white"/>
<path d="M66.1668 47.8399C65.4271 47.8788 64.6916 47.7068 64.0458 47.3441C63.5176 47.0087 63.1193 46.5036 62.9164 45.9117C62.6801 45.2112 62.5683 44.4748 62.5859 43.7357V39.0805C62.5683 38.3415 62.6801 37.605 62.9164 36.9045C63.13 36.333 63.5272 35.8486 64.0458 35.5272C64.6993 35.1873 65.4309 35.0257 66.1668 35.0589C66.9025 35.0283 67.6334 35.1897 68.2878 35.5272C68.8063 35.8486 69.2036 36.333 69.4171 36.9045C69.6534 37.605 69.7653 38.3415 69.7476 39.0805V43.9009C69.7632 44.6309 69.6513 45.3579 69.4171 46.0495C69.2089 46.6311 68.8111 47.1259 68.2878 47.4542C67.6344 47.7894 66.8964 47.9236 66.1668 47.8399ZM66.1668 46.1597C66.4631 46.1786 66.7563 46.0906 66.9931 45.9117C67.1816 45.7253 67.3068 45.4844 67.3512 45.2231C67.3809 44.9116 67.3809 44.598 67.3512 44.2866V38.5572C67.3822 38.2458 67.3822 37.9321 67.3512 37.6207C67.2999 37.3697 67.1753 37.1396 66.9931 36.9596C66.7563 36.7806 66.4631 36.6927 66.1668 36.7117C65.87 36.6875 65.5749 36.776 65.3404 36.9596C65.149 37.1326 65.0227 37.3659 64.9823 37.6207C64.9371 37.9312 64.9371 38.2466 64.9823 38.5572V44.2866C64.9526 44.598 64.9526 44.9116 64.9823 45.2231C64.9955 45.3662 65.0381 45.505 65.1073 45.6309C65.1765 45.7568 65.2709 45.8672 65.3846 45.955C65.4983 46.0429 65.6289 46.1064 65.7682 46.1416C65.9075 46.1768 66.0525 46.183 66.1943 46.1597H66.1668Z" fill="white"/>
<path d="M70.9606 47.6574V35.207H72.5582L75.5882 42.3137V35.207H77.4612V47.6574H75.9463L72.9163 40.2203V47.6574H70.9606Z" fill="white"/>
<path d="M82.0324 47.8512C81.3808 47.8662 80.7361 47.7145 80.1594 47.4105C79.6546 47.1104 79.2588 46.6568 79.03 46.1159C78.7405 45.4656 78.5903 44.7619 78.5893 44.05L80.5451 43.6644C80.5658 44.0905 80.621 44.5143 80.7103 44.9315C80.7859 45.2534 80.9477 45.5486 81.1786 45.7853C81.2797 45.8857 81.4003 45.9643 81.533 46.0164C81.6656 46.0685 81.8074 46.093 81.9498 46.0883C82.0999 46.1039 82.2516 46.0818 82.3911 46.0241C82.5305 45.9664 82.6534 45.8749 82.7486 45.7578C82.9022 45.5001 82.9786 45.2038 82.969 44.9039C82.9893 44.4368 82.8643 43.9748 82.611 43.5818C82.3254 43.1929 81.9922 42.8412 81.6193 42.535L80.0492 41.1578C79.6245 40.7935 79.2698 40.3548 79.0026 39.8632C78.7175 39.3409 78.5839 38.7494 78.6169 38.1554C78.5859 37.7353 78.6461 37.3134 78.7935 36.9188C78.9409 36.5241 79.1719 36.1661 79.4708 35.8691C80.1213 35.3148 80.9585 35.0292 81.8121 35.0703C82.3136 35.0472 82.8135 35.1415 83.272 35.3458C83.6542 35.4898 83.9817 35.7499 84.2085 36.0895C84.4595 36.405 84.6382 36.7717 84.7319 37.1638C84.8498 37.5865 84.9236 38.0204 84.9522 38.4584L82.9965 38.7889C83.028 38.4407 83.028 38.0904 82.9965 37.7422C82.9399 37.4769 82.8167 37.2305 82.6384 37.026C82.5433 36.9269 82.4271 36.8506 82.2982 36.8029C82.1694 36.7552 82.0315 36.7373 81.8948 36.7506C81.7453 36.7418 81.5958 36.7669 81.4575 36.8242C81.3191 36.8814 81.1955 36.9693 81.0959 37.0811C80.9251 37.322 80.838 37.6123 80.848 37.9075C80.8312 38.2727 80.9171 38.6353 81.0959 38.9542C81.3069 39.2693 81.5673 39.5484 81.8672 39.7805L83.4097 41.1578C83.9213 41.5962 84.3667 42.1065 84.7319 42.6728C85.1074 43.3054 85.2983 44.0306 85.2828 44.7662C85.2941 45.3265 85.1511 45.8792 84.8696 46.3638C84.6298 46.8233 84.2549 47.1983 83.7954 47.4381C83.2599 47.7429 82.6476 47.8864 82.0324 47.8512Z" fill="white"/>
<path d="M89.4426 47.8502C88.6915 47.8815 87.9468 47.7001 87.2941 47.3269C86.7968 46.9779 86.4288 46.4744 86.2474 45.8945C86.0355 45.1607 85.9334 44.3996 85.9444 43.6358V35.207H88.148V43.9113C88.1197 44.278 88.1197 44.6464 88.148 45.0131C88.1994 45.3132 88.3223 45.5967 88.5061 45.8394C88.7393 46.0496 89.0465 46.1586 89.36 46.1424C89.5198 46.1542 89.6803 46.1334 89.8318 46.0813C89.9833 46.0292 90.1227 45.9469 90.2415 45.8394C90.4363 45.6032 90.5604 45.3168 90.5996 45.0131C90.6279 44.6464 90.6279 44.278 90.5996 43.9113V35.207H92.8031V43.6358C92.8141 44.3996 92.7121 45.1607 92.5002 45.8945C92.3188 46.4744 91.9508 46.9779 91.4535 47.3269C90.8406 47.6745 90.1472 47.8549 89.4426 47.8502Z" fill="white"/>
<path d="M94.3739 47.6574L94.5943 35.207H96.9356L98.6985 43.8287L100.544 35.207H102.637L102.858 47.6574H101.178L100.985 39.0083L99.2219 47.6574H97.8447L96.0542 38.9807L95.8889 47.6574H94.3739Z" fill="white"/>
<path d="M104.235 47.6497V35.1993H107.899C108.54 35.1691 109.177 35.3118 109.744 35.6125C110.195 35.908 110.55 36.3294 110.764 36.8244C110.999 37.4298 111.111 38.0759 111.094 38.725C111.125 39.4104 110.983 40.0925 110.681 40.7083C110.426 41.1854 110.019 41.5636 109.524 41.7825C108.965 42.0132 108.365 42.1257 107.761 42.1131H106.522V47.6221L104.235 47.6497ZM106.522 40.5155H107.375C107.705 40.5315 108.034 40.4751 108.34 40.3502C108.457 40.2926 108.562 40.2115 108.647 40.112C108.732 40.0126 108.796 39.8968 108.835 39.7718C108.887 39.4248 108.887 39.072 108.835 38.725C108.87 38.3586 108.87 37.9897 108.835 37.6232C108.772 37.3648 108.615 37.139 108.395 36.9897C108.069 36.8351 107.708 36.7686 107.348 36.7969H106.494L106.522 40.5155Z" fill="white"/>
<path d="M113.132 47.6574V36.8873H111.148V35.207H117.374V36.8873H115.418V47.6574H113.132Z" fill="white"/>
<path d="M118.115 47.6574V35.207H120.347V47.6574H118.115Z" fill="white"/>
<path d="M125.194 47.8398C124.464 47.8765 123.738 47.7045 123.101 47.344C122.573 47.0087 122.174 46.5035 121.972 45.9117C121.735 45.2111 121.623 44.4747 121.641 43.7356V39.0805C121.623 38.3414 121.735 37.6049 121.972 36.9044C122.185 36.333 122.582 35.8485 123.101 35.5272C123.745 35.1895 124.468 35.0279 125.194 35.0589C125.939 35.026 126.68 35.1874 127.343 35.5272C127.851 35.8531 128.238 36.337 128.445 36.9044C128.704 37.5998 128.826 38.3388 128.803 39.0805V43.9009C128.823 44.6334 128.702 45.3631 128.445 46.0494C128.244 46.627 127.856 47.1212 127.343 47.4542C126.681 47.7931 125.933 47.9274 125.194 47.8398ZM125.194 46.1596C125.336 46.1829 125.481 46.1767 125.621 46.1415C125.76 46.1063 125.89 46.0428 126.004 45.9549C126.118 45.8671 126.212 45.7568 126.281 45.6308C126.351 45.5049 126.393 45.3661 126.406 45.223C126.436 44.9116 126.436 44.598 126.406 44.2865V38.5571C126.437 38.2457 126.437 37.932 126.406 37.6206C126.355 37.3697 126.23 37.1396 126.048 36.9595C125.803 36.7764 125.5 36.6884 125.194 36.7116C124.906 36.686 124.619 36.7751 124.396 36.9595C124.205 37.137 124.071 37.367 124.01 37.6206C123.979 37.932 123.979 38.2457 124.01 38.5571V44.2865C123.98 44.598 123.98 44.9116 124.01 45.223C124.042 45.4884 124.169 45.7331 124.368 45.9117C124.605 46.0906 124.898 46.1786 125.194 46.1596Z" fill="white"/>
<path d="M130.016 47.6574V35.207H131.613L134.643 42.3137V35.207H136.516V47.6574H135.001L131.971 40.2203V47.6574H130.016Z" fill="white"/>
<path d="M54.2937 68.0424L56.7727 55.5645H59.2242L61.7033 68.0424H59.6099L59.1141 65.2879H56.938L56.4146 68.0424H54.2937ZM57.0482 63.7178H58.756L57.9021 58.4842L57.0482 63.7178Z" fill="white"/>
<path d="M62.4227 68.0424V55.5645H64.0754L67.1054 62.6711V55.5645H68.9785V68.0424H67.4635L64.4335 60.5777V68.0424H62.4227Z" fill="white"/>
<path d="M70.3527 68.0368V55.5589H73.3C74.1104 55.5205 74.9193 55.6616 75.6689 55.9721C76.2219 56.2351 76.6549 56.6976 76.8809 57.2667C77.1457 57.9605 77.2675 58.7007 77.239 59.4428V63.9877C77.2661 64.7566 77.1445 65.5236 76.8809 66.2464C76.6597 66.8232 76.2396 67.3019 75.6964 67.5961C74.9678 67.9142 74.1772 68.0648 73.3827 68.0368H70.3527ZM72.6389 66.4392H73.3275C73.7241 66.4756 74.1215 66.3787 74.4569 66.1638C74.6897 65.9586 74.8372 65.6736 74.8701 65.365C74.902 64.934 74.902 64.5013 74.8701 64.0704V59.2775C74.9065 58.8743 74.9065 58.4687 74.8701 58.0655C74.843 57.9286 74.7872 57.7989 74.7065 57.685C74.6258 57.5711 74.522 57.4754 74.4018 57.4044C74.0743 57.2238 73.6997 57.147 73.3275 57.1841H72.6665L72.6389 66.4392Z" fill="white"/>
<path d="M81.7581 68.0346V55.5567H85.394C86.035 55.5265 86.6725 55.6693 87.2395 55.9699C87.704 56.25 88.0624 56.6763 88.2587 57.1819C88.4965 57.7961 88.6089 58.4517 88.5892 59.11C88.6171 59.7862 88.475 60.4586 88.176 61.0657C87.9211 61.5429 87.5138 61.921 87.0191 62.14C86.4626 62.38 85.8623 62.502 85.2563 62.4981H84.0167V68.0071L81.7581 68.0346ZM84.0167 60.8729H84.8706C85.2002 60.8889 85.5293 60.8325 85.8347 60.7077C85.9553 60.6545 86.0625 60.5749 86.1483 60.4748C86.2341 60.3746 86.2964 60.2565 86.3305 60.1292C86.3822 59.7822 86.3822 59.4294 86.3305 59.0825C86.3644 58.716 86.3644 58.3472 86.3305 57.9807C86.2671 57.7222 86.1101 57.4964 85.8898 57.3471C85.5604 57.2034 85.2022 57.1374 84.8431 57.1543H83.9892L84.0167 60.8729Z" fill="white"/>
<path d="M89.333 68.0319V55.554H92.3078C93.0356 55.5399 93.7609 55.6422 94.4563 55.857C95.0016 56.0337 95.4689 56.3939 95.7785 56.8762C96.104 57.4846 96.2564 58.1705 96.2193 58.8594C96.2324 59.3134 96.1861 59.7672 96.0815 60.2091C96.0053 60.5802 95.8452 60.9288 95.6133 61.2283C95.37 61.5209 95.0575 61.7481 94.7042 61.8894L96.4396 68.0319H94.1534L92.6659 62.3026H91.6192V68.0319H89.333ZM91.6192 60.8702H92.3078C92.6759 60.8885 93.0433 60.8225 93.3821 60.6774C93.6368 60.5537 93.834 60.3367 93.933 60.0714C94.0542 59.7267 94.1102 59.3624 94.0982 58.9972C94.135 58.506 94.0196 58.0155 93.7677 57.5924C93.6 57.4154 93.3928 57.2807 93.163 57.1993C92.9331 57.1179 92.6872 57.0921 92.4455 57.1241H91.6192V60.8702Z" fill="white"/>
<path d="M100.818 68.1973C100.087 68.2339 99.3613 68.0619 98.7246 67.7014C98.2013 67.3731 97.8036 66.8783 97.5954 66.2966C97.3618 65.586 97.25 64.8409 97.2648 64.093V59.4379C97.2471 58.6988 97.3591 57.9624 97.5954 57.2619C97.8089 56.6904 98.2061 56.206 98.7246 55.8846C99.3691 55.5469 100.091 55.3854 100.818 55.4163C101.563 55.3834 102.303 55.5448 102.967 55.8846C103.475 56.2105 103.862 56.6944 104.068 57.2619C104.328 57.9572 104.449 58.6962 104.426 59.4379V64.1206C104.447 64.8531 104.325 65.5827 104.068 66.2691C103.873 66.8568 103.485 67.3615 102.967 67.7014C102.311 68.065 101.567 68.2369 100.818 68.1973ZM100.818 66.517C100.96 66.5403 101.105 66.5341 101.244 66.4989C101.384 66.4637 101.514 66.4002 101.628 66.3124C101.742 66.2245 101.836 66.1142 101.905 65.9883C101.974 65.8623 102.017 65.7235 102.03 65.5804C102.061 65.269 102.061 64.9553 102.03 64.6439V58.9145C102.061 58.6031 102.061 58.2894 102.03 57.978C101.979 57.7271 101.854 57.497 101.672 57.3169C101.427 57.1338 101.123 57.0458 100.818 57.069C100.53 57.0435 100.243 57.1325 100.019 57.3169C99.8284 57.4944 99.6942 57.7245 99.6337 57.978C99.6027 58.2894 99.6027 58.6031 99.6337 58.9145V64.6439C99.6027 64.9553 99.6027 65.269 99.6337 65.5804C99.6656 65.8458 99.7928 66.0906 99.9918 66.2691C100.229 66.448 100.522 66.536 100.818 66.517Z" fill="white"/>
<path d="M105.639 68.0368V55.5589H108.587C109.397 55.5205 110.206 55.6616 110.956 55.9721C111.233 56.0976 111.483 56.2765 111.691 56.4987C111.899 56.7208 112.061 56.9818 112.168 57.2667C112.432 57.9605 112.554 58.7007 112.526 59.4428V63.9877C112.553 64.7566 112.431 65.5236 112.168 66.2464C111.955 66.8285 111.533 67.3101 110.983 67.5961C110.255 67.9142 109.464 68.0648 108.669 68.0368H105.639ZM107.926 66.4392H108.614C109.011 66.48 109.41 66.3827 109.744 66.1638C109.977 65.9586 110.124 65.6736 110.157 65.365C110.189 64.934 110.189 64.5013 110.157 64.0704V59.2775C110.193 58.8743 110.193 58.4687 110.157 58.0655C110.103 57.7958 109.944 57.5583 109.716 57.4044C109.377 57.2278 108.995 57.1514 108.614 57.1841H107.953L107.926 66.4392Z" fill="white"/>
<path d="M117.182 68.2077C116.421 68.2556 115.662 68.0732 115.006 67.6843C114.498 67.3468 114.126 66.8388 113.959 66.252C113.747 65.5181 113.645 64.757 113.656 63.9932V55.5645H115.887V64.2687C115.859 64.6354 115.859 65.0038 115.887 65.3705C115.915 65.6773 116.04 65.9671 116.246 66.1969C116.356 66.3081 116.49 66.3931 116.638 66.4456C116.786 66.498 116.944 66.5166 117.099 66.4999C117.256 66.5186 117.414 66.5011 117.562 66.4485C117.71 66.3959 117.844 66.3098 117.953 66.1969C118.148 65.9606 118.272 65.6742 118.311 65.3705C118.34 65.0038 118.34 64.6354 118.311 64.2687V55.5645H120.515V63.9932C120.54 64.7577 120.438 65.5211 120.212 66.252C120.057 66.8445 119.683 67.3563 119.165 67.6843C118.568 68.0455 117.88 68.2272 117.182 68.2077Z" fill="white"/>
<path d="M125.361 68.2052C124.605 68.2427 123.856 68.0506 123.212 67.6543C122.7 67.3028 122.321 66.7883 122.138 66.1944C121.908 65.5017 121.797 64.7755 121.807 64.0459V59.6111C121.793 58.8542 121.904 58.1001 122.138 57.38C122.305 56.7854 122.688 56.2746 123.212 55.9476C123.86 55.6312 124.571 55.4668 125.292 55.4668C126.013 55.4668 126.724 55.6312 127.372 55.9476C127.86 56.2315 128.232 56.681 128.418 57.2147C128.642 57.813 128.745 58.4495 128.721 59.0878V60.1345H126.545V59.0602C126.545 58.7297 126.545 58.3992 126.545 58.1237C126.53 57.8652 126.423 57.6206 126.242 57.4351C126.132 57.3325 126.002 57.2549 125.859 57.2073C125.716 57.1598 125.565 57.1435 125.416 57.1596C125.107 57.1442 124.803 57.2422 124.562 57.4351C124.387 57.6382 124.272 57.8863 124.231 58.1512C124.201 58.4995 124.201 58.8497 124.231 59.198V64.707C124.182 65.0818 124.182 65.4615 124.231 65.8363C124.292 66.0899 124.426 66.3199 124.617 66.4974C124.846 66.6473 125.115 66.7242 125.388 66.7178C125.538 66.7339 125.689 66.7176 125.831 66.6701C125.974 66.6226 126.105 66.5449 126.215 66.4423C126.385 66.2393 126.491 65.9898 126.518 65.7261C126.518 65.4231 126.518 65.0926 126.518 64.7345V63.6052H128.694V64.5968C128.708 65.2683 128.615 65.9379 128.418 66.58C128.234 67.1212 127.875 67.5861 127.399 67.9022C126.762 68.1947 126.055 68.2998 125.361 68.2052Z" fill="white"/>
<path d="M131.09 68.0424V57.2447H129.107V55.5645H135.332V57.2447H133.376V68.0424H131.09Z" fill="white"/>
<path d="M136.079 68.0424V55.5645H138.448V68.0424H136.079Z" fill="white"/>
<path d="M143.158 68.1973C142.427 68.2339 141.701 68.0619 141.064 67.7014C140.541 67.3731 140.143 66.8783 139.935 66.2966C139.702 65.586 139.59 64.8409 139.605 64.093V59.4379C139.587 58.6988 139.699 57.9624 139.935 57.2619C140.149 56.6904 140.546 56.206 141.064 55.8846C141.709 55.5469 142.431 55.3854 143.158 55.4163C143.903 55.3834 144.643 55.5448 145.306 55.8846C145.817 56.2149 146.212 56.6964 146.436 57.2619C146.672 57.9624 146.784 58.6988 146.766 59.4379V64.1206C146.782 64.8505 146.67 65.5776 146.436 66.2691C146.22 66.8539 145.825 67.3554 145.306 67.7014C144.651 68.065 143.906 68.2369 143.158 68.1973ZM143.158 66.517C143.3 66.5403 143.445 66.5341 143.584 66.4989C143.723 66.4637 143.854 66.4002 143.968 66.3124C144.081 66.2245 144.176 66.1142 144.245 65.9883C144.314 65.8623 144.357 65.7235 144.37 65.5804C144.401 65.269 144.401 64.9553 144.37 64.6439V58.9145C144.401 58.6031 144.401 58.2894 144.37 57.978C144.319 57.7271 144.194 57.497 144.012 57.3169C143.766 57.1338 143.463 57.0458 143.158 57.069C142.869 57.0435 142.582 57.1325 142.359 57.3169C142.168 57.4944 142.034 57.7245 141.973 57.978C141.943 58.2894 141.943 58.6031 141.973 58.9145V64.6439C141.943 64.9553 141.943 65.269 141.973 65.5804C142.005 65.8458 142.133 66.0906 142.332 66.2691C142.568 66.448 142.862 66.536 143.158 66.517Z" fill="white"/>
<path d="M147.974 68.0424V55.5645H149.461L152.491 62.6711V55.5645H154.364V68.0424H152.849L149.819 60.5777V68.0424H147.974Z" fill="white"/>
<path d="M129.605 88.7214C126.584 86.4641 123.139 84.8376 119.477 83.9385C115.814 83.0394 112.008 82.8861 108.285 83.4878H107.844C103.602 84.507 96.8261 86.2423 88.9482 95.9658V96.1311C88.9202 96.2488 88.9202 96.3714 88.9482 96.4891C88.9161 96.597 88.9161 96.7119 88.9482 96.8197L89.1135 97.1227C90.1051 98.8029 91.3722 100.924 92.419 102.907C92.476 103.018 92.5631 103.11 92.6703 103.174C92.7775 103.237 92.9005 103.269 93.025 103.265C93.1125 103.271 93.2001 103.256 93.2813 103.223C93.3624 103.189 93.4349 103.138 93.4932 103.072C93.554 103.02 93.6013 102.954 93.6309 102.88C100.655 93.1837 106.164 91.8616 109.91 90.9526H110.351C115.525 90.2915 120.757 91.6315 124.977 94.6987C129.109 97.9766 131.23 103.183 131.23 110.179C131.23 121.941 125.501 126.541 120.708 128.304C115.9 129.88 110.668 129.535 106.109 127.34L105.806 127.202C101.702 125.439 95.6141 121.693 89.8848 110.207C78.3158 86.9861 68.6475 84.81 62.3397 83.3501H61.9816C58.3109 82.7609 54.5589 82.9208 50.9517 83.8202C47.3444 84.7197 43.9565 86.34 40.9922 88.5837C36.8329 91.8891 31.9024 98.3347 31.9024 110.234C31.5455 116.362 33.4247 122.41 37.191 127.257C40.2393 131.043 44.293 133.894 48.8871 135.482C53.4813 137.071 58.4301 137.332 63.1661 136.237C66.8812 135.459 70.368 133.838 73.3577 131.499L76.9937 134.804C77.0475 134.859 77.1118 134.903 77.1827 134.933C77.2537 134.963 77.3299 134.978 77.4068 134.978C77.4838 134.978 77.56 134.963 77.6309 134.933C77.7019 134.903 77.7661 134.859 77.82 134.804C77.9238 134.703 77.9832 134.564 77.9853 134.419L80.6021 118.25V118.084C80.6054 118.001 80.5898 117.918 80.5564 117.842C80.523 117.766 80.4726 117.698 80.4092 117.644C80.3575 117.596 80.2967 117.559 80.2304 117.536C80.1642 117.512 80.0939 117.502 80.0237 117.506H79.7482L64.2403 121.831H63.9648C63.851 121.858 63.7464 121.915 63.6619 121.996C63.6069 122.05 63.5632 122.114 63.5334 122.185C63.5036 122.256 63.4882 122.332 63.4882 122.409C63.4882 122.486 63.5036 122.562 63.5334 122.633C63.5632 122.704 63.6069 122.768 63.6619 122.822L63.8271 123.015L67.2978 126.128C65.5782 127.29 63.6521 128.113 61.6235 128.552C58.3555 129.352 54.9292 129.228 51.7281 128.191C48.5271 127.155 45.6776 125.248 43.4988 122.685C40.7651 119.189 39.4385 114.796 39.7802 110.372C39.7802 103.348 41.8461 98.1143 45.9228 94.864C50.0486 91.823 55.1927 90.4999 60.2738 91.1729H60.6319C65.8654 92.3574 73.0547 93.9274 82.9434 113.87C88.0944 124.172 94.5399 130.921 102.638 134.501C106.496 136.325 110.711 137.266 114.978 137.256C117.911 137.276 120.823 136.762 123.572 135.741C128.255 134.006 139.19 128.001 139.19 110.234C139.19 98.3622 134.177 91.9166 129.963 88.5837" fill="white"/>
</svg>
