<svg width="172" height="171" viewBox="0 0 172 171" fill="none" xmlns="http://www.w3.org/2000/svg">
<path d="M171.5 0H0.5V171H171.5V0Z" fill="#C22033"/>
<path d="M23.3915 39.763H13.5617V34.8481L22.0661 14.8848H29.0243V35.0414H32.2825V39.763H29.0243V47.4943H23.5019L23.3915 39.763ZM23.3915 35.0414V21.2355L18.4213 35.0414H23.3915Z" fill="white"/>
<path d="M50.229 28.8804C49.7935 28.4459 49.3963 27.9748 49.0417 27.4722H48.7931C48.2836 27.5165 47.7706 27.4451 47.2925 27.2634C46.8144 27.0818 46.3835 26.7944 46.0319 26.4229C45.4225 25.5322 45.1307 24.4623 45.2036 23.3856V18.6916C45.1256 17.6316 45.4184 16.5774 46.0319 15.7095C46.3848 15.3413 46.8167 15.0581 47.295 14.8811C47.7733 14.7041 48.2856 14.638 48.7931 14.6879C49.3011 14.6317 49.8152 14.6948 50.2946 14.8721C50.7739 15.0495 51.2052 15.3362 51.5543 15.7095C52.1908 16.5674 52.4948 17.6268 52.4103 18.6916V23.3856C52.5197 24.1053 52.4128 24.8413 52.103 25.5001C51.7933 26.1588 51.2948 26.7107 50.6708 27.0856C51.0316 27.5336 51.4493 27.9327 51.9133 28.2729L51.4991 29.7916C51.0296 29.5579 50.6007 29.2503 50.229 28.8804ZM49.8148 25.3184C50.0167 24.8872 50.1114 24.4136 50.0909 23.9378V18.1118C50.1081 17.6452 50.0134 17.1813 49.8148 16.7588C49.7043 16.594 49.5504 16.463 49.3701 16.3802C49.1898 16.2973 48.9901 16.2659 48.7931 16.2894C48.5923 16.2668 48.389 16.2985 48.2045 16.381C48.02 16.4635 47.861 16.594 47.7439 16.7588C47.5558 17.1839 47.4706 17.6475 47.4954 18.1118V23.855C47.471 24.3371 47.556 24.8185 47.7439 25.2632C47.861 25.428 48.02 25.5584 48.2045 25.641C48.389 25.7235 48.5923 25.7552 48.7931 25.7326C49.0015 25.7883 49.222 25.7784 49.4246 25.7043C49.6272 25.6302 49.802 25.4955 49.9252 25.3184H49.8148Z" fill="white"/>
<path d="M55.3945 27.0008C54.8764 26.6778 54.4936 26.1772 54.3176 25.5926C54.0862 24.8421 53.9835 24.0579 54.0139 23.2732V14.9896H56.2229V23.6321C56.1979 24.1952 56.2823 24.7578 56.4714 25.2888C56.5835 25.4656 56.7385 25.6112 56.9219 25.7121C57.1053 25.8129 57.3113 25.8658 57.5206 25.8658C57.73 25.8658 57.9359 25.8129 58.1193 25.7121C58.3027 25.6112 58.4577 25.4656 58.5699 25.2888C58.759 24.7578 58.8433 24.1952 58.8184 23.6321V14.8516H61.0273V23.1351C61.0443 23.9192 60.9419 24.7013 60.7236 25.4545C60.5292 26.0295 60.1507 26.5244 59.6467 26.8627C58.9855 27.189 58.258 27.3587 57.5206 27.3587C56.7832 27.3587 56.0557 27.189 55.3945 26.8627V27.0008Z" fill="white"/>
<path d="M64.5885 14.8516H67.0184L69.5311 27.3045H67.4049L66.9079 24.5433H64.7542L64.2296 27.3045H62.1035L64.5885 14.8516ZM66.6594 23.1351L65.8311 17.8889L64.9751 23.1351H66.6594Z" fill="white"/>
<path d="M70.689 14.8516H72.9532V25.8963H75.9905V27.4426H70.689V14.8516Z" fill="white"/>
<path d="M77.1498 14.8516H79.3863V27.3045H77.1498V14.8516Z" fill="white"/>
<path d="M82.451 16.5359H80.3801V14.8516H86.7585V16.5359H84.7152V27.3045H82.451V16.5359Z" fill="white"/>
<path d="M89.4351 22.5553L86.8948 14.8516H89.0209L90.5672 19.7941L92.003 14.8516H94.1015L91.644 22.5553V27.3045H89.4903L89.4351 22.5553Z" fill="white"/>
<path d="M45.5094 35.2051H50.7281V36.8065H47.746V40.3961H50.2311V41.9976H47.884V46.1394H50.8938V47.6856H45.6475L45.5094 35.2051Z" fill="white"/>
<path d="M51.9971 35.1995H54.9516C55.764 35.1611 56.5749 35.3025 57.3262 35.6137C57.8647 35.8722 58.2948 36.3121 58.5411 36.8563C58.814 37.569 58.9363 38.3305 58.9001 39.0928V43.6211C58.9316 44.4012 58.8096 45.1799 58.5411 45.9129C58.3158 46.4909 57.8824 46.9636 57.3262 47.2383C56.6099 47.5706 55.823 47.7223 55.0344 47.6801H51.9971V35.1995ZM54.9792 46.0786C55.3552 46.1092 55.7315 46.0224 56.0561 45.8301C56.1753 45.7475 56.2762 45.641 56.3522 45.5174C56.4283 45.3939 56.4779 45.2559 56.4979 45.1122C56.5342 44.6435 56.5342 44.1727 56.4979 43.704V38.9271C56.5354 38.5138 56.5354 38.0979 56.4979 37.6846C56.4312 37.4121 56.2634 37.1752 56.0285 37.0219C55.6925 36.8647 55.3213 36.798 54.9516 36.8286H54.2613V46.0786H54.9792Z" fill="white"/>
<path d="M61.7966 47.3543C61.2785 47.0313 60.8957 46.5307 60.7197 45.9461C60.4861 45.2056 60.3833 44.4301 60.416 43.6543V35.2051H62.625V43.9028C62.6025 44.4748 62.6868 45.046 62.8735 45.5871C62.9856 45.7639 63.1406 45.9095 63.324 46.0103C63.5074 46.1112 63.7134 46.1641 63.9227 46.1641C64.1321 46.1641 64.338 46.1112 64.5214 46.0103C64.7049 45.9095 64.8598 45.7639 64.9719 45.5871C65.1586 45.046 65.2429 44.4748 65.2204 43.9028V35.2051H67.4294V43.6543C67.4444 44.4292 67.342 45.2019 67.1257 45.9461C66.9313 46.5211 66.5528 47.016 66.0488 47.3543C65.4004 47.7151 64.6639 47.8873 63.9227 47.8513C63.1809 47.8949 62.4422 47.7223 61.7966 47.3543Z" fill="white"/>
<path d="M69.7484 46.7785C69.1465 45.874 68.8557 44.7981 68.92 43.7136V39.2405C68.8495 38.1505 69.1301 37.0667 69.7208 36.1479C70.0631 35.7629 70.4919 35.4646 70.9718 35.2774C71.4518 35.0902 71.9693 35.0195 72.4819 35.0711C72.9571 35.0261 73.4362 35.087 73.885 35.2493C74.3338 35.4117 74.741 35.6714 75.0775 36.0099C75.6721 36.8009 75.948 37.7863 75.8506 38.7711V39.8203H73.6693V38.7434C73.6886 38.4032 73.6886 38.0621 73.6693 37.7218C73.6391 37.4771 73.5214 37.2515 73.3379 37.0867C73.2299 37.0009 73.106 36.9372 72.9733 36.8993C72.8407 36.8614 72.7018 36.85 72.5648 36.8658C72.2667 36.8358 71.9688 36.9251 71.7364 37.1143C71.5446 37.2877 71.4179 37.5216 71.3775 37.777C71.3295 38.1436 71.3295 38.5149 71.3775 38.8815V44.4039C71.3507 44.9246 71.4452 45.4445 71.6536 45.9225C71.7618 46.0896 71.9153 46.2225 72.0962 46.3056C72.2771 46.3887 72.478 46.4186 72.6752 46.3919C72.9555 46.4131 73.233 46.324 73.4484 46.1434C73.6231 45.972 73.739 45.7497 73.7797 45.5083C73.7986 45.1404 73.7986 44.7718 73.7797 44.4039V42.968H75.9611V43.9621C76.0134 44.9384 75.7522 45.9059 75.2155 46.7233C74.8876 47.084 74.479 47.362 74.0231 47.5348C73.5673 47.7075 73.0771 47.7701 72.5924 47.7173C72.0777 47.8068 71.5489 47.768 71.0528 47.6042C70.5567 47.4405 70.1086 47.1568 69.7484 46.7785Z" fill="white"/>
<path d="M79.2195 35.2051H81.6494L84.162 47.6856H82.036L81.5389 44.9244H79.3852L78.8606 47.6856H76.7345L79.2195 35.2051ZM81.318 43.4886L80.6001 38.1319L79.7442 43.3506L81.318 43.4886Z" fill="white"/>
<path d="M86.1242 36.8894H84.0258V35.2051H90.4317V36.8894H88.3608V47.6856H86.1242V36.8894Z" fill="white"/>
<path d="M91.4249 35.2051H93.6891V47.6856H91.4249V35.2051Z" fill="white"/>
<path d="M96.1483 46.8058C95.5349 45.917 95.2427 44.8457 95.3199 43.7685V39.1021C95.2468 38.034 95.5389 36.9728 96.1483 36.0925C96.5059 35.7307 96.9384 35.4517 97.4155 35.2752C97.8925 35.0986 98.4025 35.0289 98.9095 35.0708C99.417 35.021 99.9292 35.087 100.408 35.264C100.886 35.441 101.318 35.7243 101.671 36.0925C102.302 36.9632 102.606 38.0293 102.527 39.1021V43.7685C102.591 44.8485 102.29 45.9186 101.671 46.8058C101.323 47.1824 100.893 47.4731 100.413 47.6552C99.9343 47.8372 99.4195 47.9057 98.9095 47.8551C98.3999 47.8994 97.8869 47.828 97.4088 47.6463C96.9307 47.4647 96.4998 47.1774 96.1483 46.8058ZM99.9311 45.729C100.119 45.2939 100.204 44.8215 100.18 44.3484V38.5775C100.207 38.1042 100.122 37.6311 99.9311 37.1969C99.7992 37.0539 99.6391 36.9397 99.4609 36.8616C99.2827 36.7835 99.0902 36.7431 98.8957 36.7431C98.7011 36.7431 98.5086 36.7835 98.3304 36.8616C98.1522 36.9397 97.9921 37.0539 97.8602 37.1969C97.6646 37.6197 97.5791 38.0852 97.6117 38.5499V44.2932C97.5877 44.7663 97.6727 45.2387 97.8602 45.6738C97.9729 45.8431 98.1313 45.9771 98.317 46.0602C98.5027 46.1432 98.7081 46.172 98.9095 46.1432C99.1014 46.1757 99.2986 46.1542 99.4791 46.0811C99.6595 46.0079 99.816 45.886 99.9311 45.729Z" fill="white"/>
<path d="M104.125 35.2051H105.699L108.736 42.3289V35.2051H110.614V47.6856H109.095L106.058 40.2304V47.6856H104.125V35.2051Z" fill="white"/>
<path d="M76.2642 91.7256L45.4771 73.916V131.487L76.2642 140.764V91.7256Z" fill="white"/>
<path d="M79.6629 91.8361V140.792L110.671 131.459V73.916L79.6629 91.8361Z" fill="white"/>
<path d="M128.479 130.464H127.568L131.213 143.193L134.858 130.464H133.947H134.858V79.2441H133.947H133.035H132.069H130.274H129.363H128.479H127.568V130.464H128.479Z" fill="white"/>
<path d="M117.299 76.3985L113.986 73.7754V133.03L79.747 144.103H78.1731H77.8694H76.2679L42.1949 134.577V73.7754L38.8815 76.3985V136.896L76.1299 147.195H77.8694H78.1731H79.9127L114.262 136.289L117.299 135.405V76.3985Z" fill="white"/>
<path d="M134.858 72.4807C134.858 71.514 134.474 70.587 133.79 69.9035C133.107 69.2199 132.18 68.8359 131.213 68.8359C130.246 68.8359 129.319 69.2199 128.636 69.9035C127.952 70.587 127.568 71.514 127.568 72.4807V76.4016H134.858V72.4807Z" fill="white"/>
</svg>
