<?xml version="1.0" encoding="UTF-8"?>
<svg version="1.1" xmlns="http://www.w3.org/2000/svg" width="1500" height="1500">
<path d="M0 0 C495 0 990 0 1500 0 C1500 495 1500 990 1500 1500 C1005 1500 510 1500 0 1500 C0 1005 0 510 0 0 Z " fill="#DDA83A" transform="translate(0,0)"/>
<path d="M0 0 C1.15112441 -0.00352842 2.30224883 -0.00705684 3.4882558 -0.01069218 C4.76636738 -0.0094944 6.04447897 -0.00829663 7.36132121 -0.00706255 C8.72788504 -0.00931726 10.0944482 -0.01200818 11.4610104 -0.01509839 C15.24604508 -0.02236154 19.03105999 -0.02332766 22.81610071 -0.02332116 C26.92270793 -0.02438735 31.02930625 -0.03117389 35.1359086 -0.03722787 C43.29422421 -0.04832206 51.45253551 -0.05395671 59.61085734 -0.05793675 C69.37728929 -0.06293858 79.14371286 -0.0736649 88.91013987 -0.08441848 C112.51857402 -0.11007003 136.12701144 -0.12508757 159.73545553 -0.13792895 C167.55229516 -0.14218148 175.36913455 -0.14674715 183.18597388 -0.15151227 C224.72003224 -0.17676902 266.25409097 -0.19882422 307.78815532 -0.21124041 C317.4147308 -0.2141619 327.04130627 -0.21712938 336.66788173 -0.22014582 C337.8639004 -0.22051673 339.05991907 -0.22088764 340.29218073 -0.22126979 C379.08684751 -0.23343055 417.88146898 -0.26438243 456.67611447 -0.30606735 C496.53633713 -0.34881933 536.39653585 -0.37547685 576.25678206 -0.38071512 C581.8822873 -0.38145562 587.50779249 -0.38236631 593.13329768 -0.3833729 C594.24050368 -0.38356352 595.34770967 -0.38375413 596.48846737 -0.38395052 C614.33441541 -0.38746928 632.18030685 -0.40779097 650.02623408 -0.43416954 C667.95167 -0.46026688 685.87704027 -0.46806166 703.80249247 -0.45706825 C714.46145056 -0.45107555 725.12018654 -0.45908628 735.77911117 -0.48689909 C742.89165347 -0.50409006 750.00404351 -0.50325395 757.1165889 -0.4875314 C761.17411898 -0.47908175 765.2312238 -0.47866973 769.28871527 -0.50014286 C772.97755818 -0.51950897 776.66563371 -0.51600339 780.3544553 -0.49398937 C782.31130785 -0.48828173 784.26818448 -0.50720058 786.22494501 -0.52701765 C795.68239918 -0.43340987 795.68239918 -0.43340987 799.38760996 2.54357886 C802.43669758 6.0722438 802.87693381 7.96714805 802.80997157 12.6231159 C802.42012399 17.83529684 801.23764618 22.9078651 800.12247157 28.00495183 C799.72197597 29.84585393 799.72197597 29.84585393 799.31338954 31.72394598 C788.46420721 80.04958708 767.17689411 126.39193956 737.62247157 166.12995183 C737.21528895 166.67748113 736.80810634 167.22501043 736.38858485 167.78913152 C724.11792425 184.19219628 710.49631125 199.31671552 696.07501674 213.8526386 C694.66520534 215.27435714 693.25937478 216.70001972 691.85367274 218.12580144 C685.75429369 224.23281358 679.36776494 229.75246547 672.62247157 235.12995183 C671.59501253 235.99344837 670.57160393 236.86184197 669.55606532 237.73932683 C637.7846042 264.98621368 576.54637596 311.12995183 533.62247157 311.12995183 C533.66174769 312.35512517 533.66174769 312.35512517 533.70181727 313.60504949 C533.8060337 317.32148637 533.87087956 321.03761544 533.93497157 324.75495183 C533.9768661 326.04014715 534.01876063 327.32534246 534.0619247 328.64948308 C534.07803798 329.8934284 534.09415126 331.13737371 534.11075282 332.41901433 C534.1369369 333.56064031 534.16312099 334.70226629 534.19009852 335.87848699 C533.46976526 340.00467985 531.97702449 342.66448974 528.62247157 345.12995183 C525.16037626 346.01631107 521.78026702 345.9314136 518.22220302 345.87839544 C517.16381866 345.88634425 516.1054343 345.89429306 515.01497769 345.90248275 C511.46237457 345.92175861 507.91135856 345.89807754 504.3587997 345.87458074 C501.81447703 345.87943575 499.27015817 345.88687358 496.72584987 345.89670599 C490.52897218 345.91358599 484.33268499 345.90248472 478.13584864 345.8781801 C470.91987078 345.850933 463.7040038 345.85421642 456.48798758 345.85844676 C443.61296081 345.86482627 430.73815536 345.84149301 417.86319423 345.80231512 C405.36931056 345.76430679 392.87568626 345.75013998 380.38174891 345.76129949 C366.77749069 345.77341479 353.17334652 345.77306155 339.56909776 345.75032783 C338.11850016 345.74791324 336.66790255 345.74550127 335.21730494 345.74309194 C334.14671585 345.74128132 334.14671585 345.74128132 333.0544987 345.73943413 C328.02433254 345.731675 322.99420883 345.73246337 317.96403956 345.73626363 C311.19405209 345.7409508 304.42444637 345.72385155 297.65451694 345.69214284 C295.16683846 345.68364372 292.67912617 345.68196506 290.19143939 345.68752325 C286.80150441 345.69394927 283.41257199 345.67584986 280.02274013 345.65134466 C279.03295932 345.6589033 278.04317852 345.66646195 277.02340436 345.67424965 C272.69409712 345.61869986 270.28426904 345.53883586 266.53495479 343.22236478 C263.51696937 339.92044207 263.46142845 337.86044647 263.30606532 333.46588933 C263.26417079 332.34440496 263.22227626 331.22292058 263.1791122 330.06745183 C263.12013759 328.30401433 263.12013759 328.30401433 263.05997157 326.50495183 C263.01678798 325.32159246 262.97360438 324.13823308 262.9291122 322.91901433 C262.82279731 319.98944856 262.72076515 317.05979595 262.62247157 314.12995183 C261.97101161 313.9149201 261.31955165 313.69988836 260.64835048 313.47834051 C238.72033601 306.19003917 217.16604265 297.97127685 196.68497157 287.20612371 C194.35128745 285.9884533 192.00306359 284.80149434 189.65372157 283.61432683 C157.33192017 267.15671802 128.34281567 245.54960166 101.62247157 221.12995183 C100.59412087 220.20644601 99.56545875 219.28328687 98.53653407 218.36042058 C91.26217909 211.79323402 84.50035085 204.90749312 77.95987391 197.61139715 C76.76535364 196.28822281 75.54883567 194.98498407 74.32950282 193.68463933 C67.79530641 186.66246104 62.04233766 179.07261251 56.3119247 171.39313543 C55.20556522 169.9110614 54.09503664 168.43208831 52.97989345 166.95661199 C44.50831517 155.72998675 37.1537302 144.04788391 30.18301845 131.83673894 C29.11316517 129.98106572 28.02490314 128.13591974 26.9212997 126.30011785 C22.37318683 118.70247259 18.49465343 110.8872714 14.87247157 102.81745183 C14.57454707 102.15708929 14.27662257 101.49672674 13.96967006 100.8163532 C-14.82332766 36.70530871 -14.82332766 36.70530871 -12.37752843 7.12995183 C-9.48989892 1.59716553 -5.95693451 0.00574709 0 0 Z " fill="#FEFEFE" transform="translate(333.3775284290314,964.8700481653214)"/>
<path d="M0 0 C13.68662381 12.87086477 20.34643249 30.82669995 21.14770508 49.30786133 C21.74300177 74.35104312 21.74300177 74.35104312 18.01953125 85.3515625 C17.62428866 86.64431398 17.22981052 87.93729933 16.8359375 89.23046875 C14.32067075 97.15605396 11.10695587 104.60239295 7.26953125 111.9765625 C6.90013428 112.69086426 6.5307373 113.40516602 6.15014648 114.14111328 C2.34859641 121.20192305 -2.18618641 127.77652571 -6.67242432 134.41204834 C-8.71378501 137.43889351 -10.73116725 140.48154253 -12.75 143.5234375 C-20.95471368 155.86040415 -29.18077635 168.1823279 -37.47265625 180.4609375 C-38.11081772 181.40604187 -38.74897919 182.35114624 -39.40647888 183.32489014 C-42.54080536 187.9655123 -45.67760223 192.60444268 -48.81762695 197.24121094 C-49.99042759 198.97589087 -51.16319902 200.71059055 -52.3359375 202.4453125 C-53.09757706 203.56749176 -53.09757706 203.56749176 -53.87460327 204.71234131 C-59.37061885 212.84801289 -64.64272273 221.10231865 -69.98046875 229.3515625 C-28.40046875 229.8465625 -28.40046875 229.8465625 14.01953125 230.3515625 C14.01953125 244.5415625 14.01953125 258.7315625 14.01953125 273.3515625 C-34.49046875 273.3515625 -83.00046875 273.3515625 -132.98046875 273.3515625 C-132.98046875 229.26452607 -132.98046875 229.26452607 -121.01660156 214.89697266 C-117.39409129 210.36840046 -114.39724868 205.42995247 -111.29296875 200.5390625 C-110.03683862 198.61133326 -108.77778922 196.68550264 -107.515625 194.76171875 C-103.08303135 187.98350954 -98.68539028 181.18290343 -94.29101562 174.37988281 C-91.56021714 170.15345326 -88.8254696 165.929577 -86.09130859 161.70532227 C-83.87280765 158.27740573 -81.6554376 154.8487741 -79.44140625 151.41796875 C-78.57945105 150.08331785 -77.71747146 148.74868271 -76.85546875 147.4140625 C-76.4171875 146.73456543 -75.97890625 146.05506836 -75.52734375 145.35498047 C-72.67515155 140.94224876 -69.79366279 136.55002009 -66.89453125 132.16796875 C-39.55690481 93.1777892 -39.55690481 93.1777892 -34.5234375 47.3359375 C-36.25404022 40.94896171 -38.6473019 35.44177077 -44.54296875 31.9765625 C-50.23967953 29.45176331 -56.33032941 29.25033402 -62.28515625 31.046875 C-68.79725734 33.971177 -72.33899694 38.52037895 -75.16796875 44.9140625 C-79.92484474 57.89956672 -79.35738997 71.64382936 -79.98046875 85.3515625 C-97.47046875 85.3515625 -114.96046875 85.3515625 -132.98046875 85.3515625 C-132.98046875 54.7265625 -132.98046875 54.7265625 -130.98046875 44.3515625 C-130.67109375 42.68480469 -130.67109375 42.68480469 -130.35546875 40.984375 C-127.71235741 28.21934863 -122.63908625 17.85918572 -114.98046875 7.3515625 C-114.5215625 6.69414062 -114.06265625 6.03671875 -113.58984375 5.359375 C-106.12342706 -4.4009408 -94.36542936 -9.97736857 -82.98046875 -13.6484375 C-82.29082031 -13.88175781 -81.60117188 -14.11507812 -80.890625 -14.35546875 C-55.30203683 -22.42080607 -20.70282125 -17.23193406 0 0 Z " fill="#FEFEFD" transform="translate(251.98046875,141.6484375)"/>
<path d="M0 0 C4.16872165 3.1079971 7.85643391 6.95896158 10.1953125 11.63671875 C11.69058446 22.19825991 7.45237335 29.2330997 2.14453125 38.0390625 C-15.88527001 68.31352824 -26.52842009 107.49178837 -17.7734375 142.51171875 C-12.49370085 159.5431273 -4.85044847 173.878622 7.34375 186.9375 C34.31507616 215.90489903 47.53919933 249.95438045 46.39648438 289.40136719 C45.13448212 309.69754913 45.13448212 309.69754913 41.1953125 313.63671875 C39.56856472 313.73012309 37.93777199 313.75417046 36.30834961 313.75024414 C35.26734604 313.75016861 34.22634247 313.75009308 33.15379333 313.75001526 C32.0215181 313.74485397 30.88924286 313.73969269 29.72265625 313.734375 C27.99348717 313.73225258 27.99348717 313.73225258 26.22938538 313.73008728 C22.53050186 313.7244688 18.83167786 313.71191317 15.1328125 313.69921875 C12.63216233 313.69420613 10.13151121 313.68964281 7.63085938 313.68554688 C1.48565662 313.67449337 -4.65951119 313.65773727 -10.8046875 313.63671875 C-9.85574211 308.74503122 -8.57822604 303.96742138 -7.265625 299.1640625 C-1.57052836 278.12620551 -5.4433841 256.67199002 -15.87744141 237.68457031 C-21.58510101 227.93682762 -28.51924571 219.16537163 -36.1796875 210.88671875 C-49.69674435 195.97615088 -59.4647175 178.67645665 -65.8046875 159.63671875 C-66.19527344 158.49074219 -66.58585938 157.34476563 -66.98828125 156.1640625 C-81.06374336 112.90650677 -68.75541137 66.08640472 -48.94555664 26.76586914 C-35.96052991 1.71991883 -35.96052991 1.71991883 -24.04296875 -2.8515625 C-15.7147099 -4.75557979 -7.44197114 -4.28588767 0 0 Z " fill="#FEFEFD" transform="translate(586.8046875,619.36328125)"/>
<path d="M0 0 C6.66932685 3.83397132 10.17586978 7.88791907 12.2734375 15.29296875 C13.56429346 26.37998716 6.51098358 35.05861768 0.97851562 44.09277344 C-15.92088741 72.321697 -24.59315383 111.03131186 -16.53515625 143.30078125 C-11.22083837 160.04589608 -3.54558781 173.8969814 8.11962891 187.00976562 C36.22943885 218.62957306 49.4512955 252.14814989 47.5 294.5625 C46.94869599 300.00793633 45.87435417 305.26447148 44.5 310.5625 C44.17 311.8825 43.84 313.2025 43.5 314.5625 C26.01 314.5625 8.52 314.5625 -9.5 314.5625 C-8.51 310.9325 -7.52 307.3025 -6.5 303.5625 C-0.62944053 279.88699265 -3.58657863 257.41153131 -15.75390625 236.33203125 C-20.87315306 228.21224156 -26.35428706 220.62201489 -32.9375 213.625 C-61.7469188 183.00325301 -71.48817481 146.15308189 -70.63623047 105.06396484 C-70.33836263 97.40801416 -69.19177873 90.02497854 -67.5 82.5625 C-67.32307617 81.7772998 -67.14615234 80.99209961 -66.96386719 80.18310547 C-64.36169338 68.96769141 -60.88887219 58.2000226 -56.5 47.5625 C-56.21286133 46.85802734 -55.92572266 46.15355469 -55.62988281 45.42773438 C-51.93621646 36.45911317 -47.74577671 27.86334596 -42.9375 19.4375 C-42.50284424 18.66817139 -42.06818848 17.89884277 -41.62036133 17.10620117 C-32.31765674 1.22771545 -18.6194176 -8.27016315 0 0 Z " fill="#FEFEFD" transform="translate(901.5,618.4375)"/>
<path d="M0 0 C4.20518109 3.57887752 7.62825759 7.29211163 8.3984375 12.90234375 C8.39070312 13.90394531 8.38296875 14.90554688 8.375 15.9375 C8.38660156 17.43603516 8.38660156 17.43603516 8.3984375 18.96484375 C7.69152267 24.3498714 4.62014639 28.71959081 1.94262695 33.35107422 C-6.45535526 47.92644451 -13.42705458 62.77807783 -18 79 C-18.21172852 79.73959961 -18.42345703 80.47919922 -18.64160156 81.24121094 C-26.29620079 109.20294029 -23.88666873 139.65144048 -10.04394531 165.17675781 C-6.35553375 171.61853927 -1.81565356 177.17448417 3.1875 182.625 C30.94820834 212.96587745 45.07751328 246.66375621 44.15380859 287.75390625 C43.76841051 295.88764095 42.58052885 304.25841345 40 312 C22.51 312 5.02 312 -13 312 C-10 301 -10 301 -9.05078125 297.75 C-3.20492608 275.97496275 -8.0822019 253.36603371 -19.10205078 234.0703125 C-24.24906372 225.51741267 -30.4001563 217.95608905 -36.9765625 210.4765625 C-65.16269022 178.3338502 -76.26469988 142.4487396 -74 100 C-71.22935011 67.97776522 -58.75384487 23.29721121 -34.5625 0.4375 C-24.15818435 -7.5063356 -10.63158271 -7.13332296 0 0 Z " fill="#FEFEFD" transform="translate(747,621)"/>
<path d="M0 0 C1.11036621 0.00241699 1.11036621 0.00241699 2.24316406 0.00488281 C9.66956101 0.17049114 15.11157734 2.2669464 21.4375 6.0625 C27.63464066 12.61376298 30.85489375 20.98479584 30.91552734 29.94018555 C30.92828705 31.22559738 30.94104675 32.51100922 30.95419312 33.83537292 C30.95725202 35.22748665 30.95947911 36.61960242 30.9609375 38.01171875 C30.9673746 39.45652902 30.97410362 40.90133801 30.98110962 42.34614563 C30.99305876 45.37133805 30.99679311 48.39641652 30.99560547 51.42163086 C30.99540291 55.27020483 31.02264956 59.11803517 31.05714989 62.96643353 C31.07955663 65.95131178 31.08343877 68.93601532 31.08238602 71.92096901 C31.08472346 73.33814863 31.09344046 74.75533447 31.10905075 76.17243004 C31.21642575 86.93058479 30.14109187 96.05398994 23.5 104.8125 C16.53772695 111.89105318 9.10917057 112.71439677 -0.4375 112.8125 C-1.27627686 112.8228125 -2.11505371 112.833125 -2.97924805 112.84375 C-10.53093134 112.73727371 -18.28951372 111.31078179 -24.03125 106.015625 C-31.98834869 96.30056265 -32.68461997 84.8481424 -32.67578125 72.85546875 C-32.68006638 71.56111404 -32.6843515 70.26675934 -32.68876648 68.93318176 C-32.69619281 66.20240158 -32.69596428 63.47175075 -32.69067383 60.7409668 C-32.68489248 57.27144751 -32.70179479 53.80246439 -32.7250185 50.33303356 C-32.74344833 46.98632482 -32.73956736 43.6397277 -32.73828125 40.29296875 C-32.747491 39.06241257 -32.75670074 37.83185638 -32.76618958 36.56401062 C-32.70735169 25.46866895 -31.33996049 15.60171975 -23.375 7.375 C-16.68028173 1.21460197 -8.83867329 -0.0202258 0 0 Z " fill="#FEFDFC" transform="translate(612.375,126.625)"/>
<path d="M0 0 C44.90082518 0 44.90082518 0 54.41015625 8.22265625 C60.22968947 14.72852262 60.37764726 22.20682742 60.5 30.5625 C60.52803711 31.89196655 60.52803711 31.89196655 60.55664062 33.24829102 C60.48696137 40.46746347 58.92023696 46.67021761 54.078125 52.19140625 C52.38541667 53.4609375 50.69270833 54.73046875 49 56 C50.29118759 62.93350049 51.91732332 69.70844046 53.8125 76.5 C54.07240723 77.44472168 54.33231445 78.38944336 54.60009766 79.36279297 C55.88117908 84.01070922 57.18253218 88.65244746 58.50390625 93.2890625 C58.73553467 94.10697266 58.96716309 94.92488281 59.20581055 95.76757812 C59.64124048 97.30151151 60.08126855 98.83414957 60.52661133 100.36523438 C61.48874029 103.75396475 62 106.4419841 62 110 C55.4 110 48.8 110 42 110 C38.35415624 97.22930571 34.72952941 84.48559275 31.82421875 71.5234375 C30.99330178 67.97136591 30.02976459 64.49850153 29 61 C26.36 60.67 23.72 60.34 21 60 C21 76.5 21 93 21 110 C14.07 110 7.14 110 0 110 C0 73.7 0 37.4 0 0 Z " fill="#FEFCF9" transform="translate(507,128)"/>
<path d="M0 0 C45.29670771 0 45.29670771 0 54.515625 9.19921875 C61.44767564 17.60889071 60.68968213 28.34742035 60.2265625 38.64990234 C59.69411383 44.1729098 57.58090492 48.85121907 53.296875 52.41796875 C52.74515625 52.81628906 52.1934375 53.21460938 51.625 53.625 C50.75875 54.40875 49.8925 55.1925 49 56 C49.27733813 63.03133718 51.38987416 69.74705172 53.25 76.5 C53.56138916 77.64678223 53.87277832 78.79356445 54.19360352 79.97509766 C56.31770096 87.72655365 58.61337233 95.39835934 61.15234375 103.0234375 C62 106 62 106 62 110 C55.4 110 48.8 110 42 110 C40.26709967 105.66774917 39.0142113 101.46085627 37.90625 96.953125 C37.71405884 96.18248718 37.52186768 95.41184937 37.32385254 94.61785889 C36.91883666 92.99109309 36.51550937 91.36390606 36.11376953 89.73632812 C35.50523915 87.27122334 34.8917755 84.80738975 34.27734375 82.34375 C33.88252121 80.75528071 33.48798099 79.16674121 33.09375 77.578125 C32.91348267 76.85280579 32.73321533 76.12748657 32.54748535 75.38018799 C31.28736339 70.26995331 30.12237459 65.14217743 29 60 C26.36 60 23.72 60 21 60 C21 76.5 21 93 21 110 C14.07 110 7.14 110 0 110 C0 73.7 0 37.4 0 0 Z " fill="#FEFCF9" transform="translate(752,307)"/>
<path d="M0 0 C6.6 0 13.2 0 20 0 C20 15.18 20 30.36 20 46 C27.26 46 34.52 46 42 46 C42 30.82 42 15.64 42 0 C48.6 0 55.2 0 62 0 C62 36.3 62 72.6 62 110 C55.4 110 48.8 110 42 110 C42 93.83 42 77.66 42 61 C34.74 61 27.48 61 20 61 C20 77.17 20 93.34 20 110 C13.4 110 6.8 110 0 110 C0 73.7 0 37.4 0 0 Z " fill="#FEFEFD" transform="translate(394,307)"/>
<path d="M0 0 C3.35286458 0.03255208 6.70572917 0.06510417 10.05859375 0.09765625 C16.1515712 11.74883539 21.30710861 23.74741563 26.43359375 35.84765625 C27.65928399 38.72925546 28.8861838 41.61033677 30.11343384 44.49127197 C30.8703004 46.26920812 31.62602145 48.04763245 32.38046265 49.82659912 C32.71816681 50.62213196 33.05587097 51.41766479 33.40380859 52.23730469 C33.84845963 53.28649078 33.84845963 53.28649078 34.30209351 54.35687256 C34.8511369 55.62027704 35.44253539 56.86553953 36.05859375 58.09765625 C36.38859375 38.95765625 36.71859375 19.81765625 37.05859375 0.09765625 C42.66859375 0.09765625 48.27859375 0.09765625 54.05859375 0.09765625 C54.05859375 36.39765625 54.05859375 72.69765625 54.05859375 110.09765625 C49.43859375 110.09765625 44.81859375 110.09765625 40.05859375 110.09765625 C37.94317654 105.08936413 35.8294355 100.08036858 33.71704102 95.07080078 C33.00294838 93.37791286 32.28845028 91.6851959 31.57348633 89.99267578 C25.97226588 76.73183586 20.50963354 63.42242018 15.05859375 50.09765625 C14.72859375 69.89765625 14.39859375 89.69765625 14.05859375 110.09765625 C8.11859375 110.09765625 2.17859375 110.09765625 -3.94140625 110.09765625 C-3.96452639 95.90309525 -3.98231965 81.7085387 -3.99321842 67.51396275 C-3.99844797 60.9236084 -4.00554692 54.33326688 -4.0168457 47.74291992 C-4.02767203 41.38873607 -4.03368254 35.0345646 -4.03628349 28.68037224 C-4.0381382 26.25016014 -4.04175968 23.81994876 -4.04713631 21.3897419 C-4.05434336 17.99882644 -4.05539733 14.60796284 -4.05493164 11.21704102 C-4.05852692 10.20140579 -4.06212219 9.18577057 -4.06582642 8.13935852 C-4.06445175 7.22084106 -4.06307709 6.30232361 -4.06166077 5.35597229 C-4.06258256 4.5530906 -4.06350435 3.75020891 -4.06445408 2.92299747 C-3.85431144 -0.19434344 -3.16439426 0.10505957 0 0 Z " fill="#FEFCF9" transform="translate(550.94140625,306.90234375)"/>
<path d="M0 0 C3.14581423 -0.02888514 6.29159469 -0.04675923 9.4375 -0.0625 C10.33533203 -0.07087891 11.23316406 -0.07925781 12.15820312 -0.08789062 C13.01220703 -0.09111328 13.86621094 -0.09433594 14.74609375 -0.09765625 C15.93223267 -0.10551147 15.93223267 -0.10551147 17.14233398 -0.11352539 C19 0 19 0 20 1 C20.10918185 3.64569857 20.15422797 6.26625071 20.15771484 8.9128418 C20.16533592 10.1568148 20.16533592 10.1568148 20.17311096 11.42591858 C20.18383995 13.23366413 20.19245013 15.04142318 20.19923019 16.84918785 C20.21098839 19.71160768 20.2304349 22.5738745 20.25234985 25.43623352 C20.31405711 33.57714736 20.36796307 41.71804794 20.40136719 49.85913086 C20.42233093 54.83357197 20.4576539 59.80773843 20.50212479 64.78202248 C20.51627807 66.67776056 20.52500571 68.57354729 20.52817917 70.46933556 C20.53309625 73.12657682 20.55627652 75.78309215 20.58349609 78.44018555 C20.58048996 79.22120636 20.57748383 80.00222717 20.5743866 80.80691528 C20.66273194 86.62403334 21.84148831 90.84148831 26 95 C29.38289437 95.5598867 32.61612009 95.54666881 36 95 C38.87411615 92.40628543 39.78516202 90.64451394 41 87 C41.12018881 84.21697241 41.18536122 81.45711076 41.20532227 78.6730957 C41.21522186 77.82409698 41.22512146 76.97509827 41.23532104 76.10037231 C41.26692583 73.29220373 41.29168948 70.48401822 41.31640625 67.67578125 C41.33697666 65.72950296 41.35797315 63.78322912 41.37937927 61.83695984 C41.43459099 56.71271372 41.48400427 51.58842735 41.53222656 46.46411133 C41.58244813 41.23580337 41.63813078 36.00755392 41.69335938 30.77929688 C41.80092997 20.51957936 41.90187282 10.25981218 42 0 C48.6 0 55.2 0 62 0 C62.06801947 10.74498388 62.12295604 21.48982266 62.15543652 32.23497391 C62.17103254 37.22541613 62.19215894 42.21570227 62.22631836 47.20605469 C62.25912945 52.03011338 62.27689851 56.85402277 62.28463173 61.67818451 C62.29013645 63.51040748 62.30088485 65.34262311 62.31719017 67.1747818 C62.54223049 93.53133177 62.54223049 93.53133177 54 104 C46.29500156 111.30987031 38.15951685 112.25714868 27.96875 112.15625 C19.85153476 111.72902815 12.930148 109.31797725 7.3125 103.3125 C0.30322138 94.84875738 -0.16450627 85.0700388 -0.11352539 74.47265625 C-0.11367142 73.66194168 -0.11381744 72.85122711 -0.1139679 72.01594543 C-0.11327718 69.36476871 -0.10552458 66.71366429 -0.09765625 64.0625 C-0.09578908 62.21305378 -0.09436659 60.36360705 -0.09336853 58.51416016 C-0.08956692 53.66777153 -0.07975694 48.82141331 -0.06866455 43.97503662 C-0.05839958 39.02112235 -0.05386005 34.06720312 -0.04882812 29.11328125 C-0.03813239 19.40884088 -0.02108452 9.70442298 0 0 Z " fill="#FEFCF9" transform="translate(471,307)"/>
<path d="M0 0 C4.9435475 5.54276538 8.21692181 11.92882151 8.16015625 19.421875 C8.15765869 20.10217773 8.15516113 20.78248047 8.15258789 21.48339844 C8.14348389 22.33450195 8.13437988 23.18560547 8.125 24.0625 C8.104375 26.785 8.08375 29.5075 8.0625 32.3125 C1.7925 32.3125 -4.4775 32.3125 -10.9375 32.3125 C-11.3125 25.125 -11.3125 25.125 -11.41552734 22.88989258 C-11.64813424 18.99293768 -12.1662106 15.80298205 -13.9375 12.3125 C-16.87071011 9.94336876 -20.26496966 9.84195833 -23.96875 9.91796875 C-27.32443026 10.59043642 -28.89686396 12.71532686 -30.9375 15.3125 C-32.31635046 18.07020092 -32.07996967 20.3088944 -32.09863281 23.39526367 C-32.10824036 24.67386765 -32.1178479 25.95247162 -32.12774658 27.26982117 C-32.13259588 28.67336855 -32.13687438 30.076918 -32.140625 31.48046875 C-32.14637819 32.91815696 -32.1521359 34.35584515 -32.15789795 35.79353333 C-32.16841172 38.81231036 -32.17425114 41.83106075 -32.17773438 44.84985352 C-32.18320368 48.70551199 -32.20719612 52.56081457 -32.23570633 56.41636181 C-32.25439923 59.38905335 -32.25954195 62.36166057 -32.26107025 65.3344059 C-32.26408504 66.75488532 -32.27207372 68.17536368 -32.28525543 69.59578514 C-32.53843139 79.90556989 -32.53843139 79.90556989 -28.9375 89.3125 C-24.99660304 91.28294848 -20.23443814 90.7581084 -15.9375 90.3125 C-12.23304302 88.05368477 -11.49514734 85.43213639 -10.37231445 81.34741211 C-9.59719642 77.71989455 -9.46459264 74.07275235 -9.3125 70.375 C-9.27382813 69.59576172 -9.23515625 68.81652344 -9.1953125 68.01367188 C-9.10205873 66.11362621 -9.01874038 64.21309722 -8.9375 62.3125 C-12.8975 62.3125 -16.8575 62.3125 -20.9375 62.3125 C-20.9375 58.0225 -20.9375 53.7325 -20.9375 49.3125 C-11.0375 49.3125 -1.1375 49.3125 9.0625 49.3125 C9.0625 67.7925 9.0625 86.2725 9.0625 105.3125 C4.7725 105.3125 0.4825 105.3125 -3.9375 105.3125 C-4.5975 102.3425 -5.2575 99.3725 -5.9375 96.3125 C-6.4325 97.199375 -6.9275 98.08625 -7.4375 99 C-10.22748975 103.05029546 -13.28375034 105.62739804 -17.9375 107.3125 C-27.78026965 108.64573735 -35.44177872 107.20670741 -43.484375 101.5078125 C-46.13940802 99.13181162 -47.50854792 97.10106574 -49.125 93.9375 C-49.61355469 93.02226562 -50.10210938 92.10703125 -50.60546875 91.1640625 C-55.20045674 79.61935959 -54.25034618 65.98964714 -54.19824219 53.79931641 C-54.18751916 50.81782702 -54.19819408 47.83693996 -54.2109375 44.85546875 C-54.23666078 12.72725304 -54.23666078 12.72725304 -45.1484375 2.25 C-32.86996188 -9.4903751 -14.03535446 -8.0628632 0 0 Z " fill="#FEFDFB" transform="translate(671.9375,311.6875)"/>
<path d="M0 0 C15.51 0 31.02 0 47 0 C47 4.95 47 9.9 47 15 C38.42 15 29.84 15 21 15 C21 25.23 21 35.46 21 46 C27.6 46 34.2 46 41 46 C41 50.62 41 55.24 41 60 C34.4 60 27.8 60 21 60 C21 71.88 21 83.76 21 96 C29.58 96 38.16 96 47 96 C47 100.62 47 105.24 47 110 C31.49 110 15.98 110 0 110 C0 73.7 0 37.4 0 0 Z " fill="#FEFCF9" transform="translate(450,128)"/>
<path d="M0 0 C15.18 0 30.36 0 46 0 C46 4.95 46 9.9 46 15 C37.42 15 28.84 15 20 15 C20 25.23 20 35.46 20 46 C26.93 46 33.86 46 41 46 C41 50.62 41 55.24 41 60 C34.07 60 27.14 60 20 60 C20 72.21 20 84.42 20 97 C28.58 97 37.16 97 46 97 C46 101.29 46 105.58 46 110 C30.82 110 15.64 110 0 110 C0 73.7 0 37.4 0 0 Z " fill="#FEFDFB" transform="translate(695,307)"/>
<path d="M0 0 C16.17 0 32.34 0 49 0 C49 9.63328873 48.54690624 14.78774547 45.0625 23.125 C44.22345365 25.24356306 43.38761892 27.36340035 42.5546875 29.484375 C42.12639648 30.56396484 41.69810547 31.64355469 41.25683594 32.75585938 C39.25850186 37.91395248 37.47099315 43.13950571 35.6875 48.375 C31.99638392 59.1461809 28.23267678 69.8901555 24.4375 80.625 C24.16561859 81.39430847 23.89373718 82.16361694 23.61361694 82.95623779 C22.07681328 87.30453789 20.53860444 91.65233601 19 96 C28.9 96 38.8 96 49 96 C49 100.62 49 105.24 49 110 C32.5 110 16 110 -1 110 C-1 92.77487329 -1 92.77487329 1.7109375 86.0234375 C1.99479309 85.25708481 2.27864868 84.49073212 2.57110596 83.70115662 C3.48392314 81.25023908 4.42912211 78.81332236 5.375 76.375 C6.01884148 74.66077155 6.65992206 72.94550379 7.29833984 71.22924805 C8.58052041 67.78520061 9.87208863 64.34491468 11.16992188 60.90673828 C13.79180973 53.92226535 16.2167583 46.87287824 18.625 39.8125 C19.01349121 38.68183105 19.40198242 37.55116211 19.80224609 36.38623047 C22.24254671 29.27109837 24.63217353 22.13954988 27 15 C26.21761963 15.00523682 25.43523926 15.01047363 24.62915039 15.01586914 C21.10694167 15.03657106 17.5847457 15.04963838 14.0625 15.0625 C12.83080078 15.07087891 11.59910156 15.07925781 10.33007812 15.08789062 C9.16025391 15.09111328 7.99042969 15.09433594 6.78515625 15.09765625 C5.15912476 15.10551147 5.15912476 15.10551147 3.50024414 15.11352539 C1 15 1 15 0 14 C0 9.38 0 4.76 0 0 Z " fill="#FEFDFA" transform="translate(391,128)"/>
<path d="M0 0 C3.59830294 2.14366984 5.48001344 4.1379071 7 8 C7.26742554 10.93952942 7.26742554 10.93952942 7.29052734 14.40161133 C7.3096669 16.34932182 7.3096669 16.34932182 7.32919312 18.33638 C7.33225115 19.75159557 7.33447871 21.16681313 7.3359375 22.58203125 C7.3423681 24.03928253 7.34909666 25.49653253 7.35610962 26.95378113 C7.36807702 30.00771068 7.3717911 33.06152717 7.37060547 36.11547852 C7.37040253 40.0160651 7.3976801 43.91592104 7.43214989 47.81633472 C7.45446399 50.8267902 7.45844161 53.83707125 7.45738602 56.84760094 C7.45973614 58.28483277 7.46852643 59.72206984 7.48405075 61.15921974 C7.62159344 75.20982056 7.62159344 75.20982056 3 81 C-0.93306685 82.96653343 -5.71171304 82.46308424 -10 82 C-12.63908422 80.24061052 -13.58966469 79.23755169 -14.57487488 76.26620483 C-15.12830404 73.31605258 -15.15159441 70.49307524 -15.17700195 67.49072266 C-15.18685875 66.52406929 -15.18685875 66.52406929 -15.19691467 65.53788757 C-15.21656461 63.41327788 -15.2282902 61.28873851 -15.23828125 59.1640625 C-15.24235678 58.43603802 -15.2464323 57.70801353 -15.25063133 56.9579277 C-15.27145444 53.10606931 -15.28577359 49.25424617 -15.29516602 45.40234375 C-15.30623621 41.43220513 -15.34065319 37.46262606 -15.38033772 33.49268532 C-15.40652182 30.43168113 -15.41485928 27.37081015 -15.41844749 24.30970383 C-15.4233071 22.84651272 -15.43490334 21.38332731 -15.45348549 19.92024612 C-15.47792249 17.8690712 -15.47690516 15.81934334 -15.4699707 13.76806641 C-15.47583694 12.60320709 -15.48170319 11.43834778 -15.48774719 10.2381897 C-14.89255641 6.28667405 -13.46624005 4.10629272 -11 1 C-7.53749757 -0.73125121 -3.78591771 -0.47815224 0 0 Z " fill="#DDA83B" transform="translate(616,142)"/>
<path d="M0 0 C14.07407407 0 14.07407407 0 19 4 C21.60596266 7.59384394 21.33207032 11.60866993 21.3125 15.875 C21.32861328 16.56980469 21.34472656 17.26460937 21.36132812 17.98046875 C21.36580345 22.73325931 20.55943171 25.99601784 18 30 C11.68857469 33.94464082 8.13712741 33 0 33 C0 22.11 0 11.22 0 0 Z " fill="#DEAB41" transform="translate(527,142)"/>
<path d="M0 0 C12 0 12 0 17 3 C21.46878167 8.6396415 20.55874783 15.16124139 20 22 C19.42803563 25.11746344 18.8580492 26.30283181 17 29 C11.00383537 32.79349191 7.66674789 32 0 32 C0 21.44 0 10.88 0 0 Z " fill="#DDA83B" transform="translate(773,322)"/>
</svg>
