<?xml version="1.0" encoding="UTF-8"?>
<svg version="1.1" xmlns="http://www.w3.org/2000/svg" width="1500" height="1500">
<path d="M0 0 C495 0 990 0 1500 0 C1500 495 1500 990 1500 1500 C1005 1500 510 1500 0 1500 C0 1005 0 510 0 0 Z " fill="#0A97D9" transform="translate(0,0)"/>
<path d="M0 0 C14.65912992 1.27712117 28.67428065 3.59308092 42.59619141 8.39941406 C44.61236091 9.08839108 46.63802662 9.73957494 48.66796875 10.38671875 C89.65536949 23.76160552 127.29681929 53.27919017 153.59375 87.08203125 C155.02984702 88.79154416 156.46740018 90.49983466 157.90625 92.20703125 C168.57278204 105.30367754 177.39996176 119.33760718 185.59375 134.08203125 C189.84225754 130.91555165 194.06982296 127.72434987 198.265625 124.48828125 C232.33805999 98.24130313 268.54951434 74.70975604 306.61376953 54.66064453 C308.78824344 53.50873987 310.95472607 52.34626599 313.11669922 51.17138672 C321.63625098 46.55439466 330.2481785 42.29808879 339.09375 38.33203125 C339.74894623 38.03721863 340.40414246 37.74240601 341.07919312 37.43865967 C364.32025611 27.01202674 388.01276411 17.85028549 412.59375 11.08203125 C413.7295752 10.7689502 414.86540039 10.45586914 416.03564453 10.13330078 C457.19257596 -0.9826565 502.4030568 -4.722162 544.59375 3.08203125 C545.96370117 3.32348877 545.96370117 3.32348877 547.36132812 3.56982422 C573.77055183 8.34605804 599.0499241 17.40015303 623.59375 28.08203125 C624.40199219 28.43088379 625.21023438 28.77973633 626.04296875 29.13916016 C639.06969382 34.81961925 651.33652587 41.92004357 663.59375 49.08203125 C664.41584961 49.56075684 665.23794922 50.03948242 666.08496094 50.53271484 C676.9821965 56.91628911 687.28906741 63.93269981 697.42089844 71.46777344 C699.53638188 73.03941125 701.66158598 74.59699538 703.7890625 76.15234375 C712.13450891 82.28876007 720.08430881 88.75895342 727.87158203 95.58642578 C729.60592416 97.09260382 731.359368 98.57285729 733.12109375 100.046875 C739.7826776 105.63661708 746.08944327 111.42634889 752.1784668 117.63720703 C754.84940466 120.35822756 757.51899798 122.97034752 760.46875 125.39453125 C763.5595326 127.9412152 766.05631991 130.8312147 768.64453125 133.87890625 C770.86443212 136.38797256 773.20878502 138.72953932 775.59375 141.08203125 C779.81000173 145.26024161 783.75755852 149.55627643 787.59375 154.08203125 C788.40328125 155.01402344 789.2128125 155.94601562 790.046875 156.90625 C795.29377786 162.97429125 800.36506519 169.18060681 805.28125 175.51953125 C805.81065186 176.18146484 806.34005371 176.84339844 806.88549805 177.52539062 C809.07825631 180.40099589 810.46558761 182.52906095 811.2890625 186.08203125 C810.25641506 190.53749884 807.74526559 193.24455802 804.78125 196.64453125 C803.89590576 197.69398926 803.89590576 197.69398926 802.99267578 198.76464844 C801.78206424 200.19682044 800.56525109 201.62377332 799.34228516 203.04541016 C797.76638911 204.88094838 796.21209237 206.73148228 794.66796875 208.59375 C789.35114868 214.98839385 783.83958614 221.17774604 778.18359375 227.2734375 C775.9270453 229.72058431 773.7257409 232.20454163 771.53125 234.70703125 C767.02876581 239.72338592 762.28899093 244.495862 757.53125 249.26953125 C756.77513428 250.03023926 756.01901855 250.79094727 755.23999023 251.57470703 C751.08320435 255.72018624 746.83985482 259.69887521 742.39135742 263.52954102 C739.97193661 265.61905574 737.62929906 267.78791594 735.28125 269.95703125 C729.87677581 274.87421678 724.31449725 279.53928204 718.59375 284.08203125 C717.96114258 284.58718262 717.32853516 285.09233398 716.67675781 285.61279297 C698.81808882 299.83669756 680.34154762 312.62364584 660.59375 324.08203125 C659.32519204 324.82886888 658.05693646 325.5762205 656.7890625 326.32421875 C628.80857542 342.63030759 598.89558284 354.8524414 567.59375 363.08203125 C566.31250244 363.42427734 566.31250244 363.42427734 565.00537109 363.7734375 C530.93161836 372.77574998 494.50975857 374.7950286 459.59375 370.08203125 C458.86961914 369.9855127 458.14548828 369.88899414 457.39941406 369.78955078 C452.09721296 369.05333544 446.84583193 368.11395649 441.59375 367.08203125 C440.62260254 366.89157227 439.65145508 366.70111328 438.65087891 366.50488281 C400.20680883 358.80063656 363.79322942 345.14713634 328.59375 328.08203125 C327.51254883 327.55996094 326.43134766 327.03789063 325.31738281 326.5 C279.29899829 304.17653463 235.60638001 276.43758301 195.51513672 244.66088867 C191.98901343 241.87695811 188.53687953 239.26663347 184.59375 237.08203125 C184.37203125 237.89285156 184.1503125 238.70367188 183.921875 239.5390625 C182.24646937 244.0084534 179.91291774 247.76286773 177.34375 251.76953125 C176.81579834 252.59678711 176.28784668 253.42404297 175.74389648 254.27636719 C157.58207639 282.37288079 134.91030546 309.47014528 107.59375 329.08203125 C106.49465256 329.90824253 105.39701797 330.73640305 104.30078125 331.56640625 C78.1821263 351.0882179 47.63916291 364.71915885 15.40625 369.76953125 C14.57416016 369.90133789 13.74207031 370.03314453 12.88476562 370.16894531 C1.04974102 371.91270787 1.04974102 371.91270787 -3.40625 371.08203125 C-5.40625 368.08203125 -5.40625 368.08203125 -5.29296875 365.33984375 C-4.22586235 361.41928545 -2.37262831 358.34989205 -0.21875 354.95703125 C11.68202027 335.41173 21.36689509 314.40818385 29.59375 293.08203125 C30.01640137 291.98955078 30.43905273 290.89707031 30.87451172 289.77148438 C42.06386486 260.50638023 51.60132752 228.32354202 51.796875 196.69921875 C51.80393463 195.93089218 51.81099426 195.16256561 51.81826782 194.37095642 C51.93855625 177.41103654 51.82640705 160.79425824 48.59375 144.08203125 C48.29573486 142.5211377 48.29573486 142.5211377 47.99169922 140.92871094 C39.27293704 96.47935112 21.97415433 52.9340393 -1.58398438 14.22241211 C-2.10154297 13.35108643 -2.61910156 12.47976074 -3.15234375 11.58203125 C-3.61310303 10.82921875 -4.0738623 10.07640625 -4.54858398 9.30078125 C-5.64223155 6.47155577 -5.33897803 4.93641093 -4.40625 2.08203125 C-2.40625 0.08203125 -2.40625 0.08203125 0 0 Z " fill="#FEFEFE" transform="translate(345.40625,914.91796875)"/>
<path d="M0 0 C2.93993243 0.71446634 4.21483847 1.78051501 6.44140625 3.828125 C26.5512533 20.66565966 52.38254603 31.47407585 77.37890625 38.578125 C78.22291992 38.81821289 79.06693359 39.05830078 79.93652344 39.30566406 C115.03953148 48.75376611 152.59681775 42.44086951 183.859375 24.69921875 C193.84715968 18.79747199 202.52318158 11.88407052 210.66015625 3.6328125 C213.37890625 1.578125 213.37890625 1.578125 216.375 0.96484375 C220.44123266 1.79501089 222.04080867 3.57468531 224.94140625 6.515625 C248.4317808 29.33673715 281.11671937 42.76715461 313.734375 42.76342773 C315.84526475 42.76559053 317.95561034 42.78371152 320.06640625 42.80273438 C345.48125228 42.9136324 369.78676089 35.96409974 392.37890625 24.578125 C393.10867676 24.21992676 393.83844727 23.86172852 394.59033203 23.49267578 C406.94993794 17.40893194 418.865252 10.20922204 429.74609375 1.734375 C431.37890625 0.578125 431.37890625 0.578125 433.69140625 0.453125 C436.48708599 1.62340954 437.53384157 2.61527236 439.578125 4.78125 C443.10443179 8.38252588 446.8320933 11.45810021 450.87890625 14.453125 C451.92038818 15.2251123 451.92038818 15.2251123 452.98291016 16.01269531 C478.82190764 34.88670345 507.28394749 45.03819939 539.37890625 44.953125 C540.15203156 44.95258118 540.92515686 44.95203735 541.72171021 44.95147705 C554.03432085 44.91171534 565.48767378 43.95338794 577.37890625 40.578125 C578.20342285 40.35850098 579.02793945 40.13887695 579.87744141 39.91259766 C589.6277612 37.3087039 598.98736802 34.23351654 608.09277344 29.8503418 C612.18624333 27.91374753 615.84488214 26.82908574 620.37890625 26.578125 C624.45462167 30.65384042 623.00654447 39.71942764 623.07910156 45.32446289 C623.11209206 47.18988171 623.16650865 49.05505434 623.24316406 50.91918945 C623.87195716 66.29864844 623.87195716 66.29864844 620.33251953 71.70239258 C617.80307031 74.01814942 615.3130038 75.81289335 612.37890625 77.578125 C611.21772541 78.43043294 610.05846883 79.28537786 608.90234375 80.14453125 C579.99498987 98.47165015 551.11387628 106.28299183 517.01171875 99.953125 C514.09656342 99.2579118 511.2461628 98.44943322 508.37890625 97.578125 C507.28191406 97.27519531 506.18492187 96.97226562 505.0546875 96.66015625 C480.40187875 89.27763947 457.49330399 73.69252274 439.37890625 55.578125 C436.2954176 55.18549062 434.86919676 55.21532877 432.3359375 57.08984375 C431.62824219 57.80785156 430.92054688 58.52585937 430.19140625 59.265625 C410.11035624 78.18643657 384.54700092 92.26425524 357.37890625 97.578125 C356.40179687 97.78179688 355.4246875 97.98546875 354.41796875 98.1953125 C312.14415687 105.66743906 270.3304757 90.6428776 235.37890625 67.578125 C230.16560095 63.91000039 225.07359871 60.01889452 220.34765625 55.73828125 C218.41583908 54.36927165 218.41583908 54.36927165 215.984375 54.6171875 C212.63044524 55.85416909 210.44510217 57.67097701 207.69140625 59.953125 C195.11337472 70.01628289 180.95419193 77.80722847 166.37890625 84.578125 C165.2084375 85.12210938 164.03796875 85.66609375 162.83203125 86.2265625 C127.76302524 101.85686608 89.83440521 104.24352924 53.41015625 91.54296875 C34.03783135 83.68043565 16.47679709 72.24626969 1.80859375 57.34375 C-1.25930943 55.11434126 -2.90654457 55.00936612 -6.62109375 55.578125 C-8.32992787 56.67450341 -8.32992787 56.67450341 -9.62109375 58.390625 C-32.9484822 83.70440679 -70.04551333 100.82902689 -104.171875 102.78125 C-136.62180908 103.18561055 -164.24058993 90.48223428 -188.62109375 69.578125 C-190.71352368 67.48569507 -189.80957809 62.94330298 -189.82421875 60.0546875 C-189.82991882 59.19757172 -189.8356189 58.34045593 -189.8414917 57.45736694 C-189.85095657 55.63988485 -189.85748156 53.82238548 -189.86132812 52.00488281 C-189.871029 49.22170074 -189.90203589 46.43925839 -189.93359375 43.65625 C-189.94012396 41.89323357 -189.94537436 40.13021184 -189.94921875 38.3671875 C-189.96156555 37.53273102 -189.97391235 36.69827454 -189.9866333 35.83853149 C-189.96417147 30.02039039 -189.96417147 30.02039039 -188.2645874 27.82943726 C-186.62109375 26.578125 -186.62109375 26.578125 -183.96875 26.65234375 C-179.76323306 27.81536302 -175.99668829 29.53299372 -172.05859375 31.390625 C-164.71269514 34.75183973 -157.43920062 37.48853972 -149.62109375 39.578125 C-148.66332031 39.85269531 -147.70554687 40.12726562 -146.71875 40.41015625 C-133.31837964 44.06153233 -120.25745226 44.76474382 -106.43359375 44.828125 C-105.17498535 44.83739014 -103.91637695 44.84665527 -102.61962891 44.85620117 C-90.79600158 44.81672199 -79.65018693 43.20464117 -68.30859375 39.890625 C-67.40979492 39.62862305 -66.51099609 39.36662109 -65.58496094 39.09667969 C-43.27246676 32.38311572 -21.37811875 20.47202053 -5.4765625 3.1875 C-2.62109375 0.578125 -2.62109375 0.578125 0 0 Z " fill="#FDFEFE" transform="translate(527.62109375,593.421875)"/>
<path d="M0 0 C3.41701424 0.70350293 5.20414388 2.24952177 7.8984375 4.45703125 C14.72237217 9.84570106 21.9820962 14.2154867 29.5234375 18.51953125 C30.39427979 19.02782471 30.39427979 19.02782471 31.28271484 19.54638672 C48.38038443 29.48486189 67.2245156 36.34103208 86.5234375 40.51953125 C87.61398437 40.76445313 88.70453125 41.009375 89.828125 41.26171875 C108.25477177 44.61619559 128.31336949 43.6101987 146.5234375 39.51953125 C147.62429688 39.29136719 148.72515625 39.06320312 149.859375 38.828125 C170.99424873 34.07413669 197.99925569 19.92599052 211.94921875 2.765625 C213.5234375 1.51953125 213.5234375 1.51953125 216.43359375 1.09375 C220.22363283 1.61601834 221.30462685 2.62837103 223.9609375 5.33203125 C242.95525297 23.4177995 265.97377356 35.05211345 291.5234375 40.51953125 C292.50828125 40.74640625 293.493125 40.97328125 294.5078125 41.20703125 C337.53141959 49.57919263 383.0009671 32.94796009 418.5234375 9.51953125 C424.81392338 5.37939937 424.81392338 5.37939937 430.5234375 0.51953125 C432.7578125 0.16015625 432.7578125 0.16015625 435.5234375 0.51953125 C438.0390625 2.50390625 438.0390625 2.50390625 440.7734375 5.26953125 C458.16393488 22.02302409 480.22374943 34.28974932 503.5234375 40.51953125 C504.26787109 40.72690918 505.01230469 40.93428711 505.77929688 41.14794922 C540.18481796 50.42394755 581.15781873 43.88873359 612.79296875 27.86328125 C615.6930073 26.43608059 617.34085595 26.07750603 620.5234375 26.51953125 C623.55984898 29.55594273 622.94802862 33.09969126 623.03515625 37.18359375 C623.05367142 38.04963226 623.07218658 38.91567078 623.09126282 39.80795288 C623.12334363 41.64547011 623.14897382 43.48310941 623.16870117 45.32080078 C623.19670406 47.19294772 623.24434292 49.06491085 623.31225586 50.93603516 C623.8708986 66.37315072 623.8708986 66.37315072 620.71289062 71.40356445 C618.42625153 73.46983088 616.19490435 74.99406374 613.5234375 76.51953125 C612.3518995 77.3937159 611.18700153 78.27692332 610.03125 79.171875 C608.91122836 79.94469978 607.78339486 80.70631266 606.6484375 81.45703125 C606.02404785 81.87033691 605.3996582 82.28364258 604.75634766 82.70947266 C585.11256569 95.31739233 564.06926785 101.93929706 540.7109375 101.83203125 C538.86653076 101.82683472 538.86653076 101.82683472 536.98486328 101.8215332 C528.13324729 101.71558541 520.06735632 100.95583924 511.5234375 98.51953125 C510.19119141 98.17728516 510.19119141 98.17728516 508.83203125 97.828125 C485.21115346 91.35918351 460.79051666 76.74955066 444.0234375 58.89453125 C441.80925923 56.63344242 440.4025776 55.4591013 437.5234375 54.01953125 C433.3507672 54.7149763 431.97152032 56.81572822 429.1640625 59.875 C404.18519799 84.89081549 368.07027837 99.09645911 333.0234375 99.70703125 C293.36120474 99.27450963 247.99291936 82.98901311 219.5234375 54.51953125 C216.04867834 53.98875099 214.71950776 54.38955519 211.75390625 56.35546875 C210.74972656 57.19335938 209.74554687 58.03125 208.7109375 58.89453125 C171.97350545 88.43298543 127.00025919 102.89552085 80.0546875 98.05859375 C75.80365433 97.48676693 71.66920869 96.61258964 67.5234375 95.51953125 C66.81719238 95.33680664 66.11094727 95.15408203 65.38330078 94.96582031 C42.32031545 88.73036723 15.48660497 74.43712207 -0.02734375 55.640625 C-1.48119069 54.27870614 -1.48119069 54.27870614 -3.828125 54.52734375 C-7.31999029 55.83550567 -9.20159266 57.77425295 -11.8515625 60.39453125 C-37.31691026 84.7207134 -72.0576746 102.00929084 -107.6640625 101.83203125 C-108.85298096 101.8263916 -110.04189941 101.82075195 -111.2668457 101.81494141 C-137.1560645 101.4587729 -160.46724027 91.7112589 -180.73948669 75.85263062 C-181.898685 74.96301687 -183.08520845 74.10794026 -184.29563904 73.28939819 C-186.99774565 71.3065606 -189.10699131 69.73731159 -190.10342407 66.45394897 C-190.31822827 64.02586333 -190.31728472 61.68990768 -190.23046875 59.25390625 C-190.22530746 58.37929749 -190.22014618 57.50468872 -190.21482849 56.60357666 C-190.19774946 54.76446436 -190.16399576 52.92543959 -190.11450195 51.08691406 C-190.03892365 48.26434567 -190.01205106 45.44456331 -189.99414062 42.62109375 C-189.97155825 40.8319936 -189.94626292 39.04292519 -189.91796875 37.25390625 C-189.90633194 36.40809998 -189.89469513 35.5622937 -189.88270569 34.69085693 C-189.71220652 28.75517527 -189.71220652 28.75517527 -187.4765625 26.51953125 C-181.53191637 26.78559597 -176.72644214 28.92267736 -171.3515625 31.33203125 C-134.07740209 47.45560485 -92.24274756 49.71901355 -54.140625 34.88671875 C-38.13695728 28.30175533 -23.04115604 19.56060174 -10.40234375 7.6640625 C-9.90903564 7.20056396 -9.41572754 6.73706543 -8.9074707 6.25952148 C-7.56048266 4.97458544 -6.23642373 3.66573521 -4.9140625 2.35546875 C-2.4765625 0.51953125 -2.4765625 0.51953125 0 0 Z " fill="#FDFEFE" transform="translate(527.4765625,718.48046875)"/>
<path d="M0 0 C20.46 0 40.92 0 62 0 C62 58.74 62 117.48 62 178 C71.57 178 81.14 178 91 178 C91.02290639 183.82076811 91.04283426 189.641381 91.05493164 195.4621582 C91.05997267 197.44393441 91.06680538 199.42570689 91.07543945 201.4074707 C91.08751515 204.24952109 91.09323045 207.09152247 91.09765625 209.93359375 C91.10281754 210.82525742 91.10797882 211.71692108 91.11329651 212.63560486 C91.11349177 214.75740601 91.0621003 216.8791078 91 219 C90.67 219.33 90.34 219.66 90 220 C80.76 220 71.52 220 62 220 C62 242.44 62 264.88 62 288 C45.5 288 29 288 12 288 C12 265.56 12 243.12 12 220 C-16.38 220 -44.76 220 -74 220 C-76.73954992 182.59918808 -70.12286506 159.82312618 -54.11669922 126.578125 C-49.77303406 117.50456522 -45.90019051 108.23985812 -42.02523804 98.95904541 C-40.01538745 94.15864886 -37.97088352 89.37306794 -35.9296875 84.5859375 C-35.11670668 82.67552181 -34.30388198 80.76503967 -33.49121094 78.85449219 C-31.3393832 73.79721788 -29.18679075 68.7402694 -27.03395081 63.6834259 C-25.26072481 59.51824783 -23.48770576 55.35298168 -21.71469116 51.18771362 C-20.88701233 49.24343671 -20.05923913 47.29919996 -19.23135376 45.35501099 C-12.79778161 30.2463645 -6.39846109 15.12363531 0 0 Z " fill="#FCFEFE" transform="translate(280,128)"/>
<path d="M0 0 C14.52 0 29.04 0 44 0 C44 95.04 44 190.08 44 288 C25.85 288 7.7 288 -11 288 C-11 212.1 -11 136.2 -11 58 C-29.58899019 64.96429801 -29.58899019 64.96429801 -48.1484375 72.00390625 C-51 73 -51 73 -53 73 C-53 59.47 -53 45.94 -53 32 C-48.05 29.69 -43.1 27.38 -38 25 C-34.21988587 23.05730209 -30.47429003 21.10388436 -26.75 19.0625 C-25.33859741 18.28990845 -25.33859741 18.28990845 -23.89868164 17.50170898 C-14.93440838 12.52345651 -7.28746184 7.28746184 0 0 Z " fill="#FCFEFE" transform="translate(138,128)"/>
<path d="M0 0 C9.00312061 6.93721549 16.99117443 17.62552408 19 29 C20.52283838 45.56390265 18.50316798 59.59940638 8 73 C-1.47240046 83.24829674 -12.62549365 89.63294809 -26.6484375 90.3359375 C-42.83077124 90.64492822 -54.92122709 86.52047957 -67.1875 75.5 C-77.09104311 65.04512563 -81.5029143 51.7451882 -81.24609375 37.58984375 C-80.29442289 23.70753393 -74.28479576 11.39664414 -64 2 C-44.3856318 -12.85045868 -20.41487867 -14.63123682 0 0 Z " fill="#0B97D9" transform="translate(967,1030)"/>
<path d="M0 0 C6.08777439 5.34313246 9.37312972 13.18486916 10.40063477 21.10919189 C10.56881675 24.95728557 10.58929677 28.78695959 10.5390625 32.63671875 C10.53734558 34.05292661 10.53742296 35.46913765 10.53918457 36.88534546 C10.53754423 39.83208239 10.51908402 42.77804665 10.48730469 45.72460938 C10.44755715 49.4744325 10.44327614 53.22325162 10.45076752 56.97324562 C10.45385697 59.89036016 10.44164833 62.80725499 10.42463684 65.72431564 C10.4176792 67.10599767 10.41447336 68.48770456 10.41532898 69.86940384 C10.40433811 81.53945235 9.4799839 91.94739111 0.9453125 100.59765625 C-7.88204315 107.78016302 -18.02369325 108.58278363 -29.0546875 107.59765625 C-35.33535476 106.15067811 -41.99747483 103.85787966 -46.0546875 98.59765625 C-52.6276505 87.71506186 -53.21450601 78.82554523 -53.2578125 66.39453125 C-53.26351257 65.12095764 -53.26921265 63.84738403 -53.27508545 62.53521729 C-53.28451134 59.84554482 -53.29142068 57.15598324 -53.29492188 54.46630859 C-53.30039318 51.04948044 -53.3244126 47.63305342 -53.35289383 44.21635056 C-53.37619569 40.92160879 -53.37798102 37.62684381 -53.3828125 34.33203125 C-53.3951593 33.12021179 -53.4075061 31.90839233 -53.42022705 30.65985107 C-53.39431726 20.66406132 -52.36182346 11.24088427 -45.78515625 3.31640625 C-34.15419357 -8.23579144 -13.34685494 -9.10935537 0 0 Z " fill="#FBFDFE" transform="translate(706.0546875,311.40234375)"/>
<path d="M0 0 C2.08303699 -0.00952137 4.16500574 -0.04043303 6.24780273 -0.07226562 C17.42634134 -0.16207351 30.05492726 -0.05143714 38.90209961 7.64257812 C44.99668106 13.93723422 46.49809511 20.64236747 46.82397461 29.11523438 C46.6908995 35.69413491 45.41235033 41.88225771 40.95288086 46.93554688 C38.56884075 49.01637989 36.45311776 50.23885332 33.44897461 51.24023438 C34.22821289 51.67722656 34.22821289 51.67722656 35.02319336 52.12304688 C41.50871008 55.935236 46.45886458 60.25890744 48.94506836 67.64648438 C51.11665192 78.82424784 50.2061744 90.90310778 43.88647461 100.55273438 C39.66652812 105.79055741 33.69324115 108.1588122 27.44897461 110.24023438 C26.08305278 110.32590683 24.71332603 110.35797084 23.34472656 110.35375977 C22.11379021 110.35364647 22.11379021 110.35364647 20.85798645 110.35353088 C19.53597481 110.34578896 19.53597481 110.34578896 18.18725586 110.33789062 C17.28146286 110.33647568 16.37566986 110.33506073 15.44242859 110.33360291 C12.5487437 110.32800439 9.65513612 110.31545218 6.76147461 110.30273438 C4.79988718 110.29771918 2.83829855 110.29315631 0.87670898 110.2890625 C-3.9325656 110.27803545 -8.74178239 110.26077184 -13.55102539 110.24023438 C-13.57435568 96.04567396 -13.59193879 81.8511165 -13.60283756 67.65654087 C-13.60806711 61.06618652 -13.61516606 54.47584501 -13.62646484 47.88549805 C-13.63729117 41.53131419 -13.64330168 35.17714272 -13.64590263 28.82295036 C-13.64775734 26.39273826 -13.65137882 23.96252688 -13.65675545 21.53232002 C-13.6639625 18.14140456 -13.66501647 14.75054097 -13.66455078 11.35961914 C-13.66814606 10.34398392 -13.67174133 9.32834869 -13.67544556 8.28193665 C-13.67407089 7.36341919 -13.67269623 6.44490173 -13.67127991 5.49855042 C-13.6722017 4.69566873 -13.67312349 3.89278704 -13.67407322 3.0655756 C-13.32714066 -2.08096224 -4.03842656 0.01112387 0 0 Z " fill="#F8FCFE" transform="translate(491.551025390625,306.759765625)"/>
<path d="M0 0 C5.61 0 11.22 0 17 0 C19.1160557 10.53129574 20.27413239 21.14967723 21.5 31.8125 C21.82122699 34.59055461 22.14354098 37.36847269 22.46789551 40.14616394 C22.66800399 41.86136141 22.86634415 43.57676674 23.06237793 45.29243469 C23.90578183 52.54780679 24.94555417 59.77261856 26 67 C26.13558823 66.17536758 26.27117645 65.35073517 26.41087341 64.50111389 C27.68683224 56.74534533 28.96665049 48.99022583 30.25085354 41.23581791 C30.91100182 37.24878966 31.56963323 33.26152296 32.22485352 29.27368164 C32.85674623 25.42816127 33.49255082 21.58330672 34.13112068 17.73888969 C34.37454941 16.26904968 34.61654634 14.79897183 34.85711479 13.32866096 C35.19323858 11.27583996 35.53435621 9.22390912 35.87670898 7.17211914 C36.06990219 6.00185684 36.2630954 4.83159454 36.46214294 3.62586975 C37 1 37 1 38 0 C40.18639453 -0.07258946 42.37500389 -0.08373783 44.5625 -0.0625 C46.35880859 -0.04896484 46.35880859 -0.04896484 48.19140625 -0.03515625 C49.11824219 -0.02355469 50.04507813 -0.01195312 51 0 C52.37749583 5.27942008 53.50852361 10.52784003 54.3671875 15.91796875 C54.48804718 16.65590164 54.60890686 17.39383453 54.73342896 18.15412903 C55.11712371 20.49808261 55.49654703 22.84269482 55.875 25.1875 C58.02741433 38.50431968 60.41884826 51.75928933 63 65 C63.82053422 58.92125398 64.6382638 52.84213894 65.45361328 46.76269531 C65.73022305 44.70302629 66.00754357 42.64345258 66.28564453 40.58398438 C67.77822188 29.52705757 69.25078709 18.47686401 70.3600769 7.37368774 C70.89513456 2.20973088 70.89513456 2.20973088 72 0 C77.28 0 82.56 0 88 0 C88.13058961 6.40403995 87.68502953 12.42821604 86.73071289 18.75488281 C86.5957692 19.68450836 86.4608255 20.61413391 86.3217926 21.57192993 C85.8782412 24.61659974 85.42557647 27.65983602 84.97265625 30.703125 C84.66064383 32.83055057 84.34916433 34.95805436 84.03819275 37.08563232 C83.38715605 41.53097434 82.7320137 45.97568342 82.07348633 50.41992188 C81.2297333 56.11420966 80.39268709 61.80945563 79.55825138 67.50511551 C78.76092261 72.94641837 77.96085526 78.38731719 77.16015625 83.828125 C77.00780077 84.86416115 76.85544529 85.9001973 76.69847298 86.96762848 C76.26668515 89.89953787 75.83302124 92.83116299 75.39868164 95.76269531 C75.27136658 96.62825043 75.14405151 97.49380554 75.01287842 98.3855896 C74.8937056 99.18721527 74.77453278 99.98884094 74.65174866 100.8147583 C74.54942964 101.50639698 74.44711061 102.19803566 74.34169102 102.91063309 C73.95352694 105.28417277 73.47167305 107.64163477 73 110 C67.39 110 61.78 110 56 110 C55.80365967 108.77595459 55.60731934 107.55190918 55.4050293 106.29077148 C54.66426239 101.67751112 53.91969416 97.06487052 53.17407227 92.45239258 C52.85405123 90.4694825 52.53501281 88.48641355 52.21704102 86.50317383 C49.87512307 71.90214526 47.23236413 57.43308545 44 43 C43.90643723 43.57390472 43.81287445 44.14780945 43.71647644 44.73910522 C42.72697235 50.80822841 41.73701946 56.87727828 40.74682617 62.94628906 C40.37920214 65.19985168 40.01168589 67.45343189 39.64428711 69.70703125 C37.45390335 83.14218181 35.24708336 96.57420856 33 110 C27.06 110 21.12 110 15 110 C13.04098091 96.24886183 11.08494202 82.49730339 9.13272858 68.7451973 C8.22618788 62.35986899 7.31861322 55.97469119 6.40869141 49.58984375 C5.53094609 43.43050579 4.65589613 37.27079044 3.7827301 31.1108017 C3.44878014 28.75829109 3.11385183 26.40591916 2.77793884 24.05368805 C2.30836892 20.7643416 1.84224967 17.47452358 1.37695312 14.18457031 C1.23669205 13.20777313 1.09643097 12.23097595 0.95191956 11.22457886 C0.82570724 10.32717987 0.69949493 9.42978088 0.56945801 8.50518799 C0.45884285 7.72719471 0.34822769 6.94920143 0.23426056 6.1476326 C0 4 0 4 0 0 Z " fill="#FAFCFE" transform="translate(723,307)"/>
<path d="M0 0 C5.61 0 11.22 0 17 0 C18.96581671 8.87250312 19.99610845 17.79414225 21 26.8125 C21.33012669 29.75688193 21.66329609 32.70089412 22 35.64453125 C22.08114044 36.35620956 22.16228088 37.06788788 22.24588013 37.8011322 C22.8891257 43.32288679 23.70560639 48.80674525 24.62060547 54.29052734 C25.12739491 57.90979966 25.14302825 61.35277956 25 65 C25.66 65 26.32 65 27 65 C27.14695312 63.93652344 27.29390625 62.87304688 27.4453125 61.77734375 C29.10631232 49.89293489 30.86692344 38.02260117 32.6618042 26.15774536 C32.92845717 24.38908274 33.19299155 22.62009938 33.4553833 20.85079956 C33.83027796 18.32669217 34.21304635 15.80389292 34.59765625 13.28125 C34.70907455 12.52050674 34.82049286 11.75976349 34.93528748 10.97596741 C35.53930537 7.0727074 36.34576762 3.59442518 38 0 C40.14576637 -0.02685938 42.29162645 -0.04633088 44.4375 -0.0625 C45.63246094 -0.07410156 46.82742188 -0.08570313 48.05859375 -0.09765625 C51 0 51 0 52 1 C52.35286851 2.69618658 52.64990325 4.40403564 52.92382812 6.11474609 C53.10071167 7.20612885 53.27759521 8.2975116 53.45983887 9.42196655 C53.64840454 10.61045197 53.83697021 11.79893738 54.03125 13.0234375 C54.22722778 14.23569 54.42320557 15.4479425 54.62512207 16.69692993 C55.14703667 19.92741299 55.66570631 23.15839332 56.18243408 26.38970947 C56.90990578 30.93756108 57.64069403 35.48487345 58.37487793 40.03164673 C58.76587882 42.45406402 59.15437251 44.87688754 59.54016113 47.30014038 C59.71704468 48.39782745 59.89392822 49.49551453 60.07617188 50.62646484 C60.3081427 52.07755142 60.3081427 52.07755142 60.5447998 53.55795288 C60.96565441 56.12534973 60.96565441 56.12534973 62 59 C62.03954234 61.33299825 62.04401732 63.66708189 62 66 C62.66 66 63.32 66 64 66 C64.02578125 65.18144531 64.0515625 64.36289062 64.078125 63.51953125 C64.57248453 52.85709495 65.96952145 42.39084379 67.48071289 31.828125 C68.60829009 23.93148215 69.62628924 16.04102564 70.40405273 8.10205078 C70.90064739 3.19870521 70.90064739 3.19870521 72 1 C77.28 1 82.56 1 88 1 C87.33696911 12.82777964 85.79190717 24.41709117 84.09375 36.1328125 C83.80574259 38.1434103 83.51811093 40.15406196 83.23083496 42.1647644 C82.6320059 46.34888991 82.02995331 50.5325336 81.42529297 54.71582031 C80.65042954 60.07721183 79.881792 65.43947259 79.11528778 70.8020649 C78.5233901 74.94065307 77.92924269 79.07891558 77.33430481 83.21706772 C77.04996957 85.19536567 76.76610177 87.17373087 76.48271179 89.15216446 C76.08762008 91.90660704 75.68974167 94.66063226 75.29101562 97.41455078 C75.1164257 98.63636299 75.1164257 98.63636299 74.93830872 99.88285828 C74.43789026 103.32059865 73.84371787 106.62512853 73 110 C67.72 110 62.44 110 57 110 C54.92880493 102.31685258 53.53969096 94.51197318 52.125 86.6875 C51.99438171 85.96966339 51.86376343 85.25182678 51.72918701 84.51223755 C49.16503258 70.38588895 46.9785049 56.22072597 45 42 C41.97966665 56.97730007 39.48815804 72.0244598 37.10693359 87.11401367 C33.75769113 108.24230887 33.75769113 108.24230887 32 110 C29.30345146 110.07319621 26.63308542 110.09242537 23.9375 110.0625 C23.17888672 110.05798828 22.42027344 110.05347656 21.63867188 110.04882812 C19.75908129 110.0370068 17.87953101 110.01907078 16 110 C14.57371122 103.95586143 13.45927776 97.93174996 12.59545898 91.78344727 C12.46997681 90.91062103 12.34449463 90.0377948 12.21520996 89.13851929 C11.80540894 86.2816266 11.40062893 83.42404893 10.99609375 80.56640625 C10.71013023 78.56294813 10.42391695 76.55952564 10.13746643 74.55613708 C9.5394046 70.36805557 8.94371974 66.17964526 8.34985352 61.9909668 C7.5915733 56.64335266 6.82835852 51.29645755 6.06347561 45.94978428 C5.4724548 41.8157202 4.88357037 37.68135405 4.29536629 33.54688835 C4.01483754 31.57619538 3.73377335 29.60557854 3.45214653 27.63504219 C3.05772849 24.87230197 2.66607174 22.10918361 2.27514648 19.34594727 C2.10291313 18.1447097 2.10291313 18.1447097 1.92720032 16.91920471 C1.13503243 11.29067844 0.53857914 5.65853201 0 0 Z " fill="#FAFDFE" transform="translate(845,307)"/>
<path d="M0 0 C45.76133501 0 45.76133501 0 54.6328125 8.42578125 C61.30357782 16.10669103 60.52955512 26.45837949 60 36 C58.93156057 42.92382401 57.18302396 48.18719203 52 53 C50.35246756 53.71264233 48.68739237 54.38768538 47 55 C47.27972656 55.86496094 47.55945312 56.72992188 47.84765625 57.62109375 C53.25458931 74.53326373 58.26351869 91.63635155 62 109 C55.07 109 48.14 109 41 109 C40.38511719 106.52886719 39.77023437 104.05773437 39.13671875 101.51171875 C38.53129704 99.08220267 37.92545781 96.65279106 37.31958008 94.22338867 C36.90312919 92.55259866 36.4871031 90.88170271 36.0715332 89.21069336 C35.46941725 86.78991189 34.86599953 84.3694607 34.26171875 81.94921875 C34.06633514 81.16610321 33.87095154 80.38298767 33.66964722 79.57614136 C32.36410935 74.37252134 30.98039162 69.19687265 29.49145508 64.04223633 C29 62 29 62 29 59 C26.03 59 23.06 59 20 59 C20 75.5 20 92 20 109 C13.4 109 6.8 109 0 109 C0 73.03 0 37.06 0 0 Z " fill="#FDFEFE" transform="translate(1108,308)"/>
<path d="M0 0 C6.93 0 13.86 0 21 0 C22.1653917 4.07887095 23.25938801 7.92113093 24.09399414 12.03759766 C24.28532928 12.97450439 24.47666443 13.91141113 24.67379761 14.87670898 C24.87554596 15.87903564 25.07729431 16.8813623 25.28515625 17.9140625 C25.50237335 18.98197021 25.71959045 20.04987793 25.94338989 21.15014648 C26.65263739 24.6411878 27.35776168 28.13304584 28.0625 31.625 C28.55170792 34.04087945 29.04104842 36.45673206 29.53051758 38.87255859 C30.53105644 43.81439226 31.5294873 48.75664573 32.52636719 53.69921875 C33.70312758 59.53298279 34.88520523 65.36565013 36.06941223 71.19790649 C36.91351815 75.35914659 37.75408916 79.52109411 38.59347534 83.68328857 C38.98819394 85.63800238 39.38412113 87.59247255 39.78128052 89.54669189 C40.33055714 92.25174914 40.87492377 94.9577484 41.41796875 97.6640625 C41.5799173 98.45635254 41.74186584 99.24864258 41.90872192 100.06494141 C42.58758939 103.47270812 43 106.50829695 43 110 C37.06 110 31.12 110 25 110 C23.31104206 106.62208411 22.65313594 104.81314579 22.1484375 101.234375 C21.95507812 99.90019531 21.95507812 99.90019531 21.7578125 98.5390625 C21.63148438 97.61867188 21.50515625 96.69828125 21.375 95.75 C21.2409375 94.81414062 21.106875 93.87828125 20.96875 92.9140625 C20.63963423 90.61025208 20.31898998 88.30523427 20 86 C13.73 85.67 7.46 85.34 1 85 C0.896875 86.8975 0.79375 88.795 0.6875 90.75 C0.18752163 97.44823964 -1.20839166 103.53463079 -3 110 C-9.27 110 -15.54 110 -22 110 C-20.65919143 100.86047301 -19.03566614 91.83129476 -17.171875 82.78515625 C-16.89735403 81.44076862 -16.62313059 80.0963202 -16.34918213 78.7518158 C-15.63086539 75.23000134 -14.90895097 71.70893476 -14.18609619 68.18804932 C-13.04752116 62.63859158 -11.91505555 57.0878815 -10.78135681 51.53742599 C-10.3606383 49.47883762 -9.93921542 47.42039437 -9.5177002 45.36196899 C-8.08552155 38.36187841 -6.66798182 31.35915546 -5.27539062 24.35107422 C-5.13667164 23.65364703 -4.99795265 22.95621984 -4.85503006 22.2376585 C-4.19320563 18.90849091 -3.533828 15.57888126 -2.87786865 12.24855042 C-2.64521301 11.07525681 -2.41255737 9.9019632 -2.17285156 8.69311523 C-1.96968323 7.66242416 -1.76651489 6.63173309 -1.55718994 5.56980896 C-1 3 -1 3 0 0 Z " fill="#FBFDFE" transform="translate(955,307)"/>
<path d="M0 0 C1.22244667 0.00333092 1.22244667 0.00333092 2.46958923 0.00672913 C3.39046829 0.00680466 4.31134735 0.00688019 5.26013184 0.00695801 C6.2611644 0.01211929 7.26219696 0.01728058 8.29356384 0.02259827 C9.31316696 0.02401321 10.33277008 0.02542816 11.38327026 0.02688599 C14.65417867 0.03250355 17.92501972 0.04505902 21.19590759 0.05775452 C23.40749515 0.06276725 25.61908377 0.06733055 27.83067322 0.07142639 C33.26494413 0.08247869 38.69916443 0.09975508 44.13340759 0.12025452 C44.13340759 5.07025452 44.13340759 10.02025452 44.13340759 15.12025452 C35.55340759 15.12025452 26.97340759 15.12025452 18.13340759 15.12025452 C18.13340759 25.35025452 18.13340759 35.58025452 18.13340759 46.12025452 C24.73340759 46.12025452 31.33340759 46.12025452 38.13340759 46.12025452 C38.13340759 51.07025452 38.13340759 56.02025452 38.13340759 61.12025452 C31.53340759 61.12025452 24.93340759 61.12025452 18.13340759 61.12025452 C18.13340759 72.67025452 18.13340759 84.22025452 18.13340759 96.12025452 C26.71340759 96.12025452 35.29340759 96.12025452 44.13340759 96.12025452 C44.13340759 100.74025452 44.13340759 105.36025452 44.13340759 110.12025452 C28.62340759 110.12025452 13.11340759 110.12025452 -2.86659241 110.12025452 C-2.88914053 95.92569069 -2.90750581 81.73113866 -2.91840458 67.53656101 C-2.92363413 60.94620666 -2.93073308 54.35586515 -2.94203186 47.76551819 C-2.95285819 41.41133434 -2.9588687 35.05716287 -2.96146965 28.7029705 C-2.96332436 26.27275841 -2.96694584 23.84254702 -2.97232246 21.41234016 C-2.97952951 18.0214247 -2.98058349 14.63056111 -2.9801178 11.23963928 C-2.98371307 10.22400406 -2.98730835 9.20836884 -2.99101257 8.16195679 C-2.98963791 7.24343933 -2.98826324 6.32492187 -2.98684692 5.37857056 C-2.98776872 4.57568887 -2.98869051 3.77280718 -2.98964024 2.94559574 C-2.82025513 0.43286863 -2.51159333 0.16180846 0 0 Z " fill="#F6FBFD" transform="translate(551.8665924072266,306.87974548339844)"/>
<path d="M0 0 C15.18 0 30.36 0 46 0 C46 4.95 46 9.9 46 15 C37.75 15 29.5 15 21 15 C21 25.23 21 35.46 21 46 C27.6 46 34.2 46 41 46 C41 50.95 41 55.9 41 61 C34.4 61 27.8 61 21 61 C21 72.55 21 84.1 21 96 C29.58 96 38.16 96 47 96 C47 100.62 47 105.24 47 110 C31.49 110 15.98 110 0 110 C0 73.7 0 37.4 0 0 Z " fill="#F6FBFD" transform="translate(1054,307)"/>
<path d="M0 0 C15.18 0 30.36 0 46 0 C46 4.95 46 9.9 46 15 C37.42 15 28.84 15 20 15 C20 25.23 20 35.46 20 46 C26.6 46 33.2 46 40 46 C40 50.62 40 55.24 40 60 C33.4 60 26.8 60 20 60 C20 71.88 20 83.76 20 96 C28.58 96 37.16 96 46 96 C46 100.62 46 105.24 46 110 C30.82 110 15.64 110 0 110 C0 73.7 0 37.4 0 0 Z " fill="#FCFEFE" transform="translate(616,128)"/>
<path d="M0 0 C15.18 0 30.36 0 46 0 C46 4.62 46 9.24 46 14 C45 15 45 15 42.68334961 15.11352539 C41.68311768 15.10828857 40.68288574 15.10305176 39.65234375 15.09765625 C38.68031006 15.09515869 37.70827637 15.09266113 36.70678711 15.09008789 C35.46292236 15.08098389 34.21905762 15.07187988 32.9375 15.0625 C28.998125 15.041875 25.05875 15.02125 21 15 C21 25.23 21 35.46 21 46 C27.27 46 33.54 46 40 46 C40 50.62 40 55.24 40 60 C33.4 60 26.8 60 20 60 C20 76.5 20 93 20 110 C13.4 110 6.8 110 0 110 C0 73.7 0 37.4 0 0 Z " fill="#F8FCFE" transform="translate(564,128)"/>
<path d="M0 0 C18.81 0 37.62 0 57 0 C57 4.62 57 9.24 57 14 C51.06 14 45.12 14 39 14 C39 45.35 39 76.7 39 109 C32.4 109 25.8 109 19 109 C19 77.65 19 46.3 19 14 C12.73 14 6.46 14 0 14 C0 9.38 0 4.76 0 0 Z " fill="#FEFEFE" transform="translate(993,308)"/>
<path d="M0 0 C6.93 0 13.86 0 21 0 C21 31.68 21 63.36 21 96 C29.58 96 38.16 96 47 96 C47 100.62 47 105.24 47 110 C31.49 110 15.98 110 0 110 C0 73.7 0 37.4 0 0 Z " fill="#F6FBFD" transform="translate(478,128)"/>
<path d="M0 0 C6.6 0 13.2 0 20 0 C21.88885195 1.88885195 21.12010635 4.64051759 21.12442017 7.15324402 C21.12082489 8.0379689 21.11722961 8.92269379 21.11352539 9.83422852 C21.11367142 10.76096375 21.11381744 11.68769897 21.1139679 12.64251709 C21.11326838 15.72133687 21.10547421 18.80009697 21.09765625 21.87890625 C21.09579221 24.00740018 21.09436824 26.13589453 21.09336853 28.26438904 C21.08954228 33.8786232 21.07971108 39.49283168 21.06866455 45.10705566 C21.05845273 50.83113253 21.0538714 56.55521353 21.04882812 62.27929688 C21.0380889 73.51954438 21.02049124 84.75976604 21 96 C29.58 96 38.16 96 47 96 C47 100.62 47 105.24 47 110 C31.49 110 15.98 110 0 110 C0 73.7 0 37.4 0 0 Z " fill="#F6FBFD" transform="translate(603,307)"/>
<path d="M0 0 C0.33 0 0.66 0 1 0 C1 39.27 1 78.54 1 119 C-13.19 119 -27.38 119 -42 119 C-38.62507051 106.62525853 -38.62507051 106.62525853 -37.13745117 102.50488281 C-36.80197266 101.56910904 -36.46649414 100.63333527 -36.12084961 99.66920471 C-35.58729858 98.20099525 -35.58729858 98.20099525 -35.04296875 96.703125 C-34.66317871 95.64725693 -34.28338867 94.59138885 -33.89208984 93.50352478 C-32.66118698 90.08424077 -31.42441335 86.66711379 -30.1875 83.25 C-29.33138405 80.87555219 -28.47567488 78.50095767 -27.62036133 76.1262207 C-25.89983137 71.35055546 -24.1772418 66.57564095 -22.453125 61.80126953 C-20.24066795 55.67162062 -18.0392167 49.53809597 -15.84375 43.40234375 C-15.52771317 42.51952728 -15.21167633 41.63671082 -14.88606262 40.72714233 C-13.7074588 37.43475773 -12.52886831 34.14236906 -11.35165405 30.8494873 C-7.66102567 20.5303574 -3.8761783 10.25091435 0 0 Z " fill="#0C97D9" transform="translate(291,187)"/>
<path d="M0 0 C6.6 0 13.2 0 20 0 C20 36.3 20 72.6 20 110 C13.4 110 6.8 110 0 110 C0 73.7 0 37.4 0 0 Z " fill="#FBFDFE" transform="translate(532,128)"/>
<path d="M0 0 C4.08278388 2.39641663 5.57817286 4.5659316 7 9 C7.26069641 12.02854919 7.26069641 12.02854919 7.2746582 15.43920898 C7.28895622 17.36161659 7.28895622 17.36161659 7.30354309 19.32286072 C7.30328164 20.71393868 7.30234451 22.10501665 7.30078125 23.49609375 C7.30467153 24.93189111 7.30900688 26.36768732 7.31376648 27.80348206 C7.32121529 30.80856054 7.32094713 33.81352151 7.31567383 36.81860352 C7.30988012 40.65973293 7.32681383 44.50038001 7.3500185 48.34142971 C7.36478686 51.3055144 7.36562336 54.26948374 7.36250877 57.23359871 C7.3630204 58.64931252 7.36822834 60.06503305 7.37832069 61.48071098 C7.39072699 63.46423503 7.3819311 65.44785695 7.37231445 67.43139648 C7.37294388 68.55770981 7.3735733 69.68402313 7.3742218 70.84446716 C6.82887998 75.44292727 5.30491299 78.81022639 1.875 81.9375 C-2.16830302 83.43176416 -5.9575065 83.61284415 -10 82 C-13.55458899 79.15153251 -14.80095046 77.3788366 -15.45861816 72.82310486 C-15.63017892 68.70552971 -15.64257963 64.61570896 -15.59375 60.49609375 C-15.5920374 58.96965123 -15.5921061 57.44320577 -15.59387207 55.91676331 C-15.59222225 52.72490116 -15.57358599 49.53374428 -15.54199219 46.34204102 C-15.50228125 42.25751658 -15.49795281 38.17391334 -15.50545502 34.08923244 C-15.50852889 30.93984079 -15.49639006 27.790655 -15.47932434 24.64131355 C-15.4723104 23.1354813 -15.46916786 21.62962573 -15.47001648 20.12377739 C-15.46821232 18.01755711 -15.44678142 15.91242735 -15.41992188 13.80639648 C-15.41150269 12.60981918 -15.4030835 11.41324188 -15.39440918 10.18040466 C-14.9625556 6.69805888 -14.0582219 4.81076476 -12 2 C-8.53596584 -0.69424879 -4.20471068 -0.67710053 0 0 Z " fill="#0E98D9" transform="translate(689,321)"/>
<path d="M0 0 C14 0 14 0 17.75 2.25 C21.87014669 7.28573484 22.31610334 10.98691609 22.25 17.4375 C22.25773438 18.18837891 22.26546875 18.93925781 22.2734375 19.71289062 C22.25873724 23.89143818 22.03589715 27.24195698 20 31 C12.82015953 37.46185642 11.71564511 36 0 36 C0 24.12 0 12.24 0 0 Z " fill="#0B97D9" transform="translate(499,367)"/>
<path d="M0 0 C13 0 13 0 16.6875 1.625 C20.7725046 5.82041013 21.11867865 9.77791649 21.3125 15.4375 C21.165634 21.79593409 20.19527194 25.80472806 15.5625 30.4375 C12 32 12 32 0 32 C0 21.44 0 10.88 0 0 Z " fill="#0B97D9" transform="translate(1128,322)"/>
<path d="M0 0 C13.96551724 0 13.96551724 0 18 3 C20.99186525 6.19132294 21.23491834 9.09253997 21.375 13.3125 C21.20510597 18.55797821 20.48733264 22.35697907 18 27 C12.37649684 31.61415644 7.83712458 30 0 30 C0 20.1 0 10.2 0 0 Z " fill="#0C97D9" transform="translate(499,322)"/>
<path d="M0 0 C0.66 0.33 1.32 0.66 2 1 C2.5625 3.24633789 2.5625 3.24633789 3 6.22265625 C3.1640332 7.3120752 3.32806641 8.40149414 3.49707031 9.52392578 C3.66303711 10.69165527 3.82900391 11.85938477 4 13.0625 C4.17370117 14.23796387 4.34740234 15.41342773 4.52636719 16.62451172 C5.8101549 25.40268118 6.96346915 34.18948779 8 43 C3.38 43 -1.24 43 -6 43 C-5.43847028 33.02155236 -4.22549642 23.46148453 -2.4375 13.625 C-2.20051614 12.29178306 -1.96418528 10.95844988 -1.72851562 9.625 C-1.15870813 6.41547208 -0.58246543 3.20725043 0 0 Z " fill="#189DDB" transform="translate(965,336)"/>
</svg>
