<?xml version="1.0" encoding="UTF-8"?>
<svg version="1.1" xmlns="http://www.w3.org/2000/svg" width="1500" height="1500">
<path d="M0 0 C495 0 990 0 1500 0 C1500 495 1500 990 1500 1500 C1005 1500 510 1500 0 1500 C0 1005 0 510 0 0 Z " fill="#00689D" transform="translate(0,0)"/>
<path d="M0 0 C3.42559084 1.20358597 5.53258609 2.35892646 8 5 C3.06455434 11.79061317 -1.95565519 18.28542055 -7.6640625 24.453125 C-9.57956915 26.54160382 -11.4333671 28.66108946 -13.28125 30.80859375 C-16.95220225 35.01843746 -20.88066216 38.91241814 -24.875 42.8125 C-31.04357973 48.92178004 -36.76486531 55.05925646 -42 62 C-42.39880371 62.51175781 -42.79760742 63.02351562 -43.20849609 63.55078125 C-52.32850924 75.28601506 -60.56907514 89.11058521 -63 104 C-63.165 104.80953125 -63.33 105.6190625 -63.5 106.453125 C-62.67506035 110.65516133 -59.40609521 112.19392776 -56 114.5 C-55.31607178 114.98194824 -54.63214355 115.46389648 -53.92749023 115.96044922 C-49.38375391 119.13777404 -44.72807103 122.10526263 -40 125 C-40 125.33 -40 125.66 -40 126 C-52.375 126.495 -52.375 126.495 -65 127 C-64.49021368 144.5026638 -61.4800664 162.07886109 -55.69921875 178.64453125 C-55 181 -55 181 -55 185 C-57.64 185 -60.28 185 -63 185 C-65.97971283 177.25940521 -67.92295804 169.40251462 -69.6875 161.3125 C-69.90172607 160.33917725 -70.11595215 159.36585449 -70.33666992 158.36303711 C-72.07840937 150.18887131 -73.15062751 142.30961333 -73.0625 133.9375 C-73.05347656 132.81214844 -73.04445313 131.68679688 -73.03515625 130.52734375 C-73.01775391 129.27630859 -73.01775391 129.27630859 -73 128 C-74.11117187 128.32613281 -75.22234375 128.65226563 -76.3671875 128.98828125 C-77.08277832 129.19815674 -77.79836914 129.40803223 -78.53564453 129.62426758 C-80.10758817 130.08672939 -81.67887007 130.55144596 -83.24951172 131.01831055 C-86.43380019 131.96345059 -89.60851525 132.90050664 -92.828125 133.71875 C-108.22964703 137.70009583 -122.13904695 147.23609551 -130.9375 160.5 C-141.05337837 177.85904371 -145.26752695 196.27902936 -145.30859375 216.2734375 C-145.33377642 218.58724186 -145.35917408 220.90104388 -145.38476562 223.21484375 C-145.41325456 226.77912654 -145.43733168 230.34336861 -145.45629883 233.90771484 C-145.53405614 246.19337038 -145.77405032 258.34099604 -147.34765625 270.5390625 C-147.46322372 271.43732758 -147.5787912 272.33559265 -147.69786072 273.26107788 C-152.95695895 310.01512291 -172.74272617 343.08775131 -202.2421875 365.4921875 C-210.12195951 371.33420244 -218.3480607 376.38407976 -227 381 C-227.60505371 381.32709961 -228.21010742 381.65419922 -228.83349609 381.99121094 C-239.45201481 387.68813933 -250.44861564 392.05079358 -261.75927734 396.17626953 C-263.55165812 396.83518136 -265.33426817 397.52064919 -267.11328125 398.21484375 C-285.81337282 405.45640332 -306.13550622 409.01355062 -326 411 C-326 434.43 -326 457.86 -326 482 C-317.42 482 -308.84 482 -300 482 C-294.12551477 482.12560946 -288.25490163 482.25885216 -282.3821106 482.42889404 C-273.58938826 482.6722052 -264.79444431 482.83342581 -256 483 C-254.91501221 483.02122925 -253.83002441 483.0424585 -252.7121582 483.06433105 C-222.58569904 483.63546435 -193.1938745 482.96608917 -163.30686951 478.95944214 C-157.41565254 478.16991171 -151.51957143 477.46809347 -145.609375 476.8359375 C-144.83128479 476.75066803 -144.05319458 476.66539856 -143.25152588 476.57754517 C-139.1464849 476.14818132 -135.13465529 475.91225543 -131 476 C-131.02094727 474.78417236 -131.04189453 473.56834473 -131.06347656 472.31567383 C-131.13598316 467.79642557 -131.18183856 463.27722854 -131.21972656 458.75756836 C-131.23981774 456.80305327 -131.26709589 454.8485981 -131.30175781 452.89428711 C-131.35038601 450.08171792 -131.3729936 447.26994473 -131.390625 444.45703125 C-131.42159271 443.15050346 -131.42159271 443.15050346 -131.45318604 441.81758118 C-131.45468853 437.737288 -131.35517366 435.57349877 -129.16308594 432.03393555 C-125.6176898 428.70022277 -123.59260754 427.74980035 -118.81350708 427.73930359 C-117.20264221 427.72867638 -117.20264221 427.72867638 -115.55923462 427.71783447 C-114.38098114 427.72031189 -113.20272766 427.72278931 -111.98876953 427.7253418 C-110.12747406 427.7176754 -110.12747406 427.7176754 -108.22857666 427.70985413 C-104.82348833 427.69832214 -101.41864314 427.69588682 -98.01355219 427.69841743 C-95.17064833 427.69948658 -92.32776697 427.69460508 -89.48486793 427.689812 C-82.77684149 427.67871231 -76.06887103 427.67828168 -69.36083984 427.68432617 C-62.44267189 427.69036425 -55.52470741 427.67806035 -48.60657418 427.6567561 C-42.66591951 427.63913522 -36.72532957 427.63313959 -30.78464973 427.63639385 C-27.23705445 427.63820644 -23.68960423 427.63557324 -20.14203262 427.62167931 C-16.18461386 427.60676071 -12.2274537 427.61607542 -8.27001953 427.62768555 C-7.09581451 427.62004181 -5.9216095 427.61239807 -4.71182251 427.60452271 C-3.63227295 427.61153702 -2.55272339 427.61855133 -1.44046021 427.6257782 C-0.50504961 427.62561046 0.43036098 427.62544271 1.39411736 427.62526989 C5.44756135 428.20816165 7.97471106 429.9373375 10.78827 432.85345554 C12.29593446 435.52423928 12.37977851 437.2844107 12.38768005 440.3447113 C12.39758469 441.42841003 12.40748932 442.51210876 12.41769409 443.62864685 C12.41319244 444.81265579 12.4086908 445.99666473 12.40405273 447.21655273 C12.41434761 449.0926976 12.41434761 449.0926976 12.42485046 451.00674438 C12.44001862 454.4346033 12.44161172 457.86191856 12.43590808 461.28977084 C12.43281754 464.15261715 12.43890719 467.01541422 12.44494683 469.87825352 C12.45899395 476.63282591 12.4574294 483.38727183 12.44604492 490.1418457 C12.43456444 497.10724749 12.44863743 504.0722642 12.4754414 511.03761524 C12.49760253 517.02076695 12.50423485 523.00379782 12.49836498 528.98698765 C12.49499502 532.55919779 12.49741268 536.13116113 12.51461601 539.70333672 C12.53296397 543.68706212 12.51889366 547.67031447 12.50170898 551.65405273 C12.51137695 552.83603745 12.52104492 554.01802216 12.53100586 555.23582458 C12.45866929 563.22788558 12.45866929 563.22788558 10.09364319 567.2091217 C6.84732208 569.98598743 5.01926271 570.12946635 0.81987 570.15390015 C-0.27790771 570.16250061 -1.37568542 570.17110107 -2.50672913 570.17996216 C-3.7166301 570.18422211 -4.92653107 570.18848206 -6.1730957 570.19287109 C-7.44307404 570.20104858 -8.71305237 570.20922607 -10.02151489 570.21765137 C-14.23958208 570.24387418 -18.4576592 570.25917903 -22.67578125 570.2734375 C-24.12748916 570.27879703 -25.579197 570.28417454 -27.03090477 570.28956985 C-33.0692741 570.31119877 -39.10764074 570.32993577 -45.14603901 570.34119225 C-53.80176521 570.3574336 -62.45704266 570.39061508 -71.11259967 570.44759309 C-77.19759356 570.48628479 -83.28246739 570.50582397 -89.36758107 570.51111281 C-93.00252939 570.51476736 -96.63699912 570.52679828 -100.27181435 570.55921555 C-104.32772157 570.59486977 -108.38266361 570.59092741 -112.4387207 570.58349609 C-113.64254898 570.59990143 -114.84637726 570.61630676 -116.08668518 570.63320923 C-125.14460914 570.5650971 -125.14460914 570.5650971 -128.22257996 567.58853149 C-131.34924588 563.03503653 -131.12981709 559.44233375 -131.09765625 554.0546875 C-131.09553383 552.72716965 -131.09553383 552.72716965 -131.09336853 551.37283325 C-131.0877614 548.54018809 -131.07520771 545.70762136 -131.0625 542.875 C-131.05748592 540.95703239 -131.05292285 539.03906354 -131.04882812 537.12109375 C-131.03778966 532.41403218 -131.02052025 527.7070294 -131 523 C-132.25965576 522.89187988 -133.51931152 522.78375977 -134.81713867 522.67236328 C-145.49348353 521.73800759 -156.14989324 520.68289225 -166.80078125 519.4921875 C-167.98421112 519.36080383 -169.16764099 519.22942017 -170.38693237 519.09405518 C-175.25866035 518.5526016 -180.13020702 518.01009683 -185.00024414 517.45361328 C-188.62035505 517.04124735 -192.24163881 516.64084967 -195.86328125 516.2421875 C-196.93145584 516.11721893 -197.99963043 515.99225037 -199.10017395 515.86349487 C-204.9781026 515.22648576 -210.79455228 514.91746699 -216.70558167 514.94184875 C-217.80911037 514.94439801 -217.80911037 514.94439801 -218.93493259 514.94699878 C-227.76972512 514.98388496 -236.6002309 515.19632311 -245.43212891 515.41137695 C-247.32652063 515.45599879 -249.22091661 515.50044037 -251.11531639 515.54471874 C-255.18307695 515.64017893 -259.25080504 515.73689111 -263.31851196 515.83460999 C-269.86341848 515.9918385 -276.40838899 516.14628648 -282.95336914 516.30041504 C-292.31881351 516.52122541 -301.68422683 516.74331247 -311.04962158 516.96621704 C-325.65850464 517.31381577 -340.26747365 517.65771199 -354.87646484 518.00073242 C-356.08535724 518.02912284 -357.29424963 518.05751325 -358.53977513 518.08676398 C-363.41839318 518.20133482 -368.29701152 518.31589284 -373.17563069 518.43041569 C-381.69136136 518.63031946 -390.20708644 518.83046022 -398.72280884 519.03071594 C-474.46090514 520.81160344 -474.46090514 520.81160344 -505.93297386 521.52414227 C-512.88841181 521.68164608 -519.84381573 521.8403404 -526.7991333 522.00308228 C-554.87532792 522.65878568 -582.91508983 523.14398632 -611 523 C-611 507.49 -611 491.98 -611 476 C-582.55352349 475.90513324 -554.14294578 476.22935514 -525.70336914 476.80771637 C-522.33042599 476.87590107 -518.95745571 476.94254865 -515.58447266 477.00872803 C-491.75552604 477.47677434 -467.92764341 477.98067956 -444.1015625 478.578125 C-443.25376598 478.59938194 -442.40596947 478.62063889 -441.53248215 478.64253998 C-424.68757442 479.06749103 -407.84397951 479.53942244 -391 480 C-391 457.56 -391 435.12 -391 412 C-394.3 412 -397.6 412 -401 412 C-424.80814138 410.17153474 -450.08605474 404.64609329 -472 395 C-472.61069336 394.74379883 -473.22138672 394.48759766 -473.85058594 394.22363281 C-492.97229176 386.17289938 -510.61859476 374.48986405 -528.06982422 363.37475586 C-546.11869704 351.90770273 -564.46575912 340.41977588 -585 334 C-585 333.67 -585 333.34 -585 333 C-580.77838201 333.50095236 -576.58397012 334.05413959 -572.390625 334.75390625 C-550.52964219 338.2803547 -528.47696102 338.90677098 -507 333 C-506.31663574 332.81808105 -505.63327148 332.63616211 -504.92919922 332.44873047 C-489.23658816 328.15217266 -476.99799427 319.38180847 -463.890625 310.14746094 C-444.36375759 296.46463315 -425.59751356 285.35188967 -402 281 C-403.10903687 280.77449463 -403.10903687 280.77449463 -404.24047852 280.54443359 C-429.13194259 275.42091637 -451.92805113 268.56556081 -471 251 C-471.53834473 250.50935059 -472.07668945 250.01870117 -472.63134766 249.51318359 C-504.13325297 220.49803709 -516.28717076 180.10265059 -524.62437439 139.37805176 C-524.7805574 138.61520874 -524.93674042 137.85236572 -525.09765625 137.06640625 C-525.25283218 136.30807495 -525.40800812 135.54974365 -525.56788635 134.76843262 C-531.60940077 105.56839853 -538.6385573 73.16743248 -557 49 C-557.59039063 48.20335937 -558.18078125 47.40671875 -558.7890625 46.5859375 C-563.59866365 40.63021863 -569.35476042 36.86235678 -575.828125 32.9453125 C-578.35039402 31.39840367 -580.65652785 29.79285146 -583 28 C-573.46275288 26.813535 -563.91937332 26.78016767 -554.32446289 26.75976562 C-551.59945299 26.75013066 -548.87522228 26.71905509 -546.15039062 26.6875 C-528.33148944 26.5807801 -511.11199259 29.001167 -494 34 C-493.23171875 34.22107422 -492.4634375 34.44214844 -491.671875 34.66992188 C-462.4937904 43.24214577 -436.78197818 58.31176001 -413 77 C-412.01644531 77.76957031 -411.03289062 78.53914062 -410.01953125 79.33203125 C-399.48031036 87.77253283 -389.85531003 97.09525075 -380.375 106.6875 C-374.19703033 112.92215456 -367.9696352 118.65216504 -361 124 C-360.01128906 124.80566406 -359.02257812 125.61132812 -358.00390625 126.44140625 C-331.97769496 147.48164521 -301.21693137 157.78050981 -267.73046875 154.79785156 C-240.32565685 151.10015546 -216.82361423 133.94127226 -197.5 115.32421875 C-193.77860648 111.75106901 -189.91120805 108.36305347 -186 105 C-185.0414209 104.17302612 -185.0414209 104.17302612 -184.06347656 103.3293457 C-165.26189739 87.2262734 -142.44863302 67.9940114 -116.38671875 68.7265625 C-102.9424493 69.81202832 -93.90482592 77.33826576 -85.34765625 87.32421875 C-82.66102731 90.38634991 -79.83046516 93.25945851 -76.9375 96.125 C-76.20273438 96.85360229 -76.20273438 96.85360229 -75.453125 97.59692383 C-74.30413577 98.73336142 -73.15238247 99.86700341 -72 101 C-71.62875 99.824375 -71.2575 98.64875 -70.875 97.4375 C-64.21365403 77.79113399 -55.03240993 62.26418461 -41 47 C-40.40493652 46.34999023 -39.80987305 45.69998047 -39.19677734 45.03027344 C-33.34357735 38.65967193 -27.434761 32.35941121 -21.23608398 26.32299805 C-13.16258208 18.45640698 -5.60394477 9.82987034 0 0 Z " fill="#FEFEFE" transform="translate(1037,718)"/>
<path d="M0 0 C14.08764942 14.08764942 18.74097905 31.03397554 19.9375 50.3125 C20.370625 56.995 20.370625 56.995 20.8125 63.8125 C3.3225 63.8125 -14.1675 63.8125 -32.1875 63.8125 C-33.1775 52.4275 -33.1775 52.4275 -34.1875 40.8125 C-37.39458333 33.26733244 -37.39458333 33.26733244 -43.1875 29.8125 C-49.2960228 27.97732148 -55.87133389 27.675473 -61.625 30.5 C-71.83826892 39.71685244 -72.32722024 52.75639553 -73.1875 65.8125 C-73.48052929 74.01792809 -73.37916604 82.22877257 -73.3125 90.4375 C-73.30243889 92.61978751 -73.29331864 94.80207956 -73.28515625 96.984375 C-73.26341678 102.26051817 -73.23019293 107.53648686 -73.1875 112.8125 C-72.42920898 111.8647168 -71.67091797 110.91693359 -70.88964844 109.94042969 C-68.21212088 106.59380472 -65.31268731 104.93981296 -61.4375 103.0625 C-60.28765625 102.49015625 -59.1378125 101.9178125 -57.953125 101.328125 C-45.96906966 96.13887232 -29.17870095 95.53972767 -16.828125 99.71484375 C0.70686336 107.00379601 10.8468614 116.80487065 18.31640625 134.34375 C30.30179272 167.2588412 28.38527317 210.92973966 13.8125 242.8125 C6.33794465 257.82301176 -3.26711175 269.63141747 -19.4765625 275.45703125 C-41.10066961 282.57212316 -68.64324422 283.16125814 -89.4375 273.25 C-106.60114463 264.43028005 -117.58001295 248.66389099 -123.66796875 230.59375 C-124.12143 229.14876529 -124.56565096 227.70084418 -125 226.25 C-125.29221436 225.27921509 -125.29221436 225.27921509 -125.59033203 224.28881836 C-128.66975385 213.2856508 -129.48390134 202.24096379 -129.44628906 190.86254883 C-129.44900801 189.520394 -129.45257395 188.17824067 -129.45690918 186.83609009 C-129.46593259 183.23035634 -129.46252981 179.62473861 -129.45615101 176.01900315 C-129.45103311 172.21446343 -129.45579883 168.40993263 -129.45892334 164.60539246 C-129.46254852 158.21469368 -129.45780445 151.82404132 -129.44824219 145.43334961 C-129.43738381 138.09265333 -129.44087003 130.75206841 -129.451895 123.41137487 C-129.46103745 117.06522681 -129.4622188 110.71911185 -129.45701766 104.37295932 C-129.45393284 100.60212969 -129.45339014 96.83135198 -129.46009064 93.06052589 C-129.50735474 62.15850352 -129.2083051 26.98296411 -106.5 2.94140625 C-79.50596033 -21.90952554 -29.14040515 -19.99831726 0 0 Z " fill="#FDFEFE" transform="translate(341.1875,139.1875)"/>
<path d="M0 0 C14.52 0 29.04 0 44 0 C44 95.04 44 190.08 44 288 C25.85 288 7.7 288 -11 288 C-11 212.1 -11 136.2 -11 58 C-29.58899019 64.96429801 -29.58899019 64.96429801 -48.1484375 72.00390625 C-51 73 -51 73 -53 73 C-53 59.47 -53 45.94 -53 32 C-48.05 29.69 -43.1 27.38 -38 25 C-34.21988587 23.05730209 -30.47429003 21.10388436 -26.75 19.0625 C-25.33859741 18.28990845 -25.33859741 18.28990845 -23.89868164 17.50170898 C-14.93440838 12.52345651 -7.28746184 7.28746184 0 0 Z " fill="#FCFDFE" transform="translate(138,128)"/>
<path d="M0 0 C7.45614055 6.26993637 10.06100175 12.82683382 11.75 22.3125 C12.1364829 26.79845312 12.17181569 31.24929191 12.1484375 35.75 C12.15130768 36.99193115 12.15417786 38.2338623 12.15713501 39.51342773 C12.15916354 42.12191223 12.1537192 44.73041236 12.14111328 47.33886719 C12.12504346 51.30178262 12.14100476 55.26367829 12.16015625 59.2265625 C12.1581736 61.77604389 12.15432949 64.32552465 12.1484375 66.875 C12.15754654 68.62864868 12.15754654 68.62864868 12.1668396 70.41772461 C12.07959392 80.76530407 10.98365954 92.29101616 3.75 100.3125 C-5.54900565 108.1432416 -15.37794245 109.28962408 -27.25 108.3125 C-34.27817204 106.78915237 -40.63762876 103.9698616 -45.25 98.3125 C-49.57989755 91.28769225 -51.34722603 85.20457944 -51.44287109 76.96850586 C-51.45893402 75.70626694 -51.47499695 74.44402802 -51.49154663 73.14353943 C-51.50303972 71.77148116 -51.51364731 70.39941523 -51.5234375 69.02734375 C-51.52876118 68.32979036 -51.53408485 67.63223698 -51.53956985 66.91354561 C-51.5662392 63.21687041 -51.58562854 59.52022814 -51.60009766 55.82348633 C-51.61339264 52.78671859 -51.64117015 49.75062986 -51.68212891 46.71411133 C-51.73186433 43.02536559 -51.75626804 39.33723133 -51.76332474 35.64816475 C-51.7699721 34.25409821 -51.78502059 32.86004178 -51.80921555 31.46616936 C-51.98831596 20.51849283 -50.42904657 10.86853175 -43.125 2.3125 C-31.30911119 -8.05809769 -13.23149159 -6.87019756 0 0 Z " fill="#FBFCFD" transform="translate(960.25,310.6875)"/>
<path d="M0 0 C0.99966797 -0.03738281 1.99933594 -0.07476562 3.02929688 -0.11328125 C11.07844689 -0.20742336 17.50819453 1.63321777 23.73999023 6.89770508 C31.95550299 15.59535785 32.54508967 25.98625004 32.46875 37.40234375 C32.47145232 38.8414384 32.47534085 40.28053127 32.48034668 41.71961975 C32.48620902 44.72105464 32.47778709 47.72201001 32.45898438 50.72338867 C32.43621664 54.54054256 32.44932368 58.35656969 32.47327423 62.17368221 C32.48783941 65.14144635 32.4830774 68.10895044 32.47276306 71.0767231 C32.47012414 72.48271384 32.47326383 73.88872941 32.48268127 75.29469109 C32.54360564 86.94431802 31.17580593 97.0178792 22.8671875 105.71875 C13.98268139 113.344318 3.01595025 112.95519552 -8.0625 112.375 C-15.12478895 111.2877267 -20.44859237 107.79451055 -25.0625 102.375 C-26.78773182 99.47742965 -28.01324363 96.5747125 -29.0625 93.375 C-29.4025708 92.45170898 -29.7426416 91.52841797 -30.09301758 90.57714844 C-31.72942899 84.77198084 -31.36759491 78.71524595 -31.36328125 72.734375 C-31.36756638 71.4164093 -31.3718515 70.0984436 -31.37626648 68.74053955 C-31.38370159 65.95670538 -31.38345825 63.17299806 -31.37817383 60.38916016 C-31.37239771 56.85123463 -31.38927777 53.3138358 -31.4125185 49.77599716 C-31.42737692 47.0270289 -31.42811102 44.27818375 -31.42500877 41.52918243 C-31.42576049 39.60014023 -31.43954018 37.67111692 -31.45368958 35.74212646 C-31.40107736 25.6244182 -30.4272284 16.15108808 -23.8125 8.09765625 C-16.67033624 1.0670888 -9.6263287 0.13294365 0 0 Z " fill="#FBFCFD" transform="translate(983.0625,485.625)"/>
<path d="M0 0 C42.88888889 0 42.88888889 0 52.4375 6.25 C57.78522225 11.989019 60.11355326 18.3588634 60.16113281 26.14868164 C60.17074036 27.41752701 60.1803479 28.68637238 60.19024658 29.9936676 C60.1950971 31.38249532 60.19937531 32.77132513 60.203125 34.16015625 C60.20888169 35.58922832 60.21463935 37.01830038 60.22039795 38.44737244 C60.23090484 41.44758462 60.23674835 44.44777006 60.24023438 47.44799805 C60.24569351 51.26858316 60.26966679 55.08880726 60.29820633 58.90927982 C60.31695926 61.86493409 60.32204516 64.82050399 60.32357025 67.77621269 C60.32657304 69.18304843 60.33452007 70.58988355 60.34775543 71.99666023 C60.44065091 82.6371873 59.96583434 92.44197495 53 101 C48.01376735 105.98623265 45.31198802 106.56267066 38 109 C25.46 109 12.92 109 0 109 C0 73.03 0 37.06 0 0 Z " fill="#FEFEFE" transform="translate(617,308)"/>
<path d="M0 0 C1.17336411 -0.00708481 2.34672821 -0.01416962 3.5556488 -0.02146912 C4.83937378 -0.0189917 6.12309875 -0.01651428 7.44572449 -0.01396179 C8.8142525 -0.01831008 10.18277808 -0.02349362 11.55130005 -0.02944946 C15.26631818 -0.04284064 18.98123457 -0.04341784 22.69627213 -0.04088616 C25.79999633 -0.03981617 28.90369997 -0.04470073 32.00741976 -0.04949158 C39.33257344 -0.06058795 46.65767585 -0.06102396 53.98283386 -0.05497742 C61.53206565 -0.04894151 69.08111088 -0.06123852 76.63031083 -0.08254749 C83.11708347 -0.10018231 89.60379684 -0.10616174 96.09059256 -0.10290974 C99.96240191 -0.10109917 103.83407828 -0.1037101 107.70586586 -0.11762428 C111.34946263 -0.1302281 114.99276959 -0.12823462 118.63636208 -0.11521339 C120.60426722 -0.11173148 122.57218131 -0.1230078 124.54005432 -0.13478088 C132.46276926 -0.0877583 137.83608405 0.3113261 144.00114441 5.63569641 C148.65624843 11.0666511 149.76838585 14.45371189 149.52848816 21.61225891 C148.86014288 27.99448569 145.60420919 31.1843143 140.87223816 35.06147766 C137.68224288 37.4213055 135.48834717 37.39578833 131.55970764 37.42132568 C130.34846725 37.43137131 129.13722687 37.44141693 127.88928223 37.45176697 C126.53968873 37.45779738 125.19009458 37.46368235 123.84049988 37.46943665 C122.42462938 37.47897356 121.00876124 37.48886465 119.59289551 37.49908447 C114.93473586 37.53049674 110.27655823 37.55074337 105.61833191 37.56929016 C104.82566878 37.57258748 104.03300565 37.5758848 103.21632242 37.57928205 C95.73903863 37.61007078 88.26175082 37.6367768 80.78442192 37.65370083 C71.2237921 37.6755939 61.6637249 37.71752868 52.10332 37.7871384 C45.37964659 37.83442796 38.65612467 37.8586412 31.9322902 37.86589772 C27.91767617 37.87084778 23.90369589 37.88586513 19.88926315 37.92564201 C16.10843627 37.96260888 12.32860235 37.97088606 8.5476284 37.95763588 C7.16414727 37.95768967 5.78062104 37.96792143 4.39730644 37.98938751 C-3.06880044 38.09899802 -8.45714608 37.93398011 -14.2534771 32.9210062 C-18.63899118 28.05179617 -20.46974039 22.97599874 -20.13166809 16.42866516 C-18.97834578 9.89709492 -14.92316525 6.03363054 -9.74885559 2.26069641 C-6.42483267 0.22354172 -3.87623887 0.00780422 0 0 Z " fill="#FEFEFE" transform="translate(912.7488555908203,1095.7393035888672)"/>
<path d="M0 0 C1.17895844 -0.0071553 2.35791687 -0.01431061 3.57260132 -0.02168274 C4.86770126 -0.02437164 6.16280121 -0.02706055 7.49714661 -0.02983093 C8.87375561 -0.03609696 10.25036292 -0.04274388 11.62696838 -0.04974365 C16.14984461 -0.07077319 20.67272113 -0.08114626 25.19563293 -0.09111023 C26.75407237 -0.09515846 28.31251163 -0.0992754 29.8709507 -0.10346031 C37.19441946 -0.12251101 44.51787817 -0.13674125 51.84136695 -0.14507228 C60.28702092 -0.15483908 68.73241241 -0.18114435 77.17797393 -0.22157317 C83.71059169 -0.25176826 90.24313437 -0.26654444 96.77582055 -0.26985329 C100.67513033 -0.27220029 104.57415966 -0.2811144 108.47339439 -0.30631447 C112.14492561 -0.32965933 115.81599304 -0.33380303 119.48757935 -0.32355309 C121.46845481 -0.3228246 123.44930706 -0.34187151 125.43008423 -0.36161804 C133.48351379 -0.31474558 139.35152662 0.38921958 145.43391418 6.11982727 C148.86829151 11.22369358 150.22766899 15.3095893 149.86360168 21.49873352 C148.75500777 27.1078878 145.82900907 30.7646722 141.71516418 34.58467102 C137.93222443 37.07344717 135.02397378 37.27620049 130.59767151 37.29434204 C128.80182365 37.305075 128.80182365 37.305075 126.96969604 37.31602478 C125.65432358 37.31871368 124.33895111 37.32140259 122.98371887 37.32417297 C121.5857832 37.33043884 120.18784918 37.33708576 118.78991699 37.34408569 C114.19730283 37.36511451 109.60468838 37.37548723 105.01203918 37.38545227 C103.43005099 37.38950032 101.84806297 37.39361726 100.26607513 37.39780235 C92.83315151 37.41685174 85.4002378 37.43108308 77.96729445 37.43941432 C69.3920212 37.44918505 60.81700618 37.47550116 52.24182391 37.51591522 C45.61070881 37.54609276 38.97966766 37.56088476 32.34848523 37.56419533 C28.3894055 37.56654405 24.43060173 37.57548079 20.47159576 37.60065651 C16.74507762 37.62397106 13.01901646 37.62815717 9.29244423 37.61789513 C7.27917183 37.61716528 5.26592246 37.63623287 3.25274658 37.65596008 C-3.59935113 37.61658956 -8.14285061 37.36420029 -13.65983582 33.14717102 C-17.82233703 28.75966974 -19.72893634 24.78819404 -20.03483582 18.77217102 C-19.87389735 13.06358899 -17.92758837 9.43038552 -13.94108582 5.41670227 C-9.34723817 1.31922376 -6.23751137 0.02596454 0 0 Z " fill="#FEFEFE" transform="translate(912.6598358154297,1300.8528289794922)"/>
<path d="M0 0 C45.76190476 0 45.76190476 0 55.125 8.9375 C61.9614204 17.21943217 60.83469708 28.88543535 60 39 C58.68622462 45.68688066 55.90209024 49.83721252 50.5859375 54.0390625 C49 55 49 55 47 55 C47.268125 55.73476563 47.53625 56.46953125 47.8125 57.2265625 C51.04931517 66.48981643 53.66830129 75.89520575 56.1875 85.375 C56.36144287 86.02752747 56.53538574 86.68005493 56.71459961 87.35235596 C58.62852864 94.54853961 60.38357405 101.72608321 62 109 C55.4 109 48.8 109 42 109 C38.38667776 98.16003328 35.45228658 87.20625478 32.6875 76.125 C32.50501709 75.39651855 32.32253418 74.66803711 32.13452148 73.91748047 C29 61.37657445 29 61.37657445 29 59 C26.03 59 23.06 59 20 59 C20 75.5 20 92 20 109 C13.4 109 6.8 109 0 109 C0 73.03 0 37.06 0 0 Z " fill="#FDFDFE" transform="translate(838,308)"/>
<path d="M0 0 C4.62 0 9.24 0 14 0 C19.31414819 11.24039722 24.34076496 22.57781605 29.25 34 C29.96333822 35.65503562 30.67687904 37.30998393 31.390625 38.96484375 C34.26838214 45.63983449 37.13663633 52.31881809 40 59 C40.33 39.53 40.66 20.06 41 0 C46.61 0 52.22 0 58 0 C58 36.3 58 72.6 58 110 C53.38 110 48.76 110 44 110 C38.77306694 98.9986319 34.11370944 87.79385374 29.48461914 76.53076172 C28.17562626 73.34611238 26.86255196 70.16316904 25.54882812 66.98046875 C24.7133072 64.95322162 23.87801234 62.9258813 23.04296875 60.8984375 C22.65135056 59.94850922 22.25973236 58.99858093 21.85624695 58.01986694 C21.49529434 57.14109894 21.13434174 56.26233093 20.76245117 55.35693359 C20.44523605 54.58562103 20.12802094 53.81430847 19.80119324 53.0196228 C19.14568135 51.36722899 18.56214777 49.6864433 18 48 C17.67 68.46 17.34 88.92 17 110 C11.39 110 5.78 110 0 110 C0 73.7 0 37.4 0 0 Z " fill="#F8FBFC" transform="translate(546,307)"/>
<path d="M0 0 C4.62 0 9.24 0 14 0 C17.35033255 6.58060388 20.46903634 13.19296162 23.35546875 19.98828125 C23.74317947 20.89450729 24.1308902 21.80073334 24.53034973 22.73442078 C25.75225517 25.59257087 26.96987665 28.45252347 28.1875 31.3125 C29.01470694 33.24816101 29.84217874 35.18370885 30.66992188 37.11914062 C32.18145835 40.65730901 33.69283606 44.19554148 35.19995117 47.7355957 C35.50019699 48.44045609 35.80044281 49.14531647 36.10978699 49.87153625 C37.09912737 52.23700959 38.04774254 54.61935634 39 57 C39.33 38.19 39.66 19.38 40 0 C45.61 0 51.22 0 57 0 C57 35.97 57 71.94 57 109 C52.71 109 48.42 109 44 109 C38.7853421 99.13050831 34.67685842 88.81332481 30.4375 78.5 C29.67545634 76.6548132 28.9130889 74.80976007 28.15039062 72.96484375 C24.72155092 64.66053332 21.33688957 56.34222393 18 48 C17.67 68.46 17.34 88.92 17 110 C11.39 110 5.78 110 0 110 C0 73.7 0 37.4 0 0 Z " fill="#FBFDFD" transform="translate(513,487)"/>
<path d="M0 0 C4.62 0 9.24 0 14 0 C19.34095778 10.41935877 24.11941697 20.97277167 28.6875 31.75 C29.34403153 33.28791821 30.00093128 34.82567929 30.65820312 36.36328125 C31.29721433 37.86183451 31.9358978 39.36052759 32.57421875 40.859375 C33.002472 41.86445099 33.002472 41.86445099 33.43937683 42.88983154 C35.70315776 48.23303334 37.8434422 53.6086055 40 59 C40.33 39.53 40.66 20.06 41 0 C46.28 0 51.56 0 57 0 C57 35.97 57 71.94 57 109 C52.71 109 48.42 109 44 109 C41.0824846 103.3168343 38.49032416 97.58054096 36.06640625 91.671875 C35.52668434 90.36648773 35.52668434 90.36648773 34.97605896 89.034729 C33.83543383 86.27428734 32.69886546 83.51219754 31.5625 80.75 C30.8043121 78.91264665 30.04585076 77.07540611 29.28710938 75.23828125 C28.20904904 72.62773209 27.13134023 70.01704562 26.05580139 67.40545654 C23.38853469 60.92924609 20.69391642 54.46539941 18 48 C17.67 68.46 17.34 88.92 17 110 C11.39 110 5.78 110 0 110 C0 73.7 0 37.4 0 0 Z " fill="#FDFEFE" transform="translate(1027,487)"/>
<path d="M0 0 C4.62 0 9.24 0 14 0 C17.33854926 6.55757744 20.44721232 13.14513083 23.3203125 19.91796875 C23.70565155 20.81945145 24.0909906 21.72093414 24.48800659 22.6497345 C25.70321444 25.4944389 26.91419361 28.34091982 28.125 31.1875 C28.94372748 33.10624054 29.76273569 35.02486133 30.58203125 36.94335938 C32.38712364 41.17148121 34.18955759 45.40072436 35.98953247 49.63102722 C37.32235061 52.75572921 38.6618238 55.87758888 40 59 C40.33 39.53 40.66 20.06 41 0 C46.28 0 51.56 0 57 0 C57 35.97 57 71.94 57 109 C52.71 109 48.42 109 44 109 C38.7853421 99.13050831 34.67685842 88.81332481 30.4375 78.5 C29.67545634 76.6548132 28.9130889 74.80976007 28.15039062 72.96484375 C24.72155092 64.66053332 21.33688957 56.34222393 18 48 C17.67 68.13 17.34 88.26 17 109 C11.39 109 5.78 109 0 109 C0 73.03 0 37.06 0 0 Z " fill="#FEFEFE" transform="translate(984,308)"/>
<path d="M0 0 C6.6 0 13.2 0 20 0 C20.01458252 2.53824463 20.02916504 5.07648926 20.04418945 7.69165039 C20.0945865 16.08961753 20.16119069 24.48740024 20.23571491 32.8851862 C20.28039155 37.97544323 20.31965373 43.06562072 20.34643555 48.15600586 C20.37249539 53.07096568 20.41291699 57.98561898 20.46318626 62.90038872 C20.47983681 64.77296567 20.49136236 66.64559562 20.49761391 68.51823616 C20.50727471 71.14667821 20.53535738 73.77433929 20.56762695 76.40258789 C20.56547432 77.55705666 20.56547432 77.55705666 20.5632782 78.73484802 C20.6638457 84.54861895 21.70073711 89.54216726 25.8125 93.9375 C28.77831429 95.37803837 30.73475127 95.39982638 34 95 C37.36526752 93.62329965 38.6623939 92.77757977 40.12069702 89.41879272 C41.15863742 85.38320639 41.30742864 81.56119605 41.31884766 77.42431641 C41.33391609 76.16479156 41.33391609 76.16479156 41.34928894 74.87982178 C41.38003664 72.12040861 41.3971326 69.3610921 41.4140625 66.6015625 C41.43278092 64.68198825 41.45235484 62.76242218 41.4727478 60.84286499 C41.52400377 55.80251895 41.56366448 50.76214626 41.60089111 45.72167969 C41.64097174 40.57350098 41.69204556 35.42543255 41.7421875 30.27734375 C41.83886948 20.18496571 41.92228244 10.09254191 42 0 C48.6 0 55.2 0 62 0 C62.04527836 10.79680012 62.08193203 21.59353664 62.10362434 32.39041042 C62.11403828 37.404434 62.12815368 42.41838895 62.15087891 47.43237305 C62.1726927 52.27586093 62.18458659 57.11928301 62.18975449 61.96281624 C62.19343496 63.80587868 62.20062183 65.64893773 62.21146011 67.49197197 C62.22608864 70.08383699 62.22797323 72.67543398 62.22705078 75.26733398 C62.23424133 76.02043854 62.24143188 76.77354309 62.24884033 77.54946899 C62.21033657 87.6211652 59.72698399 97.71690025 52.875 105.375 C42.31932749 111.34124968 31.62967437 112.67363382 19.77734375 110.375 C11.69086937 107.88343155 7.71413203 103.11799342 3.1875 96.25 C-0.81716262 85.28987071 -0.26608158 73.59623449 -0.1953125 62.109375 C-0.19157434 60.31048745 -0.18873117 58.51159785 -0.18673706 56.71270752 C-0.17916374 52.01758023 -0.15957068 47.32258009 -0.1373291 42.62750244 C-0.1167336 37.8206962 -0.10770627 33.01386906 -0.09765625 28.20703125 C-0.07631776 18.80462314 -0.04118832 9.40234212 0 0 Z " fill="#FAFCFD" transform="translate(790,487)"/>
<path d="M0 0 C5.8301943 5.0351678 9.98884935 11.59857749 10.75 19.375 C10.89169125 24.05587181 10.84011002 28.68927905 10.75 33.375 C4.15 33.375 -2.45 33.375 -9.25 33.375 C-9.625 26.1875 -9.625 26.1875 -9.72802734 23.95239258 C-9.96058919 20.0561924 -10.47357407 16.86278131 -12.25 13.375 C-15.60763921 10.76350284 -19.14180455 11.08155747 -23.25 11.375 C-25.56749122 11.78369252 -25.56749122 11.78369252 -27.25 13.375 C-31.04323193 19.950325 -30.68463966 26.42689319 -30.6484375 33.8671875 C-30.65130768 35.1677005 -30.65417786 36.4682135 -30.65713501 37.80813599 C-30.66154113 40.55335252 -30.65518528 43.29827489 -30.64111328 46.04345703 C-30.62405583 49.53901656 -30.63385087 53.03388311 -30.65183067 56.52941704 C-30.6653668 59.89206057 -30.65584786 63.25452437 -30.6484375 66.6171875 C-30.65451019 67.86120331 -30.66058289 69.10521912 -30.6668396 70.38693237 C-30.61321923 77.06629499 -30.3625357 83.32795974 -27.25 89.375 C-24.49805304 91.82943918 -22.88519503 92.29560062 -19.25 92.75 C-15.69642599 92.30580325 -14.00088844 91.67979842 -11.25 89.375 C-8.22913203 83.71639854 -7.73150139 78.78712347 -7.5625 72.4375 C-7.52833984 71.56287109 -7.49417969 70.68824219 -7.45898438 69.78710938 C-7.37724343 67.65016746 -7.3119287 65.51260782 -7.25 63.375 C-11.21 63.375 -15.17 63.375 -19.25 63.375 C-19.25 59.085 -19.25 54.795 -19.25 50.375 C-9.35 50.375 0.55 50.375 10.75 50.375 C10.75 68.855 10.75 87.335 10.75 106.375 C6.46 106.375 2.17 106.375 -2.25 106.375 C-2.91 103.735 -3.57 101.095 -4.25 98.375 C-4.69730469 98.92929687 -5.14460938 99.48359375 -5.60546875 100.0546875 C-6.51232422 101.14136719 -6.51232422 101.14136719 -7.4375 102.25 C-8.02917969 102.96929687 -8.62085938 103.68859375 -9.23046875 104.4296875 C-13.0377465 108.09704595 -16.84390897 108.66703932 -22 108.6875 C-30.66508591 108.4963584 -37.06549607 106.54396477 -43.45703125 100.53515625 C-49.41454773 93.35758193 -51.35921713 84.77195027 -51.39526367 75.63598633 C-51.40164352 74.53076126 -51.40802338 73.42553619 -51.41459656 72.28681946 C-51.41570938 71.10548935 -51.4168222 69.92415924 -51.41796875 68.70703125 C-51.42129715 67.47643478 -51.42462555 66.24583832 -51.42805481 64.97795105 C-51.43311077 62.37649915 -51.43546355 59.77504079 -51.43530273 57.17358398 C-51.43748257 53.21912773 -51.45563453 49.26495357 -51.47460938 45.31054688 C-51.477545 42.77604261 -51.47952866 40.24153704 -51.48046875 37.70703125 C-51.48765427 36.5358223 -51.49483978 35.36461334 -51.50224304 34.15791321 C-51.47258324 23.35121301 -51.02472725 11.88302595 -43.52734375 3.43359375 C-31.62314872 -7.90260788 -14.06109352 -7.03054676 0 0 Z " fill="#FBFCFD" transform="translate(1104.25,310.625)"/>
<path d="M0 0 C42.33333333 0 42.33333333 0 51.8125 5.6875 C60.28108726 14.64000654 60.45514548 24.40243357 60.26953125 36.05078125 C59.96885622 43.9616451 58.03469535 49.38662786 52.3125 54.9375 C42.35708144 62.62620213 34.41973984 61 21 61 C21 77.17 21 93.34 21 110 C14.07 110 7.14 110 0 110 C0 73.7 0 37.4 0 0 Z " fill="#F8FAFC" transform="translate(478,128)"/>
<path d="M0 0 C6.27 0 12.54 0 19 0 C19.0093457 2.527771 19.01869141 5.05554199 19.02832031 7.65991211 C19.06216512 16.03394219 19.11775575 24.40772778 19.18390274 32.78156185 C19.22332555 37.85609625 19.25553952 42.93045847 19.27099609 48.00512695 C19.28619689 52.90719102 19.32070315 57.80878155 19.36830902 62.71063423 C19.38308756 64.57597285 19.39103898 66.44137908 19.39188385 68.30677605 C19.16957528 81.72709192 19.16957528 81.72709192 24 94 C27.46154802 95.73077401 31.21492365 95.47229117 35 95 C39.25444593 92.27279107 39.86875441 88.75824257 41 84 C41.27878733 81.16249937 41.3107506 78.34420787 41.31884766 75.49438477 C41.33391609 74.2639016 41.33391609 74.2639016 41.34928894 73.00856018 C41.37997495 70.31951546 41.39711522 67.63056963 41.4140625 64.94140625 C41.4327859 63.06810158 41.45236018 61.19480524 41.4727478 59.32151794 C41.5239512 54.4077751 41.56363989 49.49400494 41.60089111 44.58013916 C41.64100487 39.55921743 41.69206351 34.53840814 41.7421875 29.51757812 C41.83880716 19.67845677 41.92224405 9.83928853 42 0 C48.27 0 54.54 0 61 0 C61.06801465 10.87536777 61.1229533 21.75059224 61.15543652 32.62612534 C61.17103372 37.67710071 61.19216233 42.72792192 61.22631836 47.77880859 C61.25912517 52.66122179 61.27689763 57.54348751 61.28463173 62.4260025 C61.29013721 64.28055388 61.30088712 66.13509799 61.31719017 67.98958588 C61.55278404 95.92186068 61.55278404 95.92186068 53 105 C45.76723051 110.1755059 39.48469955 111.19626058 30.8125 111.25 C29.99974609 111.270625 29.18699219 111.29125 28.34960938 111.3125 C20.76568196 111.36076684 13.12990566 109.95139683 7.34765625 104.65234375 C1.11967547 97.01629775 -0.15619033 88.90581645 -0.11352539 79.35424805 C-0.11367142 78.4952037 -0.11381744 77.63615936 -0.1139679 76.75108337 C-0.11327312 73.92126918 -0.10550111 71.0915214 -0.09765625 68.26171875 C-0.09579052 66.29588354 -0.09436735 64.33004787 -0.09336853 62.36421204 C-0.08955553 57.19720164 -0.07973562 52.03021948 -0.06866455 46.86322021 C-0.05842427 41.58785382 -0.0538653 36.31248285 -0.04882812 31.03710938 C-0.03811226 20.69139187 -0.02052531 10.3457027 0 0 Z " fill="#FDFEFE" transform="translate(891,128)"/>
<path d="M0 0 C7.26 0 14.52 0 22 0 C22.66386719 3.3309375 23.32773437 6.661875 24.01171875 10.09375 C24.67350388 13.41053031 25.33563796 16.72724078 25.99780273 20.04394531 C26.44901155 22.30494072 26.89987199 24.56600568 27.3503418 26.82714844 C29.71740542 38.70742753 32.10793659 50.58143928 34.59375 62.4375 C36.76036076 72.7742521 38.81535584 83.12932718 40.8125 93.5 C41.12679623 95.12503035 41.44124937 96.75003037 41.75585938 98.375 C42.50597366 102.24960608 43.25294711 106.12479767 44 110 C37.73 110 31.46 110 25 110 C24.34 107.03 23.68 104.06 23 101 C22.79117188 100.14148438 22.58234375 99.28296875 22.3671875 98.3984375 C22.20476563 97.73070312 22.04234375 97.06296875 21.875 96.375 C21.70742188 95.70210938 21.53984375 95.02921875 21.3671875 94.3359375 C20.88357364 91.25933016 21 88.11438518 21 85 C14.73 85.33 8.46 85.66 2 86 C0.68 93.92 -0.64 101.84 -2 110 C-8.27 110 -14.54 110 -21 110 C-20.38464134 101.39455803 -18.9918456 93.1396364 -17.26953125 84.69140625 C-16.99341661 83.31698066 -16.71776728 81.94246152 -16.44255066 80.56785583 C-15.86520148 77.69026688 -15.28412091 74.81346783 -14.69995117 71.93725586 C-13.9699803 68.34304501 -13.24637945 64.74759458 -12.52530098 61.15159035 C-9.41966704 45.66839416 -6.23227137 30.20605433 -2.87471008 14.77528381 C-2.64237167 13.70467209 -2.41003326 12.63406036 -2.1706543 11.53100586 C-1.96788376 10.60299667 -1.76511322 9.67498749 -1.55619812 8.71885681 C-0.96451538 5.82654093 -0.48534133 2.91204798 0 0 Z " fill="#FCFDFD" transform="translate(617,128)"/>
<path d="M0 0 C6.93 0 13.86 0 21 0 C25.60978785 21.19728586 29.98464636 42.43873068 34.28857422 63.69995117 C35.20675524 68.23506441 36.12913549 72.76931338 37.05245018 77.30338383 C37.76988711 80.82960483 38.48468717 84.35635643 39.19871902 87.88326836 C39.53828523 89.55842411 39.87878721 91.23339046 40.22025681 92.90815926 C40.69175777 95.22215866 41.15958571 97.53687097 41.62646484 99.85180664 C41.76665039 100.5357399 41.90683594 101.21967316 42.05126953 101.92433167 C42.60361487 104.67991971 43 107.17987797 43 110 C36.73 110 30.46 110 24 110 C23.525625 107.545625 23.05125 105.09125 22.5625 102.5625 C22.41498291 101.80912354 22.26746582 101.05574707 22.11547852 100.27954102 C21.1424082 95.16451575 20.57933782 90.21404042 20 85 C13.73 85 7.46 85 1 85 C0.42673566 89.85963201 0.42673566 89.85963201 -0.13623047 94.72045898 C-0.77380095 99.96727315 -1.83923008 104.77653537 -3 110 C-9.27 110 -15.54 110 -22 110 C-20.63163214 100.76351693 -19.0391028 91.6012401 -17.25 82.4375 C-17.11994568 81.76848663 -16.98989136 81.09947327 -16.855896 80.41018677 C-14.59607388 68.79862765 -12.1658863 57.22817536 -9.65625 45.66796875 C-7.60342276 36.20428197 -5.6163367 26.72678087 -3.625 17.25 C-3.26319665 15.52921275 -2.90138056 13.80842818 -2.53955078 12.08764648 C-1.6924205 8.05855945 -0.84623383 4.02927579 0 0 Z " fill="#FCFDFD" transform="translate(495,307)"/>
<path d="M0 0 C5.66240437 6.05745584 8.83582846 12.54913299 8.78515625 20.859375 C8.78193359 21.79394531 8.77871094 22.72851562 8.77539062 23.69140625 C8.76282227 25.14353516 8.76282227 25.14353516 8.75 26.625 C8.74548828 27.60855469 8.74097656 28.59210938 8.73632812 29.60546875 C8.724565 32.02867194 8.70663018 34.45184377 8.6875 36.875 C2.4175 36.875 -3.8525 36.875 -10.3125 36.875 C-10.6875 28.25 -10.6875 28.25 -10.79052734 25.56787109 C-11.01632613 21.028396 -11.51090047 17.11405772 -13.3125 12.875 C-16.21453179 10.41943464 -19.73914282 10.46484118 -23.41015625 10.546875 C-26.34331731 11.05280011 -27.59502329 12.53923168 -29.3125 14.875 C-30.71528847 17.68057694 -30.45528171 20.018864 -30.47363281 23.15722656 C-30.47859772 23.80137009 -30.48356262 24.44551361 -30.48867798 25.10917664 C-30.50330671 27.24467024 -30.51010396 29.38008947 -30.515625 31.515625 C-30.5213774 33.00054934 -30.52713513 34.48547365 -30.53289795 35.97039795 C-30.54341101 39.08752794 -30.54925116 42.20463212 -30.55273438 45.32177734 C-30.55820922 49.30756526 -30.58221397 53.29300986 -30.61070633 57.27869034 C-30.62937511 60.34827656 -30.63454063 63.41778094 -30.63607025 66.48741913 C-30.63908952 67.95617289 -30.64709351 69.42492546 -30.66025543 70.89362335 C-30.67739977 72.95440859 -30.67541553 75.01436678 -30.66894531 77.07519531 C-30.67259094 78.24608704 -30.67623657 79.41697876 -30.67999268 80.62335205 C-30.24505039 84.47180746 -29.12486314 88.06263686 -26.3125 90.875 C-21.70497096 91.38694767 -17.6586453 91.79431874 -13.75 89.125 C-11.57515512 85.72089497 -11.19529399 82.53087984 -10.99609375 78.546875 C-10.95798584 77.8259668 -10.91987793 77.10505859 -10.88061523 76.36230469 C-10.83751221 75.45899414 -10.79440918 74.55568359 -10.75 73.625 C-10.605625 70.7375 -10.46125 67.85 -10.3125 64.875 C-4.0425 64.875 2.2275 64.875 8.6875 64.875 C9.27070775 90.7305436 9.27070775 90.7305436 1.6875 99.875 C-4.89350713 106.10027701 -11.39277931 107.4169347 -20.125 107.3125 C-21.0121167 107.30420166 -21.8992334 107.29590332 -22.81323242 107.28735352 C-31.36271569 107.06648335 -37.67827149 105.49823311 -44.1875 99.75 C-50.66162983 92.64983403 -52.3971864 83.32046756 -52.48950195 73.98413086 C-52.50233719 72.84531967 -52.51517242 71.70650848 -52.52839661 70.53318787 C-52.53578354 69.31438431 -52.54317047 68.09558075 -52.55078125 66.83984375 C-52.558853 65.56959854 -52.56692474 64.29935333 -52.57524109 62.99061584 C-52.5890539 60.30335881 -52.6000773 57.61622318 -52.60766602 54.92895508 C-52.61867686 51.52226136 -52.65303439 48.11623043 -52.69283772 44.70976925 C-52.72561888 41.41986166 -52.72980941 38.12988968 -52.73828125 34.83984375 C-52.75578934 33.63520981 -52.77329742 32.43057587 -52.79133606 31.18943787 C-52.76399533 20.34053339 -51.11517882 9.48232744 -43.24609375 1.4609375 C-31.64749713 -8.05225488 -12.35941016 -7.92867822 0 0 Z " fill="#F9FBFC" transform="translate(1168.3125,132.125)"/>
<path d="M0 0 C5.5485948 4.66586381 8.18439079 10.28841542 9.75 17.3125 C9.97356294 20.79833535 9.93983401 24.25900399 9.875 27.75 C9.83375 30.905625 9.7925 34.06125 9.75 37.3125 C3.15 37.3125 -3.45 37.3125 -10.25 37.3125 C-10.31058594 35.75917969 -10.37117187 34.20585937 -10.43359375 32.60546875 C-10.51800154 30.57030305 -10.60264943 28.53514729 -10.6875 26.5 C-10.72681641 25.47583984 -10.76613281 24.45167969 -10.80664062 23.39648438 C-10.84853516 22.41357422 -10.89042969 21.43066406 -10.93359375 20.41796875 C-10.98858032 19.05901489 -10.98858032 19.05901489 -11.04467773 17.67260742 C-11.1708205 15.16201218 -11.1708205 15.16201218 -12.25 12.3125 C-15.88216706 10.71434649 -20.37043723 10.61972093 -24.25 11.3125 C-27.76532563 14.00508984 -29.50330654 15.99240704 -30.25 20.3125 C-30.34624098 22.29162876 -30.38809543 24.27367254 -30.39526367 26.25512695 C-30.40164352 27.45349686 -30.40802338 28.65186676 -30.41459656 29.8865509 C-30.41570938 31.17824692 -30.4168222 32.46994293 -30.41796875 33.80078125 C-30.42118455 35.14593033 -30.42454887 36.49107906 -30.42805481 37.83622742 C-30.43403693 40.65474253 -30.43589571 43.47322703 -30.43530273 46.29174805 C-30.43520129 49.88944433 -30.44883877 53.48694246 -30.46607494 57.08459187 C-30.47723842 59.86340726 -30.47922059 62.64217546 -30.47869301 65.42101097 C-30.48043519 67.38789204 -30.49125005 69.35475838 -30.50224304 71.3216095 C-30.66276868 81.24834999 -30.66276868 81.24834999 -26.9375 90.2265625 C-24.63351927 91.70921677 -22.97382369 91.71181985 -20.25 91.6875 C-19.38375 91.69523437 -18.5175 91.70296875 -17.625 91.7109375 C-14.8175499 91.23995081 -13.97697012 90.52518047 -12.25 88.3125 C-11.04729036 85.90708071 -11.04683337 84.20883409 -10.93359375 81.5234375 C-10.87075195 80.11191406 -10.87075195 80.11191406 -10.80664062 78.671875 C-10.76732422 77.68703125 -10.72800781 76.7021875 -10.6875 75.6875 C-10.64431641 74.69492188 -10.60113281 73.70234375 -10.55664062 72.6796875 C-10.45039053 70.22412967 -10.34967545 67.76833349 -10.25 65.3125 C-3.65 65.3125 2.95 65.3125 9.75 65.3125 C10.32242254 90.88070693 10.32242254 90.88070693 1.75 101.3125 C-7.98444744 109.01893756 -19.36390162 108.41310722 -31.25 107.3125 C-38.03618936 105.66387773 -42.24251209 102.11879535 -46.0703125 96.35546875 C-51.57848622 86.81647916 -51.41578028 77.82907879 -51.453125 67.109375 C-51.45882507 65.83580139 -51.46452515 64.56222778 -51.47039795 63.25006104 C-51.47982384 60.56038857 -51.48673318 57.87082699 -51.49023438 55.18115234 C-51.49570568 51.76432419 -51.5197251 48.34789717 -51.54820633 44.93119431 C-51.57150819 41.63645254 -51.57329352 38.34168756 -51.578125 35.046875 C-51.5904718 33.83505554 -51.6028186 32.62323608 -51.61553955 31.37469482 C-51.58786427 20.69779455 -50.3387775 10.7669221 -42.75390625 2.7265625 C-31.23234958 -8.18299463 -13.2640018 -6.88707786 0 0 Z " fill="#FAFCFD" transform="translate(718.25,131.6875)"/>
<path d="M0 0 C6.23481811 4.50362113 8.81736104 9.48201748 10.625 16.8125 C11.98924442 26.03912634 11.86656305 35.44292238 11.875 44.75 C11.87600708 45.52163483 11.87701416 46.29326965 11.87805176 47.08828735 C11.86994527 56.28522228 11.73110886 65.38383551 10.375 74.5 C10.26575195 75.25079834 10.15650391 76.00159668 10.04394531 76.77514648 C8.59472745 84.99974312 5.42379526 90.9351034 -1.375 95.8125 C-5.79877694 98.02438847 -11.55962107 97.21819127 -16.375 96.8125 C-22.80607094 94.0062145 -26.82688522 88.48789482 -29.5065918 82.12597656 C-33.58006159 69.01409372 -33.08201159 55.50886848 -33.05767822 41.89868164 C-33.06413532 39.18866283 -33.11128123 36.47989366 -33.15716839 33.77030277 C-33.20317559 30.50448724 -33.19813769 27.23874802 -33.19921875 23.97265625 C-33.22279953 22.77044937 -33.24638031 21.56824249 -33.27067566 20.3296051 C-33.19381217 13.30126908 -32.29098346 9.35777329 -27.23738098 4.33787537 C-19.62267501 -1.89891777 -9.04467377 -5.40309163 0 0 Z " fill="#03699E" transform="translate(299.375,281.1875)"/>
<path d="M0 0 C0.80308594 -0.02835937 1.60617187 -0.05671875 2.43359375 -0.0859375 C10.10842075 -0.11081538 14.85727583 2.91733774 20.25 8.1875 C25.4080967 15.00667869 27.0416687 22.1041352 26.5 30.5 C20.73918159 31.7982126 15.41260345 32.75706972 9.5 32.5 C9.31824219 31.59636719 9.13648438 30.69273437 8.94921875 29.76171875 C8.69785156 28.58222656 8.44648437 27.40273438 8.1875 26.1875 C7.94386719 25.01574219 7.70023438 23.84398437 7.44921875 22.63671875 C6.32404678 18.91384181 6.32404678 18.91384181 3.5 16.5 C0.42954376 15.82144614 -2.41450627 15.92634322 -5.5 16.5 C-8.32967606 18.63951117 -9.26115227 20.13228245 -9.87109375 23.625 C-10.17771751 29.12564443 -9.14165577 32.23659813 -5.5 36.5 C-0.97138995 41.43261468 3.82419493 45.83118221 9.0625 50 C18.22641945 57.39521891 24.74154218 65.22462654 28.5 76.5 C29.19602046 87.39671381 29.59407554 95.60159674 22.125 104.25 C14.10104831 111.12767288 7.7581643 113.07996078 -2.69140625 112.8203125 C-9.8376016 112.21929915 -16.43799669 109.70663197 -21.5 104.5 C-27.58399628 96.21011034 -28.87740261 88.62539967 -29.5 78.5 C-27.43918639 77.99309416 -25.37626474 77.49475381 -23.3125 77 C-22.16394531 76.7215625 -21.01539063 76.443125 -19.83203125 76.15625 C-16.93181171 75.58504615 -14.43903615 75.36716221 -11.5 75.5 C-11.31824219 76.45261719 -11.13648438 77.40523437 -10.94921875 78.38671875 C-10.69785156 79.64097656 -10.44648437 80.89523437 -10.1875 82.1875 C-9.82205078 84.04955078 -9.82205078 84.04955078 -9.44921875 85.94921875 C-8.54479802 89.33242221 -7.53903364 91.67470661 -5.5 94.5 C-2.32459056 96.08770472 1.04190559 95.91100302 4.5 95.5 C6.67476401 93.95661909 7.31832637 92.86334727 8.5 90.5 C9.32791665 83.95810123 8.33282023 78.8763073 4.5 73.5 C-0.66473906 67.51018852 -6.72076981 62.63425289 -12.85546875 57.68359375 C-20.78345356 51.13744381 -27.92201965 44.07246833 -29.5 33.5 C-30.16128287 25.22854383 -29.99933121 17.6913468 -25.5 10.5 C-18.54651556 2.36196179 -10.41307626 -0.03342882 0 0 Z " fill="#FAFCFD" transform="translate(1124.5,485.5)"/>
<path d="M0 0 C7.18789215 5.83193447 9.63763017 13.13160729 10.6875 22.0625 C10.8421875 24.0115625 10.8421875 24.0115625 11 26 C9.10614563 26.50744423 7.20981334 27.00564574 5.3125 27.5 C3.72888672 27.91765625 3.72888672 27.91765625 2.11328125 28.34375 C-0.71142672 28.9391715 -3.12836708 29.12786492 -6 29 C-6.18175781 28.09636719 -6.36351562 27.19273437 -6.55078125 26.26171875 C-6.80214844 25.08222656 -7.05351563 23.90273438 -7.3125 22.6875 C-7.55613281 21.51574219 -7.79976562 20.34398437 -8.05078125 19.13671875 C-9.17456747 15.41248099 -9.17456747 15.41248099 -12 13 C-16.16013014 12.14958666 -19.85451454 12.3574106 -23.5625 14.4375 C-26.0577413 18.88553885 -25.75949083 23.19737188 -24.4453125 28.046875 C-21.71738431 34.54194212 -16.28951777 38.59073481 -11 43 C11.84580048 62.55195124 11.84580048 62.55195124 13.3359375 77.33203125 C13.45054066 87.54317299 11.74642187 94.85316075 4.77734375 102.49609375 C-1.92851039 108.17027803 -10.35508302 109.36391382 -18.828125 109.28125 C-25.22658853 108.71389855 -31.86566657 106.16256799 -36.62109375 101.71875 C-43.11319745 93.62660941 -44.96716155 85.17991953 -45 75 C-43.10614563 74.49255577 -41.20981334 73.99435426 -39.3125 73.5 C-38.25675781 73.2215625 -37.20101562 72.943125 -36.11328125 72.65625 C-33.28857328 72.0608285 -30.87163292 71.87213508 -28 72 C-27.82984375 72.86882812 -27.6596875 73.73765625 -27.484375 74.6328125 C-25.69171328 83.49012511 -25.69171328 83.49012511 -21 91 C-17.90826248 92.54586876 -15.40570448 92.29359521 -12 92 C-9.23862957 89.90805271 -8.14216278 88.68630306 -7.43359375 85.265625 C-7.43488281 84.27046875 -7.43617188 83.2753125 -7.4375 82.25 C-7.41558594 81.26515625 -7.39367187 80.2803125 -7.37109375 79.265625 C-8.8458663 71.60779982 -14.15689083 66.43829759 -19.8125 61.4375 C-20.43125 60.87595215 -21.05 60.3144043 -21.6875 59.73583984 C-24.91625313 56.81591661 -28.19431732 53.95752888 -31.5 51.125 C-38.84447794 44.7221218 -44.58512152 38.03458574 -45.41796875 27.99609375 C-45.82791604 19.52794301 -45.51393525 11.88908133 -40 5 C-29.32875244 -5.64849436 -13.14107473 -7.45220692 0 0 Z " fill="#FAFCFD" transform="translate(762,310)"/>
<path d="M0 0 C1.36125 0.804375 1.36125 0.804375 2.75 1.625 C9.38493894 8.62854666 11.15456411 16.72615347 11 26 C9.10614563 26.50744423 7.20981334 27.00564574 5.3125 27.5 C3.72888672 27.91765625 3.72888672 27.91765625 2.11328125 28.34375 C-0.71142672 28.9391715 -3.12836708 29.12786492 -6 29 C-6.12117187 28.25234375 -6.24234375 27.5046875 -6.3671875 26.734375 C-6.61855469 25.25710937 -6.61855469 25.25710937 -6.875 23.75 C-7.03742187 22.77546875 -7.19984375 21.8009375 -7.3671875 20.796875 C-8.36933608 16.3676257 -9.1679768 14.55468213 -13 12 C-16.90831419 11.66737752 -19.71326332 11.76971439 -23 14 C-25.49573286 17.7435993 -25.62206959 20.66602065 -25 25 C-22.83900614 31.21852975 -19.13103669 35.30660143 -14.25 39.5625 C-13.31510742 40.40482178 -13.31510742 40.40482178 -12.36132812 41.26416016 C-9.11339884 44.18003007 -5.8116635 47.03184704 -2.5 49.875 C5.32175788 56.71487764 12.49420573 65.23751104 13.515625 75.98046875 C13.93101658 84.72022487 13.20577871 93.29310723 7.1640625 100.0546875 C0.59052731 106.12450352 -5.07237074 108.49642384 -13.9375 108.3125 C-15.09668945 108.31733398 -15.09668945 108.31733398 -16.27929688 108.32226562 C-24.77778543 108.24324333 -30.65927226 106.32679705 -36.9140625 100.48828125 C-43.21511744 92.97185429 -45.18743831 83.55935389 -45 74 C-42.56318413 73.49645133 -40.12564561 72.99703244 -37.6875 72.5 C-36.99720703 72.35691406 -36.30691406 72.21382813 -35.59570312 72.06640625 C-32.67475227 71.47374956 -29.98891878 71 -27 71 C-26.89042969 71.79664063 -26.78085937 72.59328125 -26.66796875 73.4140625 C-25.34136444 82.95495821 -25.34136444 82.95495821 -20.1875 90.875 C-17.15998775 92.4320063 -15.36306604 92.54907201 -12 92 C-9.07085116 90.02600839 -7.37311164 88.52855415 -6.515625 85.015625 C-6.10125649 78.52385172 -8.28585264 73.23686721 -12 68 C-17.13091832 62.55938515 -22.99823592 57.992467 -28.8125 53.3125 C-37.00734573 46.64689186 -42.87849709 39.62771935 -45 29 C-45.7608076 19.70936876 -44.77152994 12.02158815 -38.75 4.6875 C-28.86946486 -5.79881847 -12.23751994 -7.64177009 0 0 Z " fill="#FBFCFD" transform="translate(1007,131)"/>
<path d="M0 0 C0.81662109 -0.01611328 1.63324219 -0.03222656 2.47460938 -0.04882812 C8.98799785 -0.05401808 14.59187418 0.95180693 19.859375 4.96875 C26.24852423 12.43330058 29.43131451 20.4569577 28.6875 30.3125 C26.98051718 30.65268163 25.27182867 30.9843089 23.5625 31.3125 C22.61117187 31.498125 21.65984375 31.68375 20.6796875 31.875 C17.63791204 32.31975046 14.75692607 32.38536471 11.6875 32.3125 C11.51734375 31.49265625 11.3471875 30.6728125 11.171875 29.828125 C10.92953125 28.75046875 10.6871875 27.6728125 10.4375 26.5625 C10.08945312 24.96148437 10.08945312 24.96148437 9.734375 23.328125 C8.57032285 19.97495985 7.50148213 18.44989626 4.6875 16.3125 C0.92767363 15.52589525 -2.68546974 16.10348991 -6.3125 17.3125 C-8.01485638 22.41956915 -8.42438834 27.58290526 -6.359375 32.65234375 C-2.30902724 39.27489511 3.63179666 43.61469114 9.6875 48.3125 C19.04395015 55.84880471 27.88534921 65.27558812 30.6875 77.3125 C31.73752716 87.19723844 30.83210175 95.7604718 24.5 103.625 C19.85844208 108.57205324 13.71675059 112.02230467 6.8671875 112.515625 C-2.85364107 112.65350909 -10.73203191 111.55859009 -18.453125 105.2890625 C-25.66130907 97.62658111 -27.27965626 88.49405848 -27.3125 78.3125 C-25.25168639 77.80559416 -23.18876474 77.30725381 -21.125 76.8125 C-19.97644531 76.5340625 -18.82789063 76.255625 -17.64453125 75.96875 C-14.74431171 75.39754615 -12.25153615 75.17966221 -9.3125 75.3125 C-9.20292969 76.10914063 -9.09335937 76.90578125 -8.98046875 77.7265625 C-7.82052195 85.91007744 -7.82052195 85.91007744 -4.3125 93.3125 C-0.63441167 95.76455889 2.4157314 96.12044014 6.6875 95.3125 C9.40311834 93.20789579 10.41248329 91.66662991 11.09765625 88.29296875 C11.5862049 81.1401154 8.67165459 75.89348551 4.18359375 70.5078125 C0.84376797 67.01507903 -2.86560773 64.02766288 -6.625 61 C-17.23011368 52.36419904 -26.00254121 44.78125396 -27.78125 30.56640625 C-28.10850354 22.4423371 -27.27822773 15.90163871 -22.3125 9.3125 C-15.52071508 1.9729905 -9.80906474 -0.03816757 0 0 Z " fill="#FBFCFD" transform="translate(608.3125,485.6875)"/>
<path d="M0 0 C15.18 0 30.36 0 46 0 C46 4.95 46 9.9 46 15 C37.42 15 28.84 15 20 15 C20 25.23 20 35.46 20 46 C26.93 46 33.86 46 41 46 C41 50.62 41 55.24 41 60 C34.07 60 27.14 60 20 60 C20 71.88 20 83.76 20 96 C28.91 96 37.82 96 47 96 C47 100.62 47 105.24 47 110 C31.49 110 15.98 110 0 110 C0 73.7 0 37.4 0 0 Z " fill="#FCFDFD" transform="translate(1188,128)"/>
<path d="M0 0 C15.18 0 30.36 0 46 0 C46 4.95 46 9.9 46 15 C37.42 15 28.84 15 20 15 C20 25.23 20 35.46 20 46 C26.93 46 33.86 46 41 46 C41 50.62 41 55.24 41 60 C34.07 60 27.14 60 20 60 C20 71.88 20 83.76 20 96 C28.91 96 37.82 96 47 96 C47 100.62 47 105.24 47 110 C31.49 110 15.98 110 0 110 C0 73.7 0 37.4 0 0 Z " fill="#FCFDFD" transform="translate(546,128)"/>
<path d="M0 0 C15.18 0 30.36 0 46 0 C46 4.95 46 9.9 46 15 C37.42 15 28.84 15 20 15 C20 25.23 20 35.46 20 46 C26.93 46 33.86 46 41 46 C41 50.62 41 55.24 41 60 C34.07 60 27.14 60 20 60 C20 71.88 20 83.76 20 96 C28.58 96 37.16 96 46 96 C46 100.62 46 105.24 46 110 C30.82 110 15.64 110 0 110 C0 73.7 0 37.4 0 0 Z " fill="#FCFDFE" transform="translate(739,128)"/>
<path d="M0 0 C18.48 0 36.96 0 56 0 C56 5.28 56 10.56 56 16 C50.39 16 44.78 16 39 16 C39 47.02 39 78.04 39 110 C32.07 110 25.14 110 18 110 C18 78.98 18 47.96 18 16 C12.06 16 6.12 16 0 16 C0 10.72 0 5.44 0 0 Z " fill="#F4F8FB" transform="translate(776,307)"/>
<path d="M0 0 C18.81 0 37.62 0 57 0 C57 4.95 57 9.9 57 15 C51.06 15 45.12 15 39 15 C39 46.35 39 77.7 39 110 C32.07 110 25.14 110 18 110 C18 78.65 18 47.3 18 15 C12.06 15 6.12 15 0 15 C0 10.05 0 5.1 0 0 Z " fill="#F6F9FB" transform="translate(857,487)"/>
<path d="M0 0 C18.81 0 37.62 0 57 0 C57 4.95 57 9.9 57 15 C51.06 15 45.12 15 39 15 C39 46.35 39 77.7 39 110 C32.07 110 25.14 110 18 110 C18 78.65 18 47.3 18 15 C12.06 15 6.12 15 0 15 C0 10.05 0 5.1 0 0 Z " fill="#F6F9FB" transform="translate(729,487)"/>
<path d="M0 0 C18.81 0 37.62 0 57 0 C57 4.95 57 9.9 57 15 C51.06 15 45.12 15 39 15 C39 46.35 39 77.7 39 110 C32.07 110 25.14 110 18 110 C18 78.65 18 47.3 18 15 C12.06 15 6.12 15 0 15 C0 10.05 0 5.1 0 0 Z " fill="#F6F9FB" transform="translate(640,487)"/>
<path d="M0 0 C18.81 0 37.62 0 57 0 C57 4.95 57 9.9 57 15 C51.06 15 45.12 15 39 15 C39 46.35 39 77.7 39 110 C32.4 110 25.8 110 19 110 C19 78.65 19 47.3 19 15 C12.73 15 6.46 15 0 15 C0 10.05 0 5.1 0 0 Z " fill="#FDFDFE" transform="translate(1021,128)"/>
<path d="M0 0 C0.7425 -0.02449219 1.485 -0.04898437 2.25 -0.07421875 C7.51613761 -0.10213114 10.42989321 0.94206726 14.625 4.375 C20.24536184 10.46372532 20.94666052 15.76397518 20.99609375 23.734375 C21.00963646 25.09009613 21.00963646 25.09009613 21.02345276 26.47320557 C21.03793201 28.38281964 21.04683621 30.29248306 21.05053711 32.20214844 C21.06240496 35.10177804 21.11158815 37.99925833 21.16210938 40.8984375 C21.17157813 42.76040636 21.178811 44.6223882 21.18359375 46.484375 C21.20312607 47.34093689 21.22265839 48.19749878 21.24278259 49.08001709 C21.19516266 55.53660141 19.38351211 60.12505977 15.625 65.375 C10.72541125 69.9688089 6.08627526 70.04729324 -0.3125 70 C-1.18068359 70.03222656 -2.04886719 70.06445312 -2.94335938 70.09765625 C-8.57954163 70.10617656 -11.74351618 69.0753859 -15.90454102 65.25146484 C-20.39498731 59.52116927 -20.82138335 54.6371506 -20.7734375 47.62890625 C-20.77774277 46.23489845 -20.77774277 46.23489845 -20.78213501 44.81272888 C-20.78417015 42.85358061 -20.7786789 40.89441177 -20.76611328 38.93530273 C-20.7500701 35.95054247 -20.76597141 32.96713997 -20.78515625 29.98242188 C-20.78317337 28.0729137 -20.77932875 26.16340637 -20.7734375 24.25390625 C-20.77951019 23.36828506 -20.78558289 22.48266388 -20.7918396 21.57020569 C-20.71441826 14.68485926 -19.5670311 9.90426665 -14.9375 4.5625 C-10.10641179 0.43840031 -6.27391223 0.01077992 0 0 Z " fill="#FCFDFD" transform="translate(394.375,1181.625)"/>
<path d="M0 0 C6.93 0 13.86 0 21 0 C21.09055379 12.08335886 21.1638618 24.16649044 21.20724869 36.25011253 C21.2280776 41.86169469 21.25630944 47.47303161 21.30175781 53.08447266 C21.34538299 58.50504576 21.3691724 63.92538374 21.37950897 69.34611893 C21.38687046 71.4088778 21.40124547 73.47162455 21.42292023 75.53428268 C21.4521758 78.43507939 21.45594677 81.33491815 21.45410156 84.23583984 C21.47567322 85.50036484 21.47567322 85.50036484 21.49768066 86.79043579 C21.44634184 94.30339381 19.11737651 100.56838979 15.1875 106.9375 C9.37261581 112.42010509 3.13251722 112.40004908 -4.4375 112.1875 C-5.82098633 112.16719727 -5.82098633 112.16719727 -7.23242188 112.14648438 C-9.48853709 112.11141523 -11.74434803 112.05761836 -14 112 C-14 107.38 -14 102.76 -14 98 C-11.49348958 97.57682292 -8.98697917 97.15364583 -6.48046875 96.73046875 C-3.71016169 95.91464604 -2.79095495 95.21933734 -1 93 C-0.68998936 89.97443332 -0.56256675 87.15060336 -0.56762695 84.12231445 C-0.55233948 82.76103424 -0.55233948 82.76103424 -0.53674316 81.37225342 C-0.50652167 78.36920064 -0.49733322 75.36646635 -0.48828125 72.36328125 C-0.47144136 70.2824751 -0.45329206 68.20167916 -0.43388367 66.12089539 C-0.3863027 60.64154248 -0.35654569 55.16223098 -0.33044434 49.68273926 C-0.30067965 44.09244608 -0.25413531 38.50229571 -0.20898438 32.91210938 C-0.122859 21.94146435 -0.05710526 10.97083451 0 0 Z " fill="#F6FAFB" transform="translate(857,128)"/>
<path d="M0 0 C6.6 0 13.2 0 20 0 C20 36.3 20 72.6 20 110 C13.4 110 6.8 110 0 110 C0 73.7 0 37.4 0 0 Z " fill="#FAFCFD" transform="translate(920,487)"/>
<path d="M0 0 C6.6 0 13.2 0 20 0 C20 36.3 20 72.6 20 110 C13.4 110 6.8 110 0 110 C0 73.7 0 37.4 0 0 Z " fill="#FAFCFD" transform="translate(703,487)"/>
<path d="M0 0 C6.6 0 13.2 0 20 0 C20 36.3 20 72.6 20 110 C13.4 110 6.8 110 0 110 C0 73.7 0 37.4 0 0 Z " fill="#FDFEFE" transform="translate(479,487)"/>
<path d="M0 0 C6.6 0 13.2 0 20 0 C20 36.3 20 72.6 20 110 C13.4 110 6.8 110 0 110 C0 73.7 0 37.4 0 0 Z " fill="#FEFEFE" transform="translate(1084,128)"/>
<path d="M0 0 C0.77923828 0.00902344 1.55847656 0.01804687 2.36132812 0.02734375 C4.26185447 0.05066309 6.16222008 0.08652414 8.0625 0.125 C8.47829419 14.86259405 6.78136556 28.34790149 -2.8828125 40.0859375 C-6.43218768 43.60832123 -10.49890666 45.88766027 -14.9375 48.125 C-16.071875 48.7025 -17.20625 49.28 -18.375 49.875 C-26.80261598 52.83205824 -35.06044006 53.43406592 -43.9375 53.125 C-44.62702216 37.75120966 -42.39341128 23.13215211 -31.8125 11.3125 C-23.09890795 3.25726824 -11.62138667 -0.25891693 0 0 Z " fill="#FCFDFD" transform="translate(1090.9375,659.875)"/>
<path d="M0 0 C8.52840692 0.99882243 15.13911731 8.66675494 20.4375 14.9375 C26.95984314 23.66967193 29.39650135 31.96672089 28.33105469 42.96191406 C26.87389159 51.93270871 22.58399919 60.26699267 18 68 C9.29706306 66.88701339 2.19334993 58.92430813 -3.23828125 52.45703125 C-9.97922752 43.05557846 -11.38173369 33.23073145 -10 22 C-7.90126247 14.11902641 -4.21923753 6.94827628 0 0 Z " fill="#FBFCFD" transform="translate(957,708)"/>
<path d="M0 0 C11.71971224 4.07550353 20.1919691 14.56023592 25.6875 25.296875 C27.20655827 29.58278941 27.53734344 33.11711317 27.5 37.625 C27.49572998 38.41189209 27.49145996 39.19878418 27.48706055 40.00952148 C27.17591301 50.82052395 22.52801147 59.89642366 17 69 C6.77568577 65.29346227 -2.34741668 56.46636744 -7.375 46.875 C-12.19574569 36.01765682 -12.07221463 26.4951787 -8.35546875 15.3046875 C-6.12667634 9.87080168 -3.1652246 4.93454959 0 0 Z " fill="#FBFCFD" transform="translate(997,665)"/>
<path d="M0 0 C5.5 3 5.5 3 7 6 C7.10212554 8.1586913 7.13843456 10.32059457 7.14526367 12.48168945 C7.14862228 13.14694641 7.1519809 13.81220337 7.15544128 14.49761963 C7.16496078 16.70285904 7.16689508 18.90802256 7.16796875 21.11328125 C7.17118134 22.64544201 7.17454541 24.17760246 7.17805481 25.70976257 C7.18404907 28.92524934 7.18589448 32.14070921 7.18530273 35.35620117 C7.18520125 39.47204508 7.19883745 43.58771593 7.21607494 47.70351887 C7.22720816 50.86999804 7.22922151 54.03643561 7.22869301 57.20293236 C7.22987175 58.71994814 7.23428758 60.23696505 7.24202538 61.75396156 C7.25184924 63.87947211 7.24893764 66.00461009 7.24291992 68.13012695 C7.24434494 69.33876907 7.24576996 70.54741119 7.24723816 71.79267883 C7.00018833 74.99755684 6.49960899 77.16863615 5 80 C0.9651149 82.65935609 -2.19621126 83.61324963 -7 83 C-10.79238302 81.58888074 -11.80188442 80.39679856 -13.61962891 76.75610352 C-15.77689967 70.63914502 -15.42854627 64.31273988 -15.3984375 57.90234375 C-15.40046257 56.54049016 -15.40337761 55.17863763 -15.40713501 53.81678772 C-15.41153655 50.97500188 -15.40519708 48.13350059 -15.39111328 45.29174805 C-15.37400586 41.66487244 -15.38388555 38.03866225 -15.40183067 34.41181087 C-15.41271374 31.60379598 -15.40920188 28.79593674 -15.4014473 25.98791695 C-15.39849802 24.00552559 -15.40754322 22.02312797 -15.4168396 20.04075623 C-15.35990537 12.7260412 -15.30952564 6.79982574 -10.3125 1.0625 C-6.87464254 -0.51705613 -3.6669288 -0.65455735 0 0 Z " fill="#046A9E" transform="translate(944,321)"/>
<path d="M0 0 C3.41311667 2.52570633 4.66637768 3.99913304 6 8 C6.10421126 10.06879282 6.1486161 12.14078015 6.16113281 14.2121582 C6.17074036 15.49391434 6.1803479 16.77567047 6.19024658 18.0962677 C6.195095 19.4977704 6.19937372 20.89927518 6.203125 22.30078125 C6.20887936 23.73943584 6.21463706 25.17809043 6.22039795 26.616745 C6.23090039 29.63374183 6.2367478 32.65071207 6.24023438 35.66772461 C6.24571343 39.52457317 6.26973168 43.38106769 6.29820633 47.23780537 C6.31687617 50.2104544 6.32204064 53.18301896 6.32357025 56.15572166 C6.32658821 57.57702759 6.33458773 58.99833233 6.34775543 60.41958046 C6.36490275 62.41286806 6.36107837 64.40630223 6.35644531 66.3996582 C6.36009094 67.53200394 6.36373657 68.66434967 6.36749268 69.83100891 C5.85552725 74.24582854 4.28244394 77.57506228 1.3125 80.875 C-2.09517694 82.53278878 -5.32463084 82.54071037 -9 82 C-11.82229605 80.77291476 -13.42006587 79.87853496 -15.11564636 77.30992126 C-16.2980814 74.2214149 -16.26198077 71.59810289 -16.2746582 68.29125977 C-16.27976913 67.62571075 -16.28488007 66.96016174 -16.29014587 66.27444458 C-16.30401663 64.08000634 -16.30308707 61.88588305 -16.30078125 59.69140625 C-16.30466956 58.16210311 -16.30900451 56.63280104 -16.31376648 55.10350037 C-16.32122325 51.89993792 -16.32094137 48.69648569 -16.31567383 45.49291992 C-16.30987972 41.39272338 -16.32681105 37.29297864 -16.3500185 33.19285679 C-16.36476833 30.03494134 -16.36562586 26.87713439 -16.36250877 23.7191906 C-16.36302135 22.20775393 -16.36824727 20.6963111 -16.37832069 19.18490791 C-16.39069259 17.06902036 -16.38388996 14.95400887 -16.37231445 12.83813477 C-16.37294388 11.63552505 -16.3735733 10.43291534 -16.3742218 9.19386292 C-15.96362921 5.68958695 -15.10392863 3.80455003 -13 1 C-9.04352612 -0.97823694 -4.3017582 -0.56487734 0 0 Z " fill="#046A9E" transform="translate(989,501)"/>
<path d="M0 0 C0 22.44 0 44.88 0 68 C-19 68 -19 68 -25 67 C-25 45.22 -25 23.44 -25 1 C-8 0 -8 0 0 0 Z " fill="#00689D" transform="translate(691,1131)"/>
<path d="M0 0 C12 0 12 0 15.625 1.5625 C21.52619548 7.61899009 20.32187871 16.62385321 20.3359375 24.52734375 C20.3425943 25.83022842 20.3492511 27.1331131 20.35610962 28.47547913 C20.36803638 31.22481605 20.37179508 33.97402774 20.37060547 36.72338867 C20.3704022 40.22810925 20.39773212 43.73201972 20.43214989 47.23654842 C20.45986645 50.60432437 20.45857028 53.97195543 20.4609375 57.33984375 C20.47530853 58.58902084 20.48967957 59.83819794 20.50448608 61.12522888 C20.46750974 68.2043834 19.93362168 73.0312036 16 79 C10.73955665 82.00596763 6.38266212 81 0 81 C0 54.27 0 27.54 0 0 Z " fill="#046A9E" transform="translate(637,322)"/>
<path d="M0 0 C11.16004912 9.48014736 11.16004912 9.48014736 13 15 C7.9238447 19.05012391 2.93764443 22.3649507 -3 25 C-3.60199219 25.30035156 -4.20398437 25.60070312 -4.82421875 25.91015625 C-12.42711934 29.33704016 -21.37987101 29.26648271 -29.1875 26.5 C-37.7842761 22.53655128 -45.53070442 15.71496661 -51 8 C-51 7.34 -51 6.68 -51 6 C-35.86841677 -5.49040974 -17.03894828 -12.30338951 0 0 Z " fill="#FBFCFD" transform="translate(1049,786)"/>
<path d="M0 0 C6.09040374 2.89899876 11.41845249 6.82002727 16.6875 11 C11.98379138 21.63134143 1.79368928 26.63537327 -8.3125 31 C-16.70153298 33.79634433 -24.64860608 32.12243052 -32.4765625 28.49609375 C-38.32464078 25.41095053 -43.50645456 22.51343031 -47.3125 17 C-35.62920691 2.00710511 -18.80201576 -7.26553089 0 0 Z " fill="#FBFCFD" transform="translate(1081.3125,738)"/>
<path d="M0 0 C11.14285714 0 11.14285714 0 16 2 C20.52675229 6.76500241 21.19154395 9.75656988 21.3125 16.25 C21.34988281 17.55453125 21.38726563 18.8590625 21.42578125 20.203125 C20.84121948 25.41591439 18.64519384 28.35480616 15 32 C11 33 11 33 0 33 C0 22.11 0 11.22 0 0 Z " fill="#066C9F" transform="translate(858,321)"/>
<path d="M0 0 C14 0 14 0 19 4 C20.68156955 7.36313909 20.22674377 11.11766587 20.25 14.8125 C20.270625 15.62009766 20.29125 16.42769531 20.3125 17.25976562 C20.34361854 22.00923346 20.09637479 25.15164848 17 29 C11.19223871 33.21062694 8.02500529 32 0 32 C0 21.44 0 10.88 0 0 Z " fill="#02699D" transform="translate(499,143)"/>
<path d="M0 0 C5.94 0 11.88 0 18 0 C18.10851234 3.83410271 18.18757134 7.66509683 18.25 11.5 C18.30027344 13.11648437 18.30027344 13.11648437 18.3515625 14.765625 C18.43100072 21.27955918 18.08833791 26.69089087 14 32 C11.67028887 34.00032737 9.93433695 34.8159693 7 36 C4.0625 35.75 4.0625 35.75 2 35 C1.67 33.02 1.34 31.04 1 29 C1.763125 28.5875 2.52625 28.175 3.3125 27.75 C7.54874837 24.99151269 8.77296177 22.90815291 10 18 C6.7 18 3.4 18 0 18 C0 12.06 0 6.12 0 0 Z " fill="#FCFDFE" transform="translate(791,220)"/>
<path d="M0 0 C0.33 0 0.66 0 1 0 C1.82516752 4.37270591 2.63270342 8.7485029 3.4375 13.125 C3.66759766 14.34316406 3.89769531 15.56132812 4.13476562 16.81640625 C5.6748875 25.25359565 6.52068502 33.43844285 7 42 C2.38 42 -2.24 42 -7 42 C-6.22621509 34.19180682 -5.0538411 26.45389384 -3.84326172 18.70410156 C-3.49655397 16.47787286 -3.15639801 14.25070057 -2.81640625 12.0234375 C-2.59675122 10.60931327 -2.37671346 9.19524842 -2.15625 7.78125 C-1.95837891 6.50314453 -1.76050781 5.22503906 -1.55664062 3.90820312 C-1 1 -1 1 0 0 Z " fill="#1272A3" transform="translate(628,158)"/>
<path d="M0 0 C2.43274672 3.64912008 2.85421099 7.04119599 3.5078125 11.28125 C3.63815887 12.0911438 3.76850525 12.9010376 3.90280151 13.73547363 C4.17676695 15.44631023 4.44720055 17.1577156 4.71435547 18.86962891 C5.12362151 21.4911701 5.54325058 24.11088459 5.96484375 26.73046875 C6.22977348 28.39313259 6.49411625 30.05589009 6.7578125 31.71875 C6.88278107 32.50318481 7.00774963 33.28761963 7.13650513 34.0958252 C7.60323802 37.09677666 8 39.95780479 8 43 C3.38 43 -1.24 43 -6 43 C-5.37776747 34.43782108 -4.34987403 26.03833949 -3 17.5625 C-2.82210938 16.41845703 -2.64421875 15.27441406 -2.4609375 14.09570312 C-1.72181186 9.37688232 -0.96486568 4.67863795 0 0 Z " fill="#0E70A2" transform="translate(505,336)"/>
</svg>
