<?xml version="1.0" encoding="UTF-8"?>
<svg version="1.1" xmlns="http://www.w3.org/2000/svg" width="1500" height="1500">
<path d="M0 0 C495 0 990 0 1500 0 C1500 495 1500 990 1500 1500 C1005 1500 510 1500 0 1500 C0 1005 0 510 0 0 Z " fill="#E5243B" transform="translate(0,0)"/>
<path d="M0 0 C1.47713722 -0.0098568 1.47713722 -0.0098568 2.9841156 -0.01991272 C6.22752981 -0.03954462 9.47089793 -0.0512862 12.71435547 -0.0612793 C14.38491816 -0.06739259 14.38491816 -0.06739259 16.08922958 -0.07362938 C21.98510296 -0.0944478 27.88095336 -0.10876736 33.77685547 -0.11816406 C39.83904409 -0.12921516 45.90086436 -0.16361275 51.96292305 -0.20333576 C56.64894249 -0.22958714 61.33487527 -0.2378635 66.02096176 -0.24144554 C68.25427613 -0.24628999 70.48758719 -0.25784215 72.72082901 -0.27648354 C92.98844933 -0.43513935 109.32961545 2.24501973 124.66748047 16.75512695 C136.01684132 28.76298314 140.24332127 41.86969941 140.27539062 58.10083008 C140.29045906 59.8582251 140.29045906 59.8582251 140.30583191 61.65112305 C140.33659374 65.5034946 140.35367984 69.35579687 140.37060547 73.20825195 C140.38932274 75.88725787 140.40880135 78.56624744 140.42929077 81.24523926 C140.47594803 87.56314796 140.51275497 93.88107353 140.54596364 100.19906569 C140.58427769 107.39626701 140.63366331 114.59337931 140.6839478 121.79050541 C140.78707329 136.58593533 140.8763963 151.38142927 140.95654297 166.17700195 C141.70162109 165.69360352 142.44669922 165.21020508 143.21435547 164.7121582 C146.84549575 162.67934035 149.94517888 162.27011848 153.95654297 163.17700195 C160.88879452 167.95218711 164.35686216 174.26645607 168.45654297 181.48950195 C175.88772086 196.0304676 175.88772086 196.0304676 187.95654297 206.17700195 C191.39258559 206.62071668 194.80022075 206.62119668 198.26123047 206.6105957 C199.25857208 206.61583755 200.2559137 206.62107941 201.28347778 206.6264801 C203.38982209 206.63289316 205.49620225 206.6315726 207.60253906 206.62304688 C210.81364264 206.61454932 214.02295931 206.64328916 217.23388672 206.67504883 C219.28466744 206.67666138 221.33545129 206.67608228 223.38623047 206.6730957 C224.81779984 206.68994667 224.81779984 206.68994667 226.27828979 206.70713806 C232.37403393 206.64390167 235.9549853 205.71319025 240.95654297 202.17700195 C245.64319849 197.37718775 248.96013721 191.20422155 252.40185547 185.48168945 C253.01730225 184.45857666 253.63274902 183.43546387 254.2668457 182.38134766 C255.50390867 180.31088812 256.73027709 178.2339956 257.94506836 176.15039062 C258.80733032 174.69596558 258.80733032 174.69596558 259.68701172 173.2121582 C260.19643311 172.33954346 260.70585449 171.46692871 261.23071289 170.56787109 C263.59203335 167.29662887 266.34720067 164.9816731 269.95654297 163.17700195 C275.10102823 162.78873891 277.68426189 163.38273894 281.95654297 166.17700195 C282.27872803 165.02506348 282.60091309 163.873125 282.93286133 162.6862793 C287.1547306 147.69990765 291.67990792 132.80964313 296.25219727 117.92749023 C297.31241316 114.47657138 298.36915338 111.0245996 299.42488194 107.57230568 C300.2566573 104.85369384 301.0902381 102.13563804 301.92432976 99.41773605 C302.49955217 97.54234558 303.0733611 95.66652174 303.64710999 93.79067993 C305.93003436 86.36954215 308.33137807 79.00040501 310.83555603 71.65170288 C311.96711463 68.14423319 312.91972163 64.62222372 313.83154297 61.05200195 C317.99700814 46.34840777 326.13380396 33.90089447 339.59716797 26.33325195 C340.37576172 25.95168945 341.15435547 25.57012695 341.95654297 25.17700195 C342.63688095 24.82947372 343.31721893 24.4819455 344.01817322 24.12388611 C348.1438556 22.79439268 352.01998485 22.87386243 356.32983398 22.87060547 C357.26713852 22.86228195 358.20444305 22.85395844 359.17015076 22.84538269 C362.26695934 22.82130284 365.36355695 22.81251097 368.46044922 22.8059082 C370.62174033 22.79693712 372.78303081 22.78781518 374.94432068 22.77854919 C379.47778835 22.76205983 384.01118221 22.75435973 388.54467773 22.75146484 C394.32914788 22.74609525 400.11291499 22.70847333 405.89718723 22.66272068 C410.36444062 22.63284 414.8315274 22.62573882 419.29887199 22.62473869 C421.42974997 22.6205547 423.56062929 22.60819435 425.69140816 22.58722115 C441.30737953 22.44580778 452.94399763 23.26089229 464.70654297 34.6652832 C475.05905156 46.22198984 479.42131483 61.03235481 483.86279297 75.59106445 C484.31404744 77.05550668 484.76575826 78.51980835 485.21789551 79.98397827 C486.1593278 83.03695848 487.09686608 86.09109561 488.03125 89.14624023 C489.2121847 93.00723361 490.4004334 96.86592451 491.59125996 100.72387695 C500.40692312 129.29344606 500.40692312 129.29344606 503.95727539 142.69116211 C505.05574685 146.52306427 506.37759812 150.19187348 507.76904297 153.92700195 C510.48619837 161.9070388 511.94975845 170.46217212 508.57763672 178.4387207 C506.0252923 182.75003019 502.4992686 185.21212617 497.95654297 187.17700195 C493.32456249 187.90127527 489.8394265 187.62677281 485.64404297 185.48950195 C477.77244256 178.71626439 475.31410242 170.51484364 472.70654297 160.80200195 C472.09174029 158.56081924 471.47582513 156.31994145 470.85888672 154.0793457 C470.5454834 152.9370752 470.23208008 151.79480469 469.90917969 150.61791992 C468.40573039 145.18747032 466.8438077 139.7746363 465.26904297 134.36450195 C464.99608398 133.41849121 464.723125 132.47248047 464.44189453 131.49780273 C463.04968779 126.72080384 461.57227467 121.99022531 459.97216797 117.27856445 C457.50689909 109.96786899 455.51839832 102.54032283 453.51318359 95.09301758 C451.51316749 86.0151853 451.51316749 86.0151853 446.95654297 78.17700195 C445.29037182 78.13636363 443.62266202 78.13428095 441.95654297 78.17700195 C440.87463828 83.52232636 441.2148085 87.56719401 442.76513672 92.71606445 C442.96681961 93.42651413 443.1685025 94.13696381 443.376297 94.86894226 C444.03635475 97.18376615 444.71522357 99.49261791 445.39404297 101.80200195 C445.85807504 103.41901334 446.32062362 105.03645113 446.78173828 106.65429688 C447.7174278 109.93263361 448.65934908 113.20907185 449.60644531 116.48413086 C451.52650943 123.13794435 453.3698321 129.81224537 455.20654297 136.48950195 C455.53251465 137.66875244 455.85848633 138.84800293 456.19433594 140.06298828 C458.20373933 147.35511218 460.13534651 154.66401573 462.01904297 161.98950195 C464.26865917 170.72854194 466.72703143 179.39246318 469.27661133 188.04833984 C474.56278122 205.99629075 479.5153922 224.00174451 483.95654297 242.17700195 C485.44154297 248.11700195 485.44154297 248.11700195 486.95654297 254.17700195 C472.76654297 254.17700195 458.57654297 254.17700195 443.95654297 254.17700195 C443.97749023 257.89143555 443.9984375 261.60586914 444.02001953 265.43286133 C444.08632165 277.71029204 444.13069522 289.98772006 444.16379166 302.26528168 C444.18439109 309.70860438 444.21246123 317.15175711 444.25830078 324.5949707 C444.29824919 331.08471752 444.32399482 337.5743412 444.33289695 344.06420755 C444.33809827 347.49858251 444.35026764 350.9326053 444.3794632 354.36686707 C444.40853228 358.20678523 444.41249729 362.04597569 444.41064453 365.88598633 C444.42502563 367.0167157 444.43940674 368.14744507 444.45422363 369.31243896 C444.41464157 376.90219129 443.34340339 382.32964735 438.17529297 388.20043945 C437.60810547 388.64645508 437.04091797 389.0924707 436.45654297 389.55200195 C435.88935547 390.01348633 435.32216797 390.4749707 434.73779297 390.95043945 C429.05120736 394.86620235 423.74195253 395.02191174 416.95654297 394.17700195 C410.59847447 391.752403 405.66186271 386.90153564 402.83792114 380.7338562 C401.55328744 375.54964019 401.6955886 370.52605909 401.72949219 365.20483398 C401.72920013 364.00426865 401.72890808 362.80370331 401.72860718 361.5667572 C401.72975877 358.28822255 401.73976412 355.00986037 401.75375509 351.73135996 C401.76628849 348.30007081 401.767435 344.86877799 401.76980591 341.43746948 C401.77601303 334.94589003 401.7924134 328.45437823 401.81250489 321.96282852 C401.83488785 314.56985288 401.84586334 307.17687395 401.85589576 299.78387284 C401.87678034 284.58154394 401.91234592 269.37928225 401.95654297 254.17700195 C398.32654297 254.17700195 394.69654297 254.17700195 390.95654297 254.17700195 C390.96542542 255.71271851 390.97430786 257.24843506 390.98345947 258.83068848 C391.06457362 273.30885761 391.12476262 287.78694311 391.16379166 302.26528168 C391.18439109 309.70860438 391.21246123 317.15175711 391.25830078 324.5949707 C391.29824919 331.08471752 391.32399482 337.5743412 391.33289695 344.06420755 C391.33809827 347.49858251 391.35026764 350.9326053 391.3794632 354.36686707 C391.40853228 358.20678523 391.41249729 362.04597569 391.41064453 365.88598633 C391.42502563 367.0167157 391.43940674 368.14744507 391.45422363 369.31243896 C391.41464157 376.90219129 390.34340339 382.32964735 385.17529297 388.20043945 C384.60810547 388.64645508 384.04091797 389.0924707 383.45654297 389.55200195 C382.88935547 390.01348633 382.32216797 390.4749707 381.73779297 390.95043945 C376.05120736 394.86620235 370.74195253 395.02191174 363.95654297 394.17700195 C357.6338708 391.76590111 352.73119553 386.91327972 349.83876228 380.8236742 C348.89395492 377.98923678 348.71004284 375.81081551 348.71603394 372.83024597 C348.71190994 371.2422821 348.71190994 371.2422821 348.70770264 369.62223816 C348.71489319 368.47137222 348.72208374 367.32050629 348.72949219 366.13476562 C348.72920013 364.91483917 348.72890808 363.69491272 348.72860718 362.4380188 C348.72976015 359.10154683 348.73977694 355.76532366 348.75375509 352.42889571 C348.76627436 348.9388768 348.76743389 345.44885443 348.76980591 341.95881653 C348.77601717 335.35387329 348.79242318 328.74899641 348.81250489 322.14408237 C348.83487492 314.62295805 348.84586009 307.10183052 348.85589576 299.5806812 C348.87678974 284.11274317 348.91346153 268.64489652 348.95654297 253.17700195 C335.09654297 253.17700195 321.23654297 253.17700195 306.95654297 253.17700195 C308.08167037 243.0508553 308.08167037 243.0508553 309.33935547 238.6730957 C309.61602051 237.69743652 309.89268555 236.72177734 310.17773438 235.71655273 C310.47599121 234.69287598 310.77424805 233.66919922 311.08154297 232.61450195 C311.39140137 231.5289502 311.70125977 230.44339844 312.02050781 229.32495117 C314.46246795 220.79596469 316.97117574 212.28618227 319.47070312 203.77392578 C321.89467901 195.48076715 324.11055645 187.14411998 326.27783203 178.78100586 C329.81431318 165.21262172 333.47303209 151.6837114 337.45654297 138.23950195 C340.36858013 128.40902152 343.00064807 118.52127515 345.52490234 108.58447266 C347.29288254 101.64006997 349.19106754 94.78466094 351.42529297 87.97387695 C352.085917 84.49588574 351.61006081 81.63376737 350.95654297 78.17700195 C348.58348719 77.75919316 348.58348719 77.75919316 345.95654297 78.17700195 C343.187115 81.92387509 341.93523522 85.9941563 340.70654297 90.42700195 C340.49747314 91.15661133 340.28840332 91.8862207 340.07299805 92.63793945 C338.80750031 97.07564871 337.58404324 101.52489445 336.35888672 105.97387695 C333.06107376 117.91856882 329.5652776 129.75912786 325.7355957 141.54492188 C323.96337385 147.00437514 322.25533821 152.46242875 320.70654297 157.98950195 C314.45073106 180.2964102 314.45073106 180.2964102 305.95654297 186.17700195 C301.62617171 187.62045904 297.28327124 188.16679966 293.01904297 186.3527832 C291.29566119 185.35366748 289.62383118 184.26715194 287.95654297 183.17700195 C286.63081636 182.49533402 285.29908488 181.82492435 283.95654297 181.17700195 C283.52986328 182.06516602 283.10318359 182.95333008 282.66357422 183.8684082 C278.12644156 193.18422229 273.17563757 202.21643436 268.04467773 211.21728516 C264.03571211 218.25348829 260.09097198 225.32125294 256.20654297 232.42700195 C255.69317383 233.3617334 255.17980469 234.29646484 254.65087891 235.25952148 C254.1794043 236.12432129 253.70792969 236.98912109 253.22216797 237.88012695 C252.80741211 238.63970703 252.39265625 239.39928711 251.96533203 240.18188477 C245.95496283 252.06880081 251.07142117 267.32228053 254.58154297 279.23950195 C255.0432982 280.86444772 255.50283122 282.49002651 255.96020508 284.11621094 C256.86380246 287.32375045 257.77605622 290.52860471 258.6953125 293.73168945 C260.40222036 299.7088312 261.97146287 305.71920719 263.51904297 311.73950195 C263.75768066 312.65932861 263.99631836 313.57915527 264.2421875 314.52685547 C265.16180024 318.073493 266.06789824 321.62242306 266.95654297 325.17700195 C261.01654297 325.17700195 255.07654297 325.17700195 248.95654297 325.17700195 C248.97749023 326.90257324 248.9984375 328.62814453 249.02001953 330.40600586 C249.08464546 336.12156934 249.13053848 341.83708015 249.16379166 347.55291176 C249.18462407 351.01684694 249.21286036 354.48038509 249.25830078 357.9440918 C249.31026882 361.93053354 249.3295243 365.9168172 249.34716797 369.90356445 C249.36781311 371.14127594 249.38845825 372.37898743 249.409729 373.65420532 C249.4125122 384.3471551 249.4125122 384.3471551 244.95654297 389.17700195 C240.21236021 393.45833762 236.55760395 394.54585894 230.30419922 394.4543457 C226.30909201 393.98237796 224.19844004 392.5925331 220.95654297 390.17700195 C217.18716438 385.31648745 215.82934955 381.77807273 215.84301758 375.69580078 C215.84309311 374.57486526 215.84316864 373.45392975 215.84324646 372.29902649 C215.84840775 371.0895787 215.85356903 369.88013092 215.85888672 368.6340332 C215.86100914 366.77593269 215.86100914 366.77593269 215.86317444 364.8802948 C215.86782695 361.59068658 215.87680907 358.30112735 215.88787842 355.01153564 C215.89811668 351.65328572 215.90267723 348.29502862 215.90771484 344.93676758 C215.91875152 338.35015983 215.9354953 331.7635849 215.95654297 325.17700195 C212.98654297 325.17700195 210.01654297 325.17700195 206.95654297 325.17700195 C206.96764603 325.8733374 206.97874908 326.56967285 206.9901886 327.28710938 C207.09073518 333.87732506 207.1666812 340.46732401 207.21560383 347.05813599 C207.24160229 350.44591219 207.27681675 353.83305007 207.33374023 357.22045898 C207.39460258 361.12280937 207.42280344 365.02426243 207.44482422 368.92700195 C207.47063065 370.13251709 207.49643707 371.33803223 207.52302551 372.58007812 C207.52540481 379.76594561 206.76171745 384.66745727 201.95654297 390.17700195 C198.27341031 393.68474734 195.40667785 394.46236196 190.45654297 394.67700195 C185.53864195 394.48348889 182.6909328 393.54706107 178.95654297 390.17700195 C174.89239652 385.67348832 173.82978332 382.59912314 173.84301758 376.60400391 C173.84309311 375.46304764 173.84316864 374.32209137 173.84324646 373.14656067 C173.84840775 371.91523911 173.85356903 370.68391754 173.85888672 369.4152832 C173.86100914 367.52388863 173.86100914 367.52388863 173.86317444 365.59428406 C173.86782722 362.24548487 173.87680955 358.89675384 173.88787842 355.54797363 C173.89811609 352.12940052 173.90267711 348.71082036 173.90771484 345.29223633 C173.91875198 338.58713691 173.93602077 331.88207878 173.95654297 325.17700195 C168.34654297 325.17700195 162.73654297 325.17700195 156.95654297 325.17700195 C157.53323498 318.54713629 158.77429387 312.45794932 160.57373047 306.05981445 C160.96046432 304.65310989 160.96046432 304.65310989 161.35501099 303.21798706 C162.17412111 300.24417985 163.00261676 297.27308617 163.83154297 294.30200195 C164.38035207 292.31649946 164.92853452 290.33082364 165.47607422 288.3449707 C166.49026004 284.66956372 167.50822058 280.99524808 168.53027344 277.32202148 C168.87760277 276.06884125 168.87760277 276.06884125 169.23194885 274.79034424 C169.74608529 272.93604476 170.26254911 271.08238987 170.78062439 269.22918701 C171.04984207 268.25789856 171.31905975 267.28661011 171.59643555 266.28588867 C171.8413826 265.40649628 172.08632965 264.52710388 172.33869934 263.62106323 C175.64626042 250.53703744 172.33301441 241.03450386 165.72216797 229.7668457 C165.25230469 228.98809082 164.78244141 228.20933594 164.29833984 227.40698242 C162.73612854 224.81068728 161.26167761 222.17335258 159.79394531 219.52294922 C158.74285629 217.62983723 157.67551026 215.74668287 156.60498047 213.86450195 C152.99236581 207.49237199 149.44845457 201.08170719 145.89404297 194.67700195 C145.2069614 193.43936535 144.51986855 192.201735 143.83276367 190.96411133 C142.20699418 188.03527585 140.58157836 185.10624478 138.95654297 182.17700195 C135.53721103 182.17700195 133.49170587 185.0557432 130.95654297 187.17700195 C125.87567623 188.8706242 120.56427427 189.44148911 115.62841797 187.0480957 C111.26631867 183.95423639 108.96945201 181.20783548 106.95654297 176.17700195 C106.51999525 172.62445423 106.53945082 169.09754336 106.5559082 165.52172852 C106.54892914 164.46092575 106.54195007 163.40012299 106.53475952 162.30717468 C106.51480767 158.81057758 106.51528308 155.31427586 106.51513672 151.81762695 C106.50336639 149.38717857 106.49000302 146.95673742 106.47511292 144.52630615 C106.43893703 138.13532054 106.41872452 131.74439911 106.40356445 125.35333252 C106.37872189 115.10911829 106.33925356 104.86504576 106.28166389 94.62096405 C106.26528133 91.03676579 106.26155282 87.45270041 106.25865173 83.86846924 C106.24888097 81.6838762 106.23861861 79.49928528 106.2277832 77.31469727 C106.23033615 76.31208359 106.2328891 75.30946991 106.23551941 74.276474 C106.22869141 73.36525284 106.2218634 72.45403168 106.21482849 71.51519775 C106.21237704 70.32394728 106.21237704 70.32394728 106.20987606 69.10863113 C106.12483734 66.93919414 106.12483734 66.93919414 103.95654297 65.17700195 C100.45654297 64.76033529 100.45654297 64.76033529 96.95654297 65.17700195 C94.7479785 68.48984865 94.70645887 69.48183239 94.70600319 73.33394909 C94.70100449 74.40787448 94.6960058 75.48179987 94.69085562 76.58826846 C94.69551884 77.77248505 94.70018205 78.95670164 94.70498657 80.17680359 C94.70201643 81.43145646 94.69904629 82.68610934 94.69598615 83.978782 C94.68792628 87.46827947 94.69226233 90.95767012 94.69850492 94.44716728 C94.70302931 98.2080472 94.69600335 101.96890645 94.69020081 105.7297821 C94.68155788 112.24986694 94.6797621 118.76992463 94.68214798 125.29001427 C94.6852422 134.72574338 94.67361844 144.16141235 94.65759818 153.59712634 C94.63161875 168.91663354 94.6116097 184.23614078 94.59814453 199.55566406 C94.59692898 200.93163561 94.59692898 200.93163561 94.59568886 202.33540455 C94.58447231 215.3473823 94.57918757 228.35935576 94.57630174 241.37133769 C94.57609775 242.2871361 94.57589376 243.2029345 94.57568359 244.14648438 C94.57548366 245.06116762 94.57528372 245.97585086 94.57507773 246.91825178 C94.57134417 262.17358533 94.5522532 277.42885383 94.52058923 292.68415481 C94.5016743 302.09452972 94.49571336 311.50473779 94.50640641 320.91512648 C94.51272765 327.36607499 94.50467899 333.81690393 94.48535229 340.26782622 C94.47467372 343.98935027 94.4705127 347.71058395 94.48382378 351.43210602 C94.49811797 355.46907439 94.48154103 359.50533561 94.46206665 363.5422821 C94.47119131 364.71534509 94.48031596 365.88840807 94.48971713 367.09701842 C94.41620789 374.9196546 93.29172865 380.29168255 88.06201172 386.3840332 C81.90477606 391.53805327 76.45018963 394.77429365 68.22607422 394.46606445 C62.28621772 393.70952507 57.20631525 391.42677423 52.95654297 387.17700195 C48.22816568 380.68050625 46.80727448 375.90127955 46.81178284 367.87594604 C46.80825599 367.13890005 46.80472915 366.40185406 46.80109543 365.64247334 C46.79041817 363.17204292 46.78672922 360.70165107 46.78295898 358.23120117 C46.7766532 356.46047808 46.76988737 354.68975658 46.76269531 352.91903687 C46.7480307 349.10600998 46.73630406 345.2929892 46.72674751 341.47994614 C46.71130379 335.45536162 46.68735685 329.43082974 46.66184998 323.40628052 C46.59061715 306.27503784 46.53076982 289.14376555 46.47973633 272.01245117 C46.45147621 262.55107451 46.41612303 253.08975076 46.37308258 243.62842953 C46.34624716 237.63446043 46.3283813 231.64055118 46.31704533 225.64653373 C46.30794778 221.92508512 46.29060035 218.2037096 46.27086639 214.48230362 C46.2633659 212.7512654 46.25930834 211.02020847 46.25887108 209.28915405 C46.25779537 206.9339864 46.24460995 204.57919445 46.22828674 202.22409058 C46.2309036 201.53227404 46.23352045 200.84045751 46.2362166 200.12767684 C46.28553562 196.2122009 46.28553562 196.2122009 43.95654297 193.17700195 C40.45654297 192.84366862 40.45654297 192.84366862 36.95654297 193.17700195 C34.53853998 195.59500494 34.71705057 196.83617261 34.69085562 200.13520157 C34.69551884 200.82818057 34.70018205 201.52115957 34.70498657 202.23513794 C34.70201643 202.97032524 34.69904629 203.70551254 34.69598615 204.46297824 C34.68831552 206.93950819 34.6948527 209.4158031 34.70117188 211.89233398 C34.69842332 213.66287904 34.69474425 215.43342287 34.69020081 217.20396423 C34.68207339 221.02412708 34.67992426 224.84423135 34.68214798 228.66440201 C34.68497559 234.70729625 34.67064853 240.75007304 34.65316772 246.79293823 C34.60609175 263.97920962 34.58220703 281.16547369 34.57568359 298.35180664 C34.57193078 307.83815732 34.55388031 317.32437577 34.52058923 326.81066978 C34.50038166 332.81478046 34.49800239 338.81854991 34.50886941 344.82268071 C34.51148057 348.56522547 34.49745202 352.30757256 34.47878838 356.05006599 C34.47347515 357.78181169 34.47494829 359.51359399 34.48382378 361.24532509 C34.56654494 378.80658729 34.56654494 378.80658729 28.06201172 386.3840332 C21.90477606 391.53805327 16.45018963 394.77429365 8.22607422 394.46606445 C0.83054353 393.52412078 -4.6553848 390.24738054 -9.23095703 384.36450195 C-13.43899682 376.96415612 -13.33201875 370.07667649 -13.30847168 361.73846436 C-13.31504359 359.85831741 -13.31504359 359.85831741 -13.32174826 357.94018769 C-13.33363665 354.47288702 -13.33323442 351.00568105 -13.33081317 347.53836489 C-13.33039293 343.7946851 -13.34149874 340.05103761 -13.35127258 336.30737305 C-13.36671246 329.8244587 -13.37513379 323.34156607 -13.37898254 316.85863495 C-13.38473361 307.48218271 -13.40332522 298.10578891 -13.42542309 288.72936252 C-13.46112423 273.51172323 -13.48944738 258.29408064 -13.51171875 243.07641602 C-13.51305374 242.16603334 -13.51438873 241.25565066 -13.51576418 240.31768063 C-13.52654386 232.92867332 -13.53696554 225.53966551 -13.54736423 218.15065765 C-13.55647592 211.68580603 -13.56572783 205.22095463 -13.57519531 198.75610352 C-13.57652605 197.84561814 -13.5778568 196.93513277 -13.57922786 195.99705693 C-13.60163585 180.83090746 -13.63181772 165.66478308 -13.66758776 150.49865937 C-13.6892772 141.14179182 -13.70388015 131.78496332 -13.70942652 122.42807201 C-13.71366486 116.02301458 -13.72487914 109.6179944 -13.74165046 103.21295759 C-13.75107958 99.51438164 -13.75716072 95.81587538 -13.75458717 92.11728668 C-13.75186118 88.11398646 -13.76437923 84.11088132 -13.77844238 80.10760498 C-13.77514341 78.93048816 -13.77184443 77.75337135 -13.76844549 76.54058433 C-13.77467759 75.47300903 -13.78090968 74.40543373 -13.78733063 73.30550766 C-13.7885248 72.38088596 -13.78971898 71.45626426 -13.79094934 70.50362372 C-13.89193523 67.90412383 -13.89193523 67.90412383 -16.04345703 65.17700195 C-19.54345703 64.76033529 -19.54345703 64.76033529 -23.04345703 65.17700195 C-25.45607893 67.58962385 -25.29482236 68.1377165 -25.30174255 71.43254089 C-25.30857056 72.32548859 -25.31539856 73.21843628 -25.32243347 74.13844299 C-25.31988052 75.12078415 -25.31732758 76.10312531 -25.31469727 77.11523438 C-25.32253738 78.66425446 -25.32253738 78.66425446 -25.33053589 80.24456787 C-25.34079803 82.49318606 -25.34656013 84.74182814 -25.34841728 86.99046898 C-25.35206937 90.55058835 -25.3687658 94.11042623 -25.38917542 97.67048645 C-25.44468924 107.79475669 -25.47524238 117.9190694 -25.49975586 128.04345703 C-25.51564397 134.23149262 -25.5458819 140.41933047 -25.58452034 146.60726357 C-25.59616503 148.9655071 -25.60210064 151.32378605 -25.60220146 153.68205833 C-25.60239382 156.98551383 -25.62068522 160.28842589 -25.64282227 163.59179688 C-25.63824509 164.56401688 -25.63366791 165.53623688 -25.62895203 166.53791809 C-25.70542673 173.72773743 -26.74953647 178.5473857 -31.60595703 184.11450195 C-34.04345703 186.17700195 -34.04345703 186.17700195 -36.04345703 186.17700195 C-36.09026611 186.9062085 -36.1370752 187.63541504 -36.18530273 188.38671875 C-36.71749027 195.72175331 -37.76952297 202.78712662 -39.23095703 209.98950195 C-39.68029597 212.2642178 -40.12950905 214.53895851 -40.57861328 216.8137207 C-40.81596191 218.00400879 -41.05331055 219.19429687 -41.29785156 220.4206543 C-42.48092893 226.38097792 -43.63192278 232.34745 -44.78408813 238.31381226 C-45.15486867 240.23171471 -45.52723336 242.1493107 -45.8996582 244.06689453 C-47.38067003 251.69980164 -48.82926156 259.33834457 -50.2578125 266.98120117 C-51.0864328 271.41222309 -51.92361616 275.84160757 -52.76220703 280.27075195 C-52.90810272 281.04144012 -53.05399841 281.8121283 -53.20431519 282.60617065 C-53.79977984 285.75106928 -54.39550147 288.89591922 -54.99121094 292.04077148 C-56.51480811 300.0850315 -58.03632541 308.1296387 -59.54345703 316.17700195 C-61.34583194 325.80082344 -63.16894181 335.42070077 -64.99121094 345.04077148 C-65.72549655 348.91763904 -66.45917194 352.79461945 -67.19140625 356.671875 C-67.75745049 359.66876792 -68.32718582 362.66492662 -68.89941406 365.66064453 C-69.16882363 367.07884962 -69.4381939 368.49706217 -69.70751953 369.9152832 C-69.94422363 371.15576416 -70.18092773 372.39624512 -70.42480469 373.67431641 C-71.02349867 377.06400173 -71.49064164 380.44958439 -71.91845703 383.86450195 C-72.53916816 387.51428339 -73.07610217 389.22844277 -75.10595703 392.42700195 C-79.16101 394.84277819 -82.44235564 395.18804472 -87.04345703 394.17700195 C-89.66845703 392.42700195 -89.66845703 392.42700195 -91.04345703 389.17700195 C-91.18145093 379.18350505 -88.65188558 369.12311085 -86.73095703 359.36450195 C-86.08990617 356.05909493 -85.45331146 352.75283514 -84.81689453 349.4465332 C-84.66104385 348.63978149 -84.50519318 347.83302979 -84.34461975 347.00183105 C-83.09906811 340.53214371 -81.951081 334.04886609 -80.85595703 327.55200195 C-79.63944724 320.37592544 -78.24294841 313.26924547 -76.68554688 306.16015625 C-74.58093339 296.33964339 -72.93457412 286.428704 -71.23730469 276.53125 C-69.90771657 268.81682964 -68.44184286 261.15967477 -66.7644043 253.51123047 C-65.59989404 248.12561702 -64.57272507 242.71480866 -63.54345703 237.30200195 C-63.3269751 236.16996338 -63.11049316 235.0379248 -62.88745117 233.87158203 C-61.50882854 226.65250946 -60.13958172 219.4317351 -58.80517578 212.2043457 C-58.21222895 209.02369712 -57.57834722 205.85233872 -56.93798828 202.6809082 C-56.74857666 201.72804932 -56.55916504 200.77519043 -56.36401367 199.79345703 C-55.99126838 197.92079871 -55.61183396 196.04945604 -55.22485352 194.1796875 C-55.05671143 193.32802002 -54.88856934 192.47635254 -54.71533203 191.59887695 C-54.56161133 190.841875 -54.40789062 190.08487305 -54.24951172 189.30493164 C-53.82219796 184.89205639 -55.41762505 182.5687016 -58.04345703 179.17700195 C-59.05200324 176.15136333 -59.178695 174.10237985 -59.19735718 170.93717957 C-59.20595764 169.85103363 -59.21455811 168.7648877 -59.22341919 167.64582825 C-59.22767914 166.45366196 -59.23193909 165.26149567 -59.23632812 164.03320312 C-59.24450562 162.7775354 -59.25268311 161.52186768 -59.2611084 160.22814941 C-59.28731569 156.0587783 -59.30264571 151.88939728 -59.31689453 147.7199707 C-59.32225682 146.28053596 -59.32763433 144.84110127 -59.33302689 143.40166664 C-59.3546635 137.40616697 -59.37339313 131.41066995 -59.38464928 125.41514111 C-59.40083858 116.85011546 -59.43388397 108.28554709 -59.49105012 99.72069377 C-59.52994088 93.68564507 -59.54930505 87.6507176 -59.55456984 81.615547 C-59.55820046 78.01888738 -59.56997182 74.42271555 -59.60267258 70.82619286 C-59.63876445 66.7985733 -59.63433431 62.7719155 -59.62695312 58.74414062 C-59.64335846 57.57424088 -59.65976379 56.40434113 -59.67666626 55.19898987 C-59.56561341 40.28469924 -53.44693316 26.765682 -43.29345703 15.92700195 C-30.78427572 4.16499718 -16.80322845 0.04924307 0 0 Z " fill="#FEFDFD" transform="translate(236.04345703125,772.822998046875)"/>
<path d="M0 0 C1.27393616 -0.00639748 1.27393616 -0.00639748 2.5736084 -0.01292419 C3.49729218 -0.01247101 4.42097595 -0.01201782 5.37265015 -0.0115509 C6.35203552 -0.01490952 7.3314209 -0.01826813 8.34048462 -0.02172852 C11.58217637 -0.03123578 14.82381641 -0.03318181 18.06552124 -0.03425598 C20.32271343 -0.03746975 22.57990541 -0.04083391 24.83709717 -0.04434204 C29.57323692 -0.05033348 34.30935843 -0.05218203 39.04550171 -0.05158997 C45.09786571 -0.05148858 51.15011178 -0.06511645 57.20244789 -0.08236217 C61.86776256 -0.09351474 66.53304907 -0.09550814 71.1983757 -0.09498024 C73.42856628 -0.09615638 75.65875768 -0.10055753 77.88893509 -0.10831261 C81.01900573 -0.11817403 84.14882495 -0.11520975 87.27890015 -0.10920715 C88.19043854 -0.11482666 89.10197693 -0.12044617 90.0411377 -0.12623596 C105.39913372 -0.05186721 119.11456103 4.94505261 130.71395874 15.13371277 C143.65413053 28.21675712 148.0100294 42.88242849 148.02035522 60.77848816 C148.02867874 62.01540909 148.03700226 63.25233002 148.045578 64.5267334 C148.06544349 67.89446841 148.07629873 71.26195724 148.08140445 74.62972951 C148.08506451 76.73829593 148.0913127 78.84683916 148.09840584 80.95539665 C148.12283513 88.32384649 148.13593998 95.69222647 148.13949585 103.06071472 C148.14313557 109.91089877 148.17307846 116.76063607 148.21490043 123.6106835 C148.24964994 129.51074431 148.26504501 135.41065717 148.26574188 141.31081957 C148.26653252 144.82669478 148.2751733 148.34211286 148.30373955 151.85788155 C148.3348881 155.77820643 148.32583821 159.69789182 148.31332397 163.61833191 C148.33557541 165.34932129 148.33557541 165.34932129 148.35827637 167.11528015 C148.29503167 174.07868755 147.29882232 178.76446809 142.71395874 184.13371277 C138.30466906 188.15394747 133.97964654 188.48205775 128.21786499 188.41496277 C123.28756477 187.8611693 120.60175111 185.11748269 117.40145874 181.57121277 C115.07569732 178.2117796 114.58882373 175.67756822 114.57592773 171.69303894 C114.5704744 170.78452179 114.56502106 169.87600464 114.55940247 168.93995667 C114.55836014 167.94557587 114.55731781 166.95119507 114.5562439 165.92668152 C114.55116318 164.8776767 114.54608246 163.82867188 114.54084778 162.74787903 C114.53013923 160.46761411 114.52152096 158.18733866 114.51472855 155.90705872 C114.50295789 152.30180832 114.48351117 148.69667869 114.46160889 145.09147644 C114.39992024 134.84029634 114.34587191 124.58912913 114.31259155 114.33781433 C114.29169602 108.07082254 114.25643679 101.80405162 114.21183395 95.53718567 C114.19763578 93.14493909 114.18894296 90.75265344 114.18577957 88.36036682 C114.18089413 85.02025581 114.1577981 81.68073579 114.13046265 78.34074402 C114.13346878 77.34636322 114.13647491 76.35198242 114.13957214 75.32746887 C114.12847916 74.41895172 114.11738617 73.51043457 114.10595703 72.5743866 C114.10099181 71.38973564 114.10099181 71.38973564 114.09592628 70.18115234 C113.82458836 68.09832146 113.82458836 68.09832146 112.68945885 66.35617065 C109.47933461 64.36971584 106.43337612 64.9507906 102.71395874 65.13371277 C102.71249353 66.10616453 102.71249353 66.10616453 102.71099871 67.09826177 C102.65271813 105.52763844 102.57891486 143.95695729 102.48497246 182.38626405 C102.47370439 187.00121739 102.46256592 191.61617103 102.45150757 196.23112488 C102.44930388 197.14987343 102.4471002 198.06862199 102.44482974 199.01521141 C102.40946389 213.8885999 102.38459573 228.76198833 102.36361172 243.63540327 C102.341844 258.89855786 102.30878433 274.16165792 102.26525718 289.42476612 C102.23875722 298.84180837 102.22104965 308.25878267 102.2146127 317.67586035 C102.20935376 324.13478268 102.19311976 330.59361955 102.16829308 337.05249607 C102.15429543 340.77811792 102.14510077 344.50358682 102.14895058 348.2292366 C102.15300181 352.27250363 102.13392373 356.31533783 102.11268616 360.35855103 C102.11995752 362.11684578 102.11995752 362.11684578 102.12737578 363.91066164 C102.04401325 373.52647004 100.55156429 381.27789091 93.79598999 388.40324402 C88.5090237 392.79747679 81.87336699 394.93579227 75.01083374 394.58293152 C69.22260936 393.45088083 63.73266309 390.67825637 59.77645874 386.25871277 C55.78608847 380.21269721 54.33975886 375.7268739 54.32868958 368.47862244 C54.32345388 367.73971874 54.31821818 367.00081503 54.31282383 366.23952031 C54.29893122 363.78057905 54.30614586 361.32216796 54.31332397 358.86320496 C54.30757807 357.09365882 54.30049391 355.3241166 54.29217529 353.55458069 C54.27708997 349.75302752 54.2712855 345.95161455 54.27270317 342.15003204 C54.27473886 336.14168505 54.25515842 330.13352647 54.23252869 324.12522888 C54.19158891 312.4625685 54.17295032 300.79992309 54.15635681 289.13720703 C54.13398532 274.27717232 54.10054222 259.41718107 54.04915768 244.55721784 C54.02920602 238.58106861 54.01965414 232.60501835 54.01820552 226.62883711 C54.01546135 222.91827942 54.00464547 219.20777671 53.9916954 215.49724197 C53.98740482 213.77306501 53.98656303 212.0488756 53.98937035 210.32469559 C53.99275585 207.97662534 53.98402414 205.62890433 53.97224426 203.28086853 C53.96979281 201.30758135 53.96979281 201.30758135 53.96729183 199.29442978 C53.95909372 195.97442672 53.95909372 195.97442672 51.71395874 193.13371277 C48.97120794 192.66256539 46.51836977 192.95565493 43.71395874 193.13371277 C41.80791669 195.03975482 42.58508831 198.45212594 42.58265686 200.97547913 C42.58054115 201.6995282 42.57842543 202.42357727 42.57624561 203.16956723 C42.5702175 205.61449911 42.57124777 208.05937979 42.57211304 210.50431824 C42.56908321 212.25014331 42.56556224 213.9959676 42.56158447 215.74179077 C42.55367837 219.51229313 42.54854399 223.28278595 42.54529381 227.05329514 C42.5393923 233.02130285 42.5228577 238.98925063 42.50395203 244.95722961 C42.49761389 246.99966999 42.49128828 249.04211041 42.48497486 251.08455086 C42.48180905 252.10774681 42.47864324 253.13094277 42.47538149 254.18514466 C42.43330787 268.08400545 42.40035868 281.98283948 42.38803101 295.88175964 C42.37963742 305.24875027 42.35709348 314.61559369 42.31867534 323.98251069 C42.29894833 328.93879224 42.28649872 333.89485391 42.29150963 338.85117722 C42.29617335 343.52160563 42.28225679 348.19161855 42.25449753 352.86196327 C42.24761306 354.56986566 42.24742943 356.27781126 42.2546978 357.98571205 C42.33444682 378.84350926 42.33444682 378.84350926 35.80245495 386.32227898 C30.62137656 391.25925909 25.1143582 394.19486241 17.90145874 394.63371277 C11.47053825 394.41804165 5.92472826 391.92969388 1.08114624 387.71183777 C-5.51377543 380.36659567 -5.72107459 373.04829452 -5.67131042 363.66394043 C-5.67916397 361.7787265 -5.67916397 361.7787265 -5.68717617 359.85542744 C-5.70129515 356.37860794 -5.69690653 352.90202282 -5.68946302 349.42519176 C-5.6847168 345.67126003 -5.69729205 341.91738177 -5.70782471 338.16346741 C-5.72378903 331.66253531 -5.72907674 325.16166552 -5.72729683 318.6607151 C-5.72491227 309.25712848 -5.7409083 299.85364137 -5.76174938 290.45008077 C-5.79526381 275.18699857 -5.8169338 259.92392528 -5.82974243 244.66081238 C-5.83051192 243.7477014 -5.83128141 242.83459041 -5.83207422 241.8938094 C-5.83517673 238.19367418 -5.83825954 234.49353894 -5.84131426 230.79340367 C-5.84984941 220.60076689 -5.86074926 210.40813318 -5.87271118 200.21549988 C-5.8737792 199.30259291 -5.87484722 198.38968595 -5.8759476 197.44911513 C-5.89402685 182.2388933 -5.92000961 167.02869274 -5.95084232 151.81849164 C-5.96941262 142.43551935 -5.98031308 133.05259478 -5.98136424 123.66960385 C-5.982466 117.24538703 -5.99039791 110.82120297 -6.00374789 104.39699999 C-6.01118084 100.68817097 -6.01524896 96.9794136 -6.01062965 93.27057838 C-6.00567538 89.25449727 -6.01596632 85.23860094 -6.02775574 81.22253418 C-6.02377464 80.04443926 -6.01979355 78.86634433 -6.01569182 77.65254956 C-6.02130721 76.57949982 -6.02692261 75.50645008 -6.03270817 74.40088367 C-6.03336027 73.47360393 -6.03401238 72.54632419 -6.03468424 71.59094507 C-6.17778295 68.7604401 -6.17778295 68.7604401 -8.28604126 65.13371277 C-11.25604126 65.13371277 -14.22604126 65.13371277 -17.28604126 65.13371277 C-18.22638266 67.95473696 -18.41271597 69.67277286 -18.41734314 72.59216309 C-18.42135132 73.50475891 -18.4253595 74.41735474 -18.42948914 75.35760498 C-18.42869606 76.85613258 -18.42869606 76.85613258 -18.42788696 78.38493347 C-18.43136139 79.43887299 -18.43483582 80.4928125 -18.43841553 81.57868958 C-18.44577403 83.87040999 -18.45111891 86.16213754 -18.45470619 88.45386696 C-18.46186485 92.08094712 -18.47752688 95.70789147 -18.49604797 99.33493042 C-18.54854715 109.64861698 -18.59650407 119.96222943 -18.61196899 130.27604675 C-18.62204516 136.58199847 -18.65136092 142.8876091 -18.6932888 149.19342613 C-18.70560878 151.59714873 -18.71071825 154.00091948 -18.70849037 156.40467262 C-18.70613995 159.76825539 -18.72828568 163.13085806 -18.75601196 166.49430847 C-18.74610985 167.98372704 -18.74610985 167.98372704 -18.73600769 169.50323486 C-18.81347203 175.22595978 -19.41388004 178.61977007 -23.28604126 183.13371277 C-28.20453398 187.57235254 -32.14585684 188.59923388 -38.64151001 188.55168152 C-43.11022759 187.84539972 -46.23952278 185.38930605 -49.28604126 182.13371277 C-51.26766618 178.90386825 -51.54209036 176.4217526 -51.56019592 172.65974426 C-51.57017105 171.5469812 -51.58014618 170.43421814 -51.59042358 169.28773499 C-51.59108826 168.07111176 -51.59175293 166.85448853 -51.59243774 165.60099792 C-51.60076126 164.31592346 -51.60908478 163.030849 -51.61766052 161.70683289 C-51.63960094 158.18144004 -51.64840527 154.65613397 -51.65348697 151.13068056 C-51.65713503 148.92276139 -51.66337782 146.71486475 -51.67048836 144.50695419 C-51.69499382 136.7879665 -51.70803441 129.06904596 -51.71157837 121.35002136 C-51.71520117 114.18367104 -51.74500283 107.01775229 -51.78698295 99.85153353 C-51.82184962 93.68056981 -51.83712972 87.50974775 -51.8378244 81.33868635 C-51.83861252 77.66158589 -51.84713165 73.98492386 -51.87582207 70.30792618 C-51.90721758 66.19177448 -51.89786562 62.07662582 -51.88540649 57.96037292 C-51.90024078 56.763992 -51.91507507 55.56761108 -51.93035889 54.3349762 C-51.79720581 38.77495036 -45.51689426 26.63699339 -35.09854126 15.44621277 C-27.45573878 8.10236345 -18.55084154 3.55114762 -8.28604126 1.13371277 C-7.36193168 0.87463906 -7.36193168 0.87463906 -6.41915321 0.61033154 C-4.20827867 0.11633763 -2.2631014 0.00515645 0 0 Z " fill="#FEFDFD" transform="translate(1152.2860412597656,772.8662872314453)"/>
<path d="M0 0 C0.91911163 -0.0065712 1.83822327 -0.0131424 2.78518677 -0.01991272 C5.83270348 -0.03965089 8.88017077 -0.05131261 11.92773438 -0.0612793 C12.97037949 -0.06535482 14.0130246 -0.06943035 15.08726501 -0.07362938 C20.61123456 -0.09449733 26.13517924 -0.10879309 31.65917969 -0.11816406 C37.34727704 -0.12919967 43.03498008 -0.16356473 48.72293854 -0.20333576 C53.1103586 -0.22957329 57.497686 -0.23786248 61.88517761 -0.24144554 C63.98059232 -0.246297 66.07600329 -0.25786954 68.17134094 -0.27648354 C84.12004999 -0.40930017 96.17110424 0.60699317 108.08007812 12.17700195 C118.18367414 22.87268016 122.03105043 35.54604364 126.14648438 49.30200195 C126.73023537 51.22598535 127.31506722 53.14964108 127.90087891 55.07299805 C128.85978384 58.22203542 129.817556 61.37138214 130.77084351 64.52212524 C133.3505695 73.03381689 136.00716813 81.51954533 138.68489456 90.00073624 C140.07471897 94.40909017 141.45520669 98.82037702 142.83551598 103.23171806 C143.97382545 106.86756922 145.11725224 110.50164009 146.27252197 114.13214111 C147.37187372 117.58821442 148.45581418 121.0487789 149.52915192 124.51301575 C150.11869478 126.40205304 150.72396593 128.28615952 151.32977295 130.17004395 C153.94258822 138.66698253 155.93587404 147.09219616 152.45898438 155.61450195 C149.60557792 160.58758178 145.35772759 162.39825422 140.02148438 164.17700195 C133.84476356 164.90983324 130.84182066 163.96072315 125.88085938 160.27075195 C121.26501215 155.07307524 119.1979041 148.28698313 117.20898438 141.73950195 C116.95528076 140.92078613 116.70157715 140.10207031 116.44018555 139.25854492 C114.1515262 131.78676578 112.06738452 124.25966519 109.98364258 116.72875977 C107.44792398 107.60537989 104.8065535 98.51506964 102.11972046 89.4352417 C101.6450037 87.82991024 101.17167083 86.22416877 100.69985962 84.61798096 C97.77832634 74.68025126 94.62840887 64.88922525 91.02148438 55.17700195 C89.35536532 55.13428095 87.68765553 55.13636363 86.02148438 55.17700195 C84.64700894 56.33500206 84.64700894 56.33500206 84.75976562 59.5012207 C84.83772004 65.25067844 86.57324198 70.51915033 88.20898438 75.98950195 C88.85996017 78.23523773 89.50969034 80.48133493 90.15820312 82.7277832 C90.47837402 83.82815918 90.79854492 84.92853516 91.12841797 86.06225586 C92.3291154 90.24992613 93.43539351 94.45843519 94.52148438 98.67700195 C97.52025985 110.22346814 100.78355273 121.69580722 104.02148438 133.17700195 C107.472197 145.41268446 110.91332189 157.64527615 114.11230469 169.94946289 C115.8030966 176.42036117 117.58885411 182.86284664 119.39648438 189.30200195 C119.68789307 190.34050293 119.97930176 191.37900391 120.27954102 192.44897461 C121.85221169 198.0432686 123.43536051 203.63449334 125.02539062 209.22387695 C125.34910645 210.36711426 125.67282227 211.51035156 126.00634766 212.68823242 C126.63027677 214.89133221 127.25743493 217.09352068 127.88818359 219.29467773 C128.16807129 220.2845166 128.44795898 221.27435547 128.73632812 222.29418945 C128.98503662 223.16672363 129.23374512 224.03925781 129.48999023 224.93823242 C130.02148438 227.17700195 130.02148438 227.17700195 130.02148438 230.17700195 C115.83148437 230.17700195 101.64148438 230.17700195 87.02148438 230.17700195 C87.04766846 233.91125488 87.07385254 237.64550781 87.10083008 241.49291992 C87.18376727 253.84614966 87.23919854 266.1993753 87.28054523 278.55280876 C87.30627657 286.04096592 87.34132914 293.52885845 87.39868164 301.0168457 C87.44867303 307.54689823 87.48081222 314.07675902 87.49192685 320.60699761 C87.49841927 324.0616437 87.51356995 327.51574148 87.55013466 330.97021103 C87.59071694 334.83595448 87.59142375 338.70117198 87.58911133 342.56713867 C87.6160759 344.26647301 87.6160759 344.26647301 87.64358521 346.00013733 C87.59644947 353.30721286 86.36822337 359.16227551 82.02148438 365.17700195 C75.83322789 370.28068948 69.9413285 371.85841711 62.02148438 371.17700195 C56.27705758 370.04268579 52.91942654 367.58286416 49.24804688 363.09106445 C46.67866906 359.08152582 45.77145328 355.5674697 45.78097534 350.83024597 C45.77822601 349.77160339 45.77547668 348.71296082 45.77264404 347.62223816 C45.78342987 345.89593925 45.78342987 345.89593925 45.79443359 344.13476562 C45.79414154 342.91483917 45.79384949 341.69491272 45.79354858 340.4380188 C45.79470155 337.10154683 45.80471835 333.76532366 45.8186965 330.42889571 C45.83121576 326.9388768 45.8323753 323.44885443 45.83474731 319.95881653 C45.84095857 313.35387329 45.85736458 306.74899641 45.87744629 300.14408237 C45.89981633 292.62295805 45.9108015 285.10183052 45.92083716 277.5806812 C45.94173114 262.11274866 45.97730402 246.64488648 46.02148438 231.17700195 C42.06148437 231.17700195 38.10148438 231.17700195 34.02148438 231.17700195 C34.03258743 232.70827728 34.04369049 234.23955261 34.05513 235.81723022 C34.15659633 250.26532778 34.23179423 264.71329391 34.28054523 279.16165733 C34.30627582 286.58928153 34.34132692 294.01663891 34.39868164 301.4440918 C34.44867536 307.92140663 34.48081276 314.39852814 34.49192685 320.87603056 C34.49841889 324.30273298 34.51356701 327.72888255 34.55013466 331.15540695 C34.58656083 334.99024657 34.59142369 338.82395008 34.58911133 342.65893555 C34.60708771 343.78247437 34.62506409 344.90601318 34.64358521 346.06359863 C34.59622736 353.34713064 33.34823702 359.18047496 29.02148438 365.17700195 C22.83394752 370.28114892 16.94081605 371.85837302 9.02148438 371.17700195 C3.27705758 370.04268579 -0.08057346 367.58286416 -3.75195312 363.09106445 C-6.31523908 359.09103224 -7.22849782 355.55495395 -7.25698853 350.83024597 C-7.26815201 349.77160339 -7.27931549 348.71296082 -7.29081726 347.62223816 C-7.29297745 346.47137222 -7.29513763 345.32050629 -7.29736328 344.13476562 C-7.30740891 342.91483917 -7.31745453 341.69491272 -7.32780457 340.4380188 C-7.35336597 337.10160738 -7.3702396 333.7653654 -7.38323259 330.42889571 C-7.39888412 326.9388203 -7.42566787 323.44883062 -7.45126343 319.95881653 C-7.49801549 313.35393744 -7.53477684 306.74904216 -7.5679363 300.14408237 C-7.60618298 292.62289569 -7.65558645 285.10179519 -7.70592046 277.5806812 C-7.80918719 262.11284416 -7.89699189 246.64497119 -7.97851562 231.17700195 C-21.83851563 230.84700195 -35.69851563 230.51700195 -49.97851562 230.17700195 C-49.09949325 224.9028677 -47.97109222 219.84970675 -46.66601562 214.67700195 C-46.46556641 213.8674707 -46.26511719 213.05793945 -46.05859375 212.22387695 C-44.50583308 206.03206352 -42.77390895 199.89919892 -41.00708008 193.76538086 C-39.37173753 188.06011981 -37.80156583 182.33719147 -36.22851562 176.61450195 C-35.70455683 174.71281222 -35.18059765 172.81112258 -34.65661621 170.90943909 C-33.08891233 165.21823428 -31.52517182 159.52594782 -29.96289062 153.83325195 C-26.67523473 141.86712173 -23.34576445 129.91574932 -19.91601562 117.98950195 C-16.37835496 105.6820393 -13.01490873 93.33330704 -9.72607422 80.95727539 C-9.05320208 78.45477118 -8.36038717 75.95936101 -7.65429688 73.46606445 C-7.46254883 72.7800415 -7.27080078 72.09401855 -7.07324219 71.38720703 C-6.59044812 69.66575827 -6.09940287 67.94662893 -5.60742188 66.2277832 C-4.89955305 62.79395991 -4.80172951 59.67391759 -4.97851562 56.17700195 C-6.04496677 54.88066575 -6.04496677 54.88066575 -8.54101562 55.11450195 C-9.34539062 55.13512695 -10.14976562 55.15575195 -10.97851562 55.17700195 C-13.38476008 59.64872214 -14.99321989 64.11840147 -16.35351562 68.98950195 C-16.7909091 70.5142721 -17.22841202 72.03901085 -17.66601562 73.5637207 C-17.88515625 74.33506348 -18.10429688 75.10640625 -18.33007812 75.90112305 C-19.31942639 79.37352686 -20.33484514 82.83810566 -21.35351562 86.30200195 C-21.55372314 86.98472168 -21.75393066 87.66744141 -21.96020508 88.37084961 C-24.0747238 95.55547254 -26.2715901 102.7148192 -28.46240234 109.87646484 C-30.02076683 114.98387053 -31.54161729 120.0962693 -32.97851562 125.23950195 C-33.642292 127.55283323 -34.30937793 129.86521575 -34.97851562 132.17700195 C-35.22037598 133.03245605 -35.46223633 133.88791016 -35.71142578 134.76928711 C-36.54920619 137.70376928 -37.41789261 140.62785901 -38.29101562 143.55200195 C-38.55076172 144.48020752 -38.81050781 145.40841309 -39.078125 146.36474609 C-41.29566923 153.64057162 -44.80824844 159.67484164 -51.47851562 163.67700195 C-57.36532986 164.8543648 -61.88985642 164.48390373 -67.11132812 161.5480957 C-70.644081 158.95396127 -72.44862767 156.26211091 -73.97851562 152.17700195 C-75.61437208 141.009639 -71.94033383 130.90211508 -68.57226562 120.4465332 C-68.00687052 118.64461072 -67.44314343 116.84216411 -66.88098145 115.03923035 C-65.40095161 110.30780126 -63.89911354 105.5835852 -62.39221191 100.86065674 C-60.88995833 96.14004814 -59.4074515 91.41325767 -57.92382812 86.68676758 C-56.19874597 81.19480094 -54.47106103 75.70372314 -52.72952271 70.21694946 C-50.27397568 62.47983174 -47.826709 54.74219008 -45.48583984 46.96948242 C-45.12244507 45.76652023 -44.75905029 44.56355804 -44.38464355 43.32414246 C-43.74195649 41.18491128 -43.10518039 39.04388917 -42.47619629 36.90058899 C-38.54454179 23.81424506 -31.12505641 11.79466459 -19.22460938 4.4855957 C-12.65434512 1.1287358 -7.37407131 0.02280139 0 0 Z " fill="#FEFEFE" transform="translate(829.978515625,795.822998046875)"/>
<path d="M0 0 C1.22880386 -0.00960754 2.45760773 -0.01921509 3.72364807 -0.02911377 C5.06828627 -0.03396443 6.41292664 -0.0382426 7.75756836 -0.04199219 C9.14179993 -0.04774923 10.5260315 -0.05350689 11.91026306 -0.05926514 C14.81631846 -0.0697714 17.72234625 -0.07561527 20.62841797 -0.07910156 C24.32794001 -0.08455958 28.02708902 -0.10853061 31.72649479 -0.13707352 C34.58950307 -0.15583289 37.45242431 -0.16091269 40.31548882 -0.16243744 C42.33488624 -0.16688712 44.35423682 -0.18547613 46.37355042 -0.20440674 C56.59243431 -0.17988948 65.60018218 0.64021709 73.24731445 7.98291016 C80.05639741 16.27991072 83.34073656 27.6576185 87.15991211 37.59863281 C88.28729254 40.51300776 89.4194743 43.4254865 90.55444336 46.33691406 C90.98248512 47.43570892 90.98248512 47.43570892 91.41917419 48.55670166 C93.38569438 53.57674241 95.4368721 58.55520024 97.54663086 63.51660156 C97.82659912 64.17790573 98.10656738 64.8392099 98.39501953 65.52055359 C99.72422397 68.65702891 101.06573972 71.78655966 102.42797852 74.90893555 C107.53273039 86.91731436 107.53273039 86.91731436 104.90991211 94.34863281 C102.31177687 98.24583567 99.67372059 100.57134132 95.00756836 101.61425781 C92.90991211 101.78613281 92.90991211 101.78613281 89.03491211 101.16113281 C85.9890766 97.30355004 84.16897736 93.389411 82.51928711 88.78613281 C82.07641357 87.5630542 81.63354004 86.33997559 81.17724609 85.07983398 C80.71313404 83.77360052 80.24902272 82.46736679 79.78491211 81.16113281 C79.30147531 79.82138648 78.81717382 78.48195186 78.33203125 77.14282227 C76.06706411 70.88010536 73.83694435 64.60511727 71.60913086 58.32910156 C71.24529297 57.31138672 70.88145508 56.29367187 70.5065918 55.24511719 C69.82965086 53.34917119 69.15945504 51.45080002 68.49682617 49.54980469 C68.19873047 48.71384766 67.90063477 47.87789062 67.59350586 47.01660156 C67.33883545 46.29110107 67.08416504 45.56560059 66.82177734 44.81811523 C66.14849047 42.96120781 66.14849047 42.96120781 64.03491211 42.16113281 C64.03859928 42.88743204 64.04228645 43.61373127 64.04608536 44.36203957 C64.13444509 62.03924191 64.20062591 79.71638812 64.2421608 97.39376259 C64.26278095 105.94243936 64.29089102 114.49096866 64.33666992 123.03955078 C64.37655452 130.49100893 64.4023489 137.94236028 64.41126609 145.39392221 C64.41647813 149.33905979 64.42871663 153.28389183 64.45783234 157.22893143 C64.4850273 160.94389509 64.49334901 164.658428 64.48734283 168.37348175 C64.48896413 170.38341267 64.51046557 172.39329692 64.53259277 174.40310669 C64.48233965 185.39804735 64.48233965 185.39804735 60.03491211 190.16113281 C54.78739879 194.78394217 51.68736821 195.51444281 44.79663086 195.44238281 C39.72848597 194.92624925 37.11590446 192.33220786 33.78491211 188.72363281 C30.68208821 184.18021211 29.78474352 180.48951169 29.73193359 175.00976562 C29.7152916 173.7921051 29.6986496 172.57444458 29.6815033 171.31988525 C29.67308914 170.0145282 29.66467499 168.70917114 29.65600586 167.36425781 C29.63982171 166.00615249 29.62264075 164.64805872 29.60450745 163.28997803 C29.55894707 159.72631145 29.52406781 156.16262935 29.49230957 152.59881592 C29.44030074 146.8805572 29.37542458 141.16246698 29.30409431 135.44441986 C29.28121681 133.44519234 29.26526335 131.44588951 29.24937439 129.44659424 C29.23588455 128.24154236 29.22239471 127.03649048 29.20849609 125.79492188 C29.19898422 124.72856506 29.18947235 123.66220825 29.17967224 122.5635376 C29.30437491 120.20949693 29.30437491 120.20949693 28.03491211 119.16113281 C25.53491211 118.99446615 25.53491211 118.99446615 23.03491211 119.16113281 C21.29743336 120.89861156 21.90100397 123.27505836 21.89306641 125.63964844 C21.88603195 126.8117688 21.8789975 127.98388916 21.87174988 129.19152832 C21.86550346 131.11007629 21.86550346 131.11007629 21.85913086 133.06738281 C21.84187013 135.06787269 21.82458545 137.06836268 21.80592823 139.06884003 C21.76036854 144.01331018 21.72268547 148.95767563 21.70898438 153.90234375 C21.7008146 156.66926707 21.68214142 159.43574277 21.65205383 162.20251465 C21.62402465 164.80794342 21.61097636 167.41358847 21.61491394 170.01916504 C21.50936755 177.68244565 21.00781298 184.9379211 15.51713562 190.77453613 C10.54890923 195.06076401 7.17878095 195.50468782 0.79663086 195.44628906 C-3.02781462 195.0514029 -5.10316515 193.67404058 -7.96508789 191.16113281 C-9.07883789 190.23300781 -9.07883789 190.23300781 -10.21508789 189.28613281 C-13.66801325 185.09329488 -14.2151656 180.4541086 -14.20559692 175.16262817 C-14.20834625 173.98481277 -14.21109558 172.80699738 -14.21392822 171.5934906 C-14.20673767 170.3153096 -14.19954712 169.0371286 -14.19213867 167.72021484 C-14.19157405 166.3498892 -14.19189212 164.97956296 -14.19302368 163.60923767 C-14.19359619 159.90098015 -14.18185842 156.1928527 -14.16787577 152.48462534 C-14.15535141 148.6048998 -14.15419656 144.7251711 -14.15182495 140.84542847 C-14.14561519 133.50386959 -14.1292112 126.16237046 -14.10912597 118.82083786 C-14.08675128 110.46052762 -14.07576959 102.10021449 -14.0657351 93.73988175 C-14.04484452 76.54693091 -14.00967836 59.35403819 -13.96508789 42.16113281 C-16.2182313 43.00773836 -16.2182313 43.00773836 -16.90722656 45.58764648 C-17.22925049 46.65732666 -17.55127441 47.72700684 -17.88305664 48.82910156 C-18.24705566 50.02253174 -18.61105469 51.21596191 -18.98608398 52.44555664 C-19.37492059 53.74658144 -19.76375518 55.04760685 -20.15258789 56.34863281 C-20.55353156 57.66881567 -20.95539323 58.98872007 -21.3581543 60.30834961 C-22.17318469 62.9795456 -22.98536212 65.65158192 -23.7956543 68.32421875 C-25.43579344 73.72043643 -27.13134093 79.09879575 -28.84008789 84.47363281 C-29.11361084 85.34205811 -29.38713379 86.2104834 -29.66894531 87.10522461 C-34.87933154 103.50769471 -34.87933154 103.50769471 -39.96508789 106.16113281 C-43.09838557 106.75930782 -45.8403815 106.83475611 -48.96508789 106.16113281 C-51.72078236 103.97954136 -53.40097536 102.28935788 -54.96508789 99.16113281 C-55.29960771 93.41281453 -54.66614237 89.39306313 -52.54321289 83.96191406 C-52.2872937 83.29709015 -52.03137451 82.63226624 -51.7677002 81.94729614 C-50.93042739 79.78381906 -50.07360256 77.62875942 -49.21508789 75.47363281 C-48.62223034 73.96033012 -48.03011784 72.44673535 -47.4387207 70.93286133 C-45.92660998 67.07670332 -44.39495807 63.22867359 -42.85473633 59.38366699 C-42.0053286 57.26166282 -41.16039996 55.13793101 -40.31665039 53.01367188 C-22.94534662 9.37099734 -22.94534662 9.37099734 -12.90258789 3.41113281 C-12.23098633 3.00378906 -11.55938477 2.59644531 -10.86743164 2.17675781 C-7.15577437 0.19517488 -4.13876521 0.02610905 0 0 Z " fill="#FEFDFD" transform="translate(1016.965087890625,971.8388671875)"/>
<path d="M0 0 C14.52 0 29.04 0 44 0 C44 95.04 44 190.08 44 288 C25.52 288 7.04 288 -12 288 C-12 212.43 -12 136.86 -12 59 C-26.355 63.95 -26.355 63.95 -41 69 C-44.96 70.32 -48.92 71.64 -53 73 C-53 59.47 -53 45.94 -53 32 C-48.05 29.69 -43.1 27.38 -38 25 C-34.21988587 23.05730209 -30.47429003 21.10388436 -26.75 19.0625 C-25.33859741 18.28990845 -25.33859741 18.28990845 -23.89868164 17.50170898 C-14.93440838 12.52345651 -7.28746184 7.28746184 0 0 Z " fill="#FEFBFC" transform="translate(142,128)"/>
<path d="M0 0 C6.37672331 5.2044368 9.32852151 12.39382119 10.6875 20.375 C10.99646941 24.94261104 11.01532302 29.50118885 11.0234375 34.078125 C11.0300943 35.39230408 11.0367511 36.70648315 11.04360962 38.06048584 C11.05553015 40.83413987 11.05929597 43.60766986 11.05810547 46.38134766 C11.0579028 49.9024608 11.08517351 53.42276218 11.11964989 56.94368362 C11.14749362 60.34267303 11.14607402 63.74152349 11.1484375 67.140625 C11.16280853 68.38789368 11.17717957 69.63516235 11.19198608 70.92022705 C11.14121761 80.77595897 9.52963672 90.94783625 3.234375 98.9140625 C-4.38662041 106.11166927 -13.81921949 107.7255518 -23.8984375 107.56640625 C-32.10226601 107.10646621 -39.14182289 104.90447301 -44.9375 98.875 C-52.41442606 89.59436343 -52.91971682 79.52040753 -52.84375 67.99609375 C-52.84645269 66.5336125 -52.85034152 65.07113302 -52.85534668 63.60865784 C-52.86120354 60.56192712 -52.85280256 57.51566934 -52.83398438 54.46899414 C-52.81117587 50.59012244 -52.82435307 46.71235709 -52.84827423 42.83352566 C-52.86281924 39.81948201 -52.85808716 36.80569507 -52.84776306 33.79164314 C-52.84512076 32.36249722 -52.84827621 30.93332694 -52.85768127 29.50420952 C-52.91007711 19.31055343 -51.71982818 11.68642334 -46.1875 3.0625 C-34.03103672 -8.30115046 -13.69008188 -9.16064958 0 0 Z " fill="#FEFBFC" transform="translate(426.3125,311.625)"/>
<path d="M0 0 C6.32404784 5.785831 9.06886624 13.09400872 9.8359375 21.4921875 C10.00299902 25.97753472 10.02374108 30.46107764 10.0390625 34.94921875 C10.04476257 36.24736008 10.05046265 37.5455014 10.05633545 38.88298035 C10.06679587 41.62389513 10.07267098 44.36478101 10.07617188 47.10571289 C10.08164905 50.59213783 10.10568112 54.07817081 10.13414383 57.56447315 C10.15741177 60.92187964 10.15922847 64.27923596 10.1640625 67.63671875 C10.1764093 68.87557327 10.1887561 70.1144278 10.20147705 71.39082336 C10.17377945 82.26180771 8.39339461 92.23436259 0.8359375 100.4921875 C-9.27261027 107.84545402 -21.11919674 107.60683004 -33.1640625 106.4921875 C-39.92008244 104.70699772 -44.3322241 101.2399451 -48.1640625 95.4921875 C-51.91614428 89.00899857 -53.27909832 83.63805543 -53.32519531 76.10058594 C-53.33480286 74.82866394 -53.3444104 73.55674194 -53.35430908 72.24627686 C-53.35915836 70.86470724 -53.36343687 69.48313553 -53.3671875 68.1015625 C-53.37001488 67.40026466 -53.37284225 66.69896683 -53.37575531 65.97641754 C-53.39071328 62.26373421 -53.39996362 58.55108937 -53.40429688 54.83837891 C-53.40977064 51.02447952 -53.43378492 47.21093909 -53.46226883 43.39715195 C-53.480996 40.44583137 -53.48610617 37.49459546 -53.48763275 34.54322052 C-53.49063809 33.13834933 -53.49859403 31.73347886 -53.51181793 30.32866669 C-53.61419406 18.61523054 -52.53256092 9.19621533 -44.1640625 0.4921875 C-32.87360758 -8.83350689 -11.58329846 -8.07067366 0 0 Z " fill="#FEFBFC" transform="translate(428.1640625,132.5078125)"/>
<path d="M0 0 C1.07121094 0.69996094 1.07121094 0.69996094 2.1640625 1.4140625 C9.58238302 7.00231276 15.40087455 16.87641817 17 26 C18.21246029 38.47318523 15.96081341 51.0224472 8 61 C1.16990191 69.15944604 -6.68699563 73.5148068 -17 76 C-31.16372693 77.11172984 -41.94758548 75.29777589 -53 66 C-61.2301922 58.36076731 -66.38847406 49.12026246 -67.23828125 37.8359375 C-67.52725966 24.36041785 -63.52635044 13.75472323 -54.375 3.875 C-39.44379697 -10.48955396 -16.80476419 -11.27991021 0 0 Z " fill="#FEFDFD" transform="translate(1225,681)"/>
<path d="M0 0 C1.31822754 -0.02223633 1.31822754 -0.02223633 2.66308594 -0.04492188 C13.23597398 0.12195573 22.59358617 5.2340341 30.2578125 12.375 C39.83933614 22.66165742 41.90503683 33.40664407 41.65234375 46.96875 C41.11608762 57.80957927 35.2387207 67.04370697 27.4375 74.30859375 C16.58642461 83.08133817 3.81098346 84.68635287 -9.6875 83.5625 C-13.40794622 82.74043171 -16.40315837 81.47144947 -19.6875 79.5625 C-20.85152344 78.90894531 -20.85152344 78.90894531 -22.0390625 78.2421875 C-32.09346486 72.08848974 -37.5530964 63.80700682 -41.3046875 52.7421875 C-43.4007859 40.80725986 -42.21395337 28.63845285 -35.5625 18.4375 C-26.1182545 5.87803364 -15.69241672 0.18661846 0 0 Z " fill="#FEFDFD" transform="translate(276.6875,673.4375)"/>
<path d="M0 0 C46.10211916 0 46.10211916 0 54.5625 8.27734375 C61.47051084 16.5556937 60.91460473 26.74820037 60 37 C58.94193427 43.61698029 56.86645821 48.36527789 52 53 C50.35334858 53.71467569 48.68829581 54.39018078 47 55 C47.36351562 56.10472656 47.72703125 57.20945312 48.1015625 58.34765625 C51.39092989 68.48186702 54.31429326 78.65697108 56.90673828 88.99243164 C58.2045903 94.12896897 59.6461919 99.13451162 61.44262695 104.12060547 C62 106 62 106 62 109 C55.07 109 48.14 109 41 109 C40.13375 105.2565625 40.13375 105.2565625 39.25 101.4375 C37.17174198 92.5501223 34.84808593 83.74327548 32.43554688 74.94042969 C32.05452725 73.54873938 31.67494558 72.1566545 31.296875 70.76416016 C30.77919834 68.85753854 30.25692348 66.95216715 29.734375 65.046875 C29 62 29 62 29 59 C26.03 59 23.06 59 20 59 C20 75.5 20 92 20 109 C13.4 109 6.8 109 0 109 C0 73.03 0 37.06 0 0 Z " fill="#FEFDFD" transform="translate(577,308)"/>
<path d="M0 0 C9.45534638 7.00494676 15.98932061 15.24525896 18 27 C18.77546855 36.30562257 18.68433358 44.6528386 14 53 C13.57589844 53.77859375 13.15179687 54.5571875 12.71484375 55.359375 C6.70877372 65.33045504 -1.9928201 70.19355237 -12.85546875 73.578125 C-24.4821103 75.86533317 -34.57327042 73.61878398 -44.53125 67.42578125 C-51.97407431 62.10416187 -58.24967682 53.81639942 -60.5546875 44.83984375 C-62.56537054 32.01732996 -61.49128964 20.97351724 -53.8125 10.3125 C-40.70378893 -5.47373503 -18.13738781 -11.50306306 0 0 Z " fill="#FEFDFD" transform="translate(654,703)"/>
<path d="M0 0 C7.77121225 6.37271189 14.72577366 14.19054262 16.03662109 24.50537109 C17.09307561 37.99445907 15.46746688 48.75993872 6.8125 59.5625 C-0.23295042 66.90397775 -10.05775364 71.7598338 -20.23046875 72.453125 C-33.66628912 72.64950727 -42.9432111 69.11109309 -52.9375 60.125 C-61.39108257 51.29701634 -63.65466846 40.66041435 -63.51953125 28.87890625 C-62.70808283 17.95375295 -56.95303268 8.3566371 -48.859375 1.109375 C-34.57204754 -9.58365624 -14.75115102 -10.30328487 0 0 Z " fill="#FEFDFD" transform="translate(893.25,704.75)"/>
<path d="M0 0 C4.62 0 9.24 0 14 0 C16.75796211 6.33085507 19.51466777 12.66225527 22.27026367 18.99414062 C23.20579974 21.1433756 24.14166541 23.29246713 25.07788086 25.44140625 C26.43171718 28.54909239 27.78432547 31.65731066 29.13671875 34.765625 C29.54838791 35.70988342 29.96005707 36.65414185 30.38420105 37.62701416 C33.32565725 44.39208574 36.16186132 51.18846716 39 58 C39.33 38.86 39.66 19.72 40 0 C45.61 0 51.22 0 57 0 C57 36.3 57 72.6 57 110 C52.38 110 47.76 110 43 110 C42.45585449 108.67983887 41.91170898 107.35967773 41.35107422 105.99951172 C39.30566548 101.03784503 37.25897078 96.07670963 35.21191406 91.11572266 C34.33103672 88.98044766 33.45049463 86.84503432 32.5703125 84.70947266 C31.29518273 81.61583394 30.01879309 78.52271745 28.7421875 75.4296875 C28.35755341 74.49575165 27.97291931 73.5618158 27.57662964 72.59957886 C24.45220937 65.03486603 21.22497851 57.52494987 18 50 C17.67 69.8 17.34 89.6 17 110 C11.39 110 5.78 110 0 110 C0 73.7 0 37.4 0 0 Z " fill="#FEFCFC" transform="translate(306,128)"/>
<path d="M0 0 C45.71639042 0 45.71639042 0 53 7 C58.58047192 14.05729963 59.54641297 20.96143614 59.5625 29.6875 C59.56483643 30.56591553 59.56717285 31.44433105 59.56958008 32.34936523 C59.36442838 40.47077942 57.89560268 48.05020979 52 54 C41.9047785 61.86131269 33.30362847 60 20 60 C20 76.17 20 92.34 20 109 C13.4 109 6.8 109 0 109 C0 73.03 0 37.06 0 0 Z " fill="#FEFCFD" transform="translate(306,308)"/>
<path d="M0 0 C5.61 0 11.22 0 17 0 C19.33060145 6.47828199 20.80068848 12.7102328 21.875 19.5 C24.74156761 36.76291899 28.23968133 53.91042166 32 71 C32.08975098 70.44054687 32.17950195 69.88109375 32.27197266 69.3046875 C34.59655943 54.89977619 37.16065298 40.55088292 39.89306641 26.21875 C41.21129886 19.28563042 42.46917395 12.35373861 43.56591797 5.38183594 C44 3 44 3 45 0 C50.94 0 56.88 0 63 0 C62.41121366 6.72331861 61.49672314 13.22735549 60.14453125 19.8359375 C59.96240585 20.74491287 59.78028046 21.65388824 59.59263611 22.59040833 C59.00417466 25.51962167 58.40855158 28.44732259 57.8125 31.375 C57.40177506 33.4105141 56.99129501 35.44607763 56.58105469 37.48168945 C54.15488893 49.48644393 51.6491973 61.47122532 49.04174805 73.43798828 C46.4804712 85.25048476 44.22975008 97.12115444 42 109 C35.4 109 28.8 109 22 109 C20.63783707 104.91351122 19.54607429 101.25708637 18.69067383 97.09106445 C18.45293243 95.94206161 18.21519104 94.79305878 17.97024536 93.60923767 C17.7183847 92.37307205 17.46652405 91.13690643 17.20703125 89.86328125 C16.93746509 88.55332857 16.66759155 87.24343911 16.39743042 85.93360901 C15.67912711 82.44598461 14.96548579 78.95742273 14.25307846 75.46858978 C13.66571089 72.59414781 13.07608416 69.72017114 12.48649693 66.84618378 C11.04081664 59.79851381 9.60022632 52.74981564 8.16300297 45.70041656 C7.34642584 41.69577795 6.52742193 37.69164704 5.70605469 33.68798828 C4.84190055 29.47521691 3.98219699 25.26157786 3.12826538 21.04672241 C2.83682067 19.61072712 2.54389689 18.17503113 2.24942017 16.73965454 C1.85294975 14.80396298 1.46336528 12.86686472 1.07421875 10.9296875 C0.86369873 9.89054199 0.65317871 8.85139648 0.4362793 7.78076172 C0 5 0 5 0 0 Z " fill="#FEFBFB" transform="translate(446,308)"/>
<path d="M0 0 C8.34598534 4.34207665 13.79555633 10.35784543 17.39355469 19.06616211 C18.45861394 22.46243196 18.48864747 25.77693126 18.4375 29.3125 C18.42847656 30.06015625 18.41945313 30.8078125 18.41015625 31.578125 C18.10855315 41.24617978 14.94464531 47.97757566 8.2890625 55.01953125 C-0.42525415 62.55905095 -9.87581947 63.70671265 -21 63 C-30.40604038 61.31320249 -37.10343973 55.74292231 -42.67578125 48.22265625 C-47.8558173 39.52814147 -48.34581881 30.91795534 -47 21 C-44.296151 11.88812791 -38.96283632 5.47743227 -30.81640625 0.7265625 C-20.87984443 -4.41492453 -10.29870441 -4.48137384 0 0 Z " fill="#FEFDFD" transform="translate(1057,896)"/>
<path d="M0 0 C8.13795347 4.23384613 14.59223013 10.58334399 17.52734375 19.4765625 C19.31902204 29.04205155 19.21145893 39.54978128 14 48 C8.5858736 55.75941618 1.45525218 61.23266314 -8 63 C-18.90340821 63.75900566 -27.51065609 62.69919678 -36.1484375 55.73046875 C-43.32555594 49.02273992 -46.96868947 41.79220515 -47.50439453 31.98168945 C-47.76074751 22.13579624 -45.79567779 14.42720737 -39.1015625 6.8515625 C-28.10486504 -3.44969164 -13.92969545 -6.06136173 0 0 Z " fill="#FEFDFD" transform="translate(462,896)"/>
<path d="M0 0 C15.18 0 30.36 0 46 0 C46 4.95 46 9.9 46 15 C37.42 15 28.84 15 20 15 C20 25.23 20 35.46 20 46 C26.6 46 33.2 46 40 46 C40 50.62 40 55.24 40 60 C33.4 60 26.8 60 20 60 C20 71.88 20 83.76 20 96 C28.58 96 37.16 96 46 96 C46 100.62 46 105.24 46 110 C30.82 110 15.64 110 0 110 C0 73.7 0 37.4 0 0 Z " fill="#FEFCFC" transform="translate(520,307)"/>
<path d="M0 0 C6.27 0 12.54 0 19 0 C23.50868654 13.95119632 27.96677186 27.90309204 32 42 C35.39889692 31.34907878 38.59007284 20.64630714 41.67602539 9.90039062 C41.96340576 8.90458984 42.25078613 7.90878906 42.546875 6.8828125 C42.80307617 5.98965332 43.05927734 5.09649414 43.32324219 4.17626953 C44 2 44 2 45 0 C51.27 0 57.54 0 64 0 C62.20240526 6.22421612 60.20544935 12.29998537 57.94152832 18.36898804 C46.35262151 49.5298076 40.25918548 76.74387354 42 110 C35.4 110 28.8 110 22 110 C21.99742187 107.02097656 21.99484375 104.04195313 21.9921875 100.97265625 C21.96924953 98.02664875 21.93625067 95.08090917 21.90234375 92.13500977 C21.88438604 90.11717214 21.87657774 88.09921366 21.87988281 86.08129883 C21.89179821 74.09739066 21.13884468 63.79540616 16.50146484 52.65869141 C14.95597047 48.89271113 13.83590745 45.23188544 12.75 41.3125 C9.93405756 31.42690599 6.60565048 21.71052607 3.30175781 11.97973633 C3.08451553 11.33643372 2.86727325 10.6931311 2.64344788 10.03033447 C2.04425162 8.25646694 1.44153783 6.48378874 0.83862305 4.71118164 C0 2 0 2 0 0 Z " fill="#FEF9FA" transform="translate(701,307)"/>
<path d="M0 0 C18.48 0 36.96 0 56 0 C56 4.95 56 9.9 56 15 C50.06 15 44.12 15 38 15 C38 46.35 38 77.7 38 110 C31.4 110 24.8 110 18 110 C18 78.98 18 47.96 18 16 C12.06 16 6.12 16 0 16 C0 10.72 0 5.44 0 0 Z " fill="#FEFCFC" transform="translate(644,307)"/>
<path d="M0 0 C2.3125 0.5625 2.3125 0.5625 4 2 C8.06443047 8.8444632 7.4548956 16.1621451 7.43359375 23.91015625 C7.43816086 25.36551658 7.44346801 26.82087477 7.44947815 28.27622986 C7.4583823 31.3164856 7.45601588 34.35647826 7.44604492 37.39672852 C7.43453834 41.28279503 7.4548051 45.16795511 7.48396206 49.05390263 C7.50234801 52.05575777 7.50202727 55.0573964 7.49632454 58.05929375 C7.49617172 59.49175733 7.50218321 60.92423595 7.51461601 62.35664558 C7.5295726 64.36149185 7.5161949 66.36648817 7.50170898 68.37133789 C7.50154282 69.5093837 7.50137665 70.6474295 7.50120544 71.81996155 C6.79516963 76.29960371 4.80660063 79.67515954 1.125 82.375 C-3.33898332 83.68793627 -6.09748363 83.46861427 -10.25 81.3125 C-13.94826093 78.20259876 -14.84994317 75.72067046 -15.26742554 70.93348694 C-15.27504913 69.79020432 -15.28267273 68.64692169 -15.29052734 67.46899414 C-15.30328705 66.16736832 -15.31604675 64.86574249 -15.32919312 63.52467346 C-15.3322506 62.11150258 -15.33447845 60.69832969 -15.3359375 59.28515625 C-15.34236939 57.82693858 -15.34909804 56.3687222 -15.35610962 54.9105072 C-15.36806428 51.85835783 -15.37179223 48.80632151 -15.37060547 45.75415039 C-15.37040217 41.8523742 -15.39772253 37.9513255 -15.43214989 34.04972172 C-15.45443682 31.03930868 -15.45844251 28.02907038 -15.45738602 25.0185833 C-15.45973858 23.58052497 -15.46854274 22.14246157 -15.48405075 20.70448494 C-15.50374684 18.68988628 -15.49534093 16.67507293 -15.48583984 14.66040039 C-15.48868988 13.51632217 -15.49153992 12.37224396 -15.49447632 11.1934967 C-14.88417898 7.25198834 -13.46852302 5.09973643 -11 2 C-7.26775015 -0.48816657 -4.31430277 -0.39300329 0 0 Z " fill="#E5253C" transform="translate(409,321)"/>
<path d="M0 0 C2.87029869 1.79393668 4.49131638 2.98263276 6 6 C6.10725888 8.15856747 6.14889937 10.32049341 6.16113281 12.48168945 C6.16609772 13.14694641 6.17106262 13.81220337 6.17617798 14.49761963 C6.19080622 16.70285063 6.19760326 18.90800966 6.203125 21.11328125 C6.20887667 22.64544171 6.2146344 24.17760215 6.22039795 25.70976257 C6.23091034 28.92524552 6.23675119 32.14070345 6.24023438 35.35620117 C6.24571442 39.4721189 6.26973067 43.58770503 6.29820633 47.70351887 C6.31685251 50.86999977 6.32203939 54.03640119 6.32357025 57.20293236 C6.32659372 58.7199605 6.33461198 60.23698735 6.34775543 61.75396156 C6.36485519 63.8796045 6.36292645 66.0044427 6.35644531 68.13012695 C6.36009094 69.33876907 6.36373657 70.54741119 6.36749268 71.79267883 C5.96144743 75.33647055 5.14254646 77.17500424 3 80 C-1.23384196 82.8225613 -5.02800778 82.66129946 -10 82 C-13.52616328 79.61983979 -14.66845198 76.9588894 -16 73 C-16.26069641 70.05410767 -16.26069641 70.05410767 -16.2746582 66.76025391 C-16.28419022 65.52191803 -16.29372223 64.28358215 -16.30354309 63.00772095 C-16.30328161 61.66400117 -16.30234432 60.32028139 -16.30078125 58.9765625 C-16.3046722 57.58800123 -16.3090077 56.19944114 -16.31376648 54.81088257 C-16.32121507 51.90415587 -16.32094768 48.99755065 -16.31567383 46.09082031 C-16.3098857 42.37981888 -16.32680035 38.66931762 -16.3500185 34.95839882 C-16.36480655 32.09120818 -16.36562061 29.22413654 -16.36250877 26.35691452 C-16.3630196 24.98947536 -16.36821226 23.62202912 -16.37832069 22.25462723 C-16.4763054 7.14482566 -16.4763054 7.14482566 -11.375 1.0625 C-7.62000237 -0.61736736 -4.03618038 -0.66909942 0 0 Z " fill="#E5273D" transform="translate(411,142)"/>
<path d="M0 0 C13.75675676 0 13.75675676 0 19.5 5.3125 C21.83556424 11.05409542 21.77115144 16.88636698 21 23 C19.26322513 27.11697888 17.87988443 29.69631862 14 32 C11 33 11 33 0 33 C0 22.11 0 11.22 0 0 Z " fill="#E52A40" transform="translate(597,321)"/>
<path d="M0 0 C14 0 14 0 19 4 C20.67387623 7.34775246 20.22672443 11.07246047 20.25 14.75 C20.270625 15.54921875 20.29125 16.3484375 20.3125 17.171875 C20.34539926 22.17256192 19.9044327 25.73493215 17 30 C13 32 13 32 0 32 C0 21.44 0 10.88 0 0 Z " fill="#E5253C" transform="translate(326,322)"/>
</svg>
