<?xml version="1.0" encoding="UTF-8"?>
<svg version="1.1" xmlns="http://www.w3.org/2000/svg" width="1500" height="1500">
<path d="M0 0 C495 0 990 0 1500 0 C1500 495 1500 990 1500 1500 C1005 1500 510 1500 0 1500 C0 1005 0 510 0 0 Z " fill="#26BDE2" transform="translate(0,0)"/>
<path d="M0 0 C0.93762217 -0.00465992 1.87524434 -0.00931984 2.8412793 -0.01412097 C6.01293715 -0.02616185 9.18417377 -0.01664059 12.35583591 -0.00736332 C14.64071638 -0.01153226 16.92559479 -0.01700733 19.21046931 -0.02368313 C25.51248154 -0.0382142 31.81436385 -0.0338692 38.11638343 -0.02651632 C44.20746967 -0.02083262 50.29853675 -0.03207916 56.38961463 -0.04142394 C69.62201811 -0.06112243 82.8543825 -0.06343218 96.08679715 -0.05822874 C107.66710873 -0.05367703 119.2474048 -0.05426389 130.82771587 -0.06006908 C132.37921968 -0.06082594 133.93072348 -0.06158192 135.48222728 -0.06233703 C137.82001278 -0.06348218 140.15779828 -0.06463206 142.49558376 -0.06579627 C164.23940476 -0.07650636 185.98322057 -0.0812213 207.72704315 -0.07332611 C208.95735165 -0.07288035 208.95735165 -0.07288035 210.21251486 -0.07242559 C216.87377705 -0.06997648 223.53503919 -0.06736498 230.19630132 -0.06474145 C256.18379463 -0.05463776 282.17122333 -0.06299468 308.15870762 -0.086236 C337.33628279 -0.1122879 366.51381907 -0.12516208 395.69140631 -0.11804825 C398.80043128 -0.11733215 401.90945627 -0.11665777 405.01848125 -0.1160078 C406.16681551 -0.11575309 406.16681551 -0.11575309 407.33834845 -0.11549323 C418.91232725 -0.11318688 430.48627002 -0.12118325 442.06024075 -0.13429928 C455.21772429 -0.14918294 468.37512319 -0.15009084 481.53260487 -0.13222837 C488.25098957 -0.12348387 494.96920257 -0.12166333 501.68758106 -0.13687992 C507.83056456 -0.15062152 513.97324594 -0.14610058 520.11621148 -0.12664068 C522.34565241 -0.1228478 524.57511695 -0.125896 526.80453705 -0.13625234 C529.82145293 -0.14927681 532.83730334 -0.13796929 535.85417175 -0.12025452 C536.73161353 -0.12990503 537.60905531 -0.13955554 538.51308623 -0.14949849 C544.35241283 -0.07848157 544.35241283 -0.07848157 547.54434878 2.21836513 C549.6273058 5.33338493 549.26313532 7.40161842 548.9079752 11.09906673 C548.84748493 11.75717342 548.78699467 12.41528011 548.72467136 13.09332943 C548.03736639 19.99867862 546.90115691 26.83713762 545.69331455 33.66748714 C545.00292076 37.57662771 544.33974312 41.49042112 543.6736002 45.40375423 C543.53456272 46.21730373 543.39552525 47.03085323 543.25227451 47.86905575 C541.6883373 57.06545346 540.27024875 66.28355102 538.86500645 75.50531673 C538.74912174 76.26465511 538.63323704 77.02399349 538.51384068 77.80634212 C538.05135099 80.83785765 537.58954102 83.86947555 537.12866306 86.90123653 C534.56360349 103.77307681 531.9523094 120.63780432 529.33375645 137.50141048 C529.10003545 139.00698391 528.86632171 140.51255846 528.63261509 142.01813412 C528.39627977 143.54055483 528.15994145 145.06297507 527.9236002 146.58539486 C527.74684159 147.72401344 527.74684159 147.72401344 527.56651211 148.88563442 C526.96868155 152.736223 526.3705191 156.58675957 525.77174473 160.4372015 C523.44636154 175.39235588 521.12582747 190.34724901 518.92750645 205.32172298 C516.71429385 220.39198685 514.31486944 235.43175169 511.91725254 250.47357845 C509.87981571 263.26715064 507.87075062 276.0626668 505.99000645 288.88031673 C503.75710296 304.09800324 501.33827914 319.28488725 498.91725254 334.47357845 C496.70252111 348.38042746 494.54331796 362.29225734 492.49855137 376.22515011 C490.59527532 389.14673488 488.54169457 402.04411759 486.49000645 414.94281673 C483.97986016 430.74732264 481.49114558 446.55445003 479.06617832 462.37226009 C477.8306502 470.42836482 476.58237455 478.48248273 475.33375645 486.53656673 C475.09990813 488.04530967 474.86606211 489.55405295 474.63221836 491.06279659 C473.79855819 496.44110542 472.96462345 501.81937167 472.13069248 507.19763851 C472.01223972 507.96158932 471.89378696 508.72554012 471.77174473 509.51264095 C471.65351856 510.27504589 471.5352924 511.03745083 471.41348362 511.82295895 C471.17590031 513.35560024 470.9384628 514.88826415 470.70117283 516.42095089 C470.12075439 520.16920584 469.53820904 523.91710174 468.95069981 527.66425228 C467.87854501 534.51887837 466.84013514 541.37390795 465.89625645 548.24750423 C465.72589878 549.45362362 465.55554111 550.659743 465.3800211 551.90241146 C465.06732889 554.1302349 464.76766586 556.35994327 464.48378086 558.59162045 C464.34468296 559.56796444 464.20558506 560.54430843 464.06227207 561.55023861 C463.95064732 562.39260067 463.83902256 563.23496273 463.72401524 564.10285091 C462.67011429 567.37287087 461.91077328 568.46901751 458.99000645 570.38031673 C455.22951347 570.9654614 451.50218891 570.88457777 447.70387363 570.8344183 C446.5523682 570.8350024 445.40086277 570.83558651 444.21446323 570.83618832 C440.40496361 570.83339963 436.59624454 570.80226884 432.78688145 570.77094173 C430.14701356 570.76348218 427.50714015 570.7577879 424.86726475 570.75379086 C418.62696983 570.74136238 412.38695548 570.70854283 406.14678407 570.6683929 C399.04166666 570.62367094 391.93653579 570.60168714 384.83131266 570.58161116 C370.21739924 570.53980987 355.60370677 570.46946048 340.99000645 570.38031673 C340.99496317 571.17535705 340.99991989 571.97039736 341.00502682 572.7895298 C341.04331691 583.30119834 341.04331691 583.30119834 340.56276035 588.51825619 C340.46911198 589.56427502 340.3754636 590.61029385 340.27897739 591.68801022 C340.17588261 592.77885418 340.07278782 593.86969814 339.96656895 594.99359798 C339.86033207 596.16504864 339.75409519 597.33649929 339.64463902 598.54344845 C339.30648151 602.26038741 338.96097173 605.97659721 338.61500645 609.69281673 C338.39054109 612.14133802 338.16657915 614.5899055 337.94313145 617.03851986 C337.61299962 620.654271 337.28239476 624.26997262 336.94954014 627.88547421 C335.92255461 639.04694223 334.94714854 650.21266433 333.99000645 661.38031673 C334.90129307 661.30353695 335.81257969 661.22675716 336.75148106 661.14765072 C351.46224059 659.95629788 366.24335221 660.29002543 380.99000645 660.38031673 C379.47812606 663.92009221 377.41743882 666.21096383 374.71428013 668.93019772 C373.81699696 669.83745602 372.91971378 670.74471432 371.99524021 671.67946529 C370.99832789 672.67727334 370.00129945 673.67496539 369.0041666 674.67255306 C367.95579397 675.72854845 366.9078252 676.78494492 365.86023045 677.841712 C363.01598963 680.70788439 360.16521466 683.56746909 357.31253195 686.42523694 C355.53151646 688.20989547 353.75180626 689.99584524 351.97253132 691.78223896 C345.76825163 698.01100172 339.55828242 704.23403325 333.34352207 710.45233822 C327.54445652 716.25504532 321.7586733 722.07077123 315.97873747 727.8925274 C311.01851103 732.88738506 306.0487685 737.87263893 301.07154596 742.85056037 C298.09762657 745.82527456 295.12786092 748.80387362 292.1677599 751.79234409 C289.38633727 754.59982679 286.59332848 757.39522907 283.79080486 760.18164349 C282.76250978 761.20811484 281.73850397 762.23890314 280.71908092 763.27418613 C279.33083133 764.68271393 277.92570668 766.07455101 276.51970005 767.46535397 C275.73693007 768.25013528 274.95416008 769.03491659 274.14766979 769.84347916 C271.99000645 771.38031673 271.99000645 771.38031673 269.99322033 771.38835335 C267.30208852 770.03414978 265.53956846 768.30131315 263.40889072 766.16669369 C262.49466343 765.25803555 261.58043613 764.3493774 260.63850498 763.41318417 C259.6328074 762.39846419 258.62725817 761.38359717 257.62184238 760.36859798 C256.55786317 759.30540959 255.49323089 758.24287442 254.42799473 757.1809454 C251.53716891 754.29525601 248.65577097 751.40031671 245.77608871 748.50351238 C242.76491903 745.47732053 239.74565919 742.45922127 236.72737217 739.44013119 C231.66176946 734.37083558 226.60183961 729.29593482 221.54567051 724.2172308 C215.04665248 717.68930717 208.53836905 711.1707034 202.02711201 704.6549902 C196.43833175 699.06223649 190.85382111 693.46522511 185.26999474 687.86752605 C183.47005207 686.06347748 181.66951769 684.26002106 179.86890507 682.4566412 C177.04619115 679.62904835 174.22614416 676.79882192 171.40818882 673.96648693 C170.37056752 672.92432817 169.33208904 671.88302209 168.29271793 670.84260845 C166.88054901 669.42870437 165.47176351 668.01142337 164.0631876 666.59393978 C163.27195374 665.79973125 162.48071987 665.00552273 161.66550922 664.18724728 C159.99000645 662.38031673 159.99000645 662.38031673 159.99000645 661.38031673 C175.50000645 661.38031673 191.01000645 661.38031673 206.99000645 661.38031673 C206.55043613 657.58531673 206.11086582 653.79031673 205.6579752 649.88031673 C203.95165785 634.75371601 202.6760807 619.59688901 201.46620274 604.42395687 C201.24361449 601.64508948 201.01700413 598.86655577 200.79032707 596.08801937 C200.51805877 592.74807961 200.24812496 589.40795384 199.9782877 586.06781673 C199.87832996 584.83370052 199.77837223 583.59958431 199.67538548 582.32807064 C199.58496479 581.19417904 199.49454411 580.06028744 199.4013834 578.89203548 C199.32160755 577.8964764 199.2418317 576.90091732 199.1596384 575.87518978 C199.03532987 574.04691399 198.99000645 572.21281366 198.99000645 570.38031673 C198.39493888 570.38308211 197.79987131 570.38584749 197.18677139 570.38869667 C182.71517474 570.45491642 168.2435916 570.50457775 153.77187729 570.53575325 C146.77348678 570.55122978 139.77519733 570.57233417 132.77687168 570.60663509 C126.02715058 570.63970179 119.27755634 570.65715417 112.52775097 570.66494846 C109.94845836 570.67050528 107.3691717 570.68135587 104.78992367 570.6975069 C101.18616116 570.71918238 97.58283698 570.72228775 93.97902012 570.72089291 C92.36817036 570.73707165 92.36817036 570.73707165 90.72477818 570.75357723 C89.74461231 570.74945324 88.76444645 570.74532925 87.75457859 570.74108028 C86.90192008 570.74384566 86.04926157 570.74661104 85.17076492 570.74946022 C82.45363579 570.28952367 81.61343817 569.58065958 79.99000645 567.38031673 C79.20623529 564.46278074 78.58464337 561.65696786 78.05250645 558.69281673 C77.88557285 557.80924496 77.71863926 556.92567318 77.54664707 556.0153265 C77.01091207 553.13976389 76.49699398 550.26108032 75.99000645 547.38031673 C75.82355625 546.43833431 75.65710606 545.49635189 75.48561192 544.52582455 C73.94384565 535.7092726 72.4712154 526.87993477 71.21852207 518.01727962 C69.08211813 502.90469091 66.59102184 487.86192723 64.02125645 472.81781673 C63.84005253 471.75684843 63.65884861 470.69588013 63.47215366 469.60276127 C62.1488284 461.86124931 60.81995782 454.1206927 59.49000645 446.38031673 C57.97594942 437.56843767 56.4640663 428.75619476 54.95875645 419.94281673 C54.77660084 418.87659084 54.59444523 417.81036495 54.40676975 416.71182919 C52.31684911 404.45760592 50.3132826 392.20662659 48.56691074 379.89838314 C46.91966112 368.50498039 44.95976129 357.16462106 43.02125645 345.81781673 C42.83946339 344.75344387 42.65767033 343.68907101 42.47036839 342.59244442 C41.14763677 334.85437164 39.81936682 327.11725307 38.49000645 319.38031673 C36.97594942 310.56843767 35.4640663 301.75619476 33.95875645 292.94281673 C33.77660084 291.87659084 33.59444523 290.81036495 33.40676975 289.71182919 C31.31684911 277.45760592 29.3132826 265.20662659 27.56691074 252.89838314 C25.91966112 241.50498039 23.95976129 230.16462106 22.02125645 218.81781673 C21.83946339 217.75344387 21.65767033 216.68907101 21.47036839 215.59244442 C20.14763677 207.85437164 18.81936682 200.11725307 17.49000645 192.38031673 C15.97594941 183.56843762 14.46413184 174.75618359 12.95875645 165.94281673 C12.77651775 164.87627928 12.59427906 163.80974182 12.40651798 162.71088505 C10.48881649 151.46867993 8.60261088 140.23174534 7.00563145 128.93891048 C5.22367123 116.34487885 3.04645809 103.82314692 0.88063145 91.29047298 C0.50259341 89.0982881 0.12458245 86.90609855 -0.25340176 84.71390438 C-1.81760818 75.65042397 -3.38487745 66.58749811 -4.96653652 57.52704525 C-5.94586863 51.91473173 -6.91536188 46.30079212 -7.87865353 40.68570423 C-8.24336829 38.5709624 -8.61170871 36.45684221 -8.98392391 34.34340763 C-13.28573246 9.90306879 -13.28573246 9.90306879 -12.00999355 3.38031673 C-8.76704534 -0.69563867 -4.84289961 -0.03708843 0 0 Z " fill="#FEFEFE" transform="translate(481.0099935531616,602.619683265686)"/>
<path d="M0 0 C168.96 0 337.92 0 512 0 C512 5.6413707 511.82847756 9.91548429 510.828125 15.3046875 C510.70579498 15.97730621 510.58346497 16.64992493 510.45742798 17.34292603 C510.19599952 18.77805526 509.93161973 20.2126496 509.66448975 21.64672852 C508.95574055 25.45692077 508.27151451 29.27151921 507.5859375 33.0859375 C507.44829987 33.84932434 507.31066223 34.61271118 507.16885376 35.39923096 C505.41857129 45.15856415 503.94739691 54.95870101 502.48535156 64.76464844 C501.59182528 70.72089105 500.66857351 76.67257854 499.75 82.625 C499.41134149 84.82550285 499.07278836 87.02602193 498.734375 89.2265625 C498.48958333 90.81770833 498.24479167 92.40885417 498 94 C494.53058454 93.54177532 491.32604951 93.10868317 488 92 C468.62450856 90.38388964 453.37494985 94.82250149 435.69140625 102.10546875 C431.00479611 104.02387078 426.26106847 105.67007535 421.4375 107.2109375 C419.34054545 107.88975933 417.30089099 108.63305569 415.25 109.4375 C409.27286581 111.71922758 403.12628402 113.52593004 397.0078125 115.38574219 C395.20998125 115.93575963 393.41712466 116.50197667 391.625 117.0703125 C353.09058111 128.83442596 310.59794615 127.91570189 272 117 C271.33904327 116.81786957 270.67808655 116.63573914 269.99710083 116.4480896 C255.4826133 112.42202661 241.63247513 107.09995214 227.6875 101.4375 C208.54961419 93.65293105 208.54961419 93.65293105 189 87 C188.19377197 86.7522583 187.38754395 86.5045166 186.55688477 86.24926758 C166.87398426 80.57094202 143.37885608 80.12776249 124 87 C122.69306842 87.44117233 121.38576274 87.88123766 120.078125 88.3203125 C114.82618303 90.11750738 109.61838799 92.03421329 104.41064453 93.95507812 C77.52869527 103.82160789 49.8100218 111.01948963 21 110 C20.63261719 108.05480469 20.63261719 108.05480469 20.2578125 106.0703125 C17.50214051 91.57846452 14.62698729 77.11259181 11.72058105 62.65032959 C8.5320306 46.78062238 5.35743488 30.90992845 2.375 15 C2.24876251 14.32942566 2.12252502 13.65885132 1.99246216 12.96795654 C0 2.36169284 0 2.36169284 0 0 Z " fill="#26BDE2" transform="translate(493,628)"/>
<path d="M0 0 C13.04058735 12.12615592 19.43471805 28.25252596 20.375 45.8828125 C20.375 51.8228125 20.375 57.7628125 20.375 63.8828125 C3.215 63.8828125 -13.945 63.8828125 -31.625 63.8828125 C-31.955 58.2728125 -32.285 52.6628125 -32.625 46.8828125 C-34.36110974 37.56871912 -34.36110974 37.56871912 -40.625 30.8828125 C-45.91399938 28.23831281 -51.83439964 28.18379815 -57.625 28.8828125 C-63.30563068 31.67148574 -66.80611907 35.48596102 -68.85546875 41.484375 C-69.18796405 42.82224146 -69.50675801 44.16357977 -69.8125 45.5078125 C-69.97685547 46.15621094 -70.14121094 46.80460937 -70.31054688 47.47265625 C-72.57640477 56.92137541 -72.77405303 66.56600847 -72.72265625 76.23828125 C-72.72053383 77.77975578 -72.72053383 77.77975578 -72.71836853 79.35237122 C-72.71283066 82.59171629 -72.7002903 85.83098879 -72.6875 89.0703125 C-72.68247695 91.2845042 -72.67791546 93.498697 -72.67382812 95.71289062 C-72.66288169 101.10288878 -72.6462069 106.49284545 -72.625 111.8828125 C-72.08080917 111.39730423 -71.53661835 110.91179596 -70.97593689 110.41157532 C-70.25934402 109.77729111 -69.54275116 109.1430069 -68.80444336 108.48950195 C-68.09525253 107.85961868 -67.38606171 107.22973541 -66.65538025 106.58076477 C-55.51989888 97.26846187 -40.36927261 96.97598661 -26.625 97.8828125 C-13.85925134 99.42254096 -1.34587541 104.79312896 7.4140625 114.3671875 C27.4969915 140.13094502 27.86936352 175.89394862 24.625 207.0078125 C22.05751896 227.41880957 14.63012469 252.3968421 -1.9375 265.74609375 C-22.59102475 280.81671259 -45.46691198 282.02536015 -70.33203125 279.48046875 C-86.41870481 276.85931747 -100.84579222 268.07021781 -110.70703125 255.15625 C-112.49235472 252.45687203 -114.08710917 249.72988219 -115.625 246.8828125 C-116.16898438 245.89023437 -116.71296875 244.89765625 -117.2734375 243.875 C-126.11959064 227.00258108 -128.77718988 208.44219353 -128.77026367 189.59228516 C-128.77362228 188.27403748 -128.7769809 186.95578979 -128.78044128 185.59759521 C-128.78923424 181.99779692 -128.79161757 178.39802244 -128.79225707 174.79821444 C-128.79297092 172.53999749 -128.79511169 170.28178648 -128.79775429 168.02357101 C-128.80699634 160.11841197 -128.81109112 152.21326973 -128.81030273 144.30810547 C-128.80970416 136.98512973 -128.82021545 129.66222819 -128.8360464 122.33927119 C-128.84921428 116.01870752 -128.8544827 109.69816779 -128.85384732 103.37759054 C-128.85359478 99.61785672 -128.85630818 95.85818872 -128.86702538 92.09846878 C-128.972904 52.16728477 -128.972904 52.16728477 -123.9375 36.6328125 C-123.67694824 35.80346191 -123.41639648 34.97411133 -123.14794922 34.11962891 C-117.29270557 16.16516808 -107.99822758 1.98837035 -91.2421875 -7.4609375 C-65.25222729 -19.75726276 -22.78524899 -18.37738832 0 0 Z " fill="#FEFEFE" transform="translate(247.625,139.1171875)"/>
<path d="M0 0 C0.66 0 1.32 0 2 0 C3.40112305 1.86083984 3.40112305 1.86083984 5.01171875 4.4609375 C5.60533203 5.40839844 6.19894531 6.35585938 6.81054688 7.33203125 C7.42994141 8.33621094 8.04933594 9.34039063 8.6875 10.375 C12.6889031 16.81334784 16.75545365 23.14855094 21.13989258 29.33300781 C24.88379778 34.70095905 28.42501866 40.20627104 32 45.6875 C32.8384143 46.97046085 33.6769579 48.25333721 34.515625 49.53613281 C36.61708373 52.75134653 38.71658913 55.96783016 40.81542969 59.18475342 C42.60508155 61.9272326 44.39640356 64.66862037 46.1875 67.41015625 C49.24665307 72.09431604 52.30097901 76.78159381 55.35253906 81.47070312 C56.91720203 83.87288279 58.4856032 86.27258194 60.0546875 88.671875 C80.28978881 119.67288947 99.3677115 152.56530697 92.1640625 191.234375 C87.59029886 211.47766517 76.17493847 232.15777857 58.89453125 244.15625 C55.64209448 246.19998518 52.35391754 248.12804602 49 250 C48.14277344 250.4846875 47.28554688 250.969375 46.40234375 251.46875 C35.25945324 257.41162494 23.51603376 260.12753381 10.93359375 260.203125 C10.1776442 260.20882507 9.42169464 260.21452515 8.64283752 260.22039795 C7.04860814 260.22979454 5.45435979 260.23636052 3.86010742 260.24023438 C1.46822466 260.24987615 -0.92277364 260.28092342 -3.31445312 260.3125 C-28.04994049 260.48504594 -49.22022906 252.48294672 -67 235 C-68.04994141 233.96939453 -68.04994141 233.96939453 -69.12109375 232.91796875 C-78.17935304 223.4006164 -83.97845307 211.3997697 -88 199 C-88.3196875 198.03320312 -88.639375 197.06640625 -88.96875 196.0703125 C-96.20561506 170.27222871 -89.10806558 141.08497994 -76.60351562 118.11328125 C-70.54967334 107.46030924 -63.68061593 97.26440116 -57 87 C-55.96026066 85.39236463 -54.92113593 83.78433148 -53.8828125 82.17578125 C-46.00477416 69.99040158 -38.02142229 57.87297822 -30.04003906 45.75512695 C-25.48066441 38.83095988 -20.9289054 31.90247323 -16.41964722 24.94552612 C-14.47625187 21.94747536 -12.52812029 18.95251552 -10.57983398 15.9576416 C-9.65446552 14.5319446 -8.73159549 13.10462273 -7.8112793 11.67565918 C-6.54049904 9.70287438 -5.26146238 7.73569368 -3.98046875 5.76953125 C-3.60448044 5.18071671 -3.22849213 4.59190216 -2.84111023 3.98524475 C-1.9464685 2.62099369 -0.97999139 1.30429355 0 0 Z " fill="#26BDE2" transform="translate(750,814)"/>
<path d="M0 0 C6.22843848 5.09495427 9.52917282 10.74592389 11.75 18.48828125 C12.01742554 21.6414032 12.01742554 21.6414032 12.04052734 25.0534668 C12.05328705 26.33887863 12.06604675 27.62429047 12.07919312 28.94865417 C12.08225202 30.3407679 12.08447911 31.73288367 12.0859375 33.125 C12.0923746 34.56981027 12.09910362 36.01461926 12.10610962 37.45942688 C12.11805876 40.4846193 12.12179311 43.50969777 12.12060547 46.53491211 C12.12040291 50.38348608 12.14764956 54.23131642 12.18214989 58.07971478 C12.20455663 61.06459303 12.20843877 64.04929657 12.20738602 67.03425026 C12.20972346 68.45142988 12.21844046 69.86861572 12.23405075 71.28571129 C12.35023708 82.92669402 11.05579469 93.11131284 2.74609375 101.83203125 C-5.74634263 108.87859294 -16.69909467 109.30162727 -27.25 108.48828125 C-33.86903033 106.9772371 -39.61246617 104.56748497 -44.25 99.48828125 C-50.57624186 89.25673367 -51.55947391 79.76325448 -51.55078125 67.96875 C-51.55506638 66.67439529 -51.5593515 65.38004059 -51.56376648 64.04646301 C-51.57119281 61.31568283 -51.57096428 58.585032 -51.56567383 55.85424805 C-51.55989248 52.38472876 -51.57679479 48.91574564 -51.6000185 45.44631481 C-51.61844833 42.09960607 -51.61456736 38.75300895 -51.61328125 35.40625 C-51.622491 34.17569382 -51.63170074 32.94513763 -51.64118958 31.67729187 C-51.58317365 20.73695222 -50.31789886 10.50154422 -42.25 2.48828125 C-31.10127305 -6.55996091 -12.11042369 -8.13669092 0 0 Z " fill="#FBFEFE" transform="translate(1152.25,310.51171875)"/>
<path d="M0 0 C45.62264151 0 45.62264151 0 54.5625 8.3125 C60.86867721 16.11172851 60.46010087 25.3311498 60.43359375 34.83203125 C60.4381646 36.27398421 60.44347283 37.71593499 60.44947815 39.15788269 C60.45837803 42.17118206 60.45602347 45.18421598 60.44604492 48.19750977 C60.43457991 52.03037451 60.45474367 55.86231449 60.48396206 59.69505787 C60.50244708 62.67137836 60.50200704 65.64748246 60.49632454 68.62384605 C60.49617271 70.03543072 60.50210077 71.44703137 60.51461601 72.85856056 C60.59970401 84.02976686 59.52263751 94.24988126 51.49609375 102.63671875 C38.55693604 114.42723061 13.4716284 109 0 109 C0 73.03 0 37.06 0 0 Z " fill="#FEFEFE" transform="translate(536,308)"/>
<path d="M0 0 C5.61 0 11.22 0 17 0 C20.66468941 22.25428707 23.35692648 44.60566223 26 67 C26.19110352 65.82308594 26.38220703 64.64617187 26.57910156 63.43359375 C33.57594151 20.35294394 33.57594151 20.35294394 37 0 C41.62 0 46.24 0 51 0 C52.37199301 4.11597902 53.36808869 7.46927573 54.05322266 11.65063477 C54.23325836 12.73518448 54.41329407 13.81973419 54.5987854 14.93714905 C54.78532684 16.09355392 54.97186829 17.2499588 55.1640625 18.44140625 C55.36099701 19.64184067 55.55793152 20.84227509 55.76083374 22.0790863 C56.17499155 24.61116998 56.58669113 27.1436568 56.99609375 29.67651367 C57.6234711 33.55305299 58.26038068 37.42794015 58.8984375 41.30273438 C59.30004927 43.7655321 59.70110968 46.22841981 60.1015625 48.69140625 C60.2921524 49.84983536 60.48274231 51.00826447 60.67910767 52.20179749 C60.85283905 53.28319504 61.02657043 54.36459259 61.20556641 55.47875977 C61.35941803 56.42662857 61.51326965 57.37449738 61.67178345 58.35108948 C61.99157334 60.93199167 62.05984925 63.40251668 62 66 C62.66 66 63.32 66 64 66 C64.03738281 65.11401123 64.07476563 64.22802246 64.11328125 63.31518555 C64.69272709 52.07066984 66.0522932 40.99259118 67.58398438 29.84155273 C68.00447877 26.77988965 68.41697377 23.71722742 68.828125 20.65429688 C69.09329684 18.69264702 69.35890555 16.73105617 69.625 14.76953125 C69.74794434 13.86121048 69.87088867 12.95288971 69.99755859 12.01704407 C70.11437988 11.16813095 70.23120117 10.31921783 70.3515625 9.44458008 C70.50359131 8.33449333 70.50359131 8.33449333 70.65869141 7.20198059 C71.03272738 4.78885659 71.52109619 2.39451905 72 0 C77.61 0 83.22 0 89 0 C86.30523068 19.94694631 83.50798121 39.87928296 80.70166016 59.81079102 C80.14542981 63.76239903 79.59084275 67.71423271 79.03759766 71.66625977 C78.36230441 76.49004079 77.6842777 81.31342998 77.00424576 86.13654518 C76.74731924 87.96209082 76.49135724 89.78777248 76.23638535 91.61359215 C75.88271832 94.14471083 75.52553781 96.67530975 75.16748047 99.20581055 C75.06358002 99.95527451 74.95967957 100.70473846 74.85263062 101.47691345 C74.43011445 104.44086521 73.94935401 107.15193796 73 110 C67.72 110 62.44 110 57 110 C55.17337281 102.05852082 53.62989553 94.0704107 52.125 86.0625 C51.99404938 85.36889374 51.86309875 84.67528748 51.72817993 83.96066284 C49.64759531 72.90915119 47.80557259 61.84199697 46.20556641 50.70922852 C46.05909668 49.70303467 45.91262695 48.69684082 45.76171875 47.66015625 C45.63756592 46.77980713 45.51341309 45.89945801 45.38549805 44.99243164 C45.1943914 43.00775437 45.1943914 43.00775437 44 42 C43.90928223 42.68723145 43.81856445 43.37446289 43.72509766 44.08251953 C41.89740488 57.39213444 39.59823314 70.62708513 37.375 83.875 C36.9503694 86.41273508 36.52588894 88.95049529 36.1015625 91.48828125 C35.06944045 97.65914545 34.03528252 103.82966528 33 110 C27.39 110 21.78 110 16 110 C14.52807736 103.69793276 13.38920299 97.43628995 12.48779297 91.02978516 C12.35095093 90.07743988 12.21410889 89.1250946 12.07312012 88.14389038 C11.62604638 85.02609381 11.18399364 81.9076095 10.7421875 78.7890625 C10.43140794 76.61189326 10.12037911 74.43475958 9.80911255 72.25765991 C9.15977613 67.71065642 8.51281772 63.16332313 7.86767578 58.61572266 C7.03981837 52.78090031 6.20697656 46.94680291 5.37249565 41.11292458 C4.73090551 36.62485793 4.09143794 32.13649096 3.45267105 27.6480217 C3.14620242 25.4957037 2.83918473 23.34346381 2.5316124 21.19130325 C2.10345988 18.19244352 1.6780449 15.19320835 1.25341797 12.19384766 C1.12564972 11.30240051 0.99788147 10.41095337 0.86624146 9.49249268 C0.75133362 8.67678802 0.63642578 7.86108337 0.51803589 7.0206604 C0.41739271 6.31242945 0.31674953 5.60419849 0.21305656 4.874506 C0 3 0 3 0 0 Z " fill="#FBFDFE" transform="translate(750,128)"/>
<path d="M0 0 C44.90082518 0 44.90082518 0 54.41015625 8.22265625 C60.22968947 14.72852262 60.37764726 22.20682742 60.5 30.5625 C60.52803711 31.89196655 60.52803711 31.89196655 60.55664062 33.24829102 C60.48696137 40.46746347 58.92023696 46.67021761 54.078125 52.19140625 C53.47484375 52.64386719 52.8715625 53.09632813 52.25 53.5625 C51.63640625 54.03816406 51.0228125 54.51382813 50.390625 55.00390625 C49.70226563 55.49697266 49.70226563 55.49697266 49 56 C51.42002828 69.24647061 54.90531322 82.17503973 58.98144531 94.99755859 C59.22862305 95.79242676 59.47580078 96.58729492 59.73046875 97.40625 C59.95114014 98.10041016 60.17181152 98.79457031 60.39916992 99.50976562 C61.22880586 102.94832172 61.56126118 106.49008945 62 110 C55.4 110 48.8 110 42 110 C39.60366947 101.03594877 37.2254883 92.06751494 34.86767578 83.09326172 C32.9302635 75.72388047 30.96949978 68.36086791 29 61 C26.36 60.67 23.72 60.34 21 60 C21 76.5 21 93 21 110 C14.07 110 7.14 110 0 110 C0 73.7 0 37.4 0 0 Z " fill="#F9FDFE" transform="translate(1026,128)"/>
<path d="M0 0 C4.95 0 9.9 0 15 0 C23.5497676 19.24570136 31.80228269 38.60144122 40 58 C40.33 38.86 40.66 19.72 41 0 C46.61 0 52.22 0 58 0 C58 36.3 58 72.6 58 110 C53.38 110 48.76 110 44 110 C43.52691406 108.85748779 43.05382812 107.71497559 42.56640625 106.5378418 C40.77025713 102.20053159 38.97336242 97.86353057 37.17626953 93.52661133 C36.40621697 91.66796848 35.63635287 89.80924753 34.86669922 87.95043945 C33.74499242 85.24148089 32.62255227 82.53282706 31.5 79.82421875 C31.16943604 79.02545822 30.83887207 78.22669769 30.49829102 77.4037323 C26.70403045 68.25262049 22.84451154 59.13071491 19 50 C18.67 69.8 18.34 89.6 18 110 C12.06 110 6.12 110 0 110 C0 73.7 0 37.4 0 0 Z " fill="#F9FDFE" transform="translate(648,128)"/>
<path d="M0 0 C5.61 0 11.22 0 17 0 C17 36.3 17 72.6 17 110 C12.38 110 7.76 110 3 110 C-5.33333333 90 -13.66666667 70 -22 50 C-22.33 69.8 -22.66 89.6 -23 110 C-28.94 110 -34.88 110 -41 110 C-41 74.03 -41 38.06 -41 1 C-36.05 1 -31.1 1 -26 1 C-18.82705291 16.55196493 -11.9806826 32.22300633 -5.28344727 47.98413086 C-3.86156933 51.32528707 -2.43036983 54.6624704 -1 58 C-0.67 38.86 -0.34 19.72 0 0 Z " fill="#F9FDFE" transform="translate(819,307)"/>
<path d="M0 0 C4.62 0 9.24 0 14 0 C18.74302681 9.92726542 23.19681818 19.96497702 27.5625 30.0625 C27.83540863 30.69367737 28.10831726 31.32485474 28.38949585 31.97515869 C32.27841645 40.97541946 36.13780501 49.98821169 40 59 C40.33 39.53 40.66 20.06 41 0 C46.28 0 51.56 0 57 0 C58 1 58 1 58.12304783 2.82534122 C58.12166514 4.02966376 58.12166514 4.02966376 58.12025452 5.25831604 C58.12162918 6.1768335 58.12300385 7.09535095 58.12442017 8.04170227 C58.11902725 9.56515511 58.11902725 9.56515511 58.11352539 11.11938477 C58.11367142 12.18266998 58.11381744 13.2459552 58.1139679 14.34146118 C58.11326825 17.87479658 58.10547343 21.40808 58.09765625 24.94140625 C58.09579225 27.38378368 58.09436827 29.82616149 58.09336853 32.26853943 C58.08954189 38.71134464 58.07971037 45.15412748 58.06866455 51.59692383 C58.05845356 58.16552426 58.05387158 64.7341283 58.04882812 71.30273438 C58.03808823 84.20183277 58.02101007 97.10091453 58 110 C53.38 110 48.76 110 44 110 C38.77306694 98.9986319 34.11370944 87.79385374 29.48461914 76.53076172 C28.17562626 73.34611238 26.86255196 70.16316904 25.54882812 66.98046875 C24.7133072 64.95322162 23.87801234 62.9258813 23.04296875 60.8984375 C22.65135056 59.94850922 22.25973236 58.99858093 21.85624695 58.01986694 C21.49529434 57.14109894 21.13434174 56.26233093 20.76245117 55.35693359 C20.44523605 54.58562103 20.12802094 53.81430847 19.80119324 53.0196228 C19.14568135 51.36722899 18.56214777 49.6864433 18 48 C17.67 68.46 17.34 88.92 17 110 C11.39 110 5.78 110 0 110 C0 73.7 0 37.4 0 0 Z " fill="#F9FDFE" transform="translate(1178,307)"/>
<path d="M0 0 C4.62 0 9.24 0 14 0 C17.79613101 7.38801749 21.21351148 14.89917395 24.49194336 22.52807617 C25.29841675 24.40472848 26.10875822 26.27966783 26.91992188 28.15429688 C31.3453672 38.40967016 35.66523677 48.70493732 40 59 C40.33 39.53 40.66 20.06 41 0 C46.28 0 51.56 0 57 0 C58 1 58 1 58.12304783 2.82534122 C58.12166514 4.02966376 58.12166514 4.02966376 58.12025452 5.25831604 C58.12162918 6.1768335 58.12300385 7.09535095 58.12442017 8.04170227 C58.11902725 9.56515511 58.11902725 9.56515511 58.11352539 11.11938477 C58.11367142 12.18266998 58.11381744 13.2459552 58.1139679 14.34146118 C58.11326825 17.87479658 58.10547343 21.40808 58.09765625 24.94140625 C58.09579225 27.38378368 58.09436827 29.82616149 58.09336853 32.26853943 C58.08954189 38.71134464 58.07971037 45.15412748 58.06866455 51.59692383 C58.05845356 58.16552426 58.05387158 64.7341283 58.04882812 71.30273438 C58.03808823 84.20183277 58.02101007 97.10091453 58 110 C53.38 110 48.76 110 44 110 C34.90166078 89.50686574 26.47561706 68.75807907 18 48 C17.67 68.46 17.34 88.92 17 110 C11.39 110 5.78 110 0 110 C0 73.7 0 37.4 0 0 Z " fill="#F9FDFE" transform="translate(463,307)"/>
<path d="M0 0 C7.26 0 14.52 0 22 0 C24.27913002 11.24120999 26.55719355 22.48263475 28.83347702 33.7244215 C29.89094799 38.94670085 30.94885191 44.16889164 32.0078125 49.39086914 C33.03335759 54.44815467 34.05767769 59.50568702 35.0812149 64.56337929 C35.46823434 66.47474986 35.85566529 68.38603715 36.24355316 70.29723167 C38.92561412 83.51415224 41.4965381 96.74797884 44 110 C37.73 110 31.46 110 25 110 C22.65806759 101.54867869 21.47600255 93.75844685 21 85 C14.4 85 7.8 85 1 85 C1 87.31 1 89.62 1 92 C0.82600467 93.54605958 0.61221403 95.08861156 0.34375 96.62109375 C0.22193359 97.33450928 0.10011719 98.0479248 -0.02539062 98.78295898 C-0.18201172 99.65895752 -0.33863281 100.53495605 -0.5 101.4375 C-1.2425 105.6759375 -1.2425 105.6759375 -2 110 C-8.27 110 -14.54 110 -21 110 C-21 102.12596905 -21 102.12596905 -20.19311523 98.37036133 C-20.01524979 97.52478668 -19.83738434 96.67921204 -19.65412903 95.80801392 C-19.45760239 94.90843964 -19.26107574 94.00886536 -19.05859375 93.08203125 C-18.85550095 92.12364349 -18.65240814 91.16525574 -18.44316101 90.17782593 C-18.00700701 88.12218082 -17.56779084 86.06718347 -17.12579346 84.01278687 C-15.96112882 78.59756621 -14.81921876 73.17754802 -13.67578125 67.7578125 C-13.44618713 66.67205429 -13.21659302 65.58629608 -12.9800415 64.46763611 C-10.92674071 54.72672188 -8.9987412 44.96433315 -7.125 35.1875 C-6.57474258 32.32151369 -6.02404016 29.45561355 -5.47265625 26.58984375 C-5.34582458 25.93039261 -5.21899292 25.27094147 -5.08831787 24.59150696 C-3.50103368 16.37034368 -1.76397606 8.18484891 0 0 Z " fill="#FCFEFE" transform="translate(863,128)"/>
<path d="M0 0 C7.26 0 14.52 0 22 0 C22.79434448 3.97957764 22.79434448 3.97957764 23.60473633 8.03955078 C25.36402327 16.85263254 27.12439632 25.66549711 28.88528919 34.47825813 C29.95179227 39.81596906 31.01794122 45.15375019 32.08325195 50.49169922 C33.11333929 55.65308408 34.14439458 60.81427475 35.17609215 65.97533798 C35.56749907 67.93420549 35.95857025 69.89314011 36.34928322 71.85214615 C36.90096485 74.6179236 37.4538019 77.38346731 38.00708008 80.14892578 C38.17894238 81.01045321 38.35080469 81.87198063 38.52787495 82.75961494 C39.75802705 88.89231718 41.08419531 94.99720897 42.49247742 101.09176636 C43 104 43 104 43 110 C37.06 110 31.12 110 25 110 C22.89375416 101.57501665 21.52206515 93.66628144 21 85 C14.4 85 7.8 85 1 85 C0.896875 86.711875 0.79375 88.42375 0.6875 90.1875 C0.13538502 96.99962447 -1.34389295 103.37557179 -3 110 C-9.27 110 -15.54 110 -22 110 C-17.31800846 85.71462216 -12.4985302 61.46015228 -7.56591797 37.2244873 C-6.70623889 32.9988436 -5.84832907 28.77284067 -4.99023438 24.546875 C-3.32847498 16.36424678 -1.66472311 8.18202578 0 0 Z " fill="#FCFEFE" transform="translate(595,128)"/>
<path d="M0 0 C6.93 0 13.86 0 21 0 C26.44585949 23.44087348 31.28963747 46.99653665 36.01686859 70.59081268 C36.50071715 73.00357613 36.9860602 75.41603489 37.47174072 77.82843018 C38.24659597 81.67923423 39.01708596 85.53088691 39.78410721 89.38325882 C40.07180639 90.82574428 40.36072661 92.2679868 40.65092087 93.70997238 C41.05157506 95.70304435 41.44681638 97.69720214 41.84179688 99.69140625 C42.06637573 100.81748291 42.29095459 101.94355957 42.52233887 103.10375977 C43 106 43 106 43 110 C36.73 110 30.46 110 24 110 C22.68 101.75 21.36 93.5 20 85 C13.73 85 7.46 85 1 85 C1 87.31 1 89.62 1 92 C0.52517051 93.96262856 0.04844896 95.92556396 -0.4921875 97.87109375 C-1.228623 100.95845796 -1.48847984 104.05681119 -1.75390625 107.21484375 C-2 109 -2 109 -3 110 C-4.41570123 110.08651611 -5.835595 110.10704904 -7.25390625 110.09765625 C-8.10791016 110.09443359 -8.96191406 110.09121094 -9.84179688 110.08789062 C-10.73962891 110.07951172 -11.63746094 110.07113281 -12.5625 110.0625 C-13.46419922 110.05798828 -14.36589844 110.05347656 -15.29492188 110.04882812 C-17.53001314 110.03700225 -19.76497437 110.0205222 -22 110 C-21.39620609 104.82247784 -20.62587282 99.75108168 -19.60473633 94.63549805 C-19.4679245 93.94618195 -19.33111267 93.25686584 -19.19015503 92.54666138 C-18.74033097 90.28442796 -18.28632889 88.0230577 -17.83203125 85.76171875 C-17.51136294 84.15634959 -17.19086569 82.55094626 -16.87052917 80.94551086 C-16.19738129 77.57535593 -15.52215865 74.20562514 -14.84545898 70.83618164 C-13.9956158 66.60379428 -13.1508738 62.37040887 -12.30763435 58.13670158 C-8.43440104 38.70285443 -4.41061734 19.32018478 0 0 Z " fill="#FCFEFE" transform="translate(410,307)"/>
<path d="M0 0 C0.83265381 0.00523682 1.66530762 0.01047363 2.52319336 0.01586914 C3.42231445 0.0190918 4.32143555 0.02231445 5.24780273 0.02563477 C6.66609375 0.03820312 6.66609375 0.03820312 8.11303711 0.05102539 C9.06243164 0.05553711 10.01182617 0.06004883 10.98999023 0.06469727 C13.34356776 0.07652429 15.69702188 0.09300514 18.05053711 0.11352539 C19.87084357 5.15296441 21.00673571 10.20720091 22.08178711 15.44165039 C22.27402863 16.36376312 22.46627014 17.28587585 22.66433716 18.2359314 C23.29707894 21.27764697 23.92415446 24.32049435 24.55053711 27.36352539 C24.98978387 29.4877206 25.42907494 31.61190666 25.8684082 33.73608398 C27.27033213 40.52695564 28.66099147 47.32011201 30.05053711 54.11352539 C30.40807068 55.85804993 30.40807068 55.85804993 30.77282715 57.63781738 C32.19226708 64.56509587 33.60401259 71.49386821 35.00488281 78.42492676 C35.45047966 80.6265515 35.89789593 82.82780881 36.34716797 85.02868652 C36.97541567 88.11052154 37.59603931 91.19379594 38.21459961 94.27758789 C38.40160431 95.18801849 38.58860901 96.0984491 38.78128052 97.03646851 C38.94957367 97.88383575 39.11786682 98.731203 39.29125977 99.60424805 C39.43874664 100.33439117 39.58623352 101.0645343 39.7381897 101.81680298 C40.11113296 104.55909285 40.05053711 107.34599212 40.05053711 110.11352539 C34.11053711 110.11352539 28.17053711 110.11352539 22.05053711 110.11352539 C19.94429127 101.68854204 18.57260226 93.77980683 18.05053711 85.11352539 C11.45053711 85.11352539 4.85053711 85.11352539 -1.94946289 85.11352539 C-1.94946289 87.42352539 -1.94946289 89.73352539 -1.94946289 92.11352539 C-2.12345822 93.65958497 -2.33724886 95.20213695 -2.60571289 96.73461914 C-2.7275293 97.44803467 -2.8493457 98.1614502 -2.97485352 98.89648438 C-3.13147461 99.77248291 -3.2880957 100.64848145 -3.44946289 101.55102539 C-4.19196289 105.78946289 -4.19196289 105.78946289 -4.94946289 110.11352539 C-11.21946289 110.11352539 -17.48946289 110.11352539 -23.94946289 110.11352539 C-23.94946289 102.23927911 -23.94946289 102.23927911 -23.20605469 98.76953125 C-23.04095398 97.98142059 -22.87585327 97.19330994 -22.70574951 96.38131714 C-22.43000092 95.11760788 -22.43000092 95.11760788 -22.14868164 93.82836914 C-21.95638977 92.91838165 -21.7640979 92.00839417 -21.565979 91.0708313 C-20.92923235 88.06286235 -20.28302788 85.05700537 -19.63696289 82.05102539 C-18.72233043 77.74700847 -17.81256257 73.44196665 -16.90258789 69.13696289 C-16.66462997 68.01449661 -16.42667206 66.89203033 -16.1815033 65.73554993 C-14.36669308 57.1542966 -12.60724424 48.56262512 -10.87133789 39.96508789 C-10.62072098 38.72511551 -10.37010406 37.48514313 -10.1118927 36.20759583 C-9.12397453 31.31593471 -8.13712407 26.42407272 -7.15634155 21.53097534 C-6.47473813 18.13204822 -5.78865358 14.73405237 -5.10180664 11.33618164 C-4.79620819 9.80056076 -4.79620819 9.80056076 -4.48443604 8.23391724 C-4.29621277 7.30610443 -4.1079895 6.37829163 -3.9140625 5.42236328 C-3.75103134 4.61005753 -3.58800018 3.79775177 -3.42002869 2.96083069 C-2.78410918 0.46439453 -2.6006382 0.15144606 0 0 Z " fill="#FCFEFE" transform="translate(962.949462890625,306.886474609375)"/>
<path d="M0 0 C7.26 0 14.52 0 22 0 C22.50789062 2.56265625 23.01578125 5.1253125 23.5390625 7.765625 C28.15570594 31.03779413 28.15570594 31.03779413 33.0625 54.25 C35.28483129 64.47472744 37.37864625 74.72162132 39.39401245 84.9888916 C39.71188586 86.60711958 40.03129618 88.2250465 40.35232544 89.84265137 C40.79974627 92.10119291 41.24069058 94.36090165 41.6796875 96.62109375 C41.81373489 97.29375778 41.94778229 97.96642181 42.08589172 98.6594696 C42.75630101 102.15561152 43.14409639 105.43979604 43 109 C40.02077407 109.02683987 37.04178705 109.04676037 34.0625 109.0625 C32.78729492 109.07506836 32.78729492 109.07506836 31.48632812 109.08789062 C30.67744141 109.09111328 29.86855469 109.09433594 29.03515625 109.09765625 C28.2862915 109.10289307 27.53742676 109.10812988 26.76586914 109.11352539 C25 109 25 109 24 108 C23.42733138 105.48085152 22.91316329 102.9751295 22.4375 100.4375 C22.29892578 99.74591797 22.16035156 99.05433594 22.01757812 98.34179688 C21.88673828 97.65021484 21.75589844 96.95863281 21.62109375 96.24609375 C21.5017749 95.62404053 21.38245605 95.0019873 21.25952148 94.36108398 C20.8820586 90.92698846 21 87.45477789 21 84 C14.4 84 7.8 84 1 84 C0.896875 85.711875 0.79375 87.42375 0.6875 89.1875 C0.13538502 95.99962447 -1.34389295 102.37557179 -3 109 C-9.27 109 -15.54 109 -22 109 C-17.53625684 85.59051991 -12.8458309 62.22814458 -8.10651398 38.87319565 C-7.62436392 36.49686502 -7.14256687 34.12046302 -6.66082764 31.74404907 C-5.89168767 27.95064793 -5.12141906 24.15747767 -4.3502121 20.36449623 C-4.06161459 18.94466914 -3.77328546 17.52478747 -3.48523712 16.10484886 C-3.08691189 14.14198447 -2.68728553 12.17938425 -2.28759766 10.21679688 C-2.06222321 9.10848511 -1.83684875 8.00017334 -1.60464478 6.85827637 C-1.11873353 4.56127707 -0.56943292 2.27773169 0 0 Z " fill="#FCFEFE" transform="translate(725,308)"/>
<path d="M0 0 C6.52046555 3.90785117 10.28575708 9.82765278 12.65625 16.94921875 C14.05006861 24.36602326 13.51396293 31.86425199 13.30078125 39.37890625 C6.70078125 39.37890625 0.10078125 39.37890625 -6.69921875 39.37890625 C-6.71339844 37.92097656 -6.72757812 36.46304688 -6.7421875 34.9609375 C-6.78909502 33.03772903 -6.83734237 31.11455292 -6.88671875 29.19140625 C-6.89251953 28.23169922 -6.89832031 27.27199219 -6.90429688 26.28320312 C-7.05040083 21.59164267 -7.16400719 19.10857498 -10 15.2421875 C-13.30692885 12.95940159 -14.88025684 12.63699754 -18.765625 12.88671875 C-22.1190897 13.74032795 -23.6794938 15.68593965 -25.69921875 18.37890625 C-26.84526717 21.70446997 -26.83800036 24.9000589 -26.86035156 28.39746094 C-26.86995911 29.6126239 -26.87956665 30.82778687 -26.88946533 32.07977295 C-26.89584015 34.04542206 -26.89584015 34.04542206 -26.90234375 36.05078125 C-26.90517113 36.72114662 -26.9079985 37.39151199 -26.91091156 38.08219147 C-26.92588086 41.63162121 -26.9351238 45.18101057 -26.93945312 48.73046875 C-26.94492608 52.37971516 -26.96893524 56.02858625 -26.99742508 59.6777153 C-27.01614141 62.49860681 -27.02126187 65.31940965 -27.022789 68.14035797 C-27.02725108 70.1343672 -27.04585489 72.1283288 -27.0647583 74.12225342 C-27.04820427 80.89463115 -26.77967017 86.2836247 -23.69921875 92.37890625 C-20.93469842 93.76116641 -18.65308245 93.47416012 -15.57421875 93.44140625 C-14.47851562 93.43238281 -13.3828125 93.42335938 -12.25390625 93.4140625 C-11.41085937 93.40246094 -10.5678125 93.39085937 -9.69921875 93.37890625 C-8.15244047 89.91358017 -7.42454354 87.08356298 -7.28515625 83.296875 C-7.24648438 82.36552734 -7.2078125 81.43417969 -7.16796875 80.47460938 C-7.13703125 79.51490234 -7.10609375 78.55519531 -7.07421875 77.56640625 C-7.01621094 76.0978418 -7.01621094 76.0978418 -6.95703125 74.59960938 C-6.86311504 72.19300645 -6.78009311 69.78598274 -6.69921875 67.37890625 C-0.09921875 67.37890625 6.50078125 67.37890625 13.30078125 67.37890625 C13.34203125 70.01890625 13.38328125 72.65890625 13.42578125 75.37890625 C13.44398926 76.19359375 13.46219727 77.00828125 13.48095703 77.84765625 C13.54743128 86.76807128 11.2212562 94.87550482 6.30078125 102.37890625 C4.15848895 104.48198038 1.97216228 106.02057691 -0.69921875 107.37890625 C-1.3953125 107.74371094 -2.09140625 108.10851562 -2.80859375 108.484375 C-7.02476483 109.78910902 -11.06093093 109.70763513 -15.44921875 109.69140625 C-16.30515625 109.70751953 -17.16109375 109.72363281 -18.04296875 109.74023438 C-26.38361789 109.74655305 -33.89864428 108.07066424 -40.12890625 102.24609375 C-48.29049267 92.54152084 -47.86845865 81.53470213 -47.9375 69.51953125 C-47.94157553 68.85566154 -47.94565105 68.19179184 -47.94985008 67.50780487 C-47.97061431 63.99381331 -47.98495744 60.47985969 -47.99438477 56.96582031 C-48.0054313 53.36728509 -48.0398379 49.76937115 -48.07955647 46.17105484 C-48.10589625 43.37578304 -48.11409178 40.58065563 -48.11766624 37.78527069 C-48.12480575 35.82292305 -48.15116201 33.86067488 -48.17805481 31.89849854 C-48.15460829 22.13812714 -46.41938375 12.80262075 -40.32421875 4.87890625 C-30.12970342 -4.5314156 -12.32178306 -5.36623936 0 0 Z " fill="#FBFDFE" transform="translate(439.69921875,129.62109375)"/>
<path d="M0 0 C6.98374492 5.20357464 9.37011225 10.01734539 11.1875 18.375 C12.36508683 26.67573988 12.37375993 35.05817032 12.37280273 43.42504883 C12.37497896 45.54203741 12.39317998 47.65849424 12.41210938 49.77539062 C12.54974489 83.31590137 12.54974489 83.31590137 2.6875 94 C-2.03312668 98.32724112 -6.3033102 97.78821712 -12.421875 97.6875 C-18.19440828 97.15546928 -20.5586904 94.6288096 -24.5 90.6875 C-27.40509403 86.99095407 -28.61712799 82.86628213 -29.8125 78.375 C-30.14733398 77.27913574 -30.48216797 76.18327148 -30.82714844 75.05419922 C-32.30235749 69.09824096 -32.19587504 63.07350221 -32.25390625 56.96875 C-32.26767807 55.68947632 -32.28144989 54.41020264 -32.29563904 53.09216309 C-32.32101953 50.39590922 -32.33678893 47.69976539 -32.34790039 45.00341797 C-32.36448602 41.56653052 -32.42301915 38.13168691 -32.49104404 34.69548798 C-32.54681109 31.39080887 -32.55307161 28.0863681 -32.56640625 24.78125 C-32.59626114 23.55708374 -32.62611603 22.33291748 -32.65687561 21.07165527 C-32.62666309 15.18480894 -32.39519818 11.28022978 -28.49584961 6.68945312 C-21.23630519 -0.48718738 -9.76106969 -5.15881095 0 0 Z " fill="#27BDE2" transform="translate(205.8125,280.625)"/>
<path d="M0 0 C6.63920114 5.77485231 9.84898107 12.19454259 10.6875 20.9375 C10.80327913 22.62424306 10.91145865 24.31160805 11 26 C5.43930418 28.25433614 -0.0785651 28.59961828 -6 29 C-6.18175781 28.09636719 -6.36351562 27.19273437 -6.55078125 26.26171875 C-6.80214844 25.08222656 -7.05351563 23.90273438 -7.3125 22.6875 C-7.55613281 21.51574219 -7.79976562 20.34398437 -8.05078125 19.13671875 C-9.17456747 15.41248099 -9.17456747 15.41248099 -12 13 C-16.16013014 12.14958666 -19.85451454 12.3574106 -23.5625 14.4375 C-25.68295873 18.21744816 -25.76062069 21.76519292 -25 26 C-21.31166463 34.84506759 -13.64643923 40.7679644 -6.3125 46.625 C2.9011724 54.03232478 10.77067792 63.04272705 13 75 C13.7689447 83.22179331 13.16018089 90.72804841 9 98 C3.58812457 104.42195041 -2.43761479 108.4599626 -10.81640625 109.2734375 C-19.73647089 109.56963377 -28.33131388 108.17165508 -35.47265625 102.4921875 C-41.49360944 96.60982402 -43.66352987 89.1492081 -45 81 C-45 79.02 -45 77.04 -45 75 C-39.06 73.68 -33.12 72.36 -27 71 C-26.7525 73.18625 -26.505 75.3725 -26.25 77.625 C-25.46337105 83.18197167 -24.79363936 86.85070695 -21 91 C-17.86128812 92.56935594 -15.46144178 92.35201103 -12 92 C-8.89649551 90.14658666 -8.89649551 90.14658666 -7 87 C-6.15858802 80.47905714 -7.46711 75.44213256 -11.37109375 70.13671875 C-16.95915821 63.44980228 -23.61544197 57.68393278 -30.2734375 52.08984375 C-39.04257569 44.71503213 -44.17162076 37.40651523 -45.31640625 25.7890625 C-45.62939486 17.1263455 -44.25517664 10.85481444 -38.625 4.1875 C-27.72340146 -4.89716545 -12.65236704 -7.81469729 0 0 Z " fill="#FBFDFE" transform="translate(685,310)"/>
<path d="M0 0 C15.51 0 31.02 0 47 0 C47 4.95 47 9.9 47 15 C38.42 15 29.84 15 21 15 C21 25.23 21 35.46 21 46 C27.6 46 34.2 46 41 46 C41 50.62 41 55.24 41 60 C34.4 60 27.8 60 21 60 C21 71.88 21 83.76 21 96 C29.58 96 38.16 96 47 96 C47 100.62 47 105.24 47 110 C31.49 110 15.98 110 0 110 C0 73.7 0 37.4 0 0 Z " fill="#F8FDFE" transform="translate(969,128)"/>
<path d="M0 0 C15.18 0 30.36 0 46 0 C46 4.95 46 9.9 46 15 C37.42 15 28.84 15 20 15 C20 25.23 20 35.46 20 46 C26.93 46 33.86 46 41 46 C41 50.62 41 55.24 41 60 C34.07 60 27.14 60 20 60 C20 71.88 20 83.76 20 96 C28.58 96 37.16 96 46 96 C46 100.62 46 105.24 46 110 C30.82 110 15.64 110 0 110 C0 73.7 0 37.4 0 0 Z " fill="#FCFEFE" transform="translate(522,128)"/>
<path d="M0 0 C7.28421977 -0.02255606 14.56842059 -0.04091801 21.85266781 -0.05181217 C25.23471813 -0.05703975 28.6167434 -0.06413511 31.9987793 -0.07543945 C35.88329777 -0.08834267 39.76780597 -0.09322924 43.65234375 -0.09765625 C44.87211411 -0.10281754 46.09188446 -0.10797882 47.34861755 -0.11329651 C49.03024742 -0.11340981 49.03024742 -0.11340981 50.74584961 -0.11352539 C51.73846298 -0.115746 52.73107635 -0.11796661 53.75376892 -0.12025452 C56 0 56 0 57 1 C57.09909302 3.33160055 57.12970504 5.66629942 57.125 8 C57.12886719 9.918125 57.12886719 9.918125 57.1328125 11.875 C57 15 57 15 56 16 C50.39 16 44.78 16 39 16 C39 47.02 39 78.04 39 110 C32.07 110 25.14 110 18 110 C18 78.98 18 47.96 18 16 C12.06 16 6.12 16 0 16 C0 10.72 0 5.44 0 0 Z " fill="#F5FCFD" transform="translate(1002,307)"/>
<path d="M0 0 C18.81 0 37.62 0 57 0 C57 4.95 57 9.9 57 15 C51.06 15 45.12 15 39 15 C39 46.35 39 77.7 39 110 C32.07 110 25.14 110 18 110 C18 78.65 18 47.3 18 15 C12.06 15 6.12 15 0 15 C0 10.05 0 5.1 0 0 Z " fill="#F7FCFE" transform="translate(905,128)"/>
<path d="M0 0 C18.81 0 37.62 0 57 0 C57 4.62 57 9.24 57 14 C56.67 14.33 56.34 14.66 56 15 C50.39 15 44.78 15 39 15 C39 46.02 39 77.04 39 109 C32.07 109 25.14 109 18 109 C18 77.65 18 46.3 18 14 C12.06 14 6.12 14 0 14 C0 9.38 0 4.76 0 0 Z " fill="#F8FCFE" transform="translate(880,308)"/>
<path d="M0 0 C6.6 0 13.2 0 20 0 C20 31.68 20 63.36 20 96 C28.58 96 37.16 96 46 96 C46 100.62 46 105.24 46 110 C30.82 110 15.64 110 0 110 C0 73.7 0 37.4 0 0 Z " fill="#FEFEFE" transform="translate(466,128)"/>
<path d="M0 0 C6.6 0 13.2 0 20 0 C20 36.3 20 72.6 20 110 C13.4 110 6.8 110 0 110 C0 73.7 0 37.4 0 0 Z " fill="#FBFDFE" transform="translate(1067,307)"/>
<path d="M0 0 C6.6 0 13.2 0 20 0 C20 36.3 20 72.6 20 110 C13.4 110 6.8 110 0 110 C0 73.7 0 37.4 0 0 Z " fill="#FEFEFE" transform="translate(852,307)"/>
<path d="M0 0 C4.08278388 2.39641663 5.57817286 4.5659316 7 9 C7.26069641 12.02854919 7.26069641 12.02854919 7.2746582 15.43920898 C7.28895622 17.36161659 7.28895622 17.36161659 7.30354309 19.32286072 C7.30328164 20.71393868 7.30234451 22.10501665 7.30078125 23.49609375 C7.30467153 24.93189111 7.30900688 26.36768732 7.31376648 27.80348206 C7.32121529 30.80856054 7.32094713 33.81352151 7.31567383 36.81860352 C7.30988012 40.65973293 7.32681383 44.50038001 7.3500185 48.34142971 C7.36478686 51.3055144 7.36562336 54.26948374 7.36250877 57.23359871 C7.3630204 58.64931252 7.36822834 60.06503305 7.37832069 61.48071098 C7.39072699 63.46423503 7.3819311 65.44785695 7.37231445 67.43139648 C7.37294388 68.55770981 7.3735733 69.68402313 7.3742218 70.84446716 C6.82887998 75.44292727 5.30491299 78.81022639 1.875 81.9375 C-2.16830302 83.43176416 -5.9575065 83.61284415 -10 82 C-13.55458899 79.15153251 -14.80095046 77.3788366 -15.45861816 72.82310486 C-15.63017892 68.70552971 -15.64257963 64.61570896 -15.59375 60.49609375 C-15.5920374 58.96965123 -15.5921061 57.44320577 -15.59387207 55.91676331 C-15.59222225 52.72490116 -15.57358599 49.53374428 -15.54199219 46.34204102 C-15.50228125 42.25751658 -15.49795281 38.17391334 -15.50545502 34.08923244 C-15.50852889 30.93984079 -15.49639006 27.790655 -15.47932434 24.64131355 C-15.4723104 23.1354813 -15.46916786 21.62962573 -15.47001648 20.12377739 C-15.46821232 18.01755711 -15.44678142 15.91242735 -15.41992188 13.80639648 C-15.41150269 12.60981918 -15.4030835 11.41324188 -15.39440918 10.18040466 C-14.9625556 6.69805888 -14.0582219 4.81076476 -12 2 C-8.53596584 -0.69424879 -4.20471068 -0.67710053 0 0 Z " fill="#28BDE2" transform="translate(1137,321)"/>
<path d="M0 0 C13.77777778 0 13.77777778 0 18 4 C20.15534897 7.35501777 20.25294934 10.10703873 20.25878906 14.05029297 C20.26509338 15.27191132 20.27139771 16.49352966 20.27789307 17.75216675 C20.2738446 19.0688736 20.26979614 20.38558044 20.265625 21.7421875 C20.26697317 23.1121528 20.26891497 24.48211763 20.27142334 25.8520813 C20.27436946 28.72190918 20.27009484 31.59161241 20.26074219 34.46142578 C20.2493694 38.12874257 20.25589638 41.79576589 20.26788712 45.46307182 C20.27513802 48.29247215 20.27280264 51.12180373 20.26763153 53.95120621 C20.26565915 55.95745281 20.27170549 57.96370215 20.27789307 59.96994019 C20.27158875 61.19786285 20.26528442 62.42578552 20.25878906 63.69091797 C20.25640228 65.30497025 20.25640228 65.30497025 20.25396729 66.95162964 C19.88223139 71.41357711 18.95399687 74.86135857 16.0625 78.3125 C10.95298297 82.49301393 7.33122072 81 0 81 C0 54.27 0 27.54 0 0 Z " fill="#29BEE2" transform="translate(556,322)"/>
<path d="M0 0 C14.07407407 0 14.07407407 0 19 4 C21.60596266 7.59384394 21.33207032 11.60866993 21.3125 15.875 C21.32861328 16.56980469 21.34472656 17.26460937 21.36132812 17.98046875 C21.36580345 22.73325931 20.55943171 25.99601784 18 30 C11.68857469 33.94464082 8.13712741 33 0 33 C0 22.11 0 11.22 0 0 Z " fill="#2EBFE3" transform="translate(1046,142)"/>
<path d="M0 0 C0.66 0 1.32 0 2 0 C2.86064095 5.15850486 3.71493646 10.31800642 4.56347656 15.47851562 C4.85276739 17.23238172 5.14376261 18.9859676 5.43652344 20.73925781 C5.85805012 23.26555036 6.27335205 25.79280116 6.6875 28.3203125 C6.81874268 29.09867462 6.94998535 29.87703674 7.08520508 30.6789856 C7.26539185 31.78945755 7.26539185 31.78945755 7.44921875 32.92236328 C7.55580811 33.56634064 7.66239746 34.21031799 7.7722168 34.87380981 C8.06087094 37.56818587 8 40.29020599 8 43 C3.38 43 -1.24 43 -6 43 C-4.59894438 28.56544008 -2.38766194 14.30164323 0 0 Z " fill="#36C2E4" transform="translate(873,157)"/>
<path d="M0 0 C2.71946234 2.71946234 2.65536936 4.80461735 3.25390625 8.58984375 C3.35968491 9.24900284 3.46546356 9.90816193 3.57444763 10.58729553 C3.79754975 11.98800778 4.01668547 13.38935662 4.23217773 14.79125977 C4.55664711 16.89947136 4.89336628 19.00541889 5.23242188 21.11132812 C6.44124011 28.72414567 7.40544273 36.31083803 8 44 C3.38 44 -1.24 44 -6 44 C-5.38531557 34.08733044 -4.08100471 24.46503779 -2.4375 14.6875 C-2.20066457 13.25333889 -1.9643337 11.81909437 -1.72851562 10.38476562 C-1.15813347 6.92219989 -0.58101481 3.46079949 0 0 Z " fill="#33C1E3" transform="translate(420,335)"/>
<path d="M0 0 C0.33 0 0.66 0 1 0 C1.16604736 1.08716309 1.16604736 1.08716309 1.33544922 2.19628906 C1.84780383 5.54765337 2.3613963 8.8988269 2.875 12.25 C3.04902344 13.38953125 3.22304688 14.5290625 3.40234375 15.703125 C4.40537389 22.24139551 5.45959932 28.76312889 6.63720703 35.27246094 C7 38 7 38 7 44 C2.38 44 -2.24 44 -7 44 C-6.39910692 36.35113183 -5.39140964 28.91684354 -4 21.375 C-2.99351133 15.8757793 -2.000802 10.41637018 -1.4375 4.8515625 C-1 1 -1 1 0 0 Z " fill="#34C1E3" transform="translate(606,156)"/>
<path d="M0 0 C0.33 0 0.66 0 1 0 C1.86080726 5.01603381 2.71509462 10.03311921 3.56347656 15.05126953 C3.85272134 16.75664895 4.14371547 18.46173266 4.43652344 20.16650391 C4.85817295 22.62325767 5.27342718 25.08102181 5.6875 27.5390625 C5.81874268 28.29555084 5.94998535 29.05203918 6.08520508 29.83145142 C6.20532959 30.5517453 6.3254541 31.27203918 6.44921875 32.01416016 C6.55580811 32.64037262 6.66239746 33.26658508 6.7722168 33.91177368 C7.06468582 36.593014 7 39.30285562 7 42 C2.38 42 -2.24 42 -7 42 C-6.02662951 31.74118731 -4.69572703 21.59340723 -2.9375 11.4375 C-2.7631543 10.42034912 -2.58880859 9.40319824 -2.40917969 8.35522461 C-1.12801837 1.12801837 -1.12801837 1.12801837 0 0 Z " fill="#32C0E3" transform="translate(971,337)"/>
<path d="M0 0 C0.33 0 0.66 0 1 0 C1.82358766 4.3938288 2.63176556 8.79036524 3.4375 13.1875 C3.66759766 14.41404297 3.89769531 15.64058594 4.13476562 16.90429688 C5.59884287 24.94611246 6.50251599 32.84011859 7 41 C2.38 41 -2.24 41 -7 41 C-6.3327883 32.79398388 -5.31110084 24.69929285 -4.0625 16.5625 C-3.89298828 15.40556641 -3.72347656 14.24863281 -3.54882812 13.05664062 C-3.37931641 11.94611328 -3.20980469 10.83558594 -3.03515625 9.69140625 C-2.8844165 8.69310791 -2.73367676 7.69480957 -2.57836914 6.66625977 C-2.03065834 4.1413338 -1.27133845 2.23504685 0 0 Z " fill="#32C0E3" transform="translate(736,338)"/>
</svg>
